M48
;DRILL file {KiCad (5.0.0)} date 09/26/18 10:32:23
;FORMAT={-:-/ absolute / metric / decimal}
FMAT,2
METRIC,TZ
T1C0.400
T2C0.700
%
G90
G05
M71
T1
X29.2Y-45.2
X30.5Y-32.
X34.4Y-39.3
X38.3Y-31.9
X39.308Y-35.9
X40.2Y-35.
X41.3Y-45.9
X41.4Y-42.7
X41.5Y-39.7
X42.2Y-37.
X42.984Y-40.884
X43.734Y-40.134
X44.7Y-33.6
X44.8Y-28.2
X46.4Y-31.3
X47.975Y-31.
X49.025Y-31.
X51.4Y-29.1
X52.3Y-42.4
T2
X38.308Y-34.9
X38.308Y-38.492
X41.9Y-34.9
X41.9Y-38.492
T0
M30
