G04 #@! TF.GenerationSoftware,KiCad,Pcbnew,(5.0.0)*
G04 #@! TF.CreationDate,2018-09-26T10:31:33+02:00*
G04 #@! TF.ProjectId,OpenThermalCamera,4F70656E546865726D616C43616D6572,rev?*
G04 #@! TF.SameCoordinates,Original*
G04 #@! TF.FileFunction,Soldermask,Top*
G04 #@! TF.FilePolarity,Negative*
%FSLAX46Y46*%
G04 Gerber Fmt 4.6, Leading zero omitted, Abs format (unit mm)*
G04 Created by KiCad (PCBNEW (5.0.0)) date 09/26/18 10:31:33*
%MOMM*%
%LPD*%
G01*
G04 APERTURE LIST*
%ADD10R,1.300000X2.600000*%
%ADD11R,2.400000X2.600000*%
%ADD12C,3.100000*%
%ADD13C,0.100000*%
%ADD14C,1.550000*%
%ADD15R,1.050000X1.960000*%
%ADD16R,0.800000X1.050000*%
%ADD17C,1.600000*%
%ADD18C,1.600000*%
G04 APERTURE END LIST*
D10*
G04 #@! TO.C,J2*
X39250000Y-28900000D03*
D11*
X37000000Y-28900000D03*
X43000000Y-28900000D03*
D10*
X40650000Y-28900000D03*
G04 #@! TD*
D12*
G04 #@! TO.C,MH1*
X50000000Y-37000000D03*
G04 #@! TD*
G04 #@! TO.C,MH2*
X30000000Y-37000000D03*
G04 #@! TD*
D13*
G04 #@! TO.C,C6*
G36*
X51296071Y-41901623D02*
X51328781Y-41906475D01*
X51360857Y-41914509D01*
X51391991Y-41925649D01*
X51421884Y-41939787D01*
X51450247Y-41956787D01*
X51476807Y-41976485D01*
X51501308Y-41998692D01*
X51523515Y-42023193D01*
X51543213Y-42049753D01*
X51560213Y-42078116D01*
X51574351Y-42108009D01*
X51585491Y-42139143D01*
X51593525Y-42171219D01*
X51598377Y-42203929D01*
X51600000Y-42236956D01*
X51600000Y-43113044D01*
X51598377Y-43146071D01*
X51593525Y-43178781D01*
X51585491Y-43210857D01*
X51574351Y-43241991D01*
X51560213Y-43271884D01*
X51543213Y-43300247D01*
X51523515Y-43326807D01*
X51501308Y-43351308D01*
X51476807Y-43373515D01*
X51450247Y-43393213D01*
X51421884Y-43410213D01*
X51391991Y-43424351D01*
X51360857Y-43435491D01*
X51328781Y-43443525D01*
X51296071Y-43448377D01*
X51263044Y-43450000D01*
X50136956Y-43450000D01*
X50103929Y-43448377D01*
X50071219Y-43443525D01*
X50039143Y-43435491D01*
X50008009Y-43424351D01*
X49978116Y-43410213D01*
X49949753Y-43393213D01*
X49923193Y-43373515D01*
X49898692Y-43351308D01*
X49876485Y-43326807D01*
X49856787Y-43300247D01*
X49839787Y-43271884D01*
X49825649Y-43241991D01*
X49814509Y-43210857D01*
X49806475Y-43178781D01*
X49801623Y-43146071D01*
X49800000Y-43113044D01*
X49800000Y-42236956D01*
X49801623Y-42203929D01*
X49806475Y-42171219D01*
X49814509Y-42139143D01*
X49825649Y-42108009D01*
X49839787Y-42078116D01*
X49856787Y-42049753D01*
X49876485Y-42023193D01*
X49898692Y-41998692D01*
X49923193Y-41976485D01*
X49949753Y-41956787D01*
X49978116Y-41939787D01*
X50008009Y-41925649D01*
X50039143Y-41914509D01*
X50071219Y-41906475D01*
X50103929Y-41901623D01*
X50136956Y-41900000D01*
X51263044Y-41900000D01*
X51296071Y-41901623D01*
X51296071Y-41901623D01*
G37*
D14*
X50700000Y-42675000D03*
D13*
G36*
X51296071Y-43951623D02*
X51328781Y-43956475D01*
X51360857Y-43964509D01*
X51391991Y-43975649D01*
X51421884Y-43989787D01*
X51450247Y-44006787D01*
X51476807Y-44026485D01*
X51501308Y-44048692D01*
X51523515Y-44073193D01*
X51543213Y-44099753D01*
X51560213Y-44128116D01*
X51574351Y-44158009D01*
X51585491Y-44189143D01*
X51593525Y-44221219D01*
X51598377Y-44253929D01*
X51600000Y-44286956D01*
X51600000Y-45163044D01*
X51598377Y-45196071D01*
X51593525Y-45228781D01*
X51585491Y-45260857D01*
X51574351Y-45291991D01*
X51560213Y-45321884D01*
X51543213Y-45350247D01*
X51523515Y-45376807D01*
X51501308Y-45401308D01*
X51476807Y-45423515D01*
X51450247Y-45443213D01*
X51421884Y-45460213D01*
X51391991Y-45474351D01*
X51360857Y-45485491D01*
X51328781Y-45493525D01*
X51296071Y-45498377D01*
X51263044Y-45500000D01*
X50136956Y-45500000D01*
X50103929Y-45498377D01*
X50071219Y-45493525D01*
X50039143Y-45485491D01*
X50008009Y-45474351D01*
X49978116Y-45460213D01*
X49949753Y-45443213D01*
X49923193Y-45423515D01*
X49898692Y-45401308D01*
X49876485Y-45376807D01*
X49856787Y-45350247D01*
X49839787Y-45321884D01*
X49825649Y-45291991D01*
X49814509Y-45260857D01*
X49806475Y-45228781D01*
X49801623Y-45196071D01*
X49800000Y-45163044D01*
X49800000Y-44286956D01*
X49801623Y-44253929D01*
X49806475Y-44221219D01*
X49814509Y-44189143D01*
X49825649Y-44158009D01*
X49839787Y-44128116D01*
X49856787Y-44099753D01*
X49876485Y-44073193D01*
X49898692Y-44048692D01*
X49923193Y-44026485D01*
X49949753Y-44006787D01*
X49978116Y-43989787D01*
X50008009Y-43975649D01*
X50039143Y-43964509D01*
X50071219Y-43956475D01*
X50103929Y-43951623D01*
X50136956Y-43950000D01*
X51263044Y-43950000D01*
X51296071Y-43951623D01*
X51296071Y-43951623D01*
G37*
D14*
X50700000Y-44725000D03*
G04 #@! TD*
D13*
G04 #@! TO.C,C3*
G36*
X45546071Y-39301623D02*
X45578781Y-39306475D01*
X45610857Y-39314509D01*
X45641991Y-39325649D01*
X45671884Y-39339787D01*
X45700247Y-39356787D01*
X45726807Y-39376485D01*
X45751308Y-39398692D01*
X45773515Y-39423193D01*
X45793213Y-39449753D01*
X45810213Y-39478116D01*
X45824351Y-39508009D01*
X45835491Y-39539143D01*
X45843525Y-39571219D01*
X45848377Y-39603929D01*
X45850000Y-39636956D01*
X45850000Y-40763044D01*
X45848377Y-40796071D01*
X45843525Y-40828781D01*
X45835491Y-40860857D01*
X45824351Y-40891991D01*
X45810213Y-40921884D01*
X45793213Y-40950247D01*
X45773515Y-40976807D01*
X45751308Y-41001308D01*
X45726807Y-41023515D01*
X45700247Y-41043213D01*
X45671884Y-41060213D01*
X45641991Y-41074351D01*
X45610857Y-41085491D01*
X45578781Y-41093525D01*
X45546071Y-41098377D01*
X45513044Y-41100000D01*
X44636956Y-41100000D01*
X44603929Y-41098377D01*
X44571219Y-41093525D01*
X44539143Y-41085491D01*
X44508009Y-41074351D01*
X44478116Y-41060213D01*
X44449753Y-41043213D01*
X44423193Y-41023515D01*
X44398692Y-41001308D01*
X44376485Y-40976807D01*
X44356787Y-40950247D01*
X44339787Y-40921884D01*
X44325649Y-40891991D01*
X44314509Y-40860857D01*
X44306475Y-40828781D01*
X44301623Y-40796071D01*
X44300000Y-40763044D01*
X44300000Y-39636956D01*
X44301623Y-39603929D01*
X44306475Y-39571219D01*
X44314509Y-39539143D01*
X44325649Y-39508009D01*
X44339787Y-39478116D01*
X44356787Y-39449753D01*
X44376485Y-39423193D01*
X44398692Y-39398692D01*
X44423193Y-39376485D01*
X44449753Y-39356787D01*
X44478116Y-39339787D01*
X44508009Y-39325649D01*
X44539143Y-39314509D01*
X44571219Y-39306475D01*
X44603929Y-39301623D01*
X44636956Y-39300000D01*
X45513044Y-39300000D01*
X45546071Y-39301623D01*
X45546071Y-39301623D01*
G37*
D14*
X45075000Y-40200000D03*
D13*
G36*
X47596071Y-39301623D02*
X47628781Y-39306475D01*
X47660857Y-39314509D01*
X47691991Y-39325649D01*
X47721884Y-39339787D01*
X47750247Y-39356787D01*
X47776807Y-39376485D01*
X47801308Y-39398692D01*
X47823515Y-39423193D01*
X47843213Y-39449753D01*
X47860213Y-39478116D01*
X47874351Y-39508009D01*
X47885491Y-39539143D01*
X47893525Y-39571219D01*
X47898377Y-39603929D01*
X47900000Y-39636956D01*
X47900000Y-40763044D01*
X47898377Y-40796071D01*
X47893525Y-40828781D01*
X47885491Y-40860857D01*
X47874351Y-40891991D01*
X47860213Y-40921884D01*
X47843213Y-40950247D01*
X47823515Y-40976807D01*
X47801308Y-41001308D01*
X47776807Y-41023515D01*
X47750247Y-41043213D01*
X47721884Y-41060213D01*
X47691991Y-41074351D01*
X47660857Y-41085491D01*
X47628781Y-41093525D01*
X47596071Y-41098377D01*
X47563044Y-41100000D01*
X46686956Y-41100000D01*
X46653929Y-41098377D01*
X46621219Y-41093525D01*
X46589143Y-41085491D01*
X46558009Y-41074351D01*
X46528116Y-41060213D01*
X46499753Y-41043213D01*
X46473193Y-41023515D01*
X46448692Y-41001308D01*
X46426485Y-40976807D01*
X46406787Y-40950247D01*
X46389787Y-40921884D01*
X46375649Y-40891991D01*
X46364509Y-40860857D01*
X46356475Y-40828781D01*
X46351623Y-40796071D01*
X46350000Y-40763044D01*
X46350000Y-39636956D01*
X46351623Y-39603929D01*
X46356475Y-39571219D01*
X46364509Y-39539143D01*
X46375649Y-39508009D01*
X46389787Y-39478116D01*
X46406787Y-39449753D01*
X46426485Y-39423193D01*
X46448692Y-39398692D01*
X46473193Y-39376485D01*
X46499753Y-39356787D01*
X46528116Y-39339787D01*
X46558009Y-39325649D01*
X46589143Y-39314509D01*
X46621219Y-39306475D01*
X46653929Y-39301623D01*
X46686956Y-39300000D01*
X47563044Y-39300000D01*
X47596071Y-39301623D01*
X47596071Y-39301623D01*
G37*
D14*
X47125000Y-40200000D03*
G04 #@! TD*
D13*
G04 #@! TO.C,C2*
G36*
X43396071Y-42001623D02*
X43428781Y-42006475D01*
X43460857Y-42014509D01*
X43491991Y-42025649D01*
X43521884Y-42039787D01*
X43550247Y-42056787D01*
X43576807Y-42076485D01*
X43601308Y-42098692D01*
X43623515Y-42123193D01*
X43643213Y-42149753D01*
X43660213Y-42178116D01*
X43674351Y-42208009D01*
X43685491Y-42239143D01*
X43693525Y-42271219D01*
X43698377Y-42303929D01*
X43700000Y-42336956D01*
X43700000Y-43213044D01*
X43698377Y-43246071D01*
X43693525Y-43278781D01*
X43685491Y-43310857D01*
X43674351Y-43341991D01*
X43660213Y-43371884D01*
X43643213Y-43400247D01*
X43623515Y-43426807D01*
X43601308Y-43451308D01*
X43576807Y-43473515D01*
X43550247Y-43493213D01*
X43521884Y-43510213D01*
X43491991Y-43524351D01*
X43460857Y-43535491D01*
X43428781Y-43543525D01*
X43396071Y-43548377D01*
X43363044Y-43550000D01*
X42236956Y-43550000D01*
X42203929Y-43548377D01*
X42171219Y-43543525D01*
X42139143Y-43535491D01*
X42108009Y-43524351D01*
X42078116Y-43510213D01*
X42049753Y-43493213D01*
X42023193Y-43473515D01*
X41998692Y-43451308D01*
X41976485Y-43426807D01*
X41956787Y-43400247D01*
X41939787Y-43371884D01*
X41925649Y-43341991D01*
X41914509Y-43310857D01*
X41906475Y-43278781D01*
X41901623Y-43246071D01*
X41900000Y-43213044D01*
X41900000Y-42336956D01*
X41901623Y-42303929D01*
X41906475Y-42271219D01*
X41914509Y-42239143D01*
X41925649Y-42208009D01*
X41939787Y-42178116D01*
X41956787Y-42149753D01*
X41976485Y-42123193D01*
X41998692Y-42098692D01*
X42023193Y-42076485D01*
X42049753Y-42056787D01*
X42078116Y-42039787D01*
X42108009Y-42025649D01*
X42139143Y-42014509D01*
X42171219Y-42006475D01*
X42203929Y-42001623D01*
X42236956Y-42000000D01*
X43363044Y-42000000D01*
X43396071Y-42001623D01*
X43396071Y-42001623D01*
G37*
D14*
X42800000Y-42775000D03*
D13*
G36*
X43396071Y-44051623D02*
X43428781Y-44056475D01*
X43460857Y-44064509D01*
X43491991Y-44075649D01*
X43521884Y-44089787D01*
X43550247Y-44106787D01*
X43576807Y-44126485D01*
X43601308Y-44148692D01*
X43623515Y-44173193D01*
X43643213Y-44199753D01*
X43660213Y-44228116D01*
X43674351Y-44258009D01*
X43685491Y-44289143D01*
X43693525Y-44321219D01*
X43698377Y-44353929D01*
X43700000Y-44386956D01*
X43700000Y-45263044D01*
X43698377Y-45296071D01*
X43693525Y-45328781D01*
X43685491Y-45360857D01*
X43674351Y-45391991D01*
X43660213Y-45421884D01*
X43643213Y-45450247D01*
X43623515Y-45476807D01*
X43601308Y-45501308D01*
X43576807Y-45523515D01*
X43550247Y-45543213D01*
X43521884Y-45560213D01*
X43491991Y-45574351D01*
X43460857Y-45585491D01*
X43428781Y-45593525D01*
X43396071Y-45598377D01*
X43363044Y-45600000D01*
X42236956Y-45600000D01*
X42203929Y-45598377D01*
X42171219Y-45593525D01*
X42139143Y-45585491D01*
X42108009Y-45574351D01*
X42078116Y-45560213D01*
X42049753Y-45543213D01*
X42023193Y-45523515D01*
X41998692Y-45501308D01*
X41976485Y-45476807D01*
X41956787Y-45450247D01*
X41939787Y-45421884D01*
X41925649Y-45391991D01*
X41914509Y-45360857D01*
X41906475Y-45328781D01*
X41901623Y-45296071D01*
X41900000Y-45263044D01*
X41900000Y-44386956D01*
X41901623Y-44353929D01*
X41906475Y-44321219D01*
X41914509Y-44289143D01*
X41925649Y-44258009D01*
X41939787Y-44228116D01*
X41956787Y-44199753D01*
X41976485Y-44173193D01*
X41998692Y-44148692D01*
X42023193Y-44126485D01*
X42049753Y-44106787D01*
X42078116Y-44089787D01*
X42108009Y-44075649D01*
X42139143Y-44064509D01*
X42171219Y-44056475D01*
X42203929Y-44051623D01*
X42236956Y-44050000D01*
X43363044Y-44050000D01*
X43396071Y-44051623D01*
X43396071Y-44051623D01*
G37*
D14*
X42800000Y-44825000D03*
G04 #@! TD*
D13*
G04 #@! TO.C,C1*
G36*
X49196071Y-43951623D02*
X49228781Y-43956475D01*
X49260857Y-43964509D01*
X49291991Y-43975649D01*
X49321884Y-43989787D01*
X49350247Y-44006787D01*
X49376807Y-44026485D01*
X49401308Y-44048692D01*
X49423515Y-44073193D01*
X49443213Y-44099753D01*
X49460213Y-44128116D01*
X49474351Y-44158009D01*
X49485491Y-44189143D01*
X49493525Y-44221219D01*
X49498377Y-44253929D01*
X49500000Y-44286956D01*
X49500000Y-45163044D01*
X49498377Y-45196071D01*
X49493525Y-45228781D01*
X49485491Y-45260857D01*
X49474351Y-45291991D01*
X49460213Y-45321884D01*
X49443213Y-45350247D01*
X49423515Y-45376807D01*
X49401308Y-45401308D01*
X49376807Y-45423515D01*
X49350247Y-45443213D01*
X49321884Y-45460213D01*
X49291991Y-45474351D01*
X49260857Y-45485491D01*
X49228781Y-45493525D01*
X49196071Y-45498377D01*
X49163044Y-45500000D01*
X48036956Y-45500000D01*
X48003929Y-45498377D01*
X47971219Y-45493525D01*
X47939143Y-45485491D01*
X47908009Y-45474351D01*
X47878116Y-45460213D01*
X47849753Y-45443213D01*
X47823193Y-45423515D01*
X47798692Y-45401308D01*
X47776485Y-45376807D01*
X47756787Y-45350247D01*
X47739787Y-45321884D01*
X47725649Y-45291991D01*
X47714509Y-45260857D01*
X47706475Y-45228781D01*
X47701623Y-45196071D01*
X47700000Y-45163044D01*
X47700000Y-44286956D01*
X47701623Y-44253929D01*
X47706475Y-44221219D01*
X47714509Y-44189143D01*
X47725649Y-44158009D01*
X47739787Y-44128116D01*
X47756787Y-44099753D01*
X47776485Y-44073193D01*
X47798692Y-44048692D01*
X47823193Y-44026485D01*
X47849753Y-44006787D01*
X47878116Y-43989787D01*
X47908009Y-43975649D01*
X47939143Y-43964509D01*
X47971219Y-43956475D01*
X48003929Y-43951623D01*
X48036956Y-43950000D01*
X49163044Y-43950000D01*
X49196071Y-43951623D01*
X49196071Y-43951623D01*
G37*
D14*
X48600000Y-44725000D03*
D13*
G36*
X49196071Y-41901623D02*
X49228781Y-41906475D01*
X49260857Y-41914509D01*
X49291991Y-41925649D01*
X49321884Y-41939787D01*
X49350247Y-41956787D01*
X49376807Y-41976485D01*
X49401308Y-41998692D01*
X49423515Y-42023193D01*
X49443213Y-42049753D01*
X49460213Y-42078116D01*
X49474351Y-42108009D01*
X49485491Y-42139143D01*
X49493525Y-42171219D01*
X49498377Y-42203929D01*
X49500000Y-42236956D01*
X49500000Y-43113044D01*
X49498377Y-43146071D01*
X49493525Y-43178781D01*
X49485491Y-43210857D01*
X49474351Y-43241991D01*
X49460213Y-43271884D01*
X49443213Y-43300247D01*
X49423515Y-43326807D01*
X49401308Y-43351308D01*
X49376807Y-43373515D01*
X49350247Y-43393213D01*
X49321884Y-43410213D01*
X49291991Y-43424351D01*
X49260857Y-43435491D01*
X49228781Y-43443525D01*
X49196071Y-43448377D01*
X49163044Y-43450000D01*
X48036956Y-43450000D01*
X48003929Y-43448377D01*
X47971219Y-43443525D01*
X47939143Y-43435491D01*
X47908009Y-43424351D01*
X47878116Y-43410213D01*
X47849753Y-43393213D01*
X47823193Y-43373515D01*
X47798692Y-43351308D01*
X47776485Y-43326807D01*
X47756787Y-43300247D01*
X47739787Y-43271884D01*
X47725649Y-43241991D01*
X47714509Y-43210857D01*
X47706475Y-43178781D01*
X47701623Y-43146071D01*
X47700000Y-43113044D01*
X47700000Y-42236956D01*
X47701623Y-42203929D01*
X47706475Y-42171219D01*
X47714509Y-42139143D01*
X47725649Y-42108009D01*
X47739787Y-42078116D01*
X47756787Y-42049753D01*
X47776485Y-42023193D01*
X47798692Y-41998692D01*
X47823193Y-41976485D01*
X47849753Y-41956787D01*
X47878116Y-41939787D01*
X47908009Y-41925649D01*
X47939143Y-41914509D01*
X47971219Y-41906475D01*
X48003929Y-41901623D01*
X48036956Y-41900000D01*
X49163044Y-41900000D01*
X49196071Y-41901623D01*
X49196071Y-41901623D01*
G37*
D14*
X48600000Y-42675000D03*
G04 #@! TD*
D15*
G04 #@! TO.C,U2*
X46650000Y-42250000D03*
X45700000Y-42250000D03*
X44750000Y-42250000D03*
X44750000Y-44950000D03*
X46650000Y-44950000D03*
G04 #@! TD*
D16*
G04 #@! TO.C,U4*
X45750000Y-30050000D03*
X47050000Y-30050000D03*
X46400000Y-28150000D03*
X46400000Y-30050000D03*
X47050000Y-28150000D03*
X45750000Y-28150000D03*
G04 #@! TD*
D17*
G04 #@! TO.C,U1*
X41900000Y-34900000D03*
D18*
X42041421Y-34758579D02*
X41758579Y-35041421D01*
D17*
X38307898Y-34900000D03*
D18*
X38307898Y-34900000D02*
X38307898Y-34900000D01*
D17*
X38307898Y-38492102D03*
D18*
X38307898Y-38492102D02*
X38307898Y-38492102D01*
D17*
X41900000Y-38492102D03*
D18*
X41900000Y-38492102D02*
X41900000Y-38492102D01*
G04 #@! TD*
M02*
