G04 #@! TF.GenerationSoftware,KiCad,Pcbnew,(5.0.0)*
G04 #@! TF.CreationDate,2018-09-26T10:31:33+02:00*
G04 #@! TF.ProjectId,OpenThermalCamera,4F70656E546865726D616C43616D6572,rev?*
G04 #@! TF.SameCoordinates,Original*
G04 #@! TF.FileFunction,Soldermask,Bot*
G04 #@! TF.FilePolarity,Negative*
%FSLAX46Y46*%
G04 Gerber Fmt 4.6, Leading zero omitted, Abs format (unit mm)*
G04 Created by KiCad (PCBNEW (5.0.0)) date 09/26/18 10:31:33*
%MOMM*%
%LPD*%
G01*
G04 APERTURE LIST*
%ADD10C,3.100000*%
%ADD11R,2.580000X2.000000*%
%ADD12C,0.100000*%
%ADD13C,1.550000*%
%ADD14R,2.800000X1.140000*%
%ADD15R,1.850000X0.850000*%
%ADD16C,1.600000*%
%ADD17C,1.600000*%
G04 APERTURE END LIST*
D10*
G04 #@! TO.C,MH1*
X50000000Y-37000000D03*
G04 #@! TD*
G04 #@! TO.C,MH2*
X30000000Y-37000000D03*
G04 #@! TD*
D11*
G04 #@! TO.C,SW1*
X31710000Y-29000000D03*
X40890000Y-29000000D03*
G04 #@! TD*
D12*
G04 #@! TO.C,C5*
G36*
X34596071Y-34901623D02*
X34628781Y-34906475D01*
X34660857Y-34914509D01*
X34691991Y-34925649D01*
X34721884Y-34939787D01*
X34750247Y-34956787D01*
X34776807Y-34976485D01*
X34801308Y-34998692D01*
X34823515Y-35023193D01*
X34843213Y-35049753D01*
X34860213Y-35078116D01*
X34874351Y-35108009D01*
X34885491Y-35139143D01*
X34893525Y-35171219D01*
X34898377Y-35203929D01*
X34900000Y-35236956D01*
X34900000Y-36113044D01*
X34898377Y-36146071D01*
X34893525Y-36178781D01*
X34885491Y-36210857D01*
X34874351Y-36241991D01*
X34860213Y-36271884D01*
X34843213Y-36300247D01*
X34823515Y-36326807D01*
X34801308Y-36351308D01*
X34776807Y-36373515D01*
X34750247Y-36393213D01*
X34721884Y-36410213D01*
X34691991Y-36424351D01*
X34660857Y-36435491D01*
X34628781Y-36443525D01*
X34596071Y-36448377D01*
X34563044Y-36450000D01*
X33436956Y-36450000D01*
X33403929Y-36448377D01*
X33371219Y-36443525D01*
X33339143Y-36435491D01*
X33308009Y-36424351D01*
X33278116Y-36410213D01*
X33249753Y-36393213D01*
X33223193Y-36373515D01*
X33198692Y-36351308D01*
X33176485Y-36326807D01*
X33156787Y-36300247D01*
X33139787Y-36271884D01*
X33125649Y-36241991D01*
X33114509Y-36210857D01*
X33106475Y-36178781D01*
X33101623Y-36146071D01*
X33100000Y-36113044D01*
X33100000Y-35236956D01*
X33101623Y-35203929D01*
X33106475Y-35171219D01*
X33114509Y-35139143D01*
X33125649Y-35108009D01*
X33139787Y-35078116D01*
X33156787Y-35049753D01*
X33176485Y-35023193D01*
X33198692Y-34998692D01*
X33223193Y-34976485D01*
X33249753Y-34956787D01*
X33278116Y-34939787D01*
X33308009Y-34925649D01*
X33339143Y-34914509D01*
X33371219Y-34906475D01*
X33403929Y-34901623D01*
X33436956Y-34900000D01*
X34563044Y-34900000D01*
X34596071Y-34901623D01*
X34596071Y-34901623D01*
G37*
D13*
X34000000Y-35675000D03*
D12*
G36*
X34596071Y-36951623D02*
X34628781Y-36956475D01*
X34660857Y-36964509D01*
X34691991Y-36975649D01*
X34721884Y-36989787D01*
X34750247Y-37006787D01*
X34776807Y-37026485D01*
X34801308Y-37048692D01*
X34823515Y-37073193D01*
X34843213Y-37099753D01*
X34860213Y-37128116D01*
X34874351Y-37158009D01*
X34885491Y-37189143D01*
X34893525Y-37221219D01*
X34898377Y-37253929D01*
X34900000Y-37286956D01*
X34900000Y-38163044D01*
X34898377Y-38196071D01*
X34893525Y-38228781D01*
X34885491Y-38260857D01*
X34874351Y-38291991D01*
X34860213Y-38321884D01*
X34843213Y-38350247D01*
X34823515Y-38376807D01*
X34801308Y-38401308D01*
X34776807Y-38423515D01*
X34750247Y-38443213D01*
X34721884Y-38460213D01*
X34691991Y-38474351D01*
X34660857Y-38485491D01*
X34628781Y-38493525D01*
X34596071Y-38498377D01*
X34563044Y-38500000D01*
X33436956Y-38500000D01*
X33403929Y-38498377D01*
X33371219Y-38493525D01*
X33339143Y-38485491D01*
X33308009Y-38474351D01*
X33278116Y-38460213D01*
X33249753Y-38443213D01*
X33223193Y-38423515D01*
X33198692Y-38401308D01*
X33176485Y-38376807D01*
X33156787Y-38350247D01*
X33139787Y-38321884D01*
X33125649Y-38291991D01*
X33114509Y-38260857D01*
X33106475Y-38228781D01*
X33101623Y-38196071D01*
X33100000Y-38163044D01*
X33100000Y-37286956D01*
X33101623Y-37253929D01*
X33106475Y-37221219D01*
X33114509Y-37189143D01*
X33125649Y-37158009D01*
X33139787Y-37128116D01*
X33156787Y-37099753D01*
X33176485Y-37073193D01*
X33198692Y-37048692D01*
X33223193Y-37026485D01*
X33249753Y-37006787D01*
X33278116Y-36989787D01*
X33308009Y-36975649D01*
X33339143Y-36964509D01*
X33371219Y-36956475D01*
X33403929Y-36951623D01*
X33436956Y-36950000D01*
X34563044Y-36950000D01*
X34596071Y-36951623D01*
X34596071Y-36951623D01*
G37*
D13*
X34000000Y-37725000D03*
G04 #@! TD*
D12*
G04 #@! TO.C,C4*
G36*
X36796071Y-36951623D02*
X36828781Y-36956475D01*
X36860857Y-36964509D01*
X36891991Y-36975649D01*
X36921884Y-36989787D01*
X36950247Y-37006787D01*
X36976807Y-37026485D01*
X37001308Y-37048692D01*
X37023515Y-37073193D01*
X37043213Y-37099753D01*
X37060213Y-37128116D01*
X37074351Y-37158009D01*
X37085491Y-37189143D01*
X37093525Y-37221219D01*
X37098377Y-37253929D01*
X37100000Y-37286956D01*
X37100000Y-38163044D01*
X37098377Y-38196071D01*
X37093525Y-38228781D01*
X37085491Y-38260857D01*
X37074351Y-38291991D01*
X37060213Y-38321884D01*
X37043213Y-38350247D01*
X37023515Y-38376807D01*
X37001308Y-38401308D01*
X36976807Y-38423515D01*
X36950247Y-38443213D01*
X36921884Y-38460213D01*
X36891991Y-38474351D01*
X36860857Y-38485491D01*
X36828781Y-38493525D01*
X36796071Y-38498377D01*
X36763044Y-38500000D01*
X35636956Y-38500000D01*
X35603929Y-38498377D01*
X35571219Y-38493525D01*
X35539143Y-38485491D01*
X35508009Y-38474351D01*
X35478116Y-38460213D01*
X35449753Y-38443213D01*
X35423193Y-38423515D01*
X35398692Y-38401308D01*
X35376485Y-38376807D01*
X35356787Y-38350247D01*
X35339787Y-38321884D01*
X35325649Y-38291991D01*
X35314509Y-38260857D01*
X35306475Y-38228781D01*
X35301623Y-38196071D01*
X35300000Y-38163044D01*
X35300000Y-37286956D01*
X35301623Y-37253929D01*
X35306475Y-37221219D01*
X35314509Y-37189143D01*
X35325649Y-37158009D01*
X35339787Y-37128116D01*
X35356787Y-37099753D01*
X35376485Y-37073193D01*
X35398692Y-37048692D01*
X35423193Y-37026485D01*
X35449753Y-37006787D01*
X35478116Y-36989787D01*
X35508009Y-36975649D01*
X35539143Y-36964509D01*
X35571219Y-36956475D01*
X35603929Y-36951623D01*
X35636956Y-36950000D01*
X36763044Y-36950000D01*
X36796071Y-36951623D01*
X36796071Y-36951623D01*
G37*
D13*
X36200000Y-37725000D03*
D12*
G36*
X36796071Y-34901623D02*
X36828781Y-34906475D01*
X36860857Y-34914509D01*
X36891991Y-34925649D01*
X36921884Y-34939787D01*
X36950247Y-34956787D01*
X36976807Y-34976485D01*
X37001308Y-34998692D01*
X37023515Y-35023193D01*
X37043213Y-35049753D01*
X37060213Y-35078116D01*
X37074351Y-35108009D01*
X37085491Y-35139143D01*
X37093525Y-35171219D01*
X37098377Y-35203929D01*
X37100000Y-35236956D01*
X37100000Y-36113044D01*
X37098377Y-36146071D01*
X37093525Y-36178781D01*
X37085491Y-36210857D01*
X37074351Y-36241991D01*
X37060213Y-36271884D01*
X37043213Y-36300247D01*
X37023515Y-36326807D01*
X37001308Y-36351308D01*
X36976807Y-36373515D01*
X36950247Y-36393213D01*
X36921884Y-36410213D01*
X36891991Y-36424351D01*
X36860857Y-36435491D01*
X36828781Y-36443525D01*
X36796071Y-36448377D01*
X36763044Y-36450000D01*
X35636956Y-36450000D01*
X35603929Y-36448377D01*
X35571219Y-36443525D01*
X35539143Y-36435491D01*
X35508009Y-36424351D01*
X35478116Y-36410213D01*
X35449753Y-36393213D01*
X35423193Y-36373515D01*
X35398692Y-36351308D01*
X35376485Y-36326807D01*
X35356787Y-36300247D01*
X35339787Y-36271884D01*
X35325649Y-36241991D01*
X35314509Y-36210857D01*
X35306475Y-36178781D01*
X35301623Y-36146071D01*
X35300000Y-36113044D01*
X35300000Y-35236956D01*
X35301623Y-35203929D01*
X35306475Y-35171219D01*
X35314509Y-35139143D01*
X35325649Y-35108009D01*
X35339787Y-35078116D01*
X35356787Y-35049753D01*
X35376485Y-35023193D01*
X35398692Y-34998692D01*
X35423193Y-34976485D01*
X35449753Y-34956787D01*
X35478116Y-34939787D01*
X35508009Y-34925649D01*
X35539143Y-34914509D01*
X35571219Y-34906475D01*
X35603929Y-34901623D01*
X35636956Y-34900000D01*
X36763044Y-34900000D01*
X36796071Y-34901623D01*
X36796071Y-34901623D01*
G37*
D13*
X36200000Y-35675000D03*
G04 #@! TD*
D14*
G04 #@! TO.C,J1*
X32450000Y-45640000D03*
X36350000Y-45640000D03*
X32450000Y-44370000D03*
X36350000Y-44370000D03*
X32450000Y-43100000D03*
X36350000Y-43100000D03*
X32450000Y-41830000D03*
X36350000Y-41830000D03*
X32450000Y-40560000D03*
X36350000Y-40560000D03*
G04 #@! TD*
D15*
G04 #@! TO.C,U3*
X45850000Y-40075000D03*
X45850000Y-40725000D03*
X45850000Y-41375000D03*
X45850000Y-42025000D03*
X45850000Y-42675000D03*
X45850000Y-43325000D03*
X45850000Y-43975000D03*
X45850000Y-44625000D03*
X45850000Y-45275000D03*
X45850000Y-45925000D03*
X39950000Y-45925000D03*
X39950000Y-45275000D03*
X39950000Y-44625000D03*
X39950000Y-43975000D03*
X39950000Y-43325000D03*
X39950000Y-42675000D03*
X39950000Y-42025000D03*
X39950000Y-41375000D03*
X39950000Y-40725000D03*
X39950000Y-40075000D03*
G04 #@! TD*
D16*
G04 #@! TO.C,U1*
X41900000Y-34900000D03*
D17*
X42041421Y-34758579D02*
X41758579Y-35041421D01*
D16*
X38307898Y-34900000D03*
D17*
X38307898Y-34900000D02*
X38307898Y-34900000D01*
D16*
X38307898Y-38492102D03*
D17*
X38307898Y-38492102D02*
X38307898Y-38492102D01*
D16*
X41900000Y-38492102D03*
D17*
X41900000Y-38492102D02*
X41900000Y-38492102D01*
G04 #@! TD*
D12*
G04 #@! TO.C,R3*
G36*
X44596071Y-35001623D02*
X44628781Y-35006475D01*
X44660857Y-35014509D01*
X44691991Y-35025649D01*
X44721884Y-35039787D01*
X44750247Y-35056787D01*
X44776807Y-35076485D01*
X44801308Y-35098692D01*
X44823515Y-35123193D01*
X44843213Y-35149753D01*
X44860213Y-35178116D01*
X44874351Y-35208009D01*
X44885491Y-35239143D01*
X44893525Y-35271219D01*
X44898377Y-35303929D01*
X44900000Y-35336956D01*
X44900000Y-36213044D01*
X44898377Y-36246071D01*
X44893525Y-36278781D01*
X44885491Y-36310857D01*
X44874351Y-36341991D01*
X44860213Y-36371884D01*
X44843213Y-36400247D01*
X44823515Y-36426807D01*
X44801308Y-36451308D01*
X44776807Y-36473515D01*
X44750247Y-36493213D01*
X44721884Y-36510213D01*
X44691991Y-36524351D01*
X44660857Y-36535491D01*
X44628781Y-36543525D01*
X44596071Y-36548377D01*
X44563044Y-36550000D01*
X43436956Y-36550000D01*
X43403929Y-36548377D01*
X43371219Y-36543525D01*
X43339143Y-36535491D01*
X43308009Y-36524351D01*
X43278116Y-36510213D01*
X43249753Y-36493213D01*
X43223193Y-36473515D01*
X43198692Y-36451308D01*
X43176485Y-36426807D01*
X43156787Y-36400247D01*
X43139787Y-36371884D01*
X43125649Y-36341991D01*
X43114509Y-36310857D01*
X43106475Y-36278781D01*
X43101623Y-36246071D01*
X43100000Y-36213044D01*
X43100000Y-35336956D01*
X43101623Y-35303929D01*
X43106475Y-35271219D01*
X43114509Y-35239143D01*
X43125649Y-35208009D01*
X43139787Y-35178116D01*
X43156787Y-35149753D01*
X43176485Y-35123193D01*
X43198692Y-35098692D01*
X43223193Y-35076485D01*
X43249753Y-35056787D01*
X43278116Y-35039787D01*
X43308009Y-35025649D01*
X43339143Y-35014509D01*
X43371219Y-35006475D01*
X43403929Y-35001623D01*
X43436956Y-35000000D01*
X44563044Y-35000000D01*
X44596071Y-35001623D01*
X44596071Y-35001623D01*
G37*
D13*
X44000000Y-35775000D03*
D12*
G36*
X44596071Y-37051623D02*
X44628781Y-37056475D01*
X44660857Y-37064509D01*
X44691991Y-37075649D01*
X44721884Y-37089787D01*
X44750247Y-37106787D01*
X44776807Y-37126485D01*
X44801308Y-37148692D01*
X44823515Y-37173193D01*
X44843213Y-37199753D01*
X44860213Y-37228116D01*
X44874351Y-37258009D01*
X44885491Y-37289143D01*
X44893525Y-37321219D01*
X44898377Y-37353929D01*
X44900000Y-37386956D01*
X44900000Y-38263044D01*
X44898377Y-38296071D01*
X44893525Y-38328781D01*
X44885491Y-38360857D01*
X44874351Y-38391991D01*
X44860213Y-38421884D01*
X44843213Y-38450247D01*
X44823515Y-38476807D01*
X44801308Y-38501308D01*
X44776807Y-38523515D01*
X44750247Y-38543213D01*
X44721884Y-38560213D01*
X44691991Y-38574351D01*
X44660857Y-38585491D01*
X44628781Y-38593525D01*
X44596071Y-38598377D01*
X44563044Y-38600000D01*
X43436956Y-38600000D01*
X43403929Y-38598377D01*
X43371219Y-38593525D01*
X43339143Y-38585491D01*
X43308009Y-38574351D01*
X43278116Y-38560213D01*
X43249753Y-38543213D01*
X43223193Y-38523515D01*
X43198692Y-38501308D01*
X43176485Y-38476807D01*
X43156787Y-38450247D01*
X43139787Y-38421884D01*
X43125649Y-38391991D01*
X43114509Y-38360857D01*
X43106475Y-38328781D01*
X43101623Y-38296071D01*
X43100000Y-38263044D01*
X43100000Y-37386956D01*
X43101623Y-37353929D01*
X43106475Y-37321219D01*
X43114509Y-37289143D01*
X43125649Y-37258009D01*
X43139787Y-37228116D01*
X43156787Y-37199753D01*
X43176485Y-37173193D01*
X43198692Y-37148692D01*
X43223193Y-37126485D01*
X43249753Y-37106787D01*
X43278116Y-37089787D01*
X43308009Y-37075649D01*
X43339143Y-37064509D01*
X43371219Y-37056475D01*
X43403929Y-37051623D01*
X43436956Y-37050000D01*
X44563044Y-37050000D01*
X44596071Y-37051623D01*
X44596071Y-37051623D01*
G37*
D13*
X44000000Y-37825000D03*
G04 #@! TD*
D12*
G04 #@! TO.C,R2*
G36*
X46696071Y-37051623D02*
X46728781Y-37056475D01*
X46760857Y-37064509D01*
X46791991Y-37075649D01*
X46821884Y-37089787D01*
X46850247Y-37106787D01*
X46876807Y-37126485D01*
X46901308Y-37148692D01*
X46923515Y-37173193D01*
X46943213Y-37199753D01*
X46960213Y-37228116D01*
X46974351Y-37258009D01*
X46985491Y-37289143D01*
X46993525Y-37321219D01*
X46998377Y-37353929D01*
X47000000Y-37386956D01*
X47000000Y-38263044D01*
X46998377Y-38296071D01*
X46993525Y-38328781D01*
X46985491Y-38360857D01*
X46974351Y-38391991D01*
X46960213Y-38421884D01*
X46943213Y-38450247D01*
X46923515Y-38476807D01*
X46901308Y-38501308D01*
X46876807Y-38523515D01*
X46850247Y-38543213D01*
X46821884Y-38560213D01*
X46791991Y-38574351D01*
X46760857Y-38585491D01*
X46728781Y-38593525D01*
X46696071Y-38598377D01*
X46663044Y-38600000D01*
X45536956Y-38600000D01*
X45503929Y-38598377D01*
X45471219Y-38593525D01*
X45439143Y-38585491D01*
X45408009Y-38574351D01*
X45378116Y-38560213D01*
X45349753Y-38543213D01*
X45323193Y-38523515D01*
X45298692Y-38501308D01*
X45276485Y-38476807D01*
X45256787Y-38450247D01*
X45239787Y-38421884D01*
X45225649Y-38391991D01*
X45214509Y-38360857D01*
X45206475Y-38328781D01*
X45201623Y-38296071D01*
X45200000Y-38263044D01*
X45200000Y-37386956D01*
X45201623Y-37353929D01*
X45206475Y-37321219D01*
X45214509Y-37289143D01*
X45225649Y-37258009D01*
X45239787Y-37228116D01*
X45256787Y-37199753D01*
X45276485Y-37173193D01*
X45298692Y-37148692D01*
X45323193Y-37126485D01*
X45349753Y-37106787D01*
X45378116Y-37089787D01*
X45408009Y-37075649D01*
X45439143Y-37064509D01*
X45471219Y-37056475D01*
X45503929Y-37051623D01*
X45536956Y-37050000D01*
X46663044Y-37050000D01*
X46696071Y-37051623D01*
X46696071Y-37051623D01*
G37*
D13*
X46100000Y-37825000D03*
D12*
G36*
X46696071Y-35001623D02*
X46728781Y-35006475D01*
X46760857Y-35014509D01*
X46791991Y-35025649D01*
X46821884Y-35039787D01*
X46850247Y-35056787D01*
X46876807Y-35076485D01*
X46901308Y-35098692D01*
X46923515Y-35123193D01*
X46943213Y-35149753D01*
X46960213Y-35178116D01*
X46974351Y-35208009D01*
X46985491Y-35239143D01*
X46993525Y-35271219D01*
X46998377Y-35303929D01*
X47000000Y-35336956D01*
X47000000Y-36213044D01*
X46998377Y-36246071D01*
X46993525Y-36278781D01*
X46985491Y-36310857D01*
X46974351Y-36341991D01*
X46960213Y-36371884D01*
X46943213Y-36400247D01*
X46923515Y-36426807D01*
X46901308Y-36451308D01*
X46876807Y-36473515D01*
X46850247Y-36493213D01*
X46821884Y-36510213D01*
X46791991Y-36524351D01*
X46760857Y-36535491D01*
X46728781Y-36543525D01*
X46696071Y-36548377D01*
X46663044Y-36550000D01*
X45536956Y-36550000D01*
X45503929Y-36548377D01*
X45471219Y-36543525D01*
X45439143Y-36535491D01*
X45408009Y-36524351D01*
X45378116Y-36510213D01*
X45349753Y-36493213D01*
X45323193Y-36473515D01*
X45298692Y-36451308D01*
X45276485Y-36426807D01*
X45256787Y-36400247D01*
X45239787Y-36371884D01*
X45225649Y-36341991D01*
X45214509Y-36310857D01*
X45206475Y-36278781D01*
X45201623Y-36246071D01*
X45200000Y-36213044D01*
X45200000Y-35336956D01*
X45201623Y-35303929D01*
X45206475Y-35271219D01*
X45214509Y-35239143D01*
X45225649Y-35208009D01*
X45239787Y-35178116D01*
X45256787Y-35149753D01*
X45276485Y-35123193D01*
X45298692Y-35098692D01*
X45323193Y-35076485D01*
X45349753Y-35056787D01*
X45378116Y-35039787D01*
X45408009Y-35025649D01*
X45439143Y-35014509D01*
X45471219Y-35006475D01*
X45503929Y-35001623D01*
X45536956Y-35000000D01*
X46663044Y-35000000D01*
X46696071Y-35001623D01*
X46696071Y-35001623D01*
G37*
D13*
X46100000Y-35775000D03*
G04 #@! TD*
D12*
G04 #@! TO.C,R1*
G36*
X49146071Y-40501623D02*
X49178781Y-40506475D01*
X49210857Y-40514509D01*
X49241991Y-40525649D01*
X49271884Y-40539787D01*
X49300247Y-40556787D01*
X49326807Y-40576485D01*
X49351308Y-40598692D01*
X49373515Y-40623193D01*
X49393213Y-40649753D01*
X49410213Y-40678116D01*
X49424351Y-40708009D01*
X49435491Y-40739143D01*
X49443525Y-40771219D01*
X49448377Y-40803929D01*
X49450000Y-40836956D01*
X49450000Y-41963044D01*
X49448377Y-41996071D01*
X49443525Y-42028781D01*
X49435491Y-42060857D01*
X49424351Y-42091991D01*
X49410213Y-42121884D01*
X49393213Y-42150247D01*
X49373515Y-42176807D01*
X49351308Y-42201308D01*
X49326807Y-42223515D01*
X49300247Y-42243213D01*
X49271884Y-42260213D01*
X49241991Y-42274351D01*
X49210857Y-42285491D01*
X49178781Y-42293525D01*
X49146071Y-42298377D01*
X49113044Y-42300000D01*
X48236956Y-42300000D01*
X48203929Y-42298377D01*
X48171219Y-42293525D01*
X48139143Y-42285491D01*
X48108009Y-42274351D01*
X48078116Y-42260213D01*
X48049753Y-42243213D01*
X48023193Y-42223515D01*
X47998692Y-42201308D01*
X47976485Y-42176807D01*
X47956787Y-42150247D01*
X47939787Y-42121884D01*
X47925649Y-42091991D01*
X47914509Y-42060857D01*
X47906475Y-42028781D01*
X47901623Y-41996071D01*
X47900000Y-41963044D01*
X47900000Y-40836956D01*
X47901623Y-40803929D01*
X47906475Y-40771219D01*
X47914509Y-40739143D01*
X47925649Y-40708009D01*
X47939787Y-40678116D01*
X47956787Y-40649753D01*
X47976485Y-40623193D01*
X47998692Y-40598692D01*
X48023193Y-40576485D01*
X48049753Y-40556787D01*
X48078116Y-40539787D01*
X48108009Y-40525649D01*
X48139143Y-40514509D01*
X48171219Y-40506475D01*
X48203929Y-40501623D01*
X48236956Y-40500000D01*
X49113044Y-40500000D01*
X49146071Y-40501623D01*
X49146071Y-40501623D01*
G37*
D13*
X48675000Y-41400000D03*
D12*
G36*
X51196071Y-40501623D02*
X51228781Y-40506475D01*
X51260857Y-40514509D01*
X51291991Y-40525649D01*
X51321884Y-40539787D01*
X51350247Y-40556787D01*
X51376807Y-40576485D01*
X51401308Y-40598692D01*
X51423515Y-40623193D01*
X51443213Y-40649753D01*
X51460213Y-40678116D01*
X51474351Y-40708009D01*
X51485491Y-40739143D01*
X51493525Y-40771219D01*
X51498377Y-40803929D01*
X51500000Y-40836956D01*
X51500000Y-41963044D01*
X51498377Y-41996071D01*
X51493525Y-42028781D01*
X51485491Y-42060857D01*
X51474351Y-42091991D01*
X51460213Y-42121884D01*
X51443213Y-42150247D01*
X51423515Y-42176807D01*
X51401308Y-42201308D01*
X51376807Y-42223515D01*
X51350247Y-42243213D01*
X51321884Y-42260213D01*
X51291991Y-42274351D01*
X51260857Y-42285491D01*
X51228781Y-42293525D01*
X51196071Y-42298377D01*
X51163044Y-42300000D01*
X50286956Y-42300000D01*
X50253929Y-42298377D01*
X50221219Y-42293525D01*
X50189143Y-42285491D01*
X50158009Y-42274351D01*
X50128116Y-42260213D01*
X50099753Y-42243213D01*
X50073193Y-42223515D01*
X50048692Y-42201308D01*
X50026485Y-42176807D01*
X50006787Y-42150247D01*
X49989787Y-42121884D01*
X49975649Y-42091991D01*
X49964509Y-42060857D01*
X49956475Y-42028781D01*
X49951623Y-41996071D01*
X49950000Y-41963044D01*
X49950000Y-40836956D01*
X49951623Y-40803929D01*
X49956475Y-40771219D01*
X49964509Y-40739143D01*
X49975649Y-40708009D01*
X49989787Y-40678116D01*
X50006787Y-40649753D01*
X50026485Y-40623193D01*
X50048692Y-40598692D01*
X50073193Y-40576485D01*
X50099753Y-40556787D01*
X50128116Y-40539787D01*
X50158009Y-40525649D01*
X50189143Y-40514509D01*
X50221219Y-40506475D01*
X50253929Y-40501623D01*
X50286956Y-40500000D01*
X51163044Y-40500000D01*
X51196071Y-40501623D01*
X51196071Y-40501623D01*
G37*
D13*
X50725000Y-41400000D03*
G04 #@! TD*
M02*
