G04 #@! TF.GenerationSoftware,KiCad,Pcbnew,(5.0.0)*
G04 #@! TF.CreationDate,2018-09-26T10:31:33+02:00*
G04 #@! TF.ProjectId,OpenThermalCamera,4F70656E546865726D616C43616D6572,rev?*
G04 #@! TF.SameCoordinates,Original*
G04 #@! TF.FileFunction,Copper,L1,Top,Signal*
G04 #@! TF.FilePolarity,Positive*
%FSLAX46Y46*%
G04 Gerber Fmt 4.6, Leading zero omitted, Abs format (unit mm)*
G04 Created by KiCad (PCBNEW (5.0.0)) date 09/26/18 10:31:33*
%MOMM*%
%LPD*%
G01*
G04 APERTURE LIST*
G04 #@! TA.AperFunction,SMDPad,CuDef*
%ADD10R,0.900000X2.200000*%
G04 #@! TD*
G04 #@! TA.AperFunction,SMDPad,CuDef*
%ADD11R,2.000000X2.200000*%
G04 #@! TD*
G04 #@! TA.AperFunction,Conductor*
%ADD12C,0.100000*%
G04 #@! TD*
G04 #@! TA.AperFunction,SMDPad,CuDef*
%ADD13C,1.150000*%
G04 #@! TD*
G04 #@! TA.AperFunction,SMDPad,CuDef*
%ADD14R,0.650000X1.560000*%
G04 #@! TD*
G04 #@! TA.AperFunction,SMDPad,CuDef*
%ADD15R,0.400000X0.650000*%
G04 #@! TD*
G04 #@! TA.AperFunction,ViaPad*
%ADD16C,0.800000*%
G04 #@! TD*
G04 #@! TA.AperFunction,Conductor*
%ADD17C,0.200000*%
G04 #@! TD*
G04 #@! TA.AperFunction,Conductor*
%ADD18C,0.400000*%
G04 #@! TD*
G04 #@! TA.AperFunction,Conductor*
%ADD19C,0.300000*%
G04 #@! TD*
G04 #@! TA.AperFunction,Conductor*
%ADD20C,0.254000*%
G04 #@! TD*
G04 APERTURE END LIST*
D10*
G04 #@! TO.P,J2,2*
G04 #@! TO.N,/USB_N*
X39250000Y-28900000D03*
D11*
G04 #@! TO.P,J2,1*
G04 #@! TO.N,+5V*
X37000000Y-28900000D03*
G04 #@! TO.P,J2,4*
G04 #@! TO.N,GND*
X43000000Y-28900000D03*
D10*
G04 #@! TO.P,J2,3*
G04 #@! TO.N,/USB_P*
X40650000Y-28900000D03*
G04 #@! TD*
D12*
G04 #@! TO.N,GND*
G04 #@! TO.C,C6*
G36*
X51174505Y-42101204D02*
X51198773Y-42104804D01*
X51222572Y-42110765D01*
X51245671Y-42119030D01*
X51267850Y-42129520D01*
X51288893Y-42142132D01*
X51308599Y-42156747D01*
X51326777Y-42173223D01*
X51343253Y-42191401D01*
X51357868Y-42211107D01*
X51370480Y-42232150D01*
X51380970Y-42254329D01*
X51389235Y-42277428D01*
X51395196Y-42301227D01*
X51398796Y-42325495D01*
X51400000Y-42349999D01*
X51400000Y-43000001D01*
X51398796Y-43024505D01*
X51395196Y-43048773D01*
X51389235Y-43072572D01*
X51380970Y-43095671D01*
X51370480Y-43117850D01*
X51357868Y-43138893D01*
X51343253Y-43158599D01*
X51326777Y-43176777D01*
X51308599Y-43193253D01*
X51288893Y-43207868D01*
X51267850Y-43220480D01*
X51245671Y-43230970D01*
X51222572Y-43239235D01*
X51198773Y-43245196D01*
X51174505Y-43248796D01*
X51150001Y-43250000D01*
X50249999Y-43250000D01*
X50225495Y-43248796D01*
X50201227Y-43245196D01*
X50177428Y-43239235D01*
X50154329Y-43230970D01*
X50132150Y-43220480D01*
X50111107Y-43207868D01*
X50091401Y-43193253D01*
X50073223Y-43176777D01*
X50056747Y-43158599D01*
X50042132Y-43138893D01*
X50029520Y-43117850D01*
X50019030Y-43095671D01*
X50010765Y-43072572D01*
X50004804Y-43048773D01*
X50001204Y-43024505D01*
X50000000Y-43000001D01*
X50000000Y-42349999D01*
X50001204Y-42325495D01*
X50004804Y-42301227D01*
X50010765Y-42277428D01*
X50019030Y-42254329D01*
X50029520Y-42232150D01*
X50042132Y-42211107D01*
X50056747Y-42191401D01*
X50073223Y-42173223D01*
X50091401Y-42156747D01*
X50111107Y-42142132D01*
X50132150Y-42129520D01*
X50154329Y-42119030D01*
X50177428Y-42110765D01*
X50201227Y-42104804D01*
X50225495Y-42101204D01*
X50249999Y-42100000D01*
X51150001Y-42100000D01*
X51174505Y-42101204D01*
X51174505Y-42101204D01*
G37*
D13*
G04 #@! TD*
G04 #@! TO.P,C6,2*
G04 #@! TO.N,GND*
X50700000Y-42675000D03*
D12*
G04 #@! TO.N,+3V3*
G04 #@! TO.C,C6*
G36*
X51174505Y-44151204D02*
X51198773Y-44154804D01*
X51222572Y-44160765D01*
X51245671Y-44169030D01*
X51267850Y-44179520D01*
X51288893Y-44192132D01*
X51308599Y-44206747D01*
X51326777Y-44223223D01*
X51343253Y-44241401D01*
X51357868Y-44261107D01*
X51370480Y-44282150D01*
X51380970Y-44304329D01*
X51389235Y-44327428D01*
X51395196Y-44351227D01*
X51398796Y-44375495D01*
X51400000Y-44399999D01*
X51400000Y-45050001D01*
X51398796Y-45074505D01*
X51395196Y-45098773D01*
X51389235Y-45122572D01*
X51380970Y-45145671D01*
X51370480Y-45167850D01*
X51357868Y-45188893D01*
X51343253Y-45208599D01*
X51326777Y-45226777D01*
X51308599Y-45243253D01*
X51288893Y-45257868D01*
X51267850Y-45270480D01*
X51245671Y-45280970D01*
X51222572Y-45289235D01*
X51198773Y-45295196D01*
X51174505Y-45298796D01*
X51150001Y-45300000D01*
X50249999Y-45300000D01*
X50225495Y-45298796D01*
X50201227Y-45295196D01*
X50177428Y-45289235D01*
X50154329Y-45280970D01*
X50132150Y-45270480D01*
X50111107Y-45257868D01*
X50091401Y-45243253D01*
X50073223Y-45226777D01*
X50056747Y-45208599D01*
X50042132Y-45188893D01*
X50029520Y-45167850D01*
X50019030Y-45145671D01*
X50010765Y-45122572D01*
X50004804Y-45098773D01*
X50001204Y-45074505D01*
X50000000Y-45050001D01*
X50000000Y-44399999D01*
X50001204Y-44375495D01*
X50004804Y-44351227D01*
X50010765Y-44327428D01*
X50019030Y-44304329D01*
X50029520Y-44282150D01*
X50042132Y-44261107D01*
X50056747Y-44241401D01*
X50073223Y-44223223D01*
X50091401Y-44206747D01*
X50111107Y-44192132D01*
X50132150Y-44179520D01*
X50154329Y-44169030D01*
X50177428Y-44160765D01*
X50201227Y-44154804D01*
X50225495Y-44151204D01*
X50249999Y-44150000D01*
X51150001Y-44150000D01*
X51174505Y-44151204D01*
X51174505Y-44151204D01*
G37*
D13*
G04 #@! TD*
G04 #@! TO.P,C6,1*
G04 #@! TO.N,+3V3*
X50700000Y-44725000D03*
D12*
G04 #@! TO.N,GND*
G04 #@! TO.C,C3*
G36*
X45424505Y-39501204D02*
X45448773Y-39504804D01*
X45472572Y-39510765D01*
X45495671Y-39519030D01*
X45517850Y-39529520D01*
X45538893Y-39542132D01*
X45558599Y-39556747D01*
X45576777Y-39573223D01*
X45593253Y-39591401D01*
X45607868Y-39611107D01*
X45620480Y-39632150D01*
X45630970Y-39654329D01*
X45639235Y-39677428D01*
X45645196Y-39701227D01*
X45648796Y-39725495D01*
X45650000Y-39749999D01*
X45650000Y-40650001D01*
X45648796Y-40674505D01*
X45645196Y-40698773D01*
X45639235Y-40722572D01*
X45630970Y-40745671D01*
X45620480Y-40767850D01*
X45607868Y-40788893D01*
X45593253Y-40808599D01*
X45576777Y-40826777D01*
X45558599Y-40843253D01*
X45538893Y-40857868D01*
X45517850Y-40870480D01*
X45495671Y-40880970D01*
X45472572Y-40889235D01*
X45448773Y-40895196D01*
X45424505Y-40898796D01*
X45400001Y-40900000D01*
X44749999Y-40900000D01*
X44725495Y-40898796D01*
X44701227Y-40895196D01*
X44677428Y-40889235D01*
X44654329Y-40880970D01*
X44632150Y-40870480D01*
X44611107Y-40857868D01*
X44591401Y-40843253D01*
X44573223Y-40826777D01*
X44556747Y-40808599D01*
X44542132Y-40788893D01*
X44529520Y-40767850D01*
X44519030Y-40745671D01*
X44510765Y-40722572D01*
X44504804Y-40698773D01*
X44501204Y-40674505D01*
X44500000Y-40650001D01*
X44500000Y-39749999D01*
X44501204Y-39725495D01*
X44504804Y-39701227D01*
X44510765Y-39677428D01*
X44519030Y-39654329D01*
X44529520Y-39632150D01*
X44542132Y-39611107D01*
X44556747Y-39591401D01*
X44573223Y-39573223D01*
X44591401Y-39556747D01*
X44611107Y-39542132D01*
X44632150Y-39529520D01*
X44654329Y-39519030D01*
X44677428Y-39510765D01*
X44701227Y-39504804D01*
X44725495Y-39501204D01*
X44749999Y-39500000D01*
X45400001Y-39500000D01*
X45424505Y-39501204D01*
X45424505Y-39501204D01*
G37*
D13*
G04 #@! TD*
G04 #@! TO.P,C3,2*
G04 #@! TO.N,GND*
X45075000Y-40200000D03*
D12*
G04 #@! TO.N,+5V*
G04 #@! TO.C,C3*
G36*
X47474505Y-39501204D02*
X47498773Y-39504804D01*
X47522572Y-39510765D01*
X47545671Y-39519030D01*
X47567850Y-39529520D01*
X47588893Y-39542132D01*
X47608599Y-39556747D01*
X47626777Y-39573223D01*
X47643253Y-39591401D01*
X47657868Y-39611107D01*
X47670480Y-39632150D01*
X47680970Y-39654329D01*
X47689235Y-39677428D01*
X47695196Y-39701227D01*
X47698796Y-39725495D01*
X47700000Y-39749999D01*
X47700000Y-40650001D01*
X47698796Y-40674505D01*
X47695196Y-40698773D01*
X47689235Y-40722572D01*
X47680970Y-40745671D01*
X47670480Y-40767850D01*
X47657868Y-40788893D01*
X47643253Y-40808599D01*
X47626777Y-40826777D01*
X47608599Y-40843253D01*
X47588893Y-40857868D01*
X47567850Y-40870480D01*
X47545671Y-40880970D01*
X47522572Y-40889235D01*
X47498773Y-40895196D01*
X47474505Y-40898796D01*
X47450001Y-40900000D01*
X46799999Y-40900000D01*
X46775495Y-40898796D01*
X46751227Y-40895196D01*
X46727428Y-40889235D01*
X46704329Y-40880970D01*
X46682150Y-40870480D01*
X46661107Y-40857868D01*
X46641401Y-40843253D01*
X46623223Y-40826777D01*
X46606747Y-40808599D01*
X46592132Y-40788893D01*
X46579520Y-40767850D01*
X46569030Y-40745671D01*
X46560765Y-40722572D01*
X46554804Y-40698773D01*
X46551204Y-40674505D01*
X46550000Y-40650001D01*
X46550000Y-39749999D01*
X46551204Y-39725495D01*
X46554804Y-39701227D01*
X46560765Y-39677428D01*
X46569030Y-39654329D01*
X46579520Y-39632150D01*
X46592132Y-39611107D01*
X46606747Y-39591401D01*
X46623223Y-39573223D01*
X46641401Y-39556747D01*
X46661107Y-39542132D01*
X46682150Y-39529520D01*
X46704329Y-39519030D01*
X46727428Y-39510765D01*
X46751227Y-39504804D01*
X46775495Y-39501204D01*
X46799999Y-39500000D01*
X47450001Y-39500000D01*
X47474505Y-39501204D01*
X47474505Y-39501204D01*
G37*
D13*
G04 #@! TD*
G04 #@! TO.P,C3,1*
G04 #@! TO.N,+5V*
X47125000Y-40200000D03*
D12*
G04 #@! TO.N,GND*
G04 #@! TO.C,C2*
G36*
X43274505Y-42201204D02*
X43298773Y-42204804D01*
X43322572Y-42210765D01*
X43345671Y-42219030D01*
X43367850Y-42229520D01*
X43388893Y-42242132D01*
X43408599Y-42256747D01*
X43426777Y-42273223D01*
X43443253Y-42291401D01*
X43457868Y-42311107D01*
X43470480Y-42332150D01*
X43480970Y-42354329D01*
X43489235Y-42377428D01*
X43495196Y-42401227D01*
X43498796Y-42425495D01*
X43500000Y-42449999D01*
X43500000Y-43100001D01*
X43498796Y-43124505D01*
X43495196Y-43148773D01*
X43489235Y-43172572D01*
X43480970Y-43195671D01*
X43470480Y-43217850D01*
X43457868Y-43238893D01*
X43443253Y-43258599D01*
X43426777Y-43276777D01*
X43408599Y-43293253D01*
X43388893Y-43307868D01*
X43367850Y-43320480D01*
X43345671Y-43330970D01*
X43322572Y-43339235D01*
X43298773Y-43345196D01*
X43274505Y-43348796D01*
X43250001Y-43350000D01*
X42349999Y-43350000D01*
X42325495Y-43348796D01*
X42301227Y-43345196D01*
X42277428Y-43339235D01*
X42254329Y-43330970D01*
X42232150Y-43320480D01*
X42211107Y-43307868D01*
X42191401Y-43293253D01*
X42173223Y-43276777D01*
X42156747Y-43258599D01*
X42142132Y-43238893D01*
X42129520Y-43217850D01*
X42119030Y-43195671D01*
X42110765Y-43172572D01*
X42104804Y-43148773D01*
X42101204Y-43124505D01*
X42100000Y-43100001D01*
X42100000Y-42449999D01*
X42101204Y-42425495D01*
X42104804Y-42401227D01*
X42110765Y-42377428D01*
X42119030Y-42354329D01*
X42129520Y-42332150D01*
X42142132Y-42311107D01*
X42156747Y-42291401D01*
X42173223Y-42273223D01*
X42191401Y-42256747D01*
X42211107Y-42242132D01*
X42232150Y-42229520D01*
X42254329Y-42219030D01*
X42277428Y-42210765D01*
X42301227Y-42204804D01*
X42325495Y-42201204D01*
X42349999Y-42200000D01*
X43250001Y-42200000D01*
X43274505Y-42201204D01*
X43274505Y-42201204D01*
G37*
D13*
G04 #@! TD*
G04 #@! TO.P,C2,2*
G04 #@! TO.N,GND*
X42800000Y-42775000D03*
D12*
G04 #@! TO.N,Net-(C2-Pad1)*
G04 #@! TO.C,C2*
G36*
X43274505Y-44251204D02*
X43298773Y-44254804D01*
X43322572Y-44260765D01*
X43345671Y-44269030D01*
X43367850Y-44279520D01*
X43388893Y-44292132D01*
X43408599Y-44306747D01*
X43426777Y-44323223D01*
X43443253Y-44341401D01*
X43457868Y-44361107D01*
X43470480Y-44382150D01*
X43480970Y-44404329D01*
X43489235Y-44427428D01*
X43495196Y-44451227D01*
X43498796Y-44475495D01*
X43500000Y-44499999D01*
X43500000Y-45150001D01*
X43498796Y-45174505D01*
X43495196Y-45198773D01*
X43489235Y-45222572D01*
X43480970Y-45245671D01*
X43470480Y-45267850D01*
X43457868Y-45288893D01*
X43443253Y-45308599D01*
X43426777Y-45326777D01*
X43408599Y-45343253D01*
X43388893Y-45357868D01*
X43367850Y-45370480D01*
X43345671Y-45380970D01*
X43322572Y-45389235D01*
X43298773Y-45395196D01*
X43274505Y-45398796D01*
X43250001Y-45400000D01*
X42349999Y-45400000D01*
X42325495Y-45398796D01*
X42301227Y-45395196D01*
X42277428Y-45389235D01*
X42254329Y-45380970D01*
X42232150Y-45370480D01*
X42211107Y-45357868D01*
X42191401Y-45343253D01*
X42173223Y-45326777D01*
X42156747Y-45308599D01*
X42142132Y-45288893D01*
X42129520Y-45267850D01*
X42119030Y-45245671D01*
X42110765Y-45222572D01*
X42104804Y-45198773D01*
X42101204Y-45174505D01*
X42100000Y-45150001D01*
X42100000Y-44499999D01*
X42101204Y-44475495D01*
X42104804Y-44451227D01*
X42110765Y-44427428D01*
X42119030Y-44404329D01*
X42129520Y-44382150D01*
X42142132Y-44361107D01*
X42156747Y-44341401D01*
X42173223Y-44323223D01*
X42191401Y-44306747D01*
X42211107Y-44292132D01*
X42232150Y-44279520D01*
X42254329Y-44269030D01*
X42277428Y-44260765D01*
X42301227Y-44254804D01*
X42325495Y-44251204D01*
X42349999Y-44250000D01*
X43250001Y-44250000D01*
X43274505Y-44251204D01*
X43274505Y-44251204D01*
G37*
D13*
G04 #@! TD*
G04 #@! TO.P,C2,1*
G04 #@! TO.N,Net-(C2-Pad1)*
X42800000Y-44825000D03*
D12*
G04 #@! TO.N,+3V3*
G04 #@! TO.C,C1*
G36*
X49074505Y-44151204D02*
X49098773Y-44154804D01*
X49122572Y-44160765D01*
X49145671Y-44169030D01*
X49167850Y-44179520D01*
X49188893Y-44192132D01*
X49208599Y-44206747D01*
X49226777Y-44223223D01*
X49243253Y-44241401D01*
X49257868Y-44261107D01*
X49270480Y-44282150D01*
X49280970Y-44304329D01*
X49289235Y-44327428D01*
X49295196Y-44351227D01*
X49298796Y-44375495D01*
X49300000Y-44399999D01*
X49300000Y-45050001D01*
X49298796Y-45074505D01*
X49295196Y-45098773D01*
X49289235Y-45122572D01*
X49280970Y-45145671D01*
X49270480Y-45167850D01*
X49257868Y-45188893D01*
X49243253Y-45208599D01*
X49226777Y-45226777D01*
X49208599Y-45243253D01*
X49188893Y-45257868D01*
X49167850Y-45270480D01*
X49145671Y-45280970D01*
X49122572Y-45289235D01*
X49098773Y-45295196D01*
X49074505Y-45298796D01*
X49050001Y-45300000D01*
X48149999Y-45300000D01*
X48125495Y-45298796D01*
X48101227Y-45295196D01*
X48077428Y-45289235D01*
X48054329Y-45280970D01*
X48032150Y-45270480D01*
X48011107Y-45257868D01*
X47991401Y-45243253D01*
X47973223Y-45226777D01*
X47956747Y-45208599D01*
X47942132Y-45188893D01*
X47929520Y-45167850D01*
X47919030Y-45145671D01*
X47910765Y-45122572D01*
X47904804Y-45098773D01*
X47901204Y-45074505D01*
X47900000Y-45050001D01*
X47900000Y-44399999D01*
X47901204Y-44375495D01*
X47904804Y-44351227D01*
X47910765Y-44327428D01*
X47919030Y-44304329D01*
X47929520Y-44282150D01*
X47942132Y-44261107D01*
X47956747Y-44241401D01*
X47973223Y-44223223D01*
X47991401Y-44206747D01*
X48011107Y-44192132D01*
X48032150Y-44179520D01*
X48054329Y-44169030D01*
X48077428Y-44160765D01*
X48101227Y-44154804D01*
X48125495Y-44151204D01*
X48149999Y-44150000D01*
X49050001Y-44150000D01*
X49074505Y-44151204D01*
X49074505Y-44151204D01*
G37*
D13*
G04 #@! TD*
G04 #@! TO.P,C1,1*
G04 #@! TO.N,+3V3*
X48600000Y-44725000D03*
D12*
G04 #@! TO.N,GND*
G04 #@! TO.C,C1*
G36*
X49074505Y-42101204D02*
X49098773Y-42104804D01*
X49122572Y-42110765D01*
X49145671Y-42119030D01*
X49167850Y-42129520D01*
X49188893Y-42142132D01*
X49208599Y-42156747D01*
X49226777Y-42173223D01*
X49243253Y-42191401D01*
X49257868Y-42211107D01*
X49270480Y-42232150D01*
X49280970Y-42254329D01*
X49289235Y-42277428D01*
X49295196Y-42301227D01*
X49298796Y-42325495D01*
X49300000Y-42349999D01*
X49300000Y-43000001D01*
X49298796Y-43024505D01*
X49295196Y-43048773D01*
X49289235Y-43072572D01*
X49280970Y-43095671D01*
X49270480Y-43117850D01*
X49257868Y-43138893D01*
X49243253Y-43158599D01*
X49226777Y-43176777D01*
X49208599Y-43193253D01*
X49188893Y-43207868D01*
X49167850Y-43220480D01*
X49145671Y-43230970D01*
X49122572Y-43239235D01*
X49098773Y-43245196D01*
X49074505Y-43248796D01*
X49050001Y-43250000D01*
X48149999Y-43250000D01*
X48125495Y-43248796D01*
X48101227Y-43245196D01*
X48077428Y-43239235D01*
X48054329Y-43230970D01*
X48032150Y-43220480D01*
X48011107Y-43207868D01*
X47991401Y-43193253D01*
X47973223Y-43176777D01*
X47956747Y-43158599D01*
X47942132Y-43138893D01*
X47929520Y-43117850D01*
X47919030Y-43095671D01*
X47910765Y-43072572D01*
X47904804Y-43048773D01*
X47901204Y-43024505D01*
X47900000Y-43000001D01*
X47900000Y-42349999D01*
X47901204Y-42325495D01*
X47904804Y-42301227D01*
X47910765Y-42277428D01*
X47919030Y-42254329D01*
X47929520Y-42232150D01*
X47942132Y-42211107D01*
X47956747Y-42191401D01*
X47973223Y-42173223D01*
X47991401Y-42156747D01*
X48011107Y-42142132D01*
X48032150Y-42129520D01*
X48054329Y-42119030D01*
X48077428Y-42110765D01*
X48101227Y-42104804D01*
X48125495Y-42101204D01*
X48149999Y-42100000D01*
X49050001Y-42100000D01*
X49074505Y-42101204D01*
X49074505Y-42101204D01*
G37*
D13*
G04 #@! TD*
G04 #@! TO.P,C1,2*
G04 #@! TO.N,GND*
X48600000Y-42675000D03*
D14*
G04 #@! TO.P,U2,1*
G04 #@! TO.N,+5V*
X46650000Y-42250000D03*
G04 #@! TO.P,U2,2*
G04 #@! TO.N,GND*
X45700000Y-42250000D03*
G04 #@! TO.P,U2,3*
G04 #@! TO.N,+5V*
X44750000Y-42250000D03*
G04 #@! TO.P,U2,4*
G04 #@! TO.N,Net-(C2-Pad1)*
X44750000Y-44950000D03*
G04 #@! TO.P,U2,5*
G04 #@! TO.N,+3V3*
X46650000Y-44950000D03*
G04 #@! TD*
D15*
G04 #@! TO.P,U4,1*
G04 #@! TO.N,/USB_N*
X45750000Y-30050000D03*
G04 #@! TO.P,U4,3*
G04 #@! TO.N,Net-(U4-Pad3)*
X47050000Y-30050000D03*
G04 #@! TO.P,U4,5*
G04 #@! TO.N,+5V*
X46400000Y-28150000D03*
G04 #@! TO.P,U4,2*
G04 #@! TO.N,GND*
X46400000Y-30050000D03*
G04 #@! TO.P,U4,4*
G04 #@! TO.N,Net-(U4-Pad4)*
X47050000Y-28150000D03*
G04 #@! TO.P,U4,6*
G04 #@! TO.N,/USB_P*
X45750000Y-28150000D03*
G04 #@! TD*
D16*
G04 #@! TO.N,/I2C_SCL*
X41500000Y-39700000D03*
X42984307Y-40884307D03*
G04 #@! TO.N,GND*
X41300000Y-45900000D03*
X44800000Y-28200000D03*
X46400000Y-31300000D03*
X52300000Y-42400000D03*
X40200000Y-35000000D03*
X51400000Y-29100000D03*
X29200000Y-45200000D03*
X34400000Y-39300000D03*
X44700000Y-33600000D03*
X38300000Y-31900000D03*
X30500000Y-32000000D03*
G04 #@! TO.N,+3V3*
X41400000Y-42700000D03*
X39307898Y-35900000D03*
G04 #@! TO.N,/I2C_SDA*
X42200000Y-37000000D03*
X43734307Y-40134307D03*
G04 #@! TO.N,/USB_P*
X49025000Y-31000000D03*
G04 #@! TO.N,/USB_N*
X47975000Y-31000000D03*
G04 #@! TD*
D17*
G04 #@! TO.N,/I2C_SCL*
X41500000Y-39700000D02*
X42684307Y-40884307D01*
X42684307Y-40884307D02*
X42984307Y-40884307D01*
G04 #@! TO.N,GND*
X46400000Y-31300000D02*
X46400000Y-30050000D01*
X46400000Y-38875000D02*
X45075000Y-40200000D01*
X48875000Y-42400000D02*
X48600000Y-42675000D01*
X52300000Y-42400000D02*
X48875000Y-42400000D01*
X42800000Y-42475000D02*
X42800000Y-42775000D01*
X50975000Y-42400000D02*
X50700000Y-42675000D01*
X52300000Y-42400000D02*
X50975000Y-42400000D01*
X46360852Y-33860852D02*
X46400000Y-33900000D01*
X40200000Y-35000000D02*
X41339148Y-33860852D01*
X46400000Y-33900000D02*
X46400000Y-38875000D01*
X41600000Y-33600000D02*
X44700000Y-33600000D01*
X41339148Y-33860852D02*
X41600000Y-33600000D01*
X46400000Y-31300000D02*
X46400000Y-33600000D01*
X46400000Y-33600000D02*
X46400000Y-33900000D01*
X44700000Y-33600000D02*
X46400000Y-33600000D01*
X43700000Y-28200000D02*
X43000000Y-28900000D01*
X44800000Y-28200000D02*
X43700000Y-28200000D01*
D18*
X44800000Y-40200000D02*
X42800000Y-42200000D01*
X45075000Y-40200000D02*
X44800000Y-40200000D01*
X42800000Y-42200000D02*
X42800000Y-42475000D01*
D17*
X45300000Y-40200000D02*
X45075000Y-40200000D01*
D19*
X45700000Y-40800000D02*
X45100000Y-40200000D01*
X45700000Y-42250000D02*
X45700000Y-40800000D01*
D17*
G04 #@! TO.N,+3V3*
X50700000Y-44725000D02*
X48600000Y-44725000D01*
X46875000Y-44725000D02*
X46650000Y-44950000D01*
X48600000Y-44725000D02*
X46875000Y-44725000D01*
X45755000Y-46300000D02*
X42722166Y-46300000D01*
X46650000Y-45405000D02*
X45755000Y-46300000D01*
X46650000Y-44950000D02*
X46650000Y-45405000D01*
X41700000Y-43000000D02*
X41400000Y-42700000D01*
X42722166Y-46300000D02*
X41700000Y-45277834D01*
X41700000Y-45277834D02*
X41700000Y-43000000D01*
X40600000Y-37192102D02*
X40600000Y-40100000D01*
X41400000Y-40900000D02*
X41400000Y-42700000D01*
X40600000Y-40100000D02*
X41400000Y-40900000D01*
X40600000Y-37192102D02*
X39307898Y-35900000D01*
G04 #@! TO.N,/I2C_SDA*
X42200000Y-37000000D02*
X43734307Y-38534307D01*
X43734307Y-38534307D02*
X43734307Y-39568622D01*
X43734307Y-39568622D02*
X43734307Y-40134307D01*
G04 #@! TO.N,Net-(C2-Pad1)*
X44625000Y-44825000D02*
X44750000Y-44950000D01*
X42800000Y-44825000D02*
X44625000Y-44825000D01*
G04 #@! TO.N,+5V*
X49725001Y-29125001D02*
X49725001Y-33674999D01*
X47125000Y-36275000D02*
X47125000Y-40200000D01*
X49725001Y-33674999D02*
X47125000Y-36275000D01*
X46650000Y-43230000D02*
X46280000Y-43600000D01*
X46650000Y-42250000D02*
X46650000Y-43230000D01*
X44750000Y-43230000D02*
X44750000Y-42250000D01*
X45120000Y-43600000D02*
X44750000Y-43230000D01*
X46280000Y-43600000D02*
X45120000Y-43600000D01*
X46650000Y-40675000D02*
X47125000Y-40200000D01*
X46650000Y-42250000D02*
X46650000Y-40675000D01*
X46274999Y-27499999D02*
X46400000Y-27625000D01*
X38300001Y-27499999D02*
X46274999Y-27499999D01*
X37000000Y-28800000D02*
X38300001Y-27499999D01*
X37000000Y-28900000D02*
X37000000Y-28800000D01*
X48124999Y-27524999D02*
X49725001Y-29125001D01*
X46500001Y-27524999D02*
X48124999Y-27524999D01*
X46400000Y-27625000D02*
X46500001Y-27524999D01*
X46400000Y-28150000D02*
X46400000Y-27625000D01*
G04 #@! TO.N,/USB_P*
X45836410Y-28800000D02*
X46100000Y-28800000D01*
X45700000Y-28725000D02*
X45700000Y-28800000D01*
X45750000Y-28675000D02*
X45700000Y-28725000D01*
X45750000Y-28150000D02*
X45750000Y-28675000D01*
X45300000Y-28800000D02*
X45700000Y-28800000D01*
X45700000Y-28800000D02*
X46100000Y-28800000D01*
X48725000Y-30700000D02*
X49025000Y-31000000D01*
X48725000Y-29306800D02*
X48725000Y-30700000D01*
X46100000Y-28800000D02*
X48218200Y-28800000D01*
X48218200Y-28800000D02*
X48725000Y-29306800D01*
X45163590Y-28800000D02*
X45300000Y-28800000D01*
X44675000Y-29288590D02*
X45163590Y-28800000D01*
X44675000Y-29806800D02*
X44675000Y-29288590D01*
X40600000Y-29600000D02*
X40300000Y-29900000D01*
X40600000Y-28900000D02*
X40600000Y-29600000D01*
X40300000Y-29900000D02*
X40300000Y-30381800D01*
X40300000Y-30381800D02*
X40393200Y-30475000D01*
X40393200Y-30475000D02*
X44006800Y-30475000D01*
X44006800Y-30475000D02*
X44675000Y-29806800D01*
X45400000Y-28800000D02*
X45625000Y-28800000D01*
G04 #@! TO.N,/USB_N*
X45500000Y-29300000D02*
X45525000Y-29300000D01*
X45600000Y-29300000D02*
X45500000Y-29300000D01*
X45700000Y-29300000D02*
X45600000Y-29300000D01*
X48275000Y-29493200D02*
X48275000Y-30700000D01*
X48275000Y-30700000D02*
X47975000Y-31000000D01*
X48081800Y-29300000D02*
X48275000Y-29493200D01*
X45300000Y-29300000D02*
X45500000Y-29300000D01*
X45300000Y-29300000D02*
X46300000Y-29300000D01*
X45800000Y-29300000D02*
X46300000Y-29300000D01*
X46300000Y-29300000D02*
X48081800Y-29300000D01*
X45700000Y-29475000D02*
X45700000Y-29300000D01*
X45750000Y-29525000D02*
X45700000Y-29475000D01*
X45750000Y-30050000D02*
X45750000Y-29525000D01*
X45125000Y-29475000D02*
X45300000Y-29300000D01*
X45125000Y-29993200D02*
X45125000Y-29475000D01*
X39300000Y-29600000D02*
X39600000Y-29900000D01*
X39300000Y-28900000D02*
X39300000Y-29600000D01*
X39600000Y-29900000D02*
X39600000Y-30318200D01*
X39600000Y-30318200D02*
X40206800Y-30925000D01*
X40206800Y-30925000D02*
X44193200Y-30925000D01*
X44193200Y-30925000D02*
X45125000Y-29993200D01*
G04 #@! TD*
D20*
G04 #@! TO.N,GND*
G36*
X52290000Y-46290000D02*
X47279871Y-46290000D01*
X47432809Y-46187809D01*
X47573157Y-45977765D01*
X47617858Y-45753037D01*
X47806564Y-45879127D01*
X48149999Y-45947440D01*
X49050001Y-45947440D01*
X49393436Y-45879127D01*
X49650000Y-45707696D01*
X49906564Y-45879127D01*
X50249999Y-45947440D01*
X51150001Y-45947440D01*
X51493436Y-45879127D01*
X51784586Y-45684586D01*
X51979127Y-45393436D01*
X52047440Y-45050001D01*
X52047440Y-44399999D01*
X51979127Y-44056564D01*
X51784586Y-43765414D01*
X51783403Y-43764623D01*
X51938327Y-43609698D01*
X52035000Y-43376309D01*
X52035000Y-42960750D01*
X51876250Y-42802000D01*
X50827000Y-42802000D01*
X50827000Y-42822000D01*
X50573000Y-42822000D01*
X50573000Y-42802000D01*
X48727000Y-42802000D01*
X48727000Y-42822000D01*
X48473000Y-42822000D01*
X48473000Y-42802000D01*
X48453000Y-42802000D01*
X48453000Y-42548000D01*
X48473000Y-42548000D01*
X48473000Y-41623750D01*
X48727000Y-41623750D01*
X48727000Y-42548000D01*
X50573000Y-42548000D01*
X50573000Y-41623750D01*
X50827000Y-41623750D01*
X50827000Y-42548000D01*
X51876250Y-42548000D01*
X52035000Y-42389250D01*
X52035000Y-41973691D01*
X51938327Y-41740302D01*
X51759699Y-41561673D01*
X51526310Y-41465000D01*
X50985750Y-41465000D01*
X50827000Y-41623750D01*
X50573000Y-41623750D01*
X50414250Y-41465000D01*
X49873690Y-41465000D01*
X49650000Y-41557656D01*
X49426310Y-41465000D01*
X48885750Y-41465000D01*
X48727000Y-41623750D01*
X48473000Y-41623750D01*
X48314250Y-41465000D01*
X47814578Y-41465000D01*
X48084586Y-41284586D01*
X48279127Y-40993436D01*
X48347440Y-40650001D01*
X48347440Y-39749999D01*
X48279127Y-39406564D01*
X48084586Y-39115414D01*
X47860000Y-38965350D01*
X47860000Y-36579446D01*
X48142784Y-36296662D01*
X48015000Y-36605159D01*
X48015000Y-37394841D01*
X48317199Y-38124412D01*
X48875588Y-38682801D01*
X49605159Y-38985000D01*
X50394841Y-38985000D01*
X51124412Y-38682801D01*
X51682801Y-38124412D01*
X51985000Y-37394841D01*
X51985000Y-36605159D01*
X51682801Y-35875588D01*
X51124412Y-35317199D01*
X50394841Y-35015000D01*
X49605159Y-35015000D01*
X49296663Y-35142784D01*
X50193538Y-34245908D01*
X50254906Y-34204904D01*
X50417355Y-33961782D01*
X50460001Y-33747387D01*
X50474400Y-33674999D01*
X50460001Y-33602611D01*
X50460001Y-29197389D01*
X50474400Y-29125001D01*
X50424152Y-28872388D01*
X50417355Y-28838218D01*
X50254906Y-28595096D01*
X50193539Y-28554092D01*
X49349446Y-27710000D01*
X52290001Y-27710000D01*
X52290000Y-46290000D01*
X52290000Y-46290000D01*
G37*
X52290000Y-46290000D02*
X47279871Y-46290000D01*
X47432809Y-46187809D01*
X47573157Y-45977765D01*
X47617858Y-45753037D01*
X47806564Y-45879127D01*
X48149999Y-45947440D01*
X49050001Y-45947440D01*
X49393436Y-45879127D01*
X49650000Y-45707696D01*
X49906564Y-45879127D01*
X50249999Y-45947440D01*
X51150001Y-45947440D01*
X51493436Y-45879127D01*
X51784586Y-45684586D01*
X51979127Y-45393436D01*
X52047440Y-45050001D01*
X52047440Y-44399999D01*
X51979127Y-44056564D01*
X51784586Y-43765414D01*
X51783403Y-43764623D01*
X51938327Y-43609698D01*
X52035000Y-43376309D01*
X52035000Y-42960750D01*
X51876250Y-42802000D01*
X50827000Y-42802000D01*
X50827000Y-42822000D01*
X50573000Y-42822000D01*
X50573000Y-42802000D01*
X48727000Y-42802000D01*
X48727000Y-42822000D01*
X48473000Y-42822000D01*
X48473000Y-42802000D01*
X48453000Y-42802000D01*
X48453000Y-42548000D01*
X48473000Y-42548000D01*
X48473000Y-41623750D01*
X48727000Y-41623750D01*
X48727000Y-42548000D01*
X50573000Y-42548000D01*
X50573000Y-41623750D01*
X50827000Y-41623750D01*
X50827000Y-42548000D01*
X51876250Y-42548000D01*
X52035000Y-42389250D01*
X52035000Y-41973691D01*
X51938327Y-41740302D01*
X51759699Y-41561673D01*
X51526310Y-41465000D01*
X50985750Y-41465000D01*
X50827000Y-41623750D01*
X50573000Y-41623750D01*
X50414250Y-41465000D01*
X49873690Y-41465000D01*
X49650000Y-41557656D01*
X49426310Y-41465000D01*
X48885750Y-41465000D01*
X48727000Y-41623750D01*
X48473000Y-41623750D01*
X48314250Y-41465000D01*
X47814578Y-41465000D01*
X48084586Y-41284586D01*
X48279127Y-40993436D01*
X48347440Y-40650001D01*
X48347440Y-39749999D01*
X48279127Y-39406564D01*
X48084586Y-39115414D01*
X47860000Y-38965350D01*
X47860000Y-36579446D01*
X48142784Y-36296662D01*
X48015000Y-36605159D01*
X48015000Y-37394841D01*
X48317199Y-38124412D01*
X48875588Y-38682801D01*
X49605159Y-38985000D01*
X50394841Y-38985000D01*
X51124412Y-38682801D01*
X51682801Y-38124412D01*
X51985000Y-37394841D01*
X51985000Y-36605159D01*
X51682801Y-35875588D01*
X51124412Y-35317199D01*
X50394841Y-35015000D01*
X49605159Y-35015000D01*
X49296663Y-35142784D01*
X50193538Y-34245908D01*
X50254906Y-34204904D01*
X50417355Y-33961782D01*
X50460001Y-33747387D01*
X50474400Y-33674999D01*
X50460001Y-33602611D01*
X50460001Y-29197389D01*
X50474400Y-29125001D01*
X50424152Y-28872388D01*
X50417355Y-28838218D01*
X50254906Y-28595096D01*
X50193539Y-28554092D01*
X49349446Y-27710000D01*
X52290001Y-27710000D01*
X52290000Y-46290000D01*
G36*
X35352560Y-27800000D02*
X35352560Y-30000000D01*
X35401843Y-30247765D01*
X35542191Y-30457809D01*
X35752235Y-30598157D01*
X36000000Y-30647440D01*
X38000000Y-30647440D01*
X38247765Y-30598157D01*
X38400000Y-30496436D01*
X38552235Y-30598157D01*
X38800000Y-30647440D01*
X38936015Y-30647440D01*
X39070095Y-30848105D01*
X39131464Y-30889111D01*
X39635890Y-31393537D01*
X39676895Y-31454905D01*
X39920017Y-31617354D01*
X40134412Y-31660000D01*
X40134416Y-31660000D01*
X40206800Y-31674398D01*
X40279184Y-31660000D01*
X44120816Y-31660000D01*
X44193200Y-31674398D01*
X44265584Y-31660000D01*
X44265588Y-31660000D01*
X44479983Y-31617354D01*
X44723105Y-31454905D01*
X44764111Y-31393535D01*
X45231652Y-30925995D01*
X45302235Y-30973157D01*
X45550000Y-31022440D01*
X45950000Y-31022440D01*
X46053852Y-31001783D01*
X46073690Y-31010000D01*
X46141250Y-31010000D01*
X46173208Y-30978042D01*
X46197765Y-30973157D01*
X46400000Y-30838027D01*
X46602235Y-30973157D01*
X46626792Y-30978042D01*
X46658750Y-31010000D01*
X46726310Y-31010000D01*
X46746148Y-31001783D01*
X46850000Y-31022440D01*
X46940000Y-31022440D01*
X46940000Y-31205874D01*
X47097569Y-31586280D01*
X47388720Y-31877431D01*
X47769126Y-32035000D01*
X48180874Y-32035000D01*
X48500000Y-31902814D01*
X48819126Y-32035000D01*
X48990002Y-32035000D01*
X48990002Y-33370551D01*
X46656465Y-35704089D01*
X46595095Y-35745095D01*
X46432646Y-35988218D01*
X46390000Y-36202613D01*
X46390000Y-36202616D01*
X46375602Y-36275000D01*
X46390000Y-36347384D01*
X46390001Y-38965349D01*
X46165414Y-39115414D01*
X46164623Y-39116597D01*
X46009698Y-38961673D01*
X45776309Y-38865000D01*
X45360750Y-38865000D01*
X45202000Y-39023750D01*
X45202000Y-40073000D01*
X45222000Y-40073000D01*
X45222000Y-40327000D01*
X45202000Y-40327000D01*
X45202000Y-40347000D01*
X44948000Y-40347000D01*
X44948000Y-40327000D01*
X44928000Y-40327000D01*
X44928000Y-40073000D01*
X44948000Y-40073000D01*
X44948000Y-39023750D01*
X44789250Y-38865000D01*
X44469307Y-38865000D01*
X44469307Y-38606695D01*
X44483706Y-38534307D01*
X44426661Y-38247525D01*
X44426661Y-38247524D01*
X44264212Y-38004402D01*
X44202845Y-37963398D01*
X43235000Y-36995554D01*
X43235000Y-36794126D01*
X43077431Y-36413720D01*
X42786280Y-36122569D01*
X42405874Y-35965000D01*
X41994126Y-35965000D01*
X41613720Y-36122569D01*
X41322569Y-36413720D01*
X41185304Y-36745108D01*
X41129905Y-36662197D01*
X41068538Y-36621193D01*
X40342898Y-35895554D01*
X40342898Y-35694126D01*
X40185329Y-35313720D01*
X39894178Y-35022569D01*
X39513772Y-34865000D01*
X39292898Y-34865000D01*
X39292898Y-34704071D01*
X40915000Y-34704071D01*
X40915000Y-35095929D01*
X41064958Y-35457958D01*
X41342042Y-35735042D01*
X41704071Y-35885000D01*
X42095929Y-35885000D01*
X42457958Y-35735042D01*
X42735042Y-35457958D01*
X42885000Y-35095929D01*
X42885000Y-34704071D01*
X42735042Y-34342042D01*
X42457958Y-34064958D01*
X42095929Y-33915000D01*
X41704071Y-33915000D01*
X41342042Y-34064958D01*
X41064958Y-34342042D01*
X40915000Y-34704071D01*
X39292898Y-34704071D01*
X39142940Y-34342042D01*
X38865856Y-34064958D01*
X38503827Y-33915000D01*
X38111969Y-33915000D01*
X37749940Y-34064958D01*
X37472856Y-34342042D01*
X37322898Y-34704071D01*
X37322898Y-35095929D01*
X37472856Y-35457958D01*
X37749940Y-35735042D01*
X38111969Y-35885000D01*
X38272898Y-35885000D01*
X38272898Y-36105874D01*
X38430467Y-36486280D01*
X38721618Y-36777431D01*
X39102024Y-36935000D01*
X39303452Y-36935000D01*
X39865000Y-37496549D01*
X39865001Y-40027611D01*
X39850602Y-40100000D01*
X39907646Y-40386782D01*
X39974465Y-40486783D01*
X40070096Y-40629905D01*
X40131463Y-40670909D01*
X40665000Y-41204447D01*
X40665001Y-41971288D01*
X40522569Y-42113720D01*
X40365000Y-42494126D01*
X40365000Y-42905874D01*
X40522569Y-43286280D01*
X40813720Y-43577431D01*
X40965001Y-43640093D01*
X40965000Y-45205449D01*
X40950602Y-45277834D01*
X40965000Y-45350218D01*
X40965000Y-45350221D01*
X41007646Y-45564616D01*
X41170095Y-45807739D01*
X41231465Y-45848745D01*
X41672720Y-46290000D01*
X27710000Y-46290000D01*
X27710000Y-36605159D01*
X28015000Y-36605159D01*
X28015000Y-37394841D01*
X28317199Y-38124412D01*
X28875588Y-38682801D01*
X29605159Y-38985000D01*
X30394841Y-38985000D01*
X31124412Y-38682801D01*
X31511040Y-38296173D01*
X37322898Y-38296173D01*
X37322898Y-38688031D01*
X37472856Y-39050060D01*
X37749940Y-39327144D01*
X38111969Y-39477102D01*
X38503827Y-39477102D01*
X38865856Y-39327144D01*
X39142940Y-39050060D01*
X39292898Y-38688031D01*
X39292898Y-38296173D01*
X39142940Y-37934144D01*
X38865856Y-37657060D01*
X38503827Y-37507102D01*
X38111969Y-37507102D01*
X37749940Y-37657060D01*
X37472856Y-37934144D01*
X37322898Y-38296173D01*
X31511040Y-38296173D01*
X31682801Y-38124412D01*
X31985000Y-37394841D01*
X31985000Y-36605159D01*
X31682801Y-35875588D01*
X31124412Y-35317199D01*
X30394841Y-35015000D01*
X29605159Y-35015000D01*
X28875588Y-35317199D01*
X28317199Y-35875588D01*
X28015000Y-36605159D01*
X27710000Y-36605159D01*
X27710000Y-27710000D01*
X35370462Y-27710000D01*
X35352560Y-27800000D01*
X35352560Y-27800000D01*
G37*
X35352560Y-27800000D02*
X35352560Y-30000000D01*
X35401843Y-30247765D01*
X35542191Y-30457809D01*
X35752235Y-30598157D01*
X36000000Y-30647440D01*
X38000000Y-30647440D01*
X38247765Y-30598157D01*
X38400000Y-30496436D01*
X38552235Y-30598157D01*
X38800000Y-30647440D01*
X38936015Y-30647440D01*
X39070095Y-30848105D01*
X39131464Y-30889111D01*
X39635890Y-31393537D01*
X39676895Y-31454905D01*
X39920017Y-31617354D01*
X40134412Y-31660000D01*
X40134416Y-31660000D01*
X40206800Y-31674398D01*
X40279184Y-31660000D01*
X44120816Y-31660000D01*
X44193200Y-31674398D01*
X44265584Y-31660000D01*
X44265588Y-31660000D01*
X44479983Y-31617354D01*
X44723105Y-31454905D01*
X44764111Y-31393535D01*
X45231652Y-30925995D01*
X45302235Y-30973157D01*
X45550000Y-31022440D01*
X45950000Y-31022440D01*
X46053852Y-31001783D01*
X46073690Y-31010000D01*
X46141250Y-31010000D01*
X46173208Y-30978042D01*
X46197765Y-30973157D01*
X46400000Y-30838027D01*
X46602235Y-30973157D01*
X46626792Y-30978042D01*
X46658750Y-31010000D01*
X46726310Y-31010000D01*
X46746148Y-31001783D01*
X46850000Y-31022440D01*
X46940000Y-31022440D01*
X46940000Y-31205874D01*
X47097569Y-31586280D01*
X47388720Y-31877431D01*
X47769126Y-32035000D01*
X48180874Y-32035000D01*
X48500000Y-31902814D01*
X48819126Y-32035000D01*
X48990002Y-32035000D01*
X48990002Y-33370551D01*
X46656465Y-35704089D01*
X46595095Y-35745095D01*
X46432646Y-35988218D01*
X46390000Y-36202613D01*
X46390000Y-36202616D01*
X46375602Y-36275000D01*
X46390000Y-36347384D01*
X46390001Y-38965349D01*
X46165414Y-39115414D01*
X46164623Y-39116597D01*
X46009698Y-38961673D01*
X45776309Y-38865000D01*
X45360750Y-38865000D01*
X45202000Y-39023750D01*
X45202000Y-40073000D01*
X45222000Y-40073000D01*
X45222000Y-40327000D01*
X45202000Y-40327000D01*
X45202000Y-40347000D01*
X44948000Y-40347000D01*
X44948000Y-40327000D01*
X44928000Y-40327000D01*
X44928000Y-40073000D01*
X44948000Y-40073000D01*
X44948000Y-39023750D01*
X44789250Y-38865000D01*
X44469307Y-38865000D01*
X44469307Y-38606695D01*
X44483706Y-38534307D01*
X44426661Y-38247525D01*
X44426661Y-38247524D01*
X44264212Y-38004402D01*
X44202845Y-37963398D01*
X43235000Y-36995554D01*
X43235000Y-36794126D01*
X43077431Y-36413720D01*
X42786280Y-36122569D01*
X42405874Y-35965000D01*
X41994126Y-35965000D01*
X41613720Y-36122569D01*
X41322569Y-36413720D01*
X41185304Y-36745108D01*
X41129905Y-36662197D01*
X41068538Y-36621193D01*
X40342898Y-35895554D01*
X40342898Y-35694126D01*
X40185329Y-35313720D01*
X39894178Y-35022569D01*
X39513772Y-34865000D01*
X39292898Y-34865000D01*
X39292898Y-34704071D01*
X40915000Y-34704071D01*
X40915000Y-35095929D01*
X41064958Y-35457958D01*
X41342042Y-35735042D01*
X41704071Y-35885000D01*
X42095929Y-35885000D01*
X42457958Y-35735042D01*
X42735042Y-35457958D01*
X42885000Y-35095929D01*
X42885000Y-34704071D01*
X42735042Y-34342042D01*
X42457958Y-34064958D01*
X42095929Y-33915000D01*
X41704071Y-33915000D01*
X41342042Y-34064958D01*
X41064958Y-34342042D01*
X40915000Y-34704071D01*
X39292898Y-34704071D01*
X39142940Y-34342042D01*
X38865856Y-34064958D01*
X38503827Y-33915000D01*
X38111969Y-33915000D01*
X37749940Y-34064958D01*
X37472856Y-34342042D01*
X37322898Y-34704071D01*
X37322898Y-35095929D01*
X37472856Y-35457958D01*
X37749940Y-35735042D01*
X38111969Y-35885000D01*
X38272898Y-35885000D01*
X38272898Y-36105874D01*
X38430467Y-36486280D01*
X38721618Y-36777431D01*
X39102024Y-36935000D01*
X39303452Y-36935000D01*
X39865000Y-37496549D01*
X39865001Y-40027611D01*
X39850602Y-40100000D01*
X39907646Y-40386782D01*
X39974465Y-40486783D01*
X40070096Y-40629905D01*
X40131463Y-40670909D01*
X40665000Y-41204447D01*
X40665001Y-41971288D01*
X40522569Y-42113720D01*
X40365000Y-42494126D01*
X40365000Y-42905874D01*
X40522569Y-43286280D01*
X40813720Y-43577431D01*
X40965001Y-43640093D01*
X40965000Y-45205449D01*
X40950602Y-45277834D01*
X40965000Y-45350218D01*
X40965000Y-45350221D01*
X41007646Y-45564616D01*
X41170095Y-45807739D01*
X41231465Y-45848745D01*
X41672720Y-46290000D01*
X27710000Y-46290000D01*
X27710000Y-36605159D01*
X28015000Y-36605159D01*
X28015000Y-37394841D01*
X28317199Y-38124412D01*
X28875588Y-38682801D01*
X29605159Y-38985000D01*
X30394841Y-38985000D01*
X31124412Y-38682801D01*
X31511040Y-38296173D01*
X37322898Y-38296173D01*
X37322898Y-38688031D01*
X37472856Y-39050060D01*
X37749940Y-39327144D01*
X38111969Y-39477102D01*
X38503827Y-39477102D01*
X38865856Y-39327144D01*
X39142940Y-39050060D01*
X39292898Y-38688031D01*
X39292898Y-38296173D01*
X39142940Y-37934144D01*
X38865856Y-37657060D01*
X38503827Y-37507102D01*
X38111969Y-37507102D01*
X37749940Y-37657060D01*
X37472856Y-37934144D01*
X37322898Y-38296173D01*
X31511040Y-38296173D01*
X31682801Y-38124412D01*
X31985000Y-37394841D01*
X31985000Y-36605159D01*
X31682801Y-35875588D01*
X31124412Y-35317199D01*
X30394841Y-35015000D01*
X29605159Y-35015000D01*
X28875588Y-35317199D01*
X28317199Y-35875588D01*
X28015000Y-36605159D01*
X27710000Y-36605159D01*
X27710000Y-27710000D01*
X35370462Y-27710000D01*
X35352560Y-27800000D01*
G36*
X42927000Y-42648000D02*
X42947000Y-42648000D01*
X42947000Y-42902000D01*
X42927000Y-42902000D01*
X42927000Y-42922000D01*
X42673000Y-42922000D01*
X42673000Y-42902000D01*
X42653000Y-42902000D01*
X42653000Y-42648000D01*
X42673000Y-42648000D01*
X42673000Y-42628000D01*
X42927000Y-42628000D01*
X42927000Y-42648000D01*
X42927000Y-42648000D01*
G37*
X42927000Y-42648000D02*
X42947000Y-42648000D01*
X42947000Y-42902000D01*
X42927000Y-42902000D01*
X42927000Y-42922000D01*
X42673000Y-42922000D01*
X42673000Y-42902000D01*
X42653000Y-42902000D01*
X42653000Y-42648000D01*
X42673000Y-42648000D01*
X42673000Y-42628000D01*
X42927000Y-42628000D01*
X42927000Y-42648000D01*
G36*
X43127000Y-28773000D02*
X43147000Y-28773000D01*
X43147000Y-29027000D01*
X43127000Y-29027000D01*
X43127000Y-29047000D01*
X42873000Y-29047000D01*
X42873000Y-29027000D01*
X42853000Y-29027000D01*
X42853000Y-28773000D01*
X42873000Y-28773000D01*
X42873000Y-28753000D01*
X43127000Y-28753000D01*
X43127000Y-28773000D01*
X43127000Y-28773000D01*
G37*
X43127000Y-28773000D02*
X43147000Y-28773000D01*
X43147000Y-29027000D01*
X43127000Y-29027000D01*
X43127000Y-29047000D01*
X42873000Y-29047000D01*
X42873000Y-29027000D01*
X42853000Y-29027000D01*
X42853000Y-28773000D01*
X42873000Y-28773000D01*
X42873000Y-28753000D01*
X43127000Y-28753000D01*
X43127000Y-28773000D01*
G36*
X44635000Y-28269216D02*
X44635000Y-28234999D01*
X44686210Y-28234999D01*
X44635000Y-28269216D01*
X44635000Y-28269216D01*
G37*
X44635000Y-28269216D02*
X44635000Y-28234999D01*
X44686210Y-28234999D01*
X44635000Y-28269216D01*
G04 #@! TD*
M02*
