G04 #@! TF.GenerationSoftware,KiCad,Pcbnew,(5.0.0)*
G04 #@! TF.CreationDate,2018-09-26T10:31:33+02:00*
G04 #@! TF.ProjectId,OpenThermalCamera,4F70656E546865726D616C43616D6572,rev?*
G04 #@! TF.SameCoordinates,Original*
G04 #@! TF.FileFunction,Copper,L2,Bot,Signal*
G04 #@! TF.FilePolarity,Positive*
%FSLAX46Y46*%
G04 Gerber Fmt 4.6, Leading zero omitted, Abs format (unit mm)*
G04 Created by KiCad (PCBNEW (5.0.0)) date 09/26/18 10:31:33*
%MOMM*%
%LPD*%
G01*
G04 APERTURE LIST*
G04 #@! TA.AperFunction,SMDPad,CuDef*
%ADD10R,2.180000X1.600000*%
G04 #@! TD*
G04 #@! TA.AperFunction,Conductor*
%ADD11C,0.100000*%
G04 #@! TD*
G04 #@! TA.AperFunction,SMDPad,CuDef*
%ADD12C,1.150000*%
G04 #@! TD*
G04 #@! TA.AperFunction,SMDPad,CuDef*
%ADD13R,2.400000X0.740000*%
G04 #@! TD*
G04 #@! TA.AperFunction,SMDPad,CuDef*
%ADD14R,1.450000X0.450000*%
G04 #@! TD*
G04 #@! TA.AperFunction,ComponentPad*
%ADD15C,1.200000*%
G04 #@! TD*
G04 #@! TA.AperFunction,Conductor*
%ADD16C,1.200000*%
G04 #@! TD*
G04 #@! TA.AperFunction,ViaPad*
%ADD17C,0.800000*%
G04 #@! TD*
G04 #@! TA.AperFunction,Conductor*
%ADD18C,0.200000*%
G04 #@! TD*
G04 #@! TA.AperFunction,Conductor*
%ADD19C,0.254000*%
G04 #@! TD*
G04 APERTURE END LIST*
D10*
G04 #@! TO.P,SW1,1*
G04 #@! TO.N,/BOOT0*
X31710000Y-29000000D03*
G04 #@! TO.P,SW1,2*
G04 #@! TO.N,+3V3*
X40890000Y-29000000D03*
G04 #@! TD*
D11*
G04 #@! TO.N,+3V3*
G04 #@! TO.C,C5*
G36*
X34474505Y-35101204D02*
X34498773Y-35104804D01*
X34522572Y-35110765D01*
X34545671Y-35119030D01*
X34567850Y-35129520D01*
X34588893Y-35142132D01*
X34608599Y-35156747D01*
X34626777Y-35173223D01*
X34643253Y-35191401D01*
X34657868Y-35211107D01*
X34670480Y-35232150D01*
X34680970Y-35254329D01*
X34689235Y-35277428D01*
X34695196Y-35301227D01*
X34698796Y-35325495D01*
X34700000Y-35349999D01*
X34700000Y-36000001D01*
X34698796Y-36024505D01*
X34695196Y-36048773D01*
X34689235Y-36072572D01*
X34680970Y-36095671D01*
X34670480Y-36117850D01*
X34657868Y-36138893D01*
X34643253Y-36158599D01*
X34626777Y-36176777D01*
X34608599Y-36193253D01*
X34588893Y-36207868D01*
X34567850Y-36220480D01*
X34545671Y-36230970D01*
X34522572Y-36239235D01*
X34498773Y-36245196D01*
X34474505Y-36248796D01*
X34450001Y-36250000D01*
X33549999Y-36250000D01*
X33525495Y-36248796D01*
X33501227Y-36245196D01*
X33477428Y-36239235D01*
X33454329Y-36230970D01*
X33432150Y-36220480D01*
X33411107Y-36207868D01*
X33391401Y-36193253D01*
X33373223Y-36176777D01*
X33356747Y-36158599D01*
X33342132Y-36138893D01*
X33329520Y-36117850D01*
X33319030Y-36095671D01*
X33310765Y-36072572D01*
X33304804Y-36048773D01*
X33301204Y-36024505D01*
X33300000Y-36000001D01*
X33300000Y-35349999D01*
X33301204Y-35325495D01*
X33304804Y-35301227D01*
X33310765Y-35277428D01*
X33319030Y-35254329D01*
X33329520Y-35232150D01*
X33342132Y-35211107D01*
X33356747Y-35191401D01*
X33373223Y-35173223D01*
X33391401Y-35156747D01*
X33411107Y-35142132D01*
X33432150Y-35129520D01*
X33454329Y-35119030D01*
X33477428Y-35110765D01*
X33501227Y-35104804D01*
X33525495Y-35101204D01*
X33549999Y-35100000D01*
X34450001Y-35100000D01*
X34474505Y-35101204D01*
X34474505Y-35101204D01*
G37*
D12*
G04 #@! TD*
G04 #@! TO.P,C5,1*
G04 #@! TO.N,+3V3*
X34000000Y-35675000D03*
D11*
G04 #@! TO.N,GND*
G04 #@! TO.C,C5*
G36*
X34474505Y-37151204D02*
X34498773Y-37154804D01*
X34522572Y-37160765D01*
X34545671Y-37169030D01*
X34567850Y-37179520D01*
X34588893Y-37192132D01*
X34608599Y-37206747D01*
X34626777Y-37223223D01*
X34643253Y-37241401D01*
X34657868Y-37261107D01*
X34670480Y-37282150D01*
X34680970Y-37304329D01*
X34689235Y-37327428D01*
X34695196Y-37351227D01*
X34698796Y-37375495D01*
X34700000Y-37399999D01*
X34700000Y-38050001D01*
X34698796Y-38074505D01*
X34695196Y-38098773D01*
X34689235Y-38122572D01*
X34680970Y-38145671D01*
X34670480Y-38167850D01*
X34657868Y-38188893D01*
X34643253Y-38208599D01*
X34626777Y-38226777D01*
X34608599Y-38243253D01*
X34588893Y-38257868D01*
X34567850Y-38270480D01*
X34545671Y-38280970D01*
X34522572Y-38289235D01*
X34498773Y-38295196D01*
X34474505Y-38298796D01*
X34450001Y-38300000D01*
X33549999Y-38300000D01*
X33525495Y-38298796D01*
X33501227Y-38295196D01*
X33477428Y-38289235D01*
X33454329Y-38280970D01*
X33432150Y-38270480D01*
X33411107Y-38257868D01*
X33391401Y-38243253D01*
X33373223Y-38226777D01*
X33356747Y-38208599D01*
X33342132Y-38188893D01*
X33329520Y-38167850D01*
X33319030Y-38145671D01*
X33310765Y-38122572D01*
X33304804Y-38098773D01*
X33301204Y-38074505D01*
X33300000Y-38050001D01*
X33300000Y-37399999D01*
X33301204Y-37375495D01*
X33304804Y-37351227D01*
X33310765Y-37327428D01*
X33319030Y-37304329D01*
X33329520Y-37282150D01*
X33342132Y-37261107D01*
X33356747Y-37241401D01*
X33373223Y-37223223D01*
X33391401Y-37206747D01*
X33411107Y-37192132D01*
X33432150Y-37179520D01*
X33454329Y-37169030D01*
X33477428Y-37160765D01*
X33501227Y-37154804D01*
X33525495Y-37151204D01*
X33549999Y-37150000D01*
X34450001Y-37150000D01*
X34474505Y-37151204D01*
X34474505Y-37151204D01*
G37*
D12*
G04 #@! TD*
G04 #@! TO.P,C5,2*
G04 #@! TO.N,GND*
X34000000Y-37725000D03*
D11*
G04 #@! TO.N,GND*
G04 #@! TO.C,C4*
G36*
X36674505Y-37151204D02*
X36698773Y-37154804D01*
X36722572Y-37160765D01*
X36745671Y-37169030D01*
X36767850Y-37179520D01*
X36788893Y-37192132D01*
X36808599Y-37206747D01*
X36826777Y-37223223D01*
X36843253Y-37241401D01*
X36857868Y-37261107D01*
X36870480Y-37282150D01*
X36880970Y-37304329D01*
X36889235Y-37327428D01*
X36895196Y-37351227D01*
X36898796Y-37375495D01*
X36900000Y-37399999D01*
X36900000Y-38050001D01*
X36898796Y-38074505D01*
X36895196Y-38098773D01*
X36889235Y-38122572D01*
X36880970Y-38145671D01*
X36870480Y-38167850D01*
X36857868Y-38188893D01*
X36843253Y-38208599D01*
X36826777Y-38226777D01*
X36808599Y-38243253D01*
X36788893Y-38257868D01*
X36767850Y-38270480D01*
X36745671Y-38280970D01*
X36722572Y-38289235D01*
X36698773Y-38295196D01*
X36674505Y-38298796D01*
X36650001Y-38300000D01*
X35749999Y-38300000D01*
X35725495Y-38298796D01*
X35701227Y-38295196D01*
X35677428Y-38289235D01*
X35654329Y-38280970D01*
X35632150Y-38270480D01*
X35611107Y-38257868D01*
X35591401Y-38243253D01*
X35573223Y-38226777D01*
X35556747Y-38208599D01*
X35542132Y-38188893D01*
X35529520Y-38167850D01*
X35519030Y-38145671D01*
X35510765Y-38122572D01*
X35504804Y-38098773D01*
X35501204Y-38074505D01*
X35500000Y-38050001D01*
X35500000Y-37399999D01*
X35501204Y-37375495D01*
X35504804Y-37351227D01*
X35510765Y-37327428D01*
X35519030Y-37304329D01*
X35529520Y-37282150D01*
X35542132Y-37261107D01*
X35556747Y-37241401D01*
X35573223Y-37223223D01*
X35591401Y-37206747D01*
X35611107Y-37192132D01*
X35632150Y-37179520D01*
X35654329Y-37169030D01*
X35677428Y-37160765D01*
X35701227Y-37154804D01*
X35725495Y-37151204D01*
X35749999Y-37150000D01*
X36650001Y-37150000D01*
X36674505Y-37151204D01*
X36674505Y-37151204D01*
G37*
D12*
G04 #@! TD*
G04 #@! TO.P,C4,2*
G04 #@! TO.N,GND*
X36200000Y-37725000D03*
D11*
G04 #@! TO.N,+3V3*
G04 #@! TO.C,C4*
G36*
X36674505Y-35101204D02*
X36698773Y-35104804D01*
X36722572Y-35110765D01*
X36745671Y-35119030D01*
X36767850Y-35129520D01*
X36788893Y-35142132D01*
X36808599Y-35156747D01*
X36826777Y-35173223D01*
X36843253Y-35191401D01*
X36857868Y-35211107D01*
X36870480Y-35232150D01*
X36880970Y-35254329D01*
X36889235Y-35277428D01*
X36895196Y-35301227D01*
X36898796Y-35325495D01*
X36900000Y-35349999D01*
X36900000Y-36000001D01*
X36898796Y-36024505D01*
X36895196Y-36048773D01*
X36889235Y-36072572D01*
X36880970Y-36095671D01*
X36870480Y-36117850D01*
X36857868Y-36138893D01*
X36843253Y-36158599D01*
X36826777Y-36176777D01*
X36808599Y-36193253D01*
X36788893Y-36207868D01*
X36767850Y-36220480D01*
X36745671Y-36230970D01*
X36722572Y-36239235D01*
X36698773Y-36245196D01*
X36674505Y-36248796D01*
X36650001Y-36250000D01*
X35749999Y-36250000D01*
X35725495Y-36248796D01*
X35701227Y-36245196D01*
X35677428Y-36239235D01*
X35654329Y-36230970D01*
X35632150Y-36220480D01*
X35611107Y-36207868D01*
X35591401Y-36193253D01*
X35573223Y-36176777D01*
X35556747Y-36158599D01*
X35542132Y-36138893D01*
X35529520Y-36117850D01*
X35519030Y-36095671D01*
X35510765Y-36072572D01*
X35504804Y-36048773D01*
X35501204Y-36024505D01*
X35500000Y-36000001D01*
X35500000Y-35349999D01*
X35501204Y-35325495D01*
X35504804Y-35301227D01*
X35510765Y-35277428D01*
X35519030Y-35254329D01*
X35529520Y-35232150D01*
X35542132Y-35211107D01*
X35556747Y-35191401D01*
X35573223Y-35173223D01*
X35591401Y-35156747D01*
X35611107Y-35142132D01*
X35632150Y-35129520D01*
X35654329Y-35119030D01*
X35677428Y-35110765D01*
X35701227Y-35104804D01*
X35725495Y-35101204D01*
X35749999Y-35100000D01*
X36650001Y-35100000D01*
X36674505Y-35101204D01*
X36674505Y-35101204D01*
G37*
D12*
G04 #@! TD*
G04 #@! TO.P,C4,1*
G04 #@! TO.N,+3V3*
X36200000Y-35675000D03*
D13*
G04 #@! TO.P,J1,1*
G04 #@! TO.N,+3V3*
X32450000Y-45640000D03*
G04 #@! TO.P,J1,2*
G04 #@! TO.N,/SWDIO*
X36350000Y-45640000D03*
G04 #@! TO.P,J1,3*
G04 #@! TO.N,GND*
X32450000Y-44370000D03*
G04 #@! TO.P,J1,4*
G04 #@! TO.N,/SWDCLK*
X36350000Y-44370000D03*
G04 #@! TO.P,J1,5*
G04 #@! TO.N,GND*
X32450000Y-43100000D03*
G04 #@! TO.P,J1,6*
G04 #@! TO.N,Net-(J1-Pad6)*
X36350000Y-43100000D03*
G04 #@! TO.P,J1,7*
G04 #@! TO.N,Net-(J1-Pad7)*
X32450000Y-41830000D03*
G04 #@! TO.P,J1,8*
G04 #@! TO.N,Net-(J1-Pad8)*
X36350000Y-41830000D03*
G04 #@! TO.P,J1,9*
G04 #@! TO.N,GND*
X32450000Y-40560000D03*
G04 #@! TO.P,J1,10*
G04 #@! TO.N,Net-(J1-Pad10)*
X36350000Y-40560000D03*
G04 #@! TD*
D14*
G04 #@! TO.P,U3,1*
G04 #@! TO.N,/BOOT0*
X45850000Y-40075000D03*
G04 #@! TO.P,U3,2*
G04 #@! TO.N,/I2C_SDA*
X45850000Y-40725000D03*
G04 #@! TO.P,U3,3*
G04 #@! TO.N,/I2C_SCL*
X45850000Y-41375000D03*
G04 #@! TO.P,U3,4*
G04 #@! TO.N,Net-(U3-Pad4)*
X45850000Y-42025000D03*
G04 #@! TO.P,U3,5*
G04 #@! TO.N,+3V3*
X45850000Y-42675000D03*
G04 #@! TO.P,U3,6*
G04 #@! TO.N,Net-(U3-Pad6)*
X45850000Y-43325000D03*
G04 #@! TO.P,U3,7*
G04 #@! TO.N,Net-(U3-Pad7)*
X45850000Y-43975000D03*
G04 #@! TO.P,U3,8*
G04 #@! TO.N,Net-(U3-Pad8)*
X45850000Y-44625000D03*
G04 #@! TO.P,U3,9*
G04 #@! TO.N,Net-(U3-Pad9)*
X45850000Y-45275000D03*
G04 #@! TO.P,U3,10*
G04 #@! TO.N,Net-(U3-Pad10)*
X45850000Y-45925000D03*
G04 #@! TO.P,U3,11*
G04 #@! TO.N,Net-(U3-Pad11)*
X39950000Y-45925000D03*
G04 #@! TO.P,U3,12*
G04 #@! TO.N,Net-(U3-Pad12)*
X39950000Y-45275000D03*
G04 #@! TO.P,U3,13*
G04 #@! TO.N,Net-(U3-Pad13)*
X39950000Y-44625000D03*
G04 #@! TO.P,U3,14*
G04 #@! TO.N,Net-(U3-Pad14)*
X39950000Y-43975000D03*
G04 #@! TO.P,U3,15*
G04 #@! TO.N,GND*
X39950000Y-43325000D03*
G04 #@! TO.P,U3,16*
G04 #@! TO.N,+3V3*
X39950000Y-42675000D03*
G04 #@! TO.P,U3,17*
G04 #@! TO.N,/USB_P*
X39950000Y-42025000D03*
G04 #@! TO.P,U3,18*
G04 #@! TO.N,/USB_N*
X39950000Y-41375000D03*
G04 #@! TO.P,U3,19*
G04 #@! TO.N,/SWDIO*
X39950000Y-40725000D03*
G04 #@! TO.P,U3,20*
G04 #@! TO.N,/SWDCLK*
X39950000Y-40075000D03*
G04 #@! TD*
D15*
G04 #@! TO.P,U1,1*
G04 #@! TO.N,/I2C_SDA*
X41900000Y-34900000D03*
D16*
G04 #@! TD*
G04 #@! TO.N,/I2C_SDA*
G04 #@! TO.C,U1*
X42041421Y-34758579D02*
X41758579Y-35041421D01*
D15*
G04 #@! TO.P,U1,2*
G04 #@! TO.N,+3V3*
X38307898Y-34900000D03*
D16*
G04 #@! TD*
G04 #@! TO.N,+3V3*
G04 #@! TO.C,U1*
X38307898Y-34900000D02*
X38307898Y-34900000D01*
D15*
G04 #@! TO.P,U1,3*
G04 #@! TO.N,GND*
X38307898Y-38492102D03*
D16*
G04 #@! TD*
G04 #@! TO.N,GND*
G04 #@! TO.C,U1*
X38307898Y-38492102D02*
X38307898Y-38492102D01*
D15*
G04 #@! TO.P,U1,4*
G04 #@! TO.N,/I2C_SCL*
X41900000Y-38492102D03*
D16*
G04 #@! TD*
G04 #@! TO.N,/I2C_SCL*
G04 #@! TO.C,U1*
X41900000Y-38492102D02*
X41900000Y-38492102D01*
D11*
G04 #@! TO.N,+3V3*
G04 #@! TO.C,R3*
G36*
X44474505Y-35201204D02*
X44498773Y-35204804D01*
X44522572Y-35210765D01*
X44545671Y-35219030D01*
X44567850Y-35229520D01*
X44588893Y-35242132D01*
X44608599Y-35256747D01*
X44626777Y-35273223D01*
X44643253Y-35291401D01*
X44657868Y-35311107D01*
X44670480Y-35332150D01*
X44680970Y-35354329D01*
X44689235Y-35377428D01*
X44695196Y-35401227D01*
X44698796Y-35425495D01*
X44700000Y-35449999D01*
X44700000Y-36100001D01*
X44698796Y-36124505D01*
X44695196Y-36148773D01*
X44689235Y-36172572D01*
X44680970Y-36195671D01*
X44670480Y-36217850D01*
X44657868Y-36238893D01*
X44643253Y-36258599D01*
X44626777Y-36276777D01*
X44608599Y-36293253D01*
X44588893Y-36307868D01*
X44567850Y-36320480D01*
X44545671Y-36330970D01*
X44522572Y-36339235D01*
X44498773Y-36345196D01*
X44474505Y-36348796D01*
X44450001Y-36350000D01*
X43549999Y-36350000D01*
X43525495Y-36348796D01*
X43501227Y-36345196D01*
X43477428Y-36339235D01*
X43454329Y-36330970D01*
X43432150Y-36320480D01*
X43411107Y-36307868D01*
X43391401Y-36293253D01*
X43373223Y-36276777D01*
X43356747Y-36258599D01*
X43342132Y-36238893D01*
X43329520Y-36217850D01*
X43319030Y-36195671D01*
X43310765Y-36172572D01*
X43304804Y-36148773D01*
X43301204Y-36124505D01*
X43300000Y-36100001D01*
X43300000Y-35449999D01*
X43301204Y-35425495D01*
X43304804Y-35401227D01*
X43310765Y-35377428D01*
X43319030Y-35354329D01*
X43329520Y-35332150D01*
X43342132Y-35311107D01*
X43356747Y-35291401D01*
X43373223Y-35273223D01*
X43391401Y-35256747D01*
X43411107Y-35242132D01*
X43432150Y-35229520D01*
X43454329Y-35219030D01*
X43477428Y-35210765D01*
X43501227Y-35204804D01*
X43525495Y-35201204D01*
X43549999Y-35200000D01*
X44450001Y-35200000D01*
X44474505Y-35201204D01*
X44474505Y-35201204D01*
G37*
D12*
G04 #@! TD*
G04 #@! TO.P,R3,1*
G04 #@! TO.N,+3V3*
X44000000Y-35775000D03*
D11*
G04 #@! TO.N,/I2C_SCL*
G04 #@! TO.C,R3*
G36*
X44474505Y-37251204D02*
X44498773Y-37254804D01*
X44522572Y-37260765D01*
X44545671Y-37269030D01*
X44567850Y-37279520D01*
X44588893Y-37292132D01*
X44608599Y-37306747D01*
X44626777Y-37323223D01*
X44643253Y-37341401D01*
X44657868Y-37361107D01*
X44670480Y-37382150D01*
X44680970Y-37404329D01*
X44689235Y-37427428D01*
X44695196Y-37451227D01*
X44698796Y-37475495D01*
X44700000Y-37499999D01*
X44700000Y-38150001D01*
X44698796Y-38174505D01*
X44695196Y-38198773D01*
X44689235Y-38222572D01*
X44680970Y-38245671D01*
X44670480Y-38267850D01*
X44657868Y-38288893D01*
X44643253Y-38308599D01*
X44626777Y-38326777D01*
X44608599Y-38343253D01*
X44588893Y-38357868D01*
X44567850Y-38370480D01*
X44545671Y-38380970D01*
X44522572Y-38389235D01*
X44498773Y-38395196D01*
X44474505Y-38398796D01*
X44450001Y-38400000D01*
X43549999Y-38400000D01*
X43525495Y-38398796D01*
X43501227Y-38395196D01*
X43477428Y-38389235D01*
X43454329Y-38380970D01*
X43432150Y-38370480D01*
X43411107Y-38357868D01*
X43391401Y-38343253D01*
X43373223Y-38326777D01*
X43356747Y-38308599D01*
X43342132Y-38288893D01*
X43329520Y-38267850D01*
X43319030Y-38245671D01*
X43310765Y-38222572D01*
X43304804Y-38198773D01*
X43301204Y-38174505D01*
X43300000Y-38150001D01*
X43300000Y-37499999D01*
X43301204Y-37475495D01*
X43304804Y-37451227D01*
X43310765Y-37427428D01*
X43319030Y-37404329D01*
X43329520Y-37382150D01*
X43342132Y-37361107D01*
X43356747Y-37341401D01*
X43373223Y-37323223D01*
X43391401Y-37306747D01*
X43411107Y-37292132D01*
X43432150Y-37279520D01*
X43454329Y-37269030D01*
X43477428Y-37260765D01*
X43501227Y-37254804D01*
X43525495Y-37251204D01*
X43549999Y-37250000D01*
X44450001Y-37250000D01*
X44474505Y-37251204D01*
X44474505Y-37251204D01*
G37*
D12*
G04 #@! TD*
G04 #@! TO.P,R3,2*
G04 #@! TO.N,/I2C_SCL*
X44000000Y-37825000D03*
D11*
G04 #@! TO.N,/I2C_SDA*
G04 #@! TO.C,R2*
G36*
X46574505Y-37251204D02*
X46598773Y-37254804D01*
X46622572Y-37260765D01*
X46645671Y-37269030D01*
X46667850Y-37279520D01*
X46688893Y-37292132D01*
X46708599Y-37306747D01*
X46726777Y-37323223D01*
X46743253Y-37341401D01*
X46757868Y-37361107D01*
X46770480Y-37382150D01*
X46780970Y-37404329D01*
X46789235Y-37427428D01*
X46795196Y-37451227D01*
X46798796Y-37475495D01*
X46800000Y-37499999D01*
X46800000Y-38150001D01*
X46798796Y-38174505D01*
X46795196Y-38198773D01*
X46789235Y-38222572D01*
X46780970Y-38245671D01*
X46770480Y-38267850D01*
X46757868Y-38288893D01*
X46743253Y-38308599D01*
X46726777Y-38326777D01*
X46708599Y-38343253D01*
X46688893Y-38357868D01*
X46667850Y-38370480D01*
X46645671Y-38380970D01*
X46622572Y-38389235D01*
X46598773Y-38395196D01*
X46574505Y-38398796D01*
X46550001Y-38400000D01*
X45649999Y-38400000D01*
X45625495Y-38398796D01*
X45601227Y-38395196D01*
X45577428Y-38389235D01*
X45554329Y-38380970D01*
X45532150Y-38370480D01*
X45511107Y-38357868D01*
X45491401Y-38343253D01*
X45473223Y-38326777D01*
X45456747Y-38308599D01*
X45442132Y-38288893D01*
X45429520Y-38267850D01*
X45419030Y-38245671D01*
X45410765Y-38222572D01*
X45404804Y-38198773D01*
X45401204Y-38174505D01*
X45400000Y-38150001D01*
X45400000Y-37499999D01*
X45401204Y-37475495D01*
X45404804Y-37451227D01*
X45410765Y-37427428D01*
X45419030Y-37404329D01*
X45429520Y-37382150D01*
X45442132Y-37361107D01*
X45456747Y-37341401D01*
X45473223Y-37323223D01*
X45491401Y-37306747D01*
X45511107Y-37292132D01*
X45532150Y-37279520D01*
X45554329Y-37269030D01*
X45577428Y-37260765D01*
X45601227Y-37254804D01*
X45625495Y-37251204D01*
X45649999Y-37250000D01*
X46550001Y-37250000D01*
X46574505Y-37251204D01*
X46574505Y-37251204D01*
G37*
D12*
G04 #@! TD*
G04 #@! TO.P,R2,2*
G04 #@! TO.N,/I2C_SDA*
X46100000Y-37825000D03*
D11*
G04 #@! TO.N,+3V3*
G04 #@! TO.C,R2*
G36*
X46574505Y-35201204D02*
X46598773Y-35204804D01*
X46622572Y-35210765D01*
X46645671Y-35219030D01*
X46667850Y-35229520D01*
X46688893Y-35242132D01*
X46708599Y-35256747D01*
X46726777Y-35273223D01*
X46743253Y-35291401D01*
X46757868Y-35311107D01*
X46770480Y-35332150D01*
X46780970Y-35354329D01*
X46789235Y-35377428D01*
X46795196Y-35401227D01*
X46798796Y-35425495D01*
X46800000Y-35449999D01*
X46800000Y-36100001D01*
X46798796Y-36124505D01*
X46795196Y-36148773D01*
X46789235Y-36172572D01*
X46780970Y-36195671D01*
X46770480Y-36217850D01*
X46757868Y-36238893D01*
X46743253Y-36258599D01*
X46726777Y-36276777D01*
X46708599Y-36293253D01*
X46688893Y-36307868D01*
X46667850Y-36320480D01*
X46645671Y-36330970D01*
X46622572Y-36339235D01*
X46598773Y-36345196D01*
X46574505Y-36348796D01*
X46550001Y-36350000D01*
X45649999Y-36350000D01*
X45625495Y-36348796D01*
X45601227Y-36345196D01*
X45577428Y-36339235D01*
X45554329Y-36330970D01*
X45532150Y-36320480D01*
X45511107Y-36307868D01*
X45491401Y-36293253D01*
X45473223Y-36276777D01*
X45456747Y-36258599D01*
X45442132Y-36238893D01*
X45429520Y-36217850D01*
X45419030Y-36195671D01*
X45410765Y-36172572D01*
X45404804Y-36148773D01*
X45401204Y-36124505D01*
X45400000Y-36100001D01*
X45400000Y-35449999D01*
X45401204Y-35425495D01*
X45404804Y-35401227D01*
X45410765Y-35377428D01*
X45419030Y-35354329D01*
X45429520Y-35332150D01*
X45442132Y-35311107D01*
X45456747Y-35291401D01*
X45473223Y-35273223D01*
X45491401Y-35256747D01*
X45511107Y-35242132D01*
X45532150Y-35229520D01*
X45554329Y-35219030D01*
X45577428Y-35210765D01*
X45601227Y-35204804D01*
X45625495Y-35201204D01*
X45649999Y-35200000D01*
X46550001Y-35200000D01*
X46574505Y-35201204D01*
X46574505Y-35201204D01*
G37*
D12*
G04 #@! TD*
G04 #@! TO.P,R2,1*
G04 #@! TO.N,+3V3*
X46100000Y-35775000D03*
D11*
G04 #@! TO.N,/BOOT0*
G04 #@! TO.C,R1*
G36*
X49024505Y-40701204D02*
X49048773Y-40704804D01*
X49072572Y-40710765D01*
X49095671Y-40719030D01*
X49117850Y-40729520D01*
X49138893Y-40742132D01*
X49158599Y-40756747D01*
X49176777Y-40773223D01*
X49193253Y-40791401D01*
X49207868Y-40811107D01*
X49220480Y-40832150D01*
X49230970Y-40854329D01*
X49239235Y-40877428D01*
X49245196Y-40901227D01*
X49248796Y-40925495D01*
X49250000Y-40949999D01*
X49250000Y-41850001D01*
X49248796Y-41874505D01*
X49245196Y-41898773D01*
X49239235Y-41922572D01*
X49230970Y-41945671D01*
X49220480Y-41967850D01*
X49207868Y-41988893D01*
X49193253Y-42008599D01*
X49176777Y-42026777D01*
X49158599Y-42043253D01*
X49138893Y-42057868D01*
X49117850Y-42070480D01*
X49095671Y-42080970D01*
X49072572Y-42089235D01*
X49048773Y-42095196D01*
X49024505Y-42098796D01*
X49000001Y-42100000D01*
X48349999Y-42100000D01*
X48325495Y-42098796D01*
X48301227Y-42095196D01*
X48277428Y-42089235D01*
X48254329Y-42080970D01*
X48232150Y-42070480D01*
X48211107Y-42057868D01*
X48191401Y-42043253D01*
X48173223Y-42026777D01*
X48156747Y-42008599D01*
X48142132Y-41988893D01*
X48129520Y-41967850D01*
X48119030Y-41945671D01*
X48110765Y-41922572D01*
X48104804Y-41898773D01*
X48101204Y-41874505D01*
X48100000Y-41850001D01*
X48100000Y-40949999D01*
X48101204Y-40925495D01*
X48104804Y-40901227D01*
X48110765Y-40877428D01*
X48119030Y-40854329D01*
X48129520Y-40832150D01*
X48142132Y-40811107D01*
X48156747Y-40791401D01*
X48173223Y-40773223D01*
X48191401Y-40756747D01*
X48211107Y-40742132D01*
X48232150Y-40729520D01*
X48254329Y-40719030D01*
X48277428Y-40710765D01*
X48301227Y-40704804D01*
X48325495Y-40701204D01*
X48349999Y-40700000D01*
X49000001Y-40700000D01*
X49024505Y-40701204D01*
X49024505Y-40701204D01*
G37*
D12*
G04 #@! TD*
G04 #@! TO.P,R1,1*
G04 #@! TO.N,/BOOT0*
X48675000Y-41400000D03*
D11*
G04 #@! TO.N,GND*
G04 #@! TO.C,R1*
G36*
X51074505Y-40701204D02*
X51098773Y-40704804D01*
X51122572Y-40710765D01*
X51145671Y-40719030D01*
X51167850Y-40729520D01*
X51188893Y-40742132D01*
X51208599Y-40756747D01*
X51226777Y-40773223D01*
X51243253Y-40791401D01*
X51257868Y-40811107D01*
X51270480Y-40832150D01*
X51280970Y-40854329D01*
X51289235Y-40877428D01*
X51295196Y-40901227D01*
X51298796Y-40925495D01*
X51300000Y-40949999D01*
X51300000Y-41850001D01*
X51298796Y-41874505D01*
X51295196Y-41898773D01*
X51289235Y-41922572D01*
X51280970Y-41945671D01*
X51270480Y-41967850D01*
X51257868Y-41988893D01*
X51243253Y-42008599D01*
X51226777Y-42026777D01*
X51208599Y-42043253D01*
X51188893Y-42057868D01*
X51167850Y-42070480D01*
X51145671Y-42080970D01*
X51122572Y-42089235D01*
X51098773Y-42095196D01*
X51074505Y-42098796D01*
X51050001Y-42100000D01*
X50399999Y-42100000D01*
X50375495Y-42098796D01*
X50351227Y-42095196D01*
X50327428Y-42089235D01*
X50304329Y-42080970D01*
X50282150Y-42070480D01*
X50261107Y-42057868D01*
X50241401Y-42043253D01*
X50223223Y-42026777D01*
X50206747Y-42008599D01*
X50192132Y-41988893D01*
X50179520Y-41967850D01*
X50169030Y-41945671D01*
X50160765Y-41922572D01*
X50154804Y-41898773D01*
X50151204Y-41874505D01*
X50150000Y-41850001D01*
X50150000Y-40949999D01*
X50151204Y-40925495D01*
X50154804Y-40901227D01*
X50160765Y-40877428D01*
X50169030Y-40854329D01*
X50179520Y-40832150D01*
X50192132Y-40811107D01*
X50206747Y-40791401D01*
X50223223Y-40773223D01*
X50241401Y-40756747D01*
X50261107Y-40742132D01*
X50282150Y-40729520D01*
X50304329Y-40719030D01*
X50327428Y-40710765D01*
X50351227Y-40704804D01*
X50375495Y-40701204D01*
X50399999Y-40700000D01*
X51050001Y-40700000D01*
X51074505Y-40701204D01*
X51074505Y-40701204D01*
G37*
D12*
G04 #@! TD*
G04 #@! TO.P,R1,2*
G04 #@! TO.N,GND*
X50725000Y-41400000D03*
D17*
G04 #@! TO.N,/I2C_SCL*
X41500000Y-39700000D03*
X42984307Y-40884307D03*
G04 #@! TO.N,GND*
X41300000Y-45900000D03*
X44800000Y-28200000D03*
X46400000Y-31300000D03*
X52300000Y-42400000D03*
X40200000Y-35000000D03*
X51400000Y-29100000D03*
X29200000Y-45200000D03*
X34400000Y-39300000D03*
X44700000Y-33600000D03*
X38300000Y-31900000D03*
X30500000Y-32000000D03*
G04 #@! TO.N,+3V3*
X41400000Y-42700000D03*
X39307898Y-35900000D03*
G04 #@! TO.N,/I2C_SDA*
X42200000Y-37000000D03*
X43734307Y-40134307D03*
G04 #@! TO.N,/USB_P*
X49025000Y-31000000D03*
G04 #@! TO.N,/USB_N*
X47975000Y-31000000D03*
G04 #@! TD*
D18*
G04 #@! TO.N,/I2C_SCL*
X42567102Y-37825000D02*
X44000000Y-37825000D01*
X41900000Y-38492102D02*
X42567102Y-37825000D01*
X41500000Y-38892102D02*
X41900000Y-38492102D01*
X41500000Y-39700000D02*
X41500000Y-38892102D01*
X43475000Y-41375000D02*
X43384306Y-41284306D01*
X43384306Y-41284306D02*
X42984307Y-40884307D01*
X45850000Y-41375000D02*
X43475000Y-41375000D01*
G04 #@! TO.N,GND*
X44800000Y-28200000D02*
X44800000Y-28765685D01*
X44800000Y-28765685D02*
X44800000Y-29500000D01*
X44800000Y-29500000D02*
X46400000Y-31100000D01*
X46400000Y-31100000D02*
X46400000Y-31300000D01*
X50725000Y-41400000D02*
X51300000Y-41400000D01*
X51300000Y-41400000D02*
X52300000Y-42400000D01*
X40875000Y-43325000D02*
X39950000Y-43325000D01*
X44000001Y-46450001D02*
X40875000Y-43325000D01*
X46815001Y-46450001D02*
X44000001Y-46450001D01*
X50725000Y-42540002D02*
X46815001Y-46450001D01*
X50725000Y-41400000D02*
X50725000Y-42540002D01*
X34000000Y-38000000D02*
X34000000Y-37725000D01*
X34400000Y-38400000D02*
X34000000Y-38000000D01*
X32450000Y-44370000D02*
X33280000Y-44370000D01*
X33280000Y-44370000D02*
X34400000Y-43250000D01*
X34000000Y-37725000D02*
X36200000Y-37725000D01*
X37540796Y-37725000D02*
X38307898Y-38492102D01*
X36200000Y-37725000D02*
X37540796Y-37725000D01*
X34400000Y-40010000D02*
X34400000Y-39300000D01*
X33850000Y-40560000D02*
X34400000Y-40010000D01*
X32450000Y-40560000D02*
X33850000Y-40560000D01*
X34400000Y-38800000D02*
X34400000Y-38400000D01*
X33850000Y-43100000D02*
X34400000Y-43100000D01*
X32450000Y-43100000D02*
X33850000Y-43100000D01*
X34400000Y-43250000D02*
X34400000Y-43100000D01*
X34400000Y-43100000D02*
X34400000Y-38800000D01*
X49865689Y-29699989D02*
X52100000Y-31934300D01*
X52100000Y-40025000D02*
X51348372Y-40776628D01*
X51348372Y-40776628D02*
X50725000Y-41400000D01*
X52100000Y-31934300D02*
X52100000Y-40025000D01*
X47434326Y-29699989D02*
X49865689Y-29699989D01*
X46400000Y-30734315D02*
X47434326Y-29699989D01*
X46400000Y-31300000D02*
X46400000Y-30734315D01*
X40200000Y-36600000D02*
X38307898Y-38492102D01*
X40200000Y-35000000D02*
X40200000Y-36600000D01*
X34400000Y-39300000D02*
X34400000Y-38800000D01*
G04 #@! TO.N,+3V3*
X37532898Y-35675000D02*
X36200000Y-35675000D01*
X38307898Y-34900000D02*
X37532898Y-35675000D01*
X34000000Y-35675000D02*
X36200000Y-35675000D01*
X44000000Y-35100000D02*
X44000000Y-35775000D01*
X42760852Y-33860852D02*
X44000000Y-35100000D01*
X39347046Y-33860852D02*
X42760852Y-33860852D01*
X38307898Y-34900000D02*
X39347046Y-33860852D01*
X44000000Y-35775000D02*
X46100000Y-35775000D01*
X39975000Y-42700000D02*
X39950000Y-42675000D01*
X41375000Y-42675000D02*
X41400000Y-42700000D01*
X39950000Y-42675000D02*
X41375000Y-42675000D01*
X45825000Y-42700000D02*
X45850000Y-42675000D01*
X41400000Y-42700000D02*
X45825000Y-42700000D01*
X39307898Y-35900000D02*
X38307898Y-34900000D01*
X46100000Y-35100000D02*
X46100000Y-35775000D01*
X46100000Y-32920000D02*
X46100000Y-35100000D01*
X42180000Y-29000000D02*
X46100000Y-32920000D01*
X40890000Y-29000000D02*
X42180000Y-29000000D01*
X39025000Y-42675000D02*
X39950000Y-42675000D01*
X38800000Y-42900000D02*
X39025000Y-42675000D01*
X38800000Y-45300002D02*
X38800000Y-42900000D01*
X34520001Y-46310001D02*
X37790001Y-46310001D01*
X37790001Y-46310001D02*
X38800000Y-45300002D01*
X33850000Y-45640000D02*
X34520001Y-46310001D01*
X32450000Y-45640000D02*
X33850000Y-45640000D01*
G04 #@! TO.N,/I2C_SDA*
X46100000Y-37825000D02*
X45075000Y-36800000D01*
X42965685Y-36800000D02*
X43300000Y-36800000D01*
X42765685Y-37000000D02*
X42965685Y-36800000D01*
X42200000Y-37000000D02*
X42765685Y-37000000D01*
X45075000Y-36800000D02*
X43300000Y-36800000D01*
X43300000Y-36800000D02*
X42976579Y-36800000D01*
X42200000Y-37000000D02*
X41700000Y-36500000D01*
X41900000Y-34900000D02*
X41900000Y-35500000D01*
X41700000Y-35700000D02*
X41700000Y-36500000D01*
X41900000Y-35500000D02*
X41700000Y-35700000D01*
X44134306Y-40534306D02*
X43734307Y-40134307D01*
X45850000Y-40725000D02*
X44325000Y-40725000D01*
X44325000Y-40725000D02*
X44134306Y-40534306D01*
G04 #@! TO.N,/BOOT0*
X47350000Y-40075000D02*
X48675000Y-41400000D01*
X45850000Y-40075000D02*
X47350000Y-40075000D01*
X51650001Y-38424999D02*
X48675000Y-41400000D01*
X49700000Y-30100000D02*
X51650001Y-32050001D01*
X51650001Y-32050001D02*
X51650001Y-38424999D01*
X47700000Y-30100000D02*
X49700000Y-30100000D01*
X47200000Y-30600000D02*
X47700000Y-30100000D01*
X47200000Y-31900000D02*
X47200000Y-30600000D01*
X46700000Y-32400000D02*
X47200000Y-31900000D01*
X46145700Y-32400000D02*
X46700000Y-32400000D01*
X31710000Y-29000000D02*
X33000000Y-29000000D01*
X33000000Y-29000000D02*
X34100001Y-27899999D01*
X34100001Y-27899999D02*
X42399999Y-27899999D01*
X43700011Y-29954311D02*
X46145700Y-32400000D01*
X43700011Y-29954311D02*
X43700011Y-29900011D01*
X42600000Y-28800000D02*
X42600000Y-28100000D01*
X43700011Y-29900011D02*
X42600000Y-28800000D01*
X42399999Y-27899999D02*
X42600000Y-28100000D01*
G04 #@! TO.N,/SWDIO*
X37180000Y-45640000D02*
X38399989Y-44420011D01*
X38399989Y-44420011D02*
X38399989Y-41350011D01*
X36350000Y-45640000D02*
X37180000Y-45640000D01*
X39025000Y-40725000D02*
X39950000Y-40725000D01*
X38399989Y-41350011D02*
X39025000Y-40725000D01*
G04 #@! TO.N,/SWDCLK*
X36350000Y-44370000D02*
X37180000Y-44370000D01*
X37999978Y-41100022D02*
X39025000Y-40075000D01*
X39025000Y-40075000D02*
X39950000Y-40075000D01*
X37999978Y-43550022D02*
X37999978Y-41100022D01*
X37180000Y-44370000D02*
X37999978Y-43550022D01*
G04 #@! TO.N,/USB_P*
X39950000Y-42025000D02*
X40450000Y-42025000D01*
X40450000Y-42025000D02*
X40524999Y-41950001D01*
X48025000Y-38793200D02*
X47393200Y-39425000D01*
X40807612Y-42025000D02*
X39950000Y-42025000D01*
X43407612Y-39425000D02*
X40807612Y-42025000D01*
X47393200Y-39425000D02*
X43407612Y-39425000D01*
X48025000Y-33693200D02*
X48025000Y-38793200D01*
X49025000Y-32693200D02*
X48025000Y-33693200D01*
X49025000Y-31000000D02*
X49025000Y-32693200D01*
G04 #@! TO.N,/USB_N*
X47206801Y-38974989D02*
X43221210Y-38974989D01*
X47975000Y-31000000D02*
X47975000Y-33106789D01*
X47574989Y-33506800D02*
X47574989Y-38606801D01*
X47574989Y-38606801D02*
X47206801Y-38974989D01*
X40821199Y-41375000D02*
X39950000Y-41375000D01*
X43221210Y-38974989D02*
X40821199Y-41375000D01*
X47975000Y-33106789D02*
X47574989Y-33506800D01*
G04 #@! TD*
D19*
G04 #@! TO.N,GND*
G36*
X52290000Y-46290000D02*
X47194593Y-46290000D01*
X47222440Y-46150000D01*
X47222440Y-45700000D01*
X47202549Y-45600000D01*
X47222440Y-45500000D01*
X47222440Y-45050000D01*
X47202549Y-44950000D01*
X47222440Y-44850000D01*
X47222440Y-44400000D01*
X47202549Y-44300000D01*
X47222440Y-44200000D01*
X47222440Y-43750000D01*
X47202549Y-43650000D01*
X47222440Y-43550000D01*
X47222440Y-43100000D01*
X47202549Y-43000000D01*
X47222440Y-42900000D01*
X47222440Y-42450000D01*
X47202549Y-42350000D01*
X47222440Y-42250000D01*
X47222440Y-41800000D01*
X47202549Y-41700000D01*
X47222440Y-41600000D01*
X47222440Y-41150000D01*
X47202549Y-41050000D01*
X47216320Y-40980767D01*
X47452560Y-41217006D01*
X47452560Y-41850001D01*
X47520873Y-42193436D01*
X47715414Y-42484586D01*
X48006564Y-42679127D01*
X48349999Y-42747440D01*
X49000001Y-42747440D01*
X49343436Y-42679127D01*
X49634586Y-42484586D01*
X49635377Y-42483403D01*
X49790302Y-42638327D01*
X50023691Y-42735000D01*
X50439250Y-42735000D01*
X50598000Y-42576250D01*
X50598000Y-41527000D01*
X50852000Y-41527000D01*
X50852000Y-42576250D01*
X51010750Y-42735000D01*
X51426309Y-42735000D01*
X51659698Y-42638327D01*
X51838327Y-42459699D01*
X51935000Y-42226310D01*
X51935000Y-41685750D01*
X51776250Y-41527000D01*
X50852000Y-41527000D01*
X50598000Y-41527000D01*
X50578000Y-41527000D01*
X50578000Y-41273000D01*
X50598000Y-41273000D01*
X50598000Y-41253000D01*
X50852000Y-41253000D01*
X50852000Y-41273000D01*
X51776250Y-41273000D01*
X51935000Y-41114250D01*
X51935000Y-40573690D01*
X51838327Y-40340301D01*
X51659698Y-40161673D01*
X51426309Y-40065000D01*
X51049447Y-40065000D01*
X52118538Y-38995908D01*
X52179906Y-38954904D01*
X52290000Y-38790136D01*
X52290000Y-46290000D01*
X52290000Y-46290000D01*
G37*
X52290000Y-46290000D02*
X47194593Y-46290000D01*
X47222440Y-46150000D01*
X47222440Y-45700000D01*
X47202549Y-45600000D01*
X47222440Y-45500000D01*
X47222440Y-45050000D01*
X47202549Y-44950000D01*
X47222440Y-44850000D01*
X47222440Y-44400000D01*
X47202549Y-44300000D01*
X47222440Y-44200000D01*
X47222440Y-43750000D01*
X47202549Y-43650000D01*
X47222440Y-43550000D01*
X47222440Y-43100000D01*
X47202549Y-43000000D01*
X47222440Y-42900000D01*
X47222440Y-42450000D01*
X47202549Y-42350000D01*
X47222440Y-42250000D01*
X47222440Y-41800000D01*
X47202549Y-41700000D01*
X47222440Y-41600000D01*
X47222440Y-41150000D01*
X47202549Y-41050000D01*
X47216320Y-40980767D01*
X47452560Y-41217006D01*
X47452560Y-41850001D01*
X47520873Y-42193436D01*
X47715414Y-42484586D01*
X48006564Y-42679127D01*
X48349999Y-42747440D01*
X49000001Y-42747440D01*
X49343436Y-42679127D01*
X49634586Y-42484586D01*
X49635377Y-42483403D01*
X49790302Y-42638327D01*
X50023691Y-42735000D01*
X50439250Y-42735000D01*
X50598000Y-42576250D01*
X50598000Y-41527000D01*
X50852000Y-41527000D01*
X50852000Y-42576250D01*
X51010750Y-42735000D01*
X51426309Y-42735000D01*
X51659698Y-42638327D01*
X51838327Y-42459699D01*
X51935000Y-42226310D01*
X51935000Y-41685750D01*
X51776250Y-41527000D01*
X50852000Y-41527000D01*
X50598000Y-41527000D01*
X50578000Y-41527000D01*
X50578000Y-41273000D01*
X50598000Y-41273000D01*
X50598000Y-41253000D01*
X50852000Y-41253000D01*
X50852000Y-41273000D01*
X51776250Y-41273000D01*
X51935000Y-41114250D01*
X51935000Y-40573690D01*
X51838327Y-40340301D01*
X51659698Y-40161673D01*
X51426309Y-40065000D01*
X51049447Y-40065000D01*
X52118538Y-38995908D01*
X52179906Y-38954904D01*
X52290000Y-38790136D01*
X52290000Y-46290000D01*
G36*
X44477560Y-43550000D02*
X44497451Y-43650000D01*
X44477560Y-43750000D01*
X44477560Y-44200000D01*
X44497451Y-44300000D01*
X44477560Y-44400000D01*
X44477560Y-44850000D01*
X44497451Y-44950000D01*
X44477560Y-45050000D01*
X44477560Y-45500000D01*
X44497451Y-45600000D01*
X44477560Y-45700000D01*
X44477560Y-46150000D01*
X44505407Y-46290000D01*
X41294593Y-46290000D01*
X41322440Y-46150000D01*
X41322440Y-45700000D01*
X41302549Y-45600000D01*
X41322440Y-45500000D01*
X41322440Y-45050000D01*
X41302549Y-44950000D01*
X41322440Y-44850000D01*
X41322440Y-44400000D01*
X41302549Y-44300000D01*
X41322440Y-44200000D01*
X41322440Y-43750000D01*
X41319456Y-43735000D01*
X41605874Y-43735000D01*
X41986280Y-43577431D01*
X42128711Y-43435000D01*
X44477560Y-43435000D01*
X44477560Y-43550000D01*
X44477560Y-43550000D01*
G37*
X44477560Y-43550000D02*
X44497451Y-43650000D01*
X44477560Y-43750000D01*
X44477560Y-44200000D01*
X44497451Y-44300000D01*
X44477560Y-44400000D01*
X44477560Y-44850000D01*
X44497451Y-44950000D01*
X44477560Y-45050000D01*
X44477560Y-45500000D01*
X44497451Y-45600000D01*
X44477560Y-45700000D01*
X44477560Y-46150000D01*
X44505407Y-46290000D01*
X41294593Y-46290000D01*
X41322440Y-46150000D01*
X41322440Y-45700000D01*
X41302549Y-45600000D01*
X41322440Y-45500000D01*
X41322440Y-45050000D01*
X41302549Y-44950000D01*
X41322440Y-44850000D01*
X41322440Y-44400000D01*
X41302549Y-44300000D01*
X41322440Y-44200000D01*
X41322440Y-43750000D01*
X41319456Y-43735000D01*
X41605874Y-43735000D01*
X41986280Y-43577431D01*
X42128711Y-43435000D01*
X44477560Y-43435000D01*
X44477560Y-43550000D01*
G36*
X30162191Y-27742191D02*
X30021843Y-27952235D01*
X29972560Y-28200000D01*
X29972560Y-29800000D01*
X30021843Y-30047765D01*
X30162191Y-30257809D01*
X30372235Y-30398157D01*
X30620000Y-30447440D01*
X32800000Y-30447440D01*
X33047765Y-30398157D01*
X33257809Y-30257809D01*
X33398157Y-30047765D01*
X33447440Y-29800000D01*
X33447440Y-29585006D01*
X33529905Y-29529905D01*
X33570911Y-29468535D01*
X34404448Y-28634999D01*
X39152560Y-28634999D01*
X39152560Y-29800000D01*
X39201843Y-30047765D01*
X39342191Y-30257809D01*
X39552235Y-30398157D01*
X39800000Y-30447440D01*
X41980000Y-30447440D01*
X42227765Y-30398157D01*
X42414163Y-30273609D01*
X45365000Y-33224447D01*
X45365001Y-34609249D01*
X45306564Y-34620873D01*
X45050000Y-34792304D01*
X44793436Y-34620873D01*
X44526408Y-34567758D01*
X44468538Y-34529091D01*
X43331763Y-33392317D01*
X43290757Y-33330947D01*
X43047635Y-33168498D01*
X42833240Y-33125852D01*
X42833236Y-33125852D01*
X42760852Y-33111454D01*
X42688468Y-33125852D01*
X39419429Y-33125852D01*
X39347045Y-33111454D01*
X39274661Y-33125852D01*
X39274658Y-33125852D01*
X39060263Y-33168498D01*
X38817141Y-33330947D01*
X38776136Y-33392315D01*
X38491188Y-33677264D01*
X38429534Y-33665000D01*
X38186262Y-33665000D01*
X37826025Y-33736656D01*
X37417513Y-34009615D01*
X37144554Y-34418127D01*
X37108785Y-34597947D01*
X36993436Y-34520873D01*
X36650001Y-34452560D01*
X35749999Y-34452560D01*
X35406564Y-34520873D01*
X35115414Y-34715414D01*
X35100000Y-34738483D01*
X35084586Y-34715414D01*
X34793436Y-34520873D01*
X34450001Y-34452560D01*
X33549999Y-34452560D01*
X33206564Y-34520873D01*
X32915414Y-34715414D01*
X32720873Y-35006564D01*
X32652560Y-35349999D01*
X32652560Y-36000001D01*
X32720873Y-36343436D01*
X32915414Y-36634586D01*
X32916597Y-36635377D01*
X32761673Y-36790302D01*
X32665000Y-37023691D01*
X32665000Y-37439250D01*
X32823750Y-37598000D01*
X33873000Y-37598000D01*
X33873000Y-37578000D01*
X34127000Y-37578000D01*
X34127000Y-37598000D01*
X36073000Y-37598000D01*
X36073000Y-37578000D01*
X36327000Y-37578000D01*
X36327000Y-37598000D01*
X37376250Y-37598000D01*
X37535000Y-37439250D01*
X37535000Y-37023691D01*
X37438327Y-36790302D01*
X37283403Y-36635377D01*
X37284586Y-36634586D01*
X37434650Y-36410000D01*
X37460514Y-36410000D01*
X37532898Y-36424398D01*
X37605282Y-36410000D01*
X37605286Y-36410000D01*
X37819681Y-36367354D01*
X38062803Y-36204905D01*
X38103809Y-36143535D01*
X38124608Y-36122736D01*
X38186262Y-36135000D01*
X38284962Y-36135000D01*
X38430467Y-36486280D01*
X38721618Y-36777431D01*
X39102024Y-36935000D01*
X39513772Y-36935000D01*
X39894178Y-36777431D01*
X40185329Y-36486280D01*
X40342898Y-36105874D01*
X40342898Y-35694126D01*
X40185329Y-35313720D01*
X39894178Y-35022569D01*
X39564294Y-34885927D01*
X39530634Y-34716710D01*
X39651493Y-34595852D01*
X40588014Y-34595852D01*
X40499385Y-35041421D01*
X40595235Y-35523293D01*
X40868194Y-35931806D01*
X40965000Y-35996490D01*
X40965000Y-36427616D01*
X40950602Y-36500000D01*
X40965000Y-36572384D01*
X40965000Y-36572388D01*
X40980319Y-36649399D01*
X41007646Y-36786782D01*
X41102758Y-36929127D01*
X41165000Y-37022278D01*
X41165000Y-37205874D01*
X41259737Y-37434591D01*
X41009615Y-37601717D01*
X40736656Y-38010229D01*
X40640805Y-38492102D01*
X40736656Y-38973975D01*
X40746933Y-38989356D01*
X40622569Y-39113720D01*
X40585770Y-39202560D01*
X39225000Y-39202560D01*
X39202450Y-39207046D01*
X39154105Y-39158701D01*
X39376395Y-39111429D01*
X39532067Y-38655390D01*
X39501370Y-38174491D01*
X39376387Y-37872780D01*
X39153407Y-37826198D01*
X38487503Y-38492102D01*
X38501646Y-38506244D01*
X38322041Y-38685850D01*
X38307898Y-38671707D01*
X37641994Y-39337611D01*
X37688576Y-39560591D01*
X37732847Y-39578930D01*
X37550000Y-39542560D01*
X35150000Y-39542560D01*
X34902235Y-39591843D01*
X34692191Y-39732191D01*
X34551843Y-39942235D01*
X34502560Y-40190000D01*
X34502560Y-40930000D01*
X34551843Y-41177765D01*
X34563359Y-41195000D01*
X34551843Y-41212235D01*
X34502560Y-41460000D01*
X34502560Y-42200000D01*
X34551843Y-42447765D01*
X34563359Y-42465000D01*
X34551843Y-42482235D01*
X34502560Y-42730000D01*
X34502560Y-43470000D01*
X34551843Y-43717765D01*
X34563359Y-43735000D01*
X34551843Y-43752235D01*
X34502560Y-44000000D01*
X34502560Y-44740000D01*
X34551843Y-44987765D01*
X34563359Y-45005000D01*
X34551843Y-45022235D01*
X34505362Y-45255915D01*
X34420911Y-45171465D01*
X34379905Y-45110095D01*
X34247950Y-45021926D01*
X34231031Y-44996604D01*
X34285000Y-44866310D01*
X34285000Y-44655750D01*
X34126250Y-44497000D01*
X32577000Y-44497000D01*
X32577000Y-44517000D01*
X32323000Y-44517000D01*
X32323000Y-44497000D01*
X30773750Y-44497000D01*
X30615000Y-44655750D01*
X30615000Y-44866310D01*
X30668969Y-44996604D01*
X30651843Y-45022235D01*
X30602560Y-45270000D01*
X30602560Y-46010000D01*
X30651843Y-46257765D01*
X30673382Y-46290000D01*
X27710000Y-46290000D01*
X27710000Y-43385750D01*
X30615000Y-43385750D01*
X30615000Y-43596310D01*
X30672447Y-43735000D01*
X30615000Y-43873690D01*
X30615000Y-44084250D01*
X30773750Y-44243000D01*
X32323000Y-44243000D01*
X32323000Y-43227000D01*
X32577000Y-43227000D01*
X32577000Y-44243000D01*
X34126250Y-44243000D01*
X34285000Y-44084250D01*
X34285000Y-43873690D01*
X34227553Y-43735000D01*
X34285000Y-43596310D01*
X34285000Y-43385750D01*
X34126250Y-43227000D01*
X32577000Y-43227000D01*
X32323000Y-43227000D01*
X30773750Y-43227000D01*
X30615000Y-43385750D01*
X27710000Y-43385750D01*
X27710000Y-41460000D01*
X30602560Y-41460000D01*
X30602560Y-42200000D01*
X30651843Y-42447765D01*
X30668969Y-42473396D01*
X30615000Y-42603690D01*
X30615000Y-42814250D01*
X30773750Y-42973000D01*
X32323000Y-42973000D01*
X32323000Y-42953000D01*
X32577000Y-42953000D01*
X32577000Y-42973000D01*
X34126250Y-42973000D01*
X34285000Y-42814250D01*
X34285000Y-42603690D01*
X34231031Y-42473396D01*
X34248157Y-42447765D01*
X34297440Y-42200000D01*
X34297440Y-41460000D01*
X34248157Y-41212235D01*
X34231031Y-41186604D01*
X34285000Y-41056310D01*
X34285000Y-40845750D01*
X34126250Y-40687000D01*
X32577000Y-40687000D01*
X32577000Y-40707000D01*
X32323000Y-40707000D01*
X32323000Y-40687000D01*
X30773750Y-40687000D01*
X30615000Y-40845750D01*
X30615000Y-41056310D01*
X30668969Y-41186604D01*
X30651843Y-41212235D01*
X30602560Y-41460000D01*
X27710000Y-41460000D01*
X27710000Y-40063690D01*
X30615000Y-40063690D01*
X30615000Y-40274250D01*
X30773750Y-40433000D01*
X32323000Y-40433000D01*
X32323000Y-39713750D01*
X32577000Y-39713750D01*
X32577000Y-40433000D01*
X34126250Y-40433000D01*
X34285000Y-40274250D01*
X34285000Y-40063690D01*
X34188327Y-39830301D01*
X34009698Y-39651673D01*
X33776309Y-39555000D01*
X32735750Y-39555000D01*
X32577000Y-39713750D01*
X32323000Y-39713750D01*
X32164250Y-39555000D01*
X31123691Y-39555000D01*
X30890302Y-39651673D01*
X30711673Y-39830301D01*
X30615000Y-40063690D01*
X27710000Y-40063690D01*
X27710000Y-36605159D01*
X28015000Y-36605159D01*
X28015000Y-37394841D01*
X28317199Y-38124412D01*
X28875588Y-38682801D01*
X29605159Y-38985000D01*
X30394841Y-38985000D01*
X31124412Y-38682801D01*
X31682801Y-38124412D01*
X31729881Y-38010750D01*
X32665000Y-38010750D01*
X32665000Y-38426309D01*
X32761673Y-38659698D01*
X32940301Y-38838327D01*
X33173690Y-38935000D01*
X33714250Y-38935000D01*
X33873000Y-38776250D01*
X33873000Y-37852000D01*
X34127000Y-37852000D01*
X34127000Y-38776250D01*
X34285750Y-38935000D01*
X34826310Y-38935000D01*
X35059699Y-38838327D01*
X35100000Y-38798026D01*
X35140301Y-38838327D01*
X35373690Y-38935000D01*
X35914250Y-38935000D01*
X36073000Y-38776250D01*
X36073000Y-37852000D01*
X36327000Y-37852000D01*
X36327000Y-38776250D01*
X36485750Y-38935000D01*
X37026310Y-38935000D01*
X37145820Y-38885497D01*
X37239409Y-39111424D01*
X37462389Y-39158006D01*
X38128293Y-38492102D01*
X37461693Y-37825503D01*
X37337093Y-37852000D01*
X36327000Y-37852000D01*
X36073000Y-37852000D01*
X34127000Y-37852000D01*
X33873000Y-37852000D01*
X32823750Y-37852000D01*
X32665000Y-38010750D01*
X31729881Y-38010750D01*
X31881008Y-37645897D01*
X37641299Y-37645897D01*
X38307898Y-38312497D01*
X38973802Y-37646593D01*
X38927220Y-37423613D01*
X38625509Y-37298630D01*
X38144610Y-37267933D01*
X37688571Y-37423605D01*
X37641299Y-37645897D01*
X31881008Y-37645897D01*
X31985000Y-37394841D01*
X31985000Y-36605159D01*
X31682801Y-35875588D01*
X31124412Y-35317199D01*
X30394841Y-35015000D01*
X29605159Y-35015000D01*
X28875588Y-35317199D01*
X28317199Y-35875588D01*
X28015000Y-36605159D01*
X27710000Y-36605159D01*
X27710000Y-27710000D01*
X30210368Y-27710000D01*
X30162191Y-27742191D01*
X30162191Y-27742191D01*
G37*
X30162191Y-27742191D02*
X30021843Y-27952235D01*
X29972560Y-28200000D01*
X29972560Y-29800000D01*
X30021843Y-30047765D01*
X30162191Y-30257809D01*
X30372235Y-30398157D01*
X30620000Y-30447440D01*
X32800000Y-30447440D01*
X33047765Y-30398157D01*
X33257809Y-30257809D01*
X33398157Y-30047765D01*
X33447440Y-29800000D01*
X33447440Y-29585006D01*
X33529905Y-29529905D01*
X33570911Y-29468535D01*
X34404448Y-28634999D01*
X39152560Y-28634999D01*
X39152560Y-29800000D01*
X39201843Y-30047765D01*
X39342191Y-30257809D01*
X39552235Y-30398157D01*
X39800000Y-30447440D01*
X41980000Y-30447440D01*
X42227765Y-30398157D01*
X42414163Y-30273609D01*
X45365000Y-33224447D01*
X45365001Y-34609249D01*
X45306564Y-34620873D01*
X45050000Y-34792304D01*
X44793436Y-34620873D01*
X44526408Y-34567758D01*
X44468538Y-34529091D01*
X43331763Y-33392317D01*
X43290757Y-33330947D01*
X43047635Y-33168498D01*
X42833240Y-33125852D01*
X42833236Y-33125852D01*
X42760852Y-33111454D01*
X42688468Y-33125852D01*
X39419429Y-33125852D01*
X39347045Y-33111454D01*
X39274661Y-33125852D01*
X39274658Y-33125852D01*
X39060263Y-33168498D01*
X38817141Y-33330947D01*
X38776136Y-33392315D01*
X38491188Y-33677264D01*
X38429534Y-33665000D01*
X38186262Y-33665000D01*
X37826025Y-33736656D01*
X37417513Y-34009615D01*
X37144554Y-34418127D01*
X37108785Y-34597947D01*
X36993436Y-34520873D01*
X36650001Y-34452560D01*
X35749999Y-34452560D01*
X35406564Y-34520873D01*
X35115414Y-34715414D01*
X35100000Y-34738483D01*
X35084586Y-34715414D01*
X34793436Y-34520873D01*
X34450001Y-34452560D01*
X33549999Y-34452560D01*
X33206564Y-34520873D01*
X32915414Y-34715414D01*
X32720873Y-35006564D01*
X32652560Y-35349999D01*
X32652560Y-36000001D01*
X32720873Y-36343436D01*
X32915414Y-36634586D01*
X32916597Y-36635377D01*
X32761673Y-36790302D01*
X32665000Y-37023691D01*
X32665000Y-37439250D01*
X32823750Y-37598000D01*
X33873000Y-37598000D01*
X33873000Y-37578000D01*
X34127000Y-37578000D01*
X34127000Y-37598000D01*
X36073000Y-37598000D01*
X36073000Y-37578000D01*
X36327000Y-37578000D01*
X36327000Y-37598000D01*
X37376250Y-37598000D01*
X37535000Y-37439250D01*
X37535000Y-37023691D01*
X37438327Y-36790302D01*
X37283403Y-36635377D01*
X37284586Y-36634586D01*
X37434650Y-36410000D01*
X37460514Y-36410000D01*
X37532898Y-36424398D01*
X37605282Y-36410000D01*
X37605286Y-36410000D01*
X37819681Y-36367354D01*
X38062803Y-36204905D01*
X38103809Y-36143535D01*
X38124608Y-36122736D01*
X38186262Y-36135000D01*
X38284962Y-36135000D01*
X38430467Y-36486280D01*
X38721618Y-36777431D01*
X39102024Y-36935000D01*
X39513772Y-36935000D01*
X39894178Y-36777431D01*
X40185329Y-36486280D01*
X40342898Y-36105874D01*
X40342898Y-35694126D01*
X40185329Y-35313720D01*
X39894178Y-35022569D01*
X39564294Y-34885927D01*
X39530634Y-34716710D01*
X39651493Y-34595852D01*
X40588014Y-34595852D01*
X40499385Y-35041421D01*
X40595235Y-35523293D01*
X40868194Y-35931806D01*
X40965000Y-35996490D01*
X40965000Y-36427616D01*
X40950602Y-36500000D01*
X40965000Y-36572384D01*
X40965000Y-36572388D01*
X40980319Y-36649399D01*
X41007646Y-36786782D01*
X41102758Y-36929127D01*
X41165000Y-37022278D01*
X41165000Y-37205874D01*
X41259737Y-37434591D01*
X41009615Y-37601717D01*
X40736656Y-38010229D01*
X40640805Y-38492102D01*
X40736656Y-38973975D01*
X40746933Y-38989356D01*
X40622569Y-39113720D01*
X40585770Y-39202560D01*
X39225000Y-39202560D01*
X39202450Y-39207046D01*
X39154105Y-39158701D01*
X39376395Y-39111429D01*
X39532067Y-38655390D01*
X39501370Y-38174491D01*
X39376387Y-37872780D01*
X39153407Y-37826198D01*
X38487503Y-38492102D01*
X38501646Y-38506244D01*
X38322041Y-38685850D01*
X38307898Y-38671707D01*
X37641994Y-39337611D01*
X37688576Y-39560591D01*
X37732847Y-39578930D01*
X37550000Y-39542560D01*
X35150000Y-39542560D01*
X34902235Y-39591843D01*
X34692191Y-39732191D01*
X34551843Y-39942235D01*
X34502560Y-40190000D01*
X34502560Y-40930000D01*
X34551843Y-41177765D01*
X34563359Y-41195000D01*
X34551843Y-41212235D01*
X34502560Y-41460000D01*
X34502560Y-42200000D01*
X34551843Y-42447765D01*
X34563359Y-42465000D01*
X34551843Y-42482235D01*
X34502560Y-42730000D01*
X34502560Y-43470000D01*
X34551843Y-43717765D01*
X34563359Y-43735000D01*
X34551843Y-43752235D01*
X34502560Y-44000000D01*
X34502560Y-44740000D01*
X34551843Y-44987765D01*
X34563359Y-45005000D01*
X34551843Y-45022235D01*
X34505362Y-45255915D01*
X34420911Y-45171465D01*
X34379905Y-45110095D01*
X34247950Y-45021926D01*
X34231031Y-44996604D01*
X34285000Y-44866310D01*
X34285000Y-44655750D01*
X34126250Y-44497000D01*
X32577000Y-44497000D01*
X32577000Y-44517000D01*
X32323000Y-44517000D01*
X32323000Y-44497000D01*
X30773750Y-44497000D01*
X30615000Y-44655750D01*
X30615000Y-44866310D01*
X30668969Y-44996604D01*
X30651843Y-45022235D01*
X30602560Y-45270000D01*
X30602560Y-46010000D01*
X30651843Y-46257765D01*
X30673382Y-46290000D01*
X27710000Y-46290000D01*
X27710000Y-43385750D01*
X30615000Y-43385750D01*
X30615000Y-43596310D01*
X30672447Y-43735000D01*
X30615000Y-43873690D01*
X30615000Y-44084250D01*
X30773750Y-44243000D01*
X32323000Y-44243000D01*
X32323000Y-43227000D01*
X32577000Y-43227000D01*
X32577000Y-44243000D01*
X34126250Y-44243000D01*
X34285000Y-44084250D01*
X34285000Y-43873690D01*
X34227553Y-43735000D01*
X34285000Y-43596310D01*
X34285000Y-43385750D01*
X34126250Y-43227000D01*
X32577000Y-43227000D01*
X32323000Y-43227000D01*
X30773750Y-43227000D01*
X30615000Y-43385750D01*
X27710000Y-43385750D01*
X27710000Y-41460000D01*
X30602560Y-41460000D01*
X30602560Y-42200000D01*
X30651843Y-42447765D01*
X30668969Y-42473396D01*
X30615000Y-42603690D01*
X30615000Y-42814250D01*
X30773750Y-42973000D01*
X32323000Y-42973000D01*
X32323000Y-42953000D01*
X32577000Y-42953000D01*
X32577000Y-42973000D01*
X34126250Y-42973000D01*
X34285000Y-42814250D01*
X34285000Y-42603690D01*
X34231031Y-42473396D01*
X34248157Y-42447765D01*
X34297440Y-42200000D01*
X34297440Y-41460000D01*
X34248157Y-41212235D01*
X34231031Y-41186604D01*
X34285000Y-41056310D01*
X34285000Y-40845750D01*
X34126250Y-40687000D01*
X32577000Y-40687000D01*
X32577000Y-40707000D01*
X32323000Y-40707000D01*
X32323000Y-40687000D01*
X30773750Y-40687000D01*
X30615000Y-40845750D01*
X30615000Y-41056310D01*
X30668969Y-41186604D01*
X30651843Y-41212235D01*
X30602560Y-41460000D01*
X27710000Y-41460000D01*
X27710000Y-40063690D01*
X30615000Y-40063690D01*
X30615000Y-40274250D01*
X30773750Y-40433000D01*
X32323000Y-40433000D01*
X32323000Y-39713750D01*
X32577000Y-39713750D01*
X32577000Y-40433000D01*
X34126250Y-40433000D01*
X34285000Y-40274250D01*
X34285000Y-40063690D01*
X34188327Y-39830301D01*
X34009698Y-39651673D01*
X33776309Y-39555000D01*
X32735750Y-39555000D01*
X32577000Y-39713750D01*
X32323000Y-39713750D01*
X32164250Y-39555000D01*
X31123691Y-39555000D01*
X30890302Y-39651673D01*
X30711673Y-39830301D01*
X30615000Y-40063690D01*
X27710000Y-40063690D01*
X27710000Y-36605159D01*
X28015000Y-36605159D01*
X28015000Y-37394841D01*
X28317199Y-38124412D01*
X28875588Y-38682801D01*
X29605159Y-38985000D01*
X30394841Y-38985000D01*
X31124412Y-38682801D01*
X31682801Y-38124412D01*
X31729881Y-38010750D01*
X32665000Y-38010750D01*
X32665000Y-38426309D01*
X32761673Y-38659698D01*
X32940301Y-38838327D01*
X33173690Y-38935000D01*
X33714250Y-38935000D01*
X33873000Y-38776250D01*
X33873000Y-37852000D01*
X34127000Y-37852000D01*
X34127000Y-38776250D01*
X34285750Y-38935000D01*
X34826310Y-38935000D01*
X35059699Y-38838327D01*
X35100000Y-38798026D01*
X35140301Y-38838327D01*
X35373690Y-38935000D01*
X35914250Y-38935000D01*
X36073000Y-38776250D01*
X36073000Y-37852000D01*
X36327000Y-37852000D01*
X36327000Y-38776250D01*
X36485750Y-38935000D01*
X37026310Y-38935000D01*
X37145820Y-38885497D01*
X37239409Y-39111424D01*
X37462389Y-39158006D01*
X38128293Y-38492102D01*
X37461693Y-37825503D01*
X37337093Y-37852000D01*
X36327000Y-37852000D01*
X36073000Y-37852000D01*
X34127000Y-37852000D01*
X33873000Y-37852000D01*
X32823750Y-37852000D01*
X32665000Y-38010750D01*
X31729881Y-38010750D01*
X31881008Y-37645897D01*
X37641299Y-37645897D01*
X38307898Y-38312497D01*
X38973802Y-37646593D01*
X38927220Y-37423613D01*
X38625509Y-37298630D01*
X38144610Y-37267933D01*
X37688571Y-37423605D01*
X37641299Y-37645897D01*
X31881008Y-37645897D01*
X31985000Y-37394841D01*
X31985000Y-36605159D01*
X31682801Y-35875588D01*
X31124412Y-35317199D01*
X30394841Y-35015000D01*
X29605159Y-35015000D01*
X28875588Y-35317199D01*
X28317199Y-35875588D01*
X28015000Y-36605159D01*
X27710000Y-36605159D01*
X27710000Y-27710000D01*
X30210368Y-27710000D01*
X30162191Y-27742191D01*
G36*
X52290001Y-31684864D02*
X52179906Y-31520096D01*
X52118539Y-31479092D01*
X50270911Y-29631465D01*
X50229905Y-29570095D01*
X49986783Y-29407646D01*
X49772388Y-29365000D01*
X49772384Y-29365000D01*
X49700000Y-29350602D01*
X49627616Y-29365000D01*
X47772384Y-29365000D01*
X47700000Y-29350602D01*
X47627616Y-29365000D01*
X47627612Y-29365000D01*
X47413217Y-29407646D01*
X47170095Y-29570095D01*
X47129090Y-29631463D01*
X46731463Y-30029091D01*
X46670096Y-30070095D01*
X46629092Y-30131462D01*
X46629091Y-30131463D01*
X46507646Y-30313218D01*
X46450602Y-30600000D01*
X46465001Y-30672389D01*
X46465000Y-31595553D01*
X46422850Y-31637703D01*
X44380265Y-29595119D01*
X44270920Y-29431473D01*
X44229916Y-29370106D01*
X44168548Y-29329101D01*
X43335000Y-28495554D01*
X43335000Y-28172383D01*
X43349398Y-28099999D01*
X43335000Y-28027615D01*
X43335000Y-28027612D01*
X43292354Y-27813217D01*
X43223387Y-27710000D01*
X52290001Y-27710000D01*
X52290001Y-31684864D01*
X52290001Y-31684864D01*
G37*
X52290001Y-31684864D02*
X52179906Y-31520096D01*
X52118539Y-31479092D01*
X50270911Y-29631465D01*
X50229905Y-29570095D01*
X49986783Y-29407646D01*
X49772388Y-29365000D01*
X49772384Y-29365000D01*
X49700000Y-29350602D01*
X49627616Y-29365000D01*
X47772384Y-29365000D01*
X47700000Y-29350602D01*
X47627616Y-29365000D01*
X47627612Y-29365000D01*
X47413217Y-29407646D01*
X47170095Y-29570095D01*
X47129090Y-29631463D01*
X46731463Y-30029091D01*
X46670096Y-30070095D01*
X46629092Y-30131462D01*
X46629091Y-30131463D01*
X46507646Y-30313218D01*
X46450602Y-30600000D01*
X46465001Y-30672389D01*
X46465000Y-31595553D01*
X46422850Y-31637703D01*
X44380265Y-29595119D01*
X44270920Y-29431473D01*
X44229916Y-29370106D01*
X44168548Y-29329101D01*
X43335000Y-28495554D01*
X43335000Y-28172383D01*
X43349398Y-28099999D01*
X43335000Y-28027615D01*
X43335000Y-28027612D01*
X43292354Y-27813217D01*
X43223387Y-27710000D01*
X52290001Y-27710000D01*
X52290001Y-31684864D01*
G04 #@! TD*
M02*
