G04 #@! TF.GenerationSoftware,KiCad,Pcbnew,(5.0.0)*
G04 #@! TF.CreationDate,2018-09-26T10:31:33+02:00*
G04 #@! TF.ProjectId,OpenThermalCamera,4F70656E546865726D616C43616D6572,rev?*
G04 #@! TF.SameCoordinates,Original*
G04 #@! TF.FileFunction,Legend,Top*
G04 #@! TF.FilePolarity,Positive*
%FSLAX46Y46*%
G04 Gerber Fmt 4.6, Leading zero omitted, Abs format (unit mm)*
G04 Created by KiCad (PCBNEW (5.0.0)) date 09/26/18 10:31:33*
%MOMM*%
%LPD*%
G01*
G04 APERTURE LIST*
%ADD10C,0.120000*%
%ADD11C,0.150000*%
G04 APERTURE END LIST*
D10*
G04 #@! TO.C,C6*
X51410000Y-43961252D02*
X51410000Y-43438748D01*
X49990000Y-43961252D02*
X49990000Y-43438748D01*
G04 #@! TO.C,C3*
X46361252Y-39490000D02*
X45838748Y-39490000D01*
X46361252Y-40910000D02*
X45838748Y-40910000D01*
G04 #@! TO.C,C2*
X43510000Y-44061252D02*
X43510000Y-43538748D01*
X42090000Y-44061252D02*
X42090000Y-43538748D01*
G04 #@! TO.C,C1*
X47890000Y-43961252D02*
X47890000Y-43438748D01*
X49310000Y-43961252D02*
X49310000Y-43438748D01*
G04 #@! TO.C,U2*
X44090000Y-42700000D02*
X44090000Y-44500000D01*
X47310000Y-44500000D02*
X47310000Y-42050000D01*
G04 #@! TO.C,U4*
X45240000Y-28400000D02*
X45240000Y-30300000D01*
X47560000Y-29800000D02*
X47560000Y-28400000D01*
G04 #@! TO.C,U1*
X44892466Y-37246052D02*
X46152466Y-37246051D01*
X46152466Y-37246051D02*
X46152466Y-36146052D01*
X46152466Y-36146052D02*
X44892466Y-36146051D01*
X44892508Y-36146415D02*
G75*
G03X44892466Y-37246052I-4788559J-549636D01*
G01*
G04 #@! TO.C,J2*
D11*
X40366666Y-30742380D02*
X40366666Y-31456666D01*
X40319047Y-31599523D01*
X40223809Y-31694761D01*
X40080952Y-31742380D01*
X39985714Y-31742380D01*
X40795238Y-30837619D02*
X40842857Y-30790000D01*
X40938095Y-30742380D01*
X41176190Y-30742380D01*
X41271428Y-30790000D01*
X41319047Y-30837619D01*
X41366666Y-30932857D01*
X41366666Y-31028095D01*
X41319047Y-31170952D01*
X40747619Y-31742380D01*
X41366666Y-31742380D01*
G04 #@! TO.C,MH1*
X48666666Y-33752380D02*
X48666666Y-32752380D01*
X49000000Y-33466666D01*
X49333333Y-32752380D01*
X49333333Y-33752380D01*
X49809523Y-33752380D02*
X49809523Y-32752380D01*
X49809523Y-33228571D02*
X50380952Y-33228571D01*
X50380952Y-33752380D02*
X50380952Y-32752380D01*
X51380952Y-33752380D02*
X50809523Y-33752380D01*
X51095238Y-33752380D02*
X51095238Y-32752380D01*
X51000000Y-32895238D01*
X50904761Y-32990476D01*
X50809523Y-33038095D01*
G04 #@! TO.C,MH2*
X28666666Y-33752380D02*
X28666666Y-32752380D01*
X29000000Y-33466666D01*
X29333333Y-32752380D01*
X29333333Y-33752380D01*
X29809523Y-33752380D02*
X29809523Y-32752380D01*
X29809523Y-33228571D02*
X30380952Y-33228571D01*
X30380952Y-33752380D02*
X30380952Y-32752380D01*
X30809523Y-32847619D02*
X30857142Y-32800000D01*
X30952380Y-32752380D01*
X31190476Y-32752380D01*
X31285714Y-32800000D01*
X31333333Y-32847619D01*
X31380952Y-32942857D01*
X31380952Y-33038095D01*
X31333333Y-33180952D01*
X30761904Y-33752380D01*
X31380952Y-33752380D01*
G04 #@! TO.C,C6*
X50533333Y-41557142D02*
X50485714Y-41604761D01*
X50342857Y-41652380D01*
X50247619Y-41652380D01*
X50104761Y-41604761D01*
X50009523Y-41509523D01*
X49961904Y-41414285D01*
X49914285Y-41223809D01*
X49914285Y-41080952D01*
X49961904Y-40890476D01*
X50009523Y-40795238D01*
X50104761Y-40700000D01*
X50247619Y-40652380D01*
X50342857Y-40652380D01*
X50485714Y-40700000D01*
X50533333Y-40747619D01*
X51390476Y-40652380D02*
X51200000Y-40652380D01*
X51104761Y-40700000D01*
X51057142Y-40747619D01*
X50961904Y-40890476D01*
X50914285Y-41080952D01*
X50914285Y-41461904D01*
X50961904Y-41557142D01*
X51009523Y-41604761D01*
X51104761Y-41652380D01*
X51295238Y-41652380D01*
X51390476Y-41604761D01*
X51438095Y-41557142D01*
X51485714Y-41461904D01*
X51485714Y-41223809D01*
X51438095Y-41128571D01*
X51390476Y-41080952D01*
X51295238Y-41033333D01*
X51104761Y-41033333D01*
X51009523Y-41080952D01*
X50961904Y-41128571D01*
X50914285Y-41223809D01*
G04 #@! TO.C,C3*
X45833333Y-38957142D02*
X45785714Y-39004761D01*
X45642857Y-39052380D01*
X45547619Y-39052380D01*
X45404761Y-39004761D01*
X45309523Y-38909523D01*
X45261904Y-38814285D01*
X45214285Y-38623809D01*
X45214285Y-38480952D01*
X45261904Y-38290476D01*
X45309523Y-38195238D01*
X45404761Y-38100000D01*
X45547619Y-38052380D01*
X45642857Y-38052380D01*
X45785714Y-38100000D01*
X45833333Y-38147619D01*
X46166666Y-38052380D02*
X46785714Y-38052380D01*
X46452380Y-38433333D01*
X46595238Y-38433333D01*
X46690476Y-38480952D01*
X46738095Y-38528571D01*
X46785714Y-38623809D01*
X46785714Y-38861904D01*
X46738095Y-38957142D01*
X46690476Y-39004761D01*
X46595238Y-39052380D01*
X46309523Y-39052380D01*
X46214285Y-39004761D01*
X46166666Y-38957142D01*
G04 #@! TO.C,C2*
X41507142Y-43966666D02*
X41554761Y-44014285D01*
X41602380Y-44157142D01*
X41602380Y-44252380D01*
X41554761Y-44395238D01*
X41459523Y-44490476D01*
X41364285Y-44538095D01*
X41173809Y-44585714D01*
X41030952Y-44585714D01*
X40840476Y-44538095D01*
X40745238Y-44490476D01*
X40650000Y-44395238D01*
X40602380Y-44252380D01*
X40602380Y-44157142D01*
X40650000Y-44014285D01*
X40697619Y-43966666D01*
X40697619Y-43585714D02*
X40650000Y-43538095D01*
X40602380Y-43442857D01*
X40602380Y-43204761D01*
X40650000Y-43109523D01*
X40697619Y-43061904D01*
X40792857Y-43014285D01*
X40888095Y-43014285D01*
X41030952Y-43061904D01*
X41602380Y-43633333D01*
X41602380Y-43014285D01*
G04 #@! TO.C,C1*
X48433333Y-41557142D02*
X48385714Y-41604761D01*
X48242857Y-41652380D01*
X48147619Y-41652380D01*
X48004761Y-41604761D01*
X47909523Y-41509523D01*
X47861904Y-41414285D01*
X47814285Y-41223809D01*
X47814285Y-41080952D01*
X47861904Y-40890476D01*
X47909523Y-40795238D01*
X48004761Y-40700000D01*
X48147619Y-40652380D01*
X48242857Y-40652380D01*
X48385714Y-40700000D01*
X48433333Y-40747619D01*
X49385714Y-41652380D02*
X48814285Y-41652380D01*
X49100000Y-41652380D02*
X49100000Y-40652380D01*
X49004761Y-40795238D01*
X48909523Y-40890476D01*
X48814285Y-40938095D01*
G04 #@! TO.C,U2*
X42952380Y-41761904D02*
X43761904Y-41761904D01*
X43857142Y-41714285D01*
X43904761Y-41666666D01*
X43952380Y-41571428D01*
X43952380Y-41380952D01*
X43904761Y-41285714D01*
X43857142Y-41238095D01*
X43761904Y-41190476D01*
X42952380Y-41190476D01*
X43047619Y-40761904D02*
X43000000Y-40714285D01*
X42952380Y-40619047D01*
X42952380Y-40380952D01*
X43000000Y-40285714D01*
X43047619Y-40238095D01*
X43142857Y-40190476D01*
X43238095Y-40190476D01*
X43380952Y-40238095D01*
X43952380Y-40809523D01*
X43952380Y-40190476D01*
G04 #@! TO.C,U4*
X45538095Y-30952380D02*
X45538095Y-31761904D01*
X45585714Y-31857142D01*
X45633333Y-31904761D01*
X45728571Y-31952380D01*
X45919047Y-31952380D01*
X46014285Y-31904761D01*
X46061904Y-31857142D01*
X46109523Y-31761904D01*
X46109523Y-30952380D01*
X47014285Y-31285714D02*
X47014285Y-31952380D01*
X46776190Y-30904761D02*
X46538095Y-31619047D01*
X47157142Y-31619047D01*
G04 #@! TO.C,U1*
X35374026Y-32751521D02*
X35946446Y-33323941D01*
X36047461Y-33357613D01*
X36114805Y-33357613D01*
X36215820Y-33323941D01*
X36350507Y-33189254D01*
X36384179Y-33088239D01*
X36384179Y-33020895D01*
X36350507Y-32919880D01*
X35778087Y-32347460D01*
X37192301Y-32347460D02*
X36788240Y-32751521D01*
X36990270Y-32549491D02*
X36283164Y-31842384D01*
X36316835Y-32010743D01*
X36316835Y-32145430D01*
X36283164Y-32246445D01*
G04 #@! TD*
M02*
