G04 #@! TF.GenerationSoftware,KiCad,Pcbnew,(5.0.0)*
G04 #@! TF.CreationDate,2018-12-03T11:25:22+01:00*
G04 #@! TF.ProjectId,OpenThermalCamera,4F70656E546865726D616C43616D6572,rev?*
G04 #@! TF.SameCoordinates,Original*
G04 #@! TF.FileFunction,Profile,NP*
%FSLAX46Y46*%
G04 Gerber Fmt 4.6, Leading zero omitted, Abs format (unit mm)*
G04 Created by KiCad (PCBNEW (5.0.0)) date 12/03/18 11:25:22*
%MOMM*%
%LPD*%
G01*
G04 APERTURE LIST*
%ADD10C,0.100000*%
G04 APERTURE END LIST*
D10*
X44000000Y-29700000D02*
X44600000Y-29700000D01*
X44000000Y-27500000D02*
X44000000Y-29700000D01*
X43600000Y-27000000D02*
X44000000Y-27500000D01*
X43000000Y-27000000D02*
X43600000Y-27000000D01*
X43000000Y-26600000D02*
X43000000Y-27000000D01*
X42800000Y-26400000D02*
X43000000Y-26600000D01*
X40600000Y-26400000D02*
X42800000Y-26400000D01*
X40400000Y-26600000D02*
X40600000Y-26400000D01*
X40400000Y-27000000D02*
X40400000Y-26600000D01*
X39000000Y-27000000D02*
X40400000Y-27000000D01*
X39000000Y-26600000D02*
X39000000Y-27000000D01*
X38800000Y-26400000D02*
X39000000Y-26600000D01*
X37400000Y-26400000D02*
X38800000Y-26400000D01*
X37200000Y-26600000D02*
X37400000Y-26400000D01*
X37200000Y-27000000D02*
X37200000Y-26600000D01*
X36500000Y-27000000D02*
X37200000Y-27000000D01*
X36200000Y-27500000D02*
X36500000Y-27000000D01*
X36200000Y-31400000D02*
X36200000Y-27500000D01*
X35600000Y-31400000D02*
X36200000Y-31400000D01*
X44600000Y-27000000D02*
X44600000Y-29700000D01*
X35600000Y-31400000D02*
X35600000Y-27000000D01*
X44600000Y-27000000D02*
X53000000Y-27000000D01*
X35600000Y-27000000D02*
X27000000Y-27000000D01*
X53000000Y-47000000D02*
X53000000Y-27000000D01*
X27000000Y-47000000D02*
X53000000Y-47000000D01*
X27000000Y-27000000D02*
X27000000Y-47000000D01*
M02*
