G04 #@! TF.GenerationSoftware,KiCad,Pcbnew,(5.0.0)*
G04 #@! TF.CreationDate,2019-02-26T00:55:46+01:00*
G04 #@! TF.ProjectId,OpenThermalCamera,4F70656E546865726D616C43616D6572,rev?*
G04 #@! TF.SameCoordinates,Original*
G04 #@! TF.FileFunction,Soldermask,Top*
G04 #@! TF.FilePolarity,Negative*
%FSLAX46Y46*%
G04 Gerber Fmt 4.6, Leading zero omitted, Abs format (unit mm)*
G04 Created by KiCad (PCBNEW (5.0.0)) date 02/26/19 00:55:46*
%MOMM*%
%LPD*%
G01*
G04 APERTURE LIST*
%ADD10R,0.800000X1.600000*%
%ADD11R,1.100000X1.600000*%
%ADD12R,0.510000X1.650000*%
%ADD13R,0.360000X1.650000*%
%ADD14C,2.800000*%
%ADD15C,0.100000*%
%ADD16C,1.250000*%
%ADD17R,0.750000X1.660000*%
%ADD18R,0.500000X0.750000*%
G04 APERTURE END LIST*
D10*
G04 #@! TO.C,J2*
X36800000Y-30700000D03*
D11*
X43825000Y-30700000D03*
D12*
X37275000Y-28300000D03*
X42925000Y-28300000D03*
D13*
X42350000Y-28300000D03*
X41850000Y-28300000D03*
X41350000Y-28300000D03*
X40850000Y-28300000D03*
X40350000Y-28300000D03*
X39850000Y-28300000D03*
X39350000Y-28300000D03*
X38850000Y-28300000D03*
X38350000Y-28300000D03*
X37850000Y-28300000D03*
G04 #@! TD*
D14*
G04 #@! TO.C,MH1*
X50000000Y-37000000D03*
G04 #@! TD*
G04 #@! TO.C,MH2*
X30000000Y-37000000D03*
G04 #@! TD*
D15*
G04 #@! TO.C,C6*
G36*
X51804897Y-42051308D02*
X51831275Y-42055221D01*
X51857143Y-42061701D01*
X51882252Y-42070685D01*
X51906358Y-42082086D01*
X51929232Y-42095796D01*
X51950651Y-42111682D01*
X51970410Y-42129590D01*
X51988318Y-42149349D01*
X52004204Y-42170768D01*
X52017914Y-42193642D01*
X52029315Y-42217748D01*
X52038299Y-42242857D01*
X52044779Y-42268725D01*
X52048692Y-42295103D01*
X52050000Y-42321738D01*
X52050000Y-43028262D01*
X52048692Y-43054897D01*
X52044779Y-43081275D01*
X52038299Y-43107143D01*
X52029315Y-43132252D01*
X52017914Y-43156358D01*
X52004204Y-43179232D01*
X51988318Y-43200651D01*
X51970410Y-43220410D01*
X51950651Y-43238318D01*
X51929232Y-43254204D01*
X51906358Y-43267914D01*
X51882252Y-43279315D01*
X51857143Y-43288299D01*
X51831275Y-43294779D01*
X51804897Y-43298692D01*
X51778262Y-43300000D01*
X50821738Y-43300000D01*
X50795103Y-43298692D01*
X50768725Y-43294779D01*
X50742857Y-43288299D01*
X50717748Y-43279315D01*
X50693642Y-43267914D01*
X50670768Y-43254204D01*
X50649349Y-43238318D01*
X50629590Y-43220410D01*
X50611682Y-43200651D01*
X50595796Y-43179232D01*
X50582086Y-43156358D01*
X50570685Y-43132252D01*
X50561701Y-43107143D01*
X50555221Y-43081275D01*
X50551308Y-43054897D01*
X50550000Y-43028262D01*
X50550000Y-42321738D01*
X50551308Y-42295103D01*
X50555221Y-42268725D01*
X50561701Y-42242857D01*
X50570685Y-42217748D01*
X50582086Y-42193642D01*
X50595796Y-42170768D01*
X50611682Y-42149349D01*
X50629590Y-42129590D01*
X50649349Y-42111682D01*
X50670768Y-42095796D01*
X50693642Y-42082086D01*
X50717748Y-42070685D01*
X50742857Y-42061701D01*
X50768725Y-42055221D01*
X50795103Y-42051308D01*
X50821738Y-42050000D01*
X51778262Y-42050000D01*
X51804897Y-42051308D01*
X51804897Y-42051308D01*
G37*
D16*
X51300000Y-42675000D03*
D15*
G36*
X51804897Y-44101308D02*
X51831275Y-44105221D01*
X51857143Y-44111701D01*
X51882252Y-44120685D01*
X51906358Y-44132086D01*
X51929232Y-44145796D01*
X51950651Y-44161682D01*
X51970410Y-44179590D01*
X51988318Y-44199349D01*
X52004204Y-44220768D01*
X52017914Y-44243642D01*
X52029315Y-44267748D01*
X52038299Y-44292857D01*
X52044779Y-44318725D01*
X52048692Y-44345103D01*
X52050000Y-44371738D01*
X52050000Y-45078262D01*
X52048692Y-45104897D01*
X52044779Y-45131275D01*
X52038299Y-45157143D01*
X52029315Y-45182252D01*
X52017914Y-45206358D01*
X52004204Y-45229232D01*
X51988318Y-45250651D01*
X51970410Y-45270410D01*
X51950651Y-45288318D01*
X51929232Y-45304204D01*
X51906358Y-45317914D01*
X51882252Y-45329315D01*
X51857143Y-45338299D01*
X51831275Y-45344779D01*
X51804897Y-45348692D01*
X51778262Y-45350000D01*
X50821738Y-45350000D01*
X50795103Y-45348692D01*
X50768725Y-45344779D01*
X50742857Y-45338299D01*
X50717748Y-45329315D01*
X50693642Y-45317914D01*
X50670768Y-45304204D01*
X50649349Y-45288318D01*
X50629590Y-45270410D01*
X50611682Y-45250651D01*
X50595796Y-45229232D01*
X50582086Y-45206358D01*
X50570685Y-45182252D01*
X50561701Y-45157143D01*
X50555221Y-45131275D01*
X50551308Y-45104897D01*
X50550000Y-45078262D01*
X50550000Y-44371738D01*
X50551308Y-44345103D01*
X50555221Y-44318725D01*
X50561701Y-44292857D01*
X50570685Y-44267748D01*
X50582086Y-44243642D01*
X50595796Y-44220768D01*
X50611682Y-44199349D01*
X50629590Y-44179590D01*
X50649349Y-44161682D01*
X50670768Y-44145796D01*
X50693642Y-44132086D01*
X50717748Y-44120685D01*
X50742857Y-44111701D01*
X50768725Y-44105221D01*
X50795103Y-44101308D01*
X50821738Y-44100000D01*
X51778262Y-44100000D01*
X51804897Y-44101308D01*
X51804897Y-44101308D01*
G37*
D16*
X51300000Y-44725000D03*
G04 #@! TD*
D15*
G04 #@! TO.C,C3*
G36*
X46154897Y-39451308D02*
X46181275Y-39455221D01*
X46207143Y-39461701D01*
X46232252Y-39470685D01*
X46256358Y-39482086D01*
X46279232Y-39495796D01*
X46300651Y-39511682D01*
X46320410Y-39529590D01*
X46338318Y-39549349D01*
X46354204Y-39570768D01*
X46367914Y-39593642D01*
X46379315Y-39617748D01*
X46388299Y-39642857D01*
X46394779Y-39668725D01*
X46398692Y-39695103D01*
X46400000Y-39721738D01*
X46400000Y-40678262D01*
X46398692Y-40704897D01*
X46394779Y-40731275D01*
X46388299Y-40757143D01*
X46379315Y-40782252D01*
X46367914Y-40806358D01*
X46354204Y-40829232D01*
X46338318Y-40850651D01*
X46320410Y-40870410D01*
X46300651Y-40888318D01*
X46279232Y-40904204D01*
X46256358Y-40917914D01*
X46232252Y-40929315D01*
X46207143Y-40938299D01*
X46181275Y-40944779D01*
X46154897Y-40948692D01*
X46128262Y-40950000D01*
X45421738Y-40950000D01*
X45395103Y-40948692D01*
X45368725Y-40944779D01*
X45342857Y-40938299D01*
X45317748Y-40929315D01*
X45293642Y-40917914D01*
X45270768Y-40904204D01*
X45249349Y-40888318D01*
X45229590Y-40870410D01*
X45211682Y-40850651D01*
X45195796Y-40829232D01*
X45182086Y-40806358D01*
X45170685Y-40782252D01*
X45161701Y-40757143D01*
X45155221Y-40731275D01*
X45151308Y-40704897D01*
X45150000Y-40678262D01*
X45150000Y-39721738D01*
X45151308Y-39695103D01*
X45155221Y-39668725D01*
X45161701Y-39642857D01*
X45170685Y-39617748D01*
X45182086Y-39593642D01*
X45195796Y-39570768D01*
X45211682Y-39549349D01*
X45229590Y-39529590D01*
X45249349Y-39511682D01*
X45270768Y-39495796D01*
X45293642Y-39482086D01*
X45317748Y-39470685D01*
X45342857Y-39461701D01*
X45368725Y-39455221D01*
X45395103Y-39451308D01*
X45421738Y-39450000D01*
X46128262Y-39450000D01*
X46154897Y-39451308D01*
X46154897Y-39451308D01*
G37*
D16*
X45775000Y-40200000D03*
D15*
G36*
X48204897Y-39451308D02*
X48231275Y-39455221D01*
X48257143Y-39461701D01*
X48282252Y-39470685D01*
X48306358Y-39482086D01*
X48329232Y-39495796D01*
X48350651Y-39511682D01*
X48370410Y-39529590D01*
X48388318Y-39549349D01*
X48404204Y-39570768D01*
X48417914Y-39593642D01*
X48429315Y-39617748D01*
X48438299Y-39642857D01*
X48444779Y-39668725D01*
X48448692Y-39695103D01*
X48450000Y-39721738D01*
X48450000Y-40678262D01*
X48448692Y-40704897D01*
X48444779Y-40731275D01*
X48438299Y-40757143D01*
X48429315Y-40782252D01*
X48417914Y-40806358D01*
X48404204Y-40829232D01*
X48388318Y-40850651D01*
X48370410Y-40870410D01*
X48350651Y-40888318D01*
X48329232Y-40904204D01*
X48306358Y-40917914D01*
X48282252Y-40929315D01*
X48257143Y-40938299D01*
X48231275Y-40944779D01*
X48204897Y-40948692D01*
X48178262Y-40950000D01*
X47471738Y-40950000D01*
X47445103Y-40948692D01*
X47418725Y-40944779D01*
X47392857Y-40938299D01*
X47367748Y-40929315D01*
X47343642Y-40917914D01*
X47320768Y-40904204D01*
X47299349Y-40888318D01*
X47279590Y-40870410D01*
X47261682Y-40850651D01*
X47245796Y-40829232D01*
X47232086Y-40806358D01*
X47220685Y-40782252D01*
X47211701Y-40757143D01*
X47205221Y-40731275D01*
X47201308Y-40704897D01*
X47200000Y-40678262D01*
X47200000Y-39721738D01*
X47201308Y-39695103D01*
X47205221Y-39668725D01*
X47211701Y-39642857D01*
X47220685Y-39617748D01*
X47232086Y-39593642D01*
X47245796Y-39570768D01*
X47261682Y-39549349D01*
X47279590Y-39529590D01*
X47299349Y-39511682D01*
X47320768Y-39495796D01*
X47343642Y-39482086D01*
X47367748Y-39470685D01*
X47392857Y-39461701D01*
X47418725Y-39455221D01*
X47445103Y-39451308D01*
X47471738Y-39450000D01*
X48178262Y-39450000D01*
X48204897Y-39451308D01*
X48204897Y-39451308D01*
G37*
D16*
X47825000Y-40200000D03*
G04 #@! TD*
D15*
G04 #@! TO.C,C2*
G36*
X44904897Y-42051308D02*
X44931275Y-42055221D01*
X44957143Y-42061701D01*
X44982252Y-42070685D01*
X45006358Y-42082086D01*
X45029232Y-42095796D01*
X45050651Y-42111682D01*
X45070410Y-42129590D01*
X45088318Y-42149349D01*
X45104204Y-42170768D01*
X45117914Y-42193642D01*
X45129315Y-42217748D01*
X45138299Y-42242857D01*
X45144779Y-42268725D01*
X45148692Y-42295103D01*
X45150000Y-42321738D01*
X45150000Y-43028262D01*
X45148692Y-43054897D01*
X45144779Y-43081275D01*
X45138299Y-43107143D01*
X45129315Y-43132252D01*
X45117914Y-43156358D01*
X45104204Y-43179232D01*
X45088318Y-43200651D01*
X45070410Y-43220410D01*
X45050651Y-43238318D01*
X45029232Y-43254204D01*
X45006358Y-43267914D01*
X44982252Y-43279315D01*
X44957143Y-43288299D01*
X44931275Y-43294779D01*
X44904897Y-43298692D01*
X44878262Y-43300000D01*
X43921738Y-43300000D01*
X43895103Y-43298692D01*
X43868725Y-43294779D01*
X43842857Y-43288299D01*
X43817748Y-43279315D01*
X43793642Y-43267914D01*
X43770768Y-43254204D01*
X43749349Y-43238318D01*
X43729590Y-43220410D01*
X43711682Y-43200651D01*
X43695796Y-43179232D01*
X43682086Y-43156358D01*
X43670685Y-43132252D01*
X43661701Y-43107143D01*
X43655221Y-43081275D01*
X43651308Y-43054897D01*
X43650000Y-43028262D01*
X43650000Y-42321738D01*
X43651308Y-42295103D01*
X43655221Y-42268725D01*
X43661701Y-42242857D01*
X43670685Y-42217748D01*
X43682086Y-42193642D01*
X43695796Y-42170768D01*
X43711682Y-42149349D01*
X43729590Y-42129590D01*
X43749349Y-42111682D01*
X43770768Y-42095796D01*
X43793642Y-42082086D01*
X43817748Y-42070685D01*
X43842857Y-42061701D01*
X43868725Y-42055221D01*
X43895103Y-42051308D01*
X43921738Y-42050000D01*
X44878262Y-42050000D01*
X44904897Y-42051308D01*
X44904897Y-42051308D01*
G37*
D16*
X44400000Y-42675000D03*
D15*
G36*
X44904897Y-44101308D02*
X44931275Y-44105221D01*
X44957143Y-44111701D01*
X44982252Y-44120685D01*
X45006358Y-44132086D01*
X45029232Y-44145796D01*
X45050651Y-44161682D01*
X45070410Y-44179590D01*
X45088318Y-44199349D01*
X45104204Y-44220768D01*
X45117914Y-44243642D01*
X45129315Y-44267748D01*
X45138299Y-44292857D01*
X45144779Y-44318725D01*
X45148692Y-44345103D01*
X45150000Y-44371738D01*
X45150000Y-45078262D01*
X45148692Y-45104897D01*
X45144779Y-45131275D01*
X45138299Y-45157143D01*
X45129315Y-45182252D01*
X45117914Y-45206358D01*
X45104204Y-45229232D01*
X45088318Y-45250651D01*
X45070410Y-45270410D01*
X45050651Y-45288318D01*
X45029232Y-45304204D01*
X45006358Y-45317914D01*
X44982252Y-45329315D01*
X44957143Y-45338299D01*
X44931275Y-45344779D01*
X44904897Y-45348692D01*
X44878262Y-45350000D01*
X43921738Y-45350000D01*
X43895103Y-45348692D01*
X43868725Y-45344779D01*
X43842857Y-45338299D01*
X43817748Y-45329315D01*
X43793642Y-45317914D01*
X43770768Y-45304204D01*
X43749349Y-45288318D01*
X43729590Y-45270410D01*
X43711682Y-45250651D01*
X43695796Y-45229232D01*
X43682086Y-45206358D01*
X43670685Y-45182252D01*
X43661701Y-45157143D01*
X43655221Y-45131275D01*
X43651308Y-45104897D01*
X43650000Y-45078262D01*
X43650000Y-44371738D01*
X43651308Y-44345103D01*
X43655221Y-44318725D01*
X43661701Y-44292857D01*
X43670685Y-44267748D01*
X43682086Y-44243642D01*
X43695796Y-44220768D01*
X43711682Y-44199349D01*
X43729590Y-44179590D01*
X43749349Y-44161682D01*
X43770768Y-44145796D01*
X43793642Y-44132086D01*
X43817748Y-44120685D01*
X43842857Y-44111701D01*
X43868725Y-44105221D01*
X43895103Y-44101308D01*
X43921738Y-44100000D01*
X44878262Y-44100000D01*
X44904897Y-44101308D01*
X44904897Y-44101308D01*
G37*
D16*
X44400000Y-44725000D03*
G04 #@! TD*
D15*
G04 #@! TO.C,C1*
G36*
X49904897Y-44101308D02*
X49931275Y-44105221D01*
X49957143Y-44111701D01*
X49982252Y-44120685D01*
X50006358Y-44132086D01*
X50029232Y-44145796D01*
X50050651Y-44161682D01*
X50070410Y-44179590D01*
X50088318Y-44199349D01*
X50104204Y-44220768D01*
X50117914Y-44243642D01*
X50129315Y-44267748D01*
X50138299Y-44292857D01*
X50144779Y-44318725D01*
X50148692Y-44345103D01*
X50150000Y-44371738D01*
X50150000Y-45078262D01*
X50148692Y-45104897D01*
X50144779Y-45131275D01*
X50138299Y-45157143D01*
X50129315Y-45182252D01*
X50117914Y-45206358D01*
X50104204Y-45229232D01*
X50088318Y-45250651D01*
X50070410Y-45270410D01*
X50050651Y-45288318D01*
X50029232Y-45304204D01*
X50006358Y-45317914D01*
X49982252Y-45329315D01*
X49957143Y-45338299D01*
X49931275Y-45344779D01*
X49904897Y-45348692D01*
X49878262Y-45350000D01*
X48921738Y-45350000D01*
X48895103Y-45348692D01*
X48868725Y-45344779D01*
X48842857Y-45338299D01*
X48817748Y-45329315D01*
X48793642Y-45317914D01*
X48770768Y-45304204D01*
X48749349Y-45288318D01*
X48729590Y-45270410D01*
X48711682Y-45250651D01*
X48695796Y-45229232D01*
X48682086Y-45206358D01*
X48670685Y-45182252D01*
X48661701Y-45157143D01*
X48655221Y-45131275D01*
X48651308Y-45104897D01*
X48650000Y-45078262D01*
X48650000Y-44371738D01*
X48651308Y-44345103D01*
X48655221Y-44318725D01*
X48661701Y-44292857D01*
X48670685Y-44267748D01*
X48682086Y-44243642D01*
X48695796Y-44220768D01*
X48711682Y-44199349D01*
X48729590Y-44179590D01*
X48749349Y-44161682D01*
X48770768Y-44145796D01*
X48793642Y-44132086D01*
X48817748Y-44120685D01*
X48842857Y-44111701D01*
X48868725Y-44105221D01*
X48895103Y-44101308D01*
X48921738Y-44100000D01*
X49878262Y-44100000D01*
X49904897Y-44101308D01*
X49904897Y-44101308D01*
G37*
D16*
X49400000Y-44725000D03*
D15*
G36*
X49904897Y-42051308D02*
X49931275Y-42055221D01*
X49957143Y-42061701D01*
X49982252Y-42070685D01*
X50006358Y-42082086D01*
X50029232Y-42095796D01*
X50050651Y-42111682D01*
X50070410Y-42129590D01*
X50088318Y-42149349D01*
X50104204Y-42170768D01*
X50117914Y-42193642D01*
X50129315Y-42217748D01*
X50138299Y-42242857D01*
X50144779Y-42268725D01*
X50148692Y-42295103D01*
X50150000Y-42321738D01*
X50150000Y-43028262D01*
X50148692Y-43054897D01*
X50144779Y-43081275D01*
X50138299Y-43107143D01*
X50129315Y-43132252D01*
X50117914Y-43156358D01*
X50104204Y-43179232D01*
X50088318Y-43200651D01*
X50070410Y-43220410D01*
X50050651Y-43238318D01*
X50029232Y-43254204D01*
X50006358Y-43267914D01*
X49982252Y-43279315D01*
X49957143Y-43288299D01*
X49931275Y-43294779D01*
X49904897Y-43298692D01*
X49878262Y-43300000D01*
X48921738Y-43300000D01*
X48895103Y-43298692D01*
X48868725Y-43294779D01*
X48842857Y-43288299D01*
X48817748Y-43279315D01*
X48793642Y-43267914D01*
X48770768Y-43254204D01*
X48749349Y-43238318D01*
X48729590Y-43220410D01*
X48711682Y-43200651D01*
X48695796Y-43179232D01*
X48682086Y-43156358D01*
X48670685Y-43132252D01*
X48661701Y-43107143D01*
X48655221Y-43081275D01*
X48651308Y-43054897D01*
X48650000Y-43028262D01*
X48650000Y-42321738D01*
X48651308Y-42295103D01*
X48655221Y-42268725D01*
X48661701Y-42242857D01*
X48670685Y-42217748D01*
X48682086Y-42193642D01*
X48695796Y-42170768D01*
X48711682Y-42149349D01*
X48729590Y-42129590D01*
X48749349Y-42111682D01*
X48770768Y-42095796D01*
X48793642Y-42082086D01*
X48817748Y-42070685D01*
X48842857Y-42061701D01*
X48868725Y-42055221D01*
X48895103Y-42051308D01*
X48921738Y-42050000D01*
X49878262Y-42050000D01*
X49904897Y-42051308D01*
X49904897Y-42051308D01*
G37*
D16*
X49400000Y-42675000D03*
G04 #@! TD*
D17*
G04 #@! TO.C,U2*
X47750000Y-42250000D03*
X46800000Y-42250000D03*
X45850000Y-42250000D03*
X45850000Y-44950000D03*
X47750000Y-44950000D03*
G04 #@! TD*
D18*
G04 #@! TO.C,U4*
X45600000Y-34300000D03*
X46900000Y-34300000D03*
X46250000Y-32400000D03*
X46250000Y-34300000D03*
X46900000Y-32400000D03*
X45600000Y-32400000D03*
G04 #@! TD*
D15*
G04 #@! TO.C,R5*
G36*
X38104897Y-43151308D02*
X38131275Y-43155221D01*
X38157143Y-43161701D01*
X38182252Y-43170685D01*
X38206358Y-43182086D01*
X38229232Y-43195796D01*
X38250651Y-43211682D01*
X38270410Y-43229590D01*
X38288318Y-43249349D01*
X38304204Y-43270768D01*
X38317914Y-43293642D01*
X38329315Y-43317748D01*
X38338299Y-43342857D01*
X38344779Y-43368725D01*
X38348692Y-43395103D01*
X38350000Y-43421738D01*
X38350000Y-44378262D01*
X38348692Y-44404897D01*
X38344779Y-44431275D01*
X38338299Y-44457143D01*
X38329315Y-44482252D01*
X38317914Y-44506358D01*
X38304204Y-44529232D01*
X38288318Y-44550651D01*
X38270410Y-44570410D01*
X38250651Y-44588318D01*
X38229232Y-44604204D01*
X38206358Y-44617914D01*
X38182252Y-44629315D01*
X38157143Y-44638299D01*
X38131275Y-44644779D01*
X38104897Y-44648692D01*
X38078262Y-44650000D01*
X37371738Y-44650000D01*
X37345103Y-44648692D01*
X37318725Y-44644779D01*
X37292857Y-44638299D01*
X37267748Y-44629315D01*
X37243642Y-44617914D01*
X37220768Y-44604204D01*
X37199349Y-44588318D01*
X37179590Y-44570410D01*
X37161682Y-44550651D01*
X37145796Y-44529232D01*
X37132086Y-44506358D01*
X37120685Y-44482252D01*
X37111701Y-44457143D01*
X37105221Y-44431275D01*
X37101308Y-44404897D01*
X37100000Y-44378262D01*
X37100000Y-43421738D01*
X37101308Y-43395103D01*
X37105221Y-43368725D01*
X37111701Y-43342857D01*
X37120685Y-43317748D01*
X37132086Y-43293642D01*
X37145796Y-43270768D01*
X37161682Y-43249349D01*
X37179590Y-43229590D01*
X37199349Y-43211682D01*
X37220768Y-43195796D01*
X37243642Y-43182086D01*
X37267748Y-43170685D01*
X37292857Y-43161701D01*
X37318725Y-43155221D01*
X37345103Y-43151308D01*
X37371738Y-43150000D01*
X38078262Y-43150000D01*
X38104897Y-43151308D01*
X38104897Y-43151308D01*
G37*
D16*
X37725000Y-43900000D03*
D15*
G36*
X36054897Y-43151308D02*
X36081275Y-43155221D01*
X36107143Y-43161701D01*
X36132252Y-43170685D01*
X36156358Y-43182086D01*
X36179232Y-43195796D01*
X36200651Y-43211682D01*
X36220410Y-43229590D01*
X36238318Y-43249349D01*
X36254204Y-43270768D01*
X36267914Y-43293642D01*
X36279315Y-43317748D01*
X36288299Y-43342857D01*
X36294779Y-43368725D01*
X36298692Y-43395103D01*
X36300000Y-43421738D01*
X36300000Y-44378262D01*
X36298692Y-44404897D01*
X36294779Y-44431275D01*
X36288299Y-44457143D01*
X36279315Y-44482252D01*
X36267914Y-44506358D01*
X36254204Y-44529232D01*
X36238318Y-44550651D01*
X36220410Y-44570410D01*
X36200651Y-44588318D01*
X36179232Y-44604204D01*
X36156358Y-44617914D01*
X36132252Y-44629315D01*
X36107143Y-44638299D01*
X36081275Y-44644779D01*
X36054897Y-44648692D01*
X36028262Y-44650000D01*
X35321738Y-44650000D01*
X35295103Y-44648692D01*
X35268725Y-44644779D01*
X35242857Y-44638299D01*
X35217748Y-44629315D01*
X35193642Y-44617914D01*
X35170768Y-44604204D01*
X35149349Y-44588318D01*
X35129590Y-44570410D01*
X35111682Y-44550651D01*
X35095796Y-44529232D01*
X35082086Y-44506358D01*
X35070685Y-44482252D01*
X35061701Y-44457143D01*
X35055221Y-44431275D01*
X35051308Y-44404897D01*
X35050000Y-44378262D01*
X35050000Y-43421738D01*
X35051308Y-43395103D01*
X35055221Y-43368725D01*
X35061701Y-43342857D01*
X35070685Y-43317748D01*
X35082086Y-43293642D01*
X35095796Y-43270768D01*
X35111682Y-43249349D01*
X35129590Y-43229590D01*
X35149349Y-43211682D01*
X35170768Y-43195796D01*
X35193642Y-43182086D01*
X35217748Y-43170685D01*
X35242857Y-43161701D01*
X35268725Y-43155221D01*
X35295103Y-43151308D01*
X35321738Y-43150000D01*
X36028262Y-43150000D01*
X36054897Y-43151308D01*
X36054897Y-43151308D01*
G37*
D16*
X35675000Y-43900000D03*
G04 #@! TD*
D15*
G04 #@! TO.C,R6*
G36*
X38104897Y-41251308D02*
X38131275Y-41255221D01*
X38157143Y-41261701D01*
X38182252Y-41270685D01*
X38206358Y-41282086D01*
X38229232Y-41295796D01*
X38250651Y-41311682D01*
X38270410Y-41329590D01*
X38288318Y-41349349D01*
X38304204Y-41370768D01*
X38317914Y-41393642D01*
X38329315Y-41417748D01*
X38338299Y-41442857D01*
X38344779Y-41468725D01*
X38348692Y-41495103D01*
X38350000Y-41521738D01*
X38350000Y-42478262D01*
X38348692Y-42504897D01*
X38344779Y-42531275D01*
X38338299Y-42557143D01*
X38329315Y-42582252D01*
X38317914Y-42606358D01*
X38304204Y-42629232D01*
X38288318Y-42650651D01*
X38270410Y-42670410D01*
X38250651Y-42688318D01*
X38229232Y-42704204D01*
X38206358Y-42717914D01*
X38182252Y-42729315D01*
X38157143Y-42738299D01*
X38131275Y-42744779D01*
X38104897Y-42748692D01*
X38078262Y-42750000D01*
X37371738Y-42750000D01*
X37345103Y-42748692D01*
X37318725Y-42744779D01*
X37292857Y-42738299D01*
X37267748Y-42729315D01*
X37243642Y-42717914D01*
X37220768Y-42704204D01*
X37199349Y-42688318D01*
X37179590Y-42670410D01*
X37161682Y-42650651D01*
X37145796Y-42629232D01*
X37132086Y-42606358D01*
X37120685Y-42582252D01*
X37111701Y-42557143D01*
X37105221Y-42531275D01*
X37101308Y-42504897D01*
X37100000Y-42478262D01*
X37100000Y-41521738D01*
X37101308Y-41495103D01*
X37105221Y-41468725D01*
X37111701Y-41442857D01*
X37120685Y-41417748D01*
X37132086Y-41393642D01*
X37145796Y-41370768D01*
X37161682Y-41349349D01*
X37179590Y-41329590D01*
X37199349Y-41311682D01*
X37220768Y-41295796D01*
X37243642Y-41282086D01*
X37267748Y-41270685D01*
X37292857Y-41261701D01*
X37318725Y-41255221D01*
X37345103Y-41251308D01*
X37371738Y-41250000D01*
X38078262Y-41250000D01*
X38104897Y-41251308D01*
X38104897Y-41251308D01*
G37*
D16*
X37725000Y-42000000D03*
D15*
G36*
X36054897Y-41251308D02*
X36081275Y-41255221D01*
X36107143Y-41261701D01*
X36132252Y-41270685D01*
X36156358Y-41282086D01*
X36179232Y-41295796D01*
X36200651Y-41311682D01*
X36220410Y-41329590D01*
X36238318Y-41349349D01*
X36254204Y-41370768D01*
X36267914Y-41393642D01*
X36279315Y-41417748D01*
X36288299Y-41442857D01*
X36294779Y-41468725D01*
X36298692Y-41495103D01*
X36300000Y-41521738D01*
X36300000Y-42478262D01*
X36298692Y-42504897D01*
X36294779Y-42531275D01*
X36288299Y-42557143D01*
X36279315Y-42582252D01*
X36267914Y-42606358D01*
X36254204Y-42629232D01*
X36238318Y-42650651D01*
X36220410Y-42670410D01*
X36200651Y-42688318D01*
X36179232Y-42704204D01*
X36156358Y-42717914D01*
X36132252Y-42729315D01*
X36107143Y-42738299D01*
X36081275Y-42744779D01*
X36054897Y-42748692D01*
X36028262Y-42750000D01*
X35321738Y-42750000D01*
X35295103Y-42748692D01*
X35268725Y-42744779D01*
X35242857Y-42738299D01*
X35217748Y-42729315D01*
X35193642Y-42717914D01*
X35170768Y-42704204D01*
X35149349Y-42688318D01*
X35129590Y-42670410D01*
X35111682Y-42650651D01*
X35095796Y-42629232D01*
X35082086Y-42606358D01*
X35070685Y-42582252D01*
X35061701Y-42557143D01*
X35055221Y-42531275D01*
X35051308Y-42504897D01*
X35050000Y-42478262D01*
X35050000Y-41521738D01*
X35051308Y-41495103D01*
X35055221Y-41468725D01*
X35061701Y-41442857D01*
X35070685Y-41417748D01*
X35082086Y-41393642D01*
X35095796Y-41370768D01*
X35111682Y-41349349D01*
X35129590Y-41329590D01*
X35149349Y-41311682D01*
X35170768Y-41295796D01*
X35193642Y-41282086D01*
X35217748Y-41270685D01*
X35242857Y-41261701D01*
X35268725Y-41255221D01*
X35295103Y-41251308D01*
X35321738Y-41250000D01*
X36028262Y-41250000D01*
X36054897Y-41251308D01*
X36054897Y-41251308D01*
G37*
D16*
X35675000Y-42000000D03*
G04 #@! TD*
M02*
