G04 #@! TF.GenerationSoftware,KiCad,Pcbnew,(5.0.0)*
G04 #@! TF.CreationDate,2019-03-02T00:40:37+01:00*
G04 #@! TF.ProjectId,OpenThermalCamera,4F70656E546865726D616C43616D6572,rev?*
G04 #@! TF.SameCoordinates,Original*
G04 #@! TF.FileFunction,Copper,L1,Top,Signal*
G04 #@! TF.FilePolarity,Positive*
%FSLAX46Y46*%
G04 Gerber Fmt 4.6, Leading zero omitted, Abs format (unit mm)*
G04 Created by KiCad (PCBNEW (5.0.0)) date 03/02/19 00:40:37*
%MOMM*%
%LPD*%
G01*
G04 APERTURE LIST*
G04 #@! TA.AperFunction,ComponentPad*
%ADD10R,0.700000X1.500000*%
G04 #@! TD*
G04 #@! TA.AperFunction,ComponentPad*
%ADD11R,1.000000X1.500000*%
G04 #@! TD*
G04 #@! TA.AperFunction,SMDPad,CuDef*
%ADD12R,0.410000X1.550000*%
G04 #@! TD*
G04 #@! TA.AperFunction,SMDPad,CuDef*
%ADD13R,0.260000X1.550000*%
G04 #@! TD*
G04 #@! TA.AperFunction,Conductor*
%ADD14C,0.100000*%
G04 #@! TD*
G04 #@! TA.AperFunction,SMDPad,CuDef*
%ADD15C,1.150000*%
G04 #@! TD*
G04 #@! TA.AperFunction,SMDPad,CuDef*
%ADD16R,0.650000X1.560000*%
G04 #@! TD*
G04 #@! TA.AperFunction,SMDPad,CuDef*
%ADD17R,0.400000X0.650000*%
G04 #@! TD*
G04 #@! TA.AperFunction,ViaPad*
%ADD18C,0.800000*%
G04 #@! TD*
G04 #@! TA.AperFunction,Conductor*
%ADD19C,0.200000*%
G04 #@! TD*
G04 #@! TA.AperFunction,Conductor*
%ADD20C,0.254000*%
G04 #@! TD*
G04 APERTURE END LIST*
D10*
G04 #@! TO.P,J2,S1*
G04 #@! TO.N,N/C*
X36800000Y-30700000D03*
D11*
X43825000Y-30700000D03*
D12*
G04 #@! TO.P,J2,A1*
G04 #@! TO.N,GND*
X37275000Y-28300000D03*
G04 #@! TO.P,J2,A12*
X42925000Y-28300000D03*
D13*
G04 #@! TO.P,J2,A11*
G04 #@! TO.N,Net-(J2-PadA11)*
X42350000Y-28300000D03*
G04 #@! TO.P,J2,A10*
G04 #@! TO.N,Net-(J2-PadA10)*
X41850000Y-28300000D03*
G04 #@! TO.P,J2,A9*
G04 #@! TO.N,+5V*
X41350000Y-28300000D03*
G04 #@! TO.P,J2,A8*
G04 #@! TO.N,Net-(J2-PadA8)*
X40850000Y-28300000D03*
G04 #@! TO.P,J2,A7*
G04 #@! TO.N,/USB_N*
X40350000Y-28300000D03*
G04 #@! TO.P,J2,A6*
G04 #@! TO.N,/USB_P*
X39850000Y-28300000D03*
G04 #@! TO.P,J2,A5*
G04 #@! TO.N,Net-(J2-PadA5)*
X39350000Y-28300000D03*
G04 #@! TO.P,J2,A4*
G04 #@! TO.N,+5V*
X38850000Y-28300000D03*
G04 #@! TO.P,J2,A3*
G04 #@! TO.N,Net-(J2-PadA3)*
X38350000Y-28300000D03*
G04 #@! TO.P,J2,A2*
G04 #@! TO.N,Net-(J2-PadA2)*
X37850000Y-28300000D03*
G04 #@! TD*
D14*
G04 #@! TO.N,GND*
G04 #@! TO.C,C6*
G36*
X51774505Y-42101204D02*
X51798773Y-42104804D01*
X51822572Y-42110765D01*
X51845671Y-42119030D01*
X51867850Y-42129520D01*
X51888893Y-42142132D01*
X51908599Y-42156747D01*
X51926777Y-42173223D01*
X51943253Y-42191401D01*
X51957868Y-42211107D01*
X51970480Y-42232150D01*
X51980970Y-42254329D01*
X51989235Y-42277428D01*
X51995196Y-42301227D01*
X51998796Y-42325495D01*
X52000000Y-42349999D01*
X52000000Y-43000001D01*
X51998796Y-43024505D01*
X51995196Y-43048773D01*
X51989235Y-43072572D01*
X51980970Y-43095671D01*
X51970480Y-43117850D01*
X51957868Y-43138893D01*
X51943253Y-43158599D01*
X51926777Y-43176777D01*
X51908599Y-43193253D01*
X51888893Y-43207868D01*
X51867850Y-43220480D01*
X51845671Y-43230970D01*
X51822572Y-43239235D01*
X51798773Y-43245196D01*
X51774505Y-43248796D01*
X51750001Y-43250000D01*
X50849999Y-43250000D01*
X50825495Y-43248796D01*
X50801227Y-43245196D01*
X50777428Y-43239235D01*
X50754329Y-43230970D01*
X50732150Y-43220480D01*
X50711107Y-43207868D01*
X50691401Y-43193253D01*
X50673223Y-43176777D01*
X50656747Y-43158599D01*
X50642132Y-43138893D01*
X50629520Y-43117850D01*
X50619030Y-43095671D01*
X50610765Y-43072572D01*
X50604804Y-43048773D01*
X50601204Y-43024505D01*
X50600000Y-43000001D01*
X50600000Y-42349999D01*
X50601204Y-42325495D01*
X50604804Y-42301227D01*
X50610765Y-42277428D01*
X50619030Y-42254329D01*
X50629520Y-42232150D01*
X50642132Y-42211107D01*
X50656747Y-42191401D01*
X50673223Y-42173223D01*
X50691401Y-42156747D01*
X50711107Y-42142132D01*
X50732150Y-42129520D01*
X50754329Y-42119030D01*
X50777428Y-42110765D01*
X50801227Y-42104804D01*
X50825495Y-42101204D01*
X50849999Y-42100000D01*
X51750001Y-42100000D01*
X51774505Y-42101204D01*
X51774505Y-42101204D01*
G37*
D15*
G04 #@! TD*
G04 #@! TO.P,C6,2*
G04 #@! TO.N,GND*
X51300000Y-42675000D03*
D14*
G04 #@! TO.N,+3V3*
G04 #@! TO.C,C6*
G36*
X51774505Y-44151204D02*
X51798773Y-44154804D01*
X51822572Y-44160765D01*
X51845671Y-44169030D01*
X51867850Y-44179520D01*
X51888893Y-44192132D01*
X51908599Y-44206747D01*
X51926777Y-44223223D01*
X51943253Y-44241401D01*
X51957868Y-44261107D01*
X51970480Y-44282150D01*
X51980970Y-44304329D01*
X51989235Y-44327428D01*
X51995196Y-44351227D01*
X51998796Y-44375495D01*
X52000000Y-44399999D01*
X52000000Y-45050001D01*
X51998796Y-45074505D01*
X51995196Y-45098773D01*
X51989235Y-45122572D01*
X51980970Y-45145671D01*
X51970480Y-45167850D01*
X51957868Y-45188893D01*
X51943253Y-45208599D01*
X51926777Y-45226777D01*
X51908599Y-45243253D01*
X51888893Y-45257868D01*
X51867850Y-45270480D01*
X51845671Y-45280970D01*
X51822572Y-45289235D01*
X51798773Y-45295196D01*
X51774505Y-45298796D01*
X51750001Y-45300000D01*
X50849999Y-45300000D01*
X50825495Y-45298796D01*
X50801227Y-45295196D01*
X50777428Y-45289235D01*
X50754329Y-45280970D01*
X50732150Y-45270480D01*
X50711107Y-45257868D01*
X50691401Y-45243253D01*
X50673223Y-45226777D01*
X50656747Y-45208599D01*
X50642132Y-45188893D01*
X50629520Y-45167850D01*
X50619030Y-45145671D01*
X50610765Y-45122572D01*
X50604804Y-45098773D01*
X50601204Y-45074505D01*
X50600000Y-45050001D01*
X50600000Y-44399999D01*
X50601204Y-44375495D01*
X50604804Y-44351227D01*
X50610765Y-44327428D01*
X50619030Y-44304329D01*
X50629520Y-44282150D01*
X50642132Y-44261107D01*
X50656747Y-44241401D01*
X50673223Y-44223223D01*
X50691401Y-44206747D01*
X50711107Y-44192132D01*
X50732150Y-44179520D01*
X50754329Y-44169030D01*
X50777428Y-44160765D01*
X50801227Y-44154804D01*
X50825495Y-44151204D01*
X50849999Y-44150000D01*
X51750001Y-44150000D01*
X51774505Y-44151204D01*
X51774505Y-44151204D01*
G37*
D15*
G04 #@! TD*
G04 #@! TO.P,C6,1*
G04 #@! TO.N,+3V3*
X51300000Y-44725000D03*
D14*
G04 #@! TO.N,GND*
G04 #@! TO.C,C3*
G36*
X46124505Y-39501204D02*
X46148773Y-39504804D01*
X46172572Y-39510765D01*
X46195671Y-39519030D01*
X46217850Y-39529520D01*
X46238893Y-39542132D01*
X46258599Y-39556747D01*
X46276777Y-39573223D01*
X46293253Y-39591401D01*
X46307868Y-39611107D01*
X46320480Y-39632150D01*
X46330970Y-39654329D01*
X46339235Y-39677428D01*
X46345196Y-39701227D01*
X46348796Y-39725495D01*
X46350000Y-39749999D01*
X46350000Y-40650001D01*
X46348796Y-40674505D01*
X46345196Y-40698773D01*
X46339235Y-40722572D01*
X46330970Y-40745671D01*
X46320480Y-40767850D01*
X46307868Y-40788893D01*
X46293253Y-40808599D01*
X46276777Y-40826777D01*
X46258599Y-40843253D01*
X46238893Y-40857868D01*
X46217850Y-40870480D01*
X46195671Y-40880970D01*
X46172572Y-40889235D01*
X46148773Y-40895196D01*
X46124505Y-40898796D01*
X46100001Y-40900000D01*
X45449999Y-40900000D01*
X45425495Y-40898796D01*
X45401227Y-40895196D01*
X45377428Y-40889235D01*
X45354329Y-40880970D01*
X45332150Y-40870480D01*
X45311107Y-40857868D01*
X45291401Y-40843253D01*
X45273223Y-40826777D01*
X45256747Y-40808599D01*
X45242132Y-40788893D01*
X45229520Y-40767850D01*
X45219030Y-40745671D01*
X45210765Y-40722572D01*
X45204804Y-40698773D01*
X45201204Y-40674505D01*
X45200000Y-40650001D01*
X45200000Y-39749999D01*
X45201204Y-39725495D01*
X45204804Y-39701227D01*
X45210765Y-39677428D01*
X45219030Y-39654329D01*
X45229520Y-39632150D01*
X45242132Y-39611107D01*
X45256747Y-39591401D01*
X45273223Y-39573223D01*
X45291401Y-39556747D01*
X45311107Y-39542132D01*
X45332150Y-39529520D01*
X45354329Y-39519030D01*
X45377428Y-39510765D01*
X45401227Y-39504804D01*
X45425495Y-39501204D01*
X45449999Y-39500000D01*
X46100001Y-39500000D01*
X46124505Y-39501204D01*
X46124505Y-39501204D01*
G37*
D15*
G04 #@! TD*
G04 #@! TO.P,C3,2*
G04 #@! TO.N,GND*
X45775000Y-40200000D03*
D14*
G04 #@! TO.N,+5V*
G04 #@! TO.C,C3*
G36*
X48174505Y-39501204D02*
X48198773Y-39504804D01*
X48222572Y-39510765D01*
X48245671Y-39519030D01*
X48267850Y-39529520D01*
X48288893Y-39542132D01*
X48308599Y-39556747D01*
X48326777Y-39573223D01*
X48343253Y-39591401D01*
X48357868Y-39611107D01*
X48370480Y-39632150D01*
X48380970Y-39654329D01*
X48389235Y-39677428D01*
X48395196Y-39701227D01*
X48398796Y-39725495D01*
X48400000Y-39749999D01*
X48400000Y-40650001D01*
X48398796Y-40674505D01*
X48395196Y-40698773D01*
X48389235Y-40722572D01*
X48380970Y-40745671D01*
X48370480Y-40767850D01*
X48357868Y-40788893D01*
X48343253Y-40808599D01*
X48326777Y-40826777D01*
X48308599Y-40843253D01*
X48288893Y-40857868D01*
X48267850Y-40870480D01*
X48245671Y-40880970D01*
X48222572Y-40889235D01*
X48198773Y-40895196D01*
X48174505Y-40898796D01*
X48150001Y-40900000D01*
X47499999Y-40900000D01*
X47475495Y-40898796D01*
X47451227Y-40895196D01*
X47427428Y-40889235D01*
X47404329Y-40880970D01*
X47382150Y-40870480D01*
X47361107Y-40857868D01*
X47341401Y-40843253D01*
X47323223Y-40826777D01*
X47306747Y-40808599D01*
X47292132Y-40788893D01*
X47279520Y-40767850D01*
X47269030Y-40745671D01*
X47260765Y-40722572D01*
X47254804Y-40698773D01*
X47251204Y-40674505D01*
X47250000Y-40650001D01*
X47250000Y-39749999D01*
X47251204Y-39725495D01*
X47254804Y-39701227D01*
X47260765Y-39677428D01*
X47269030Y-39654329D01*
X47279520Y-39632150D01*
X47292132Y-39611107D01*
X47306747Y-39591401D01*
X47323223Y-39573223D01*
X47341401Y-39556747D01*
X47361107Y-39542132D01*
X47382150Y-39529520D01*
X47404329Y-39519030D01*
X47427428Y-39510765D01*
X47451227Y-39504804D01*
X47475495Y-39501204D01*
X47499999Y-39500000D01*
X48150001Y-39500000D01*
X48174505Y-39501204D01*
X48174505Y-39501204D01*
G37*
D15*
G04 #@! TD*
G04 #@! TO.P,C3,1*
G04 #@! TO.N,+5V*
X47825000Y-40200000D03*
D14*
G04 #@! TO.N,GND*
G04 #@! TO.C,C2*
G36*
X44874505Y-42101204D02*
X44898773Y-42104804D01*
X44922572Y-42110765D01*
X44945671Y-42119030D01*
X44967850Y-42129520D01*
X44988893Y-42142132D01*
X45008599Y-42156747D01*
X45026777Y-42173223D01*
X45043253Y-42191401D01*
X45057868Y-42211107D01*
X45070480Y-42232150D01*
X45080970Y-42254329D01*
X45089235Y-42277428D01*
X45095196Y-42301227D01*
X45098796Y-42325495D01*
X45100000Y-42349999D01*
X45100000Y-43000001D01*
X45098796Y-43024505D01*
X45095196Y-43048773D01*
X45089235Y-43072572D01*
X45080970Y-43095671D01*
X45070480Y-43117850D01*
X45057868Y-43138893D01*
X45043253Y-43158599D01*
X45026777Y-43176777D01*
X45008599Y-43193253D01*
X44988893Y-43207868D01*
X44967850Y-43220480D01*
X44945671Y-43230970D01*
X44922572Y-43239235D01*
X44898773Y-43245196D01*
X44874505Y-43248796D01*
X44850001Y-43250000D01*
X43949999Y-43250000D01*
X43925495Y-43248796D01*
X43901227Y-43245196D01*
X43877428Y-43239235D01*
X43854329Y-43230970D01*
X43832150Y-43220480D01*
X43811107Y-43207868D01*
X43791401Y-43193253D01*
X43773223Y-43176777D01*
X43756747Y-43158599D01*
X43742132Y-43138893D01*
X43729520Y-43117850D01*
X43719030Y-43095671D01*
X43710765Y-43072572D01*
X43704804Y-43048773D01*
X43701204Y-43024505D01*
X43700000Y-43000001D01*
X43700000Y-42349999D01*
X43701204Y-42325495D01*
X43704804Y-42301227D01*
X43710765Y-42277428D01*
X43719030Y-42254329D01*
X43729520Y-42232150D01*
X43742132Y-42211107D01*
X43756747Y-42191401D01*
X43773223Y-42173223D01*
X43791401Y-42156747D01*
X43811107Y-42142132D01*
X43832150Y-42129520D01*
X43854329Y-42119030D01*
X43877428Y-42110765D01*
X43901227Y-42104804D01*
X43925495Y-42101204D01*
X43949999Y-42100000D01*
X44850001Y-42100000D01*
X44874505Y-42101204D01*
X44874505Y-42101204D01*
G37*
D15*
G04 #@! TD*
G04 #@! TO.P,C2,2*
G04 #@! TO.N,GND*
X44400000Y-42675000D03*
D14*
G04 #@! TO.N,Net-(C2-Pad1)*
G04 #@! TO.C,C2*
G36*
X44874505Y-44151204D02*
X44898773Y-44154804D01*
X44922572Y-44160765D01*
X44945671Y-44169030D01*
X44967850Y-44179520D01*
X44988893Y-44192132D01*
X45008599Y-44206747D01*
X45026777Y-44223223D01*
X45043253Y-44241401D01*
X45057868Y-44261107D01*
X45070480Y-44282150D01*
X45080970Y-44304329D01*
X45089235Y-44327428D01*
X45095196Y-44351227D01*
X45098796Y-44375495D01*
X45100000Y-44399999D01*
X45100000Y-45050001D01*
X45098796Y-45074505D01*
X45095196Y-45098773D01*
X45089235Y-45122572D01*
X45080970Y-45145671D01*
X45070480Y-45167850D01*
X45057868Y-45188893D01*
X45043253Y-45208599D01*
X45026777Y-45226777D01*
X45008599Y-45243253D01*
X44988893Y-45257868D01*
X44967850Y-45270480D01*
X44945671Y-45280970D01*
X44922572Y-45289235D01*
X44898773Y-45295196D01*
X44874505Y-45298796D01*
X44850001Y-45300000D01*
X43949999Y-45300000D01*
X43925495Y-45298796D01*
X43901227Y-45295196D01*
X43877428Y-45289235D01*
X43854329Y-45280970D01*
X43832150Y-45270480D01*
X43811107Y-45257868D01*
X43791401Y-45243253D01*
X43773223Y-45226777D01*
X43756747Y-45208599D01*
X43742132Y-45188893D01*
X43729520Y-45167850D01*
X43719030Y-45145671D01*
X43710765Y-45122572D01*
X43704804Y-45098773D01*
X43701204Y-45074505D01*
X43700000Y-45050001D01*
X43700000Y-44399999D01*
X43701204Y-44375495D01*
X43704804Y-44351227D01*
X43710765Y-44327428D01*
X43719030Y-44304329D01*
X43729520Y-44282150D01*
X43742132Y-44261107D01*
X43756747Y-44241401D01*
X43773223Y-44223223D01*
X43791401Y-44206747D01*
X43811107Y-44192132D01*
X43832150Y-44179520D01*
X43854329Y-44169030D01*
X43877428Y-44160765D01*
X43901227Y-44154804D01*
X43925495Y-44151204D01*
X43949999Y-44150000D01*
X44850001Y-44150000D01*
X44874505Y-44151204D01*
X44874505Y-44151204D01*
G37*
D15*
G04 #@! TD*
G04 #@! TO.P,C2,1*
G04 #@! TO.N,Net-(C2-Pad1)*
X44400000Y-44725000D03*
D14*
G04 #@! TO.N,+3V3*
G04 #@! TO.C,C1*
G36*
X49874505Y-44151204D02*
X49898773Y-44154804D01*
X49922572Y-44160765D01*
X49945671Y-44169030D01*
X49967850Y-44179520D01*
X49988893Y-44192132D01*
X50008599Y-44206747D01*
X50026777Y-44223223D01*
X50043253Y-44241401D01*
X50057868Y-44261107D01*
X50070480Y-44282150D01*
X50080970Y-44304329D01*
X50089235Y-44327428D01*
X50095196Y-44351227D01*
X50098796Y-44375495D01*
X50100000Y-44399999D01*
X50100000Y-45050001D01*
X50098796Y-45074505D01*
X50095196Y-45098773D01*
X50089235Y-45122572D01*
X50080970Y-45145671D01*
X50070480Y-45167850D01*
X50057868Y-45188893D01*
X50043253Y-45208599D01*
X50026777Y-45226777D01*
X50008599Y-45243253D01*
X49988893Y-45257868D01*
X49967850Y-45270480D01*
X49945671Y-45280970D01*
X49922572Y-45289235D01*
X49898773Y-45295196D01*
X49874505Y-45298796D01*
X49850001Y-45300000D01*
X48949999Y-45300000D01*
X48925495Y-45298796D01*
X48901227Y-45295196D01*
X48877428Y-45289235D01*
X48854329Y-45280970D01*
X48832150Y-45270480D01*
X48811107Y-45257868D01*
X48791401Y-45243253D01*
X48773223Y-45226777D01*
X48756747Y-45208599D01*
X48742132Y-45188893D01*
X48729520Y-45167850D01*
X48719030Y-45145671D01*
X48710765Y-45122572D01*
X48704804Y-45098773D01*
X48701204Y-45074505D01*
X48700000Y-45050001D01*
X48700000Y-44399999D01*
X48701204Y-44375495D01*
X48704804Y-44351227D01*
X48710765Y-44327428D01*
X48719030Y-44304329D01*
X48729520Y-44282150D01*
X48742132Y-44261107D01*
X48756747Y-44241401D01*
X48773223Y-44223223D01*
X48791401Y-44206747D01*
X48811107Y-44192132D01*
X48832150Y-44179520D01*
X48854329Y-44169030D01*
X48877428Y-44160765D01*
X48901227Y-44154804D01*
X48925495Y-44151204D01*
X48949999Y-44150000D01*
X49850001Y-44150000D01*
X49874505Y-44151204D01*
X49874505Y-44151204D01*
G37*
D15*
G04 #@! TD*
G04 #@! TO.P,C1,1*
G04 #@! TO.N,+3V3*
X49400000Y-44725000D03*
D14*
G04 #@! TO.N,GND*
G04 #@! TO.C,C1*
G36*
X49874505Y-42101204D02*
X49898773Y-42104804D01*
X49922572Y-42110765D01*
X49945671Y-42119030D01*
X49967850Y-42129520D01*
X49988893Y-42142132D01*
X50008599Y-42156747D01*
X50026777Y-42173223D01*
X50043253Y-42191401D01*
X50057868Y-42211107D01*
X50070480Y-42232150D01*
X50080970Y-42254329D01*
X50089235Y-42277428D01*
X50095196Y-42301227D01*
X50098796Y-42325495D01*
X50100000Y-42349999D01*
X50100000Y-43000001D01*
X50098796Y-43024505D01*
X50095196Y-43048773D01*
X50089235Y-43072572D01*
X50080970Y-43095671D01*
X50070480Y-43117850D01*
X50057868Y-43138893D01*
X50043253Y-43158599D01*
X50026777Y-43176777D01*
X50008599Y-43193253D01*
X49988893Y-43207868D01*
X49967850Y-43220480D01*
X49945671Y-43230970D01*
X49922572Y-43239235D01*
X49898773Y-43245196D01*
X49874505Y-43248796D01*
X49850001Y-43250000D01*
X48949999Y-43250000D01*
X48925495Y-43248796D01*
X48901227Y-43245196D01*
X48877428Y-43239235D01*
X48854329Y-43230970D01*
X48832150Y-43220480D01*
X48811107Y-43207868D01*
X48791401Y-43193253D01*
X48773223Y-43176777D01*
X48756747Y-43158599D01*
X48742132Y-43138893D01*
X48729520Y-43117850D01*
X48719030Y-43095671D01*
X48710765Y-43072572D01*
X48704804Y-43048773D01*
X48701204Y-43024505D01*
X48700000Y-43000001D01*
X48700000Y-42349999D01*
X48701204Y-42325495D01*
X48704804Y-42301227D01*
X48710765Y-42277428D01*
X48719030Y-42254329D01*
X48729520Y-42232150D01*
X48742132Y-42211107D01*
X48756747Y-42191401D01*
X48773223Y-42173223D01*
X48791401Y-42156747D01*
X48811107Y-42142132D01*
X48832150Y-42129520D01*
X48854329Y-42119030D01*
X48877428Y-42110765D01*
X48901227Y-42104804D01*
X48925495Y-42101204D01*
X48949999Y-42100000D01*
X49850001Y-42100000D01*
X49874505Y-42101204D01*
X49874505Y-42101204D01*
G37*
D15*
G04 #@! TD*
G04 #@! TO.P,C1,2*
G04 #@! TO.N,GND*
X49400000Y-42675000D03*
D16*
G04 #@! TO.P,U2,1*
G04 #@! TO.N,+5V*
X47750000Y-42250000D03*
G04 #@! TO.P,U2,2*
G04 #@! TO.N,GND*
X46800000Y-42250000D03*
G04 #@! TO.P,U2,3*
G04 #@! TO.N,+5V*
X45850000Y-42250000D03*
G04 #@! TO.P,U2,4*
G04 #@! TO.N,Net-(C2-Pad1)*
X45850000Y-44950000D03*
G04 #@! TO.P,U2,5*
G04 #@! TO.N,+3V3*
X47750000Y-44950000D03*
G04 #@! TD*
D17*
G04 #@! TO.P,U4,1*
G04 #@! TO.N,/USB_P*
X45600000Y-34300000D03*
G04 #@! TO.P,U4,3*
G04 #@! TO.N,Net-(U4-Pad3)*
X46900000Y-34300000D03*
G04 #@! TO.P,U4,5*
G04 #@! TO.N,+5V*
X46250000Y-32400000D03*
G04 #@! TO.P,U4,2*
G04 #@! TO.N,GND*
X46250000Y-34300000D03*
G04 #@! TO.P,U4,4*
G04 #@! TO.N,Net-(U4-Pad4)*
X46900000Y-32400000D03*
G04 #@! TO.P,U4,6*
G04 #@! TO.N,/USB_N*
X45600000Y-32400000D03*
G04 #@! TD*
D14*
G04 #@! TO.N,/RED_LED*
G04 #@! TO.C,R5*
G36*
X38074505Y-43201204D02*
X38098773Y-43204804D01*
X38122572Y-43210765D01*
X38145671Y-43219030D01*
X38167850Y-43229520D01*
X38188893Y-43242132D01*
X38208599Y-43256747D01*
X38226777Y-43273223D01*
X38243253Y-43291401D01*
X38257868Y-43311107D01*
X38270480Y-43332150D01*
X38280970Y-43354329D01*
X38289235Y-43377428D01*
X38295196Y-43401227D01*
X38298796Y-43425495D01*
X38300000Y-43449999D01*
X38300000Y-44350001D01*
X38298796Y-44374505D01*
X38295196Y-44398773D01*
X38289235Y-44422572D01*
X38280970Y-44445671D01*
X38270480Y-44467850D01*
X38257868Y-44488893D01*
X38243253Y-44508599D01*
X38226777Y-44526777D01*
X38208599Y-44543253D01*
X38188893Y-44557868D01*
X38167850Y-44570480D01*
X38145671Y-44580970D01*
X38122572Y-44589235D01*
X38098773Y-44595196D01*
X38074505Y-44598796D01*
X38050001Y-44600000D01*
X37399999Y-44600000D01*
X37375495Y-44598796D01*
X37351227Y-44595196D01*
X37327428Y-44589235D01*
X37304329Y-44580970D01*
X37282150Y-44570480D01*
X37261107Y-44557868D01*
X37241401Y-44543253D01*
X37223223Y-44526777D01*
X37206747Y-44508599D01*
X37192132Y-44488893D01*
X37179520Y-44467850D01*
X37169030Y-44445671D01*
X37160765Y-44422572D01*
X37154804Y-44398773D01*
X37151204Y-44374505D01*
X37150000Y-44350001D01*
X37150000Y-43449999D01*
X37151204Y-43425495D01*
X37154804Y-43401227D01*
X37160765Y-43377428D01*
X37169030Y-43354329D01*
X37179520Y-43332150D01*
X37192132Y-43311107D01*
X37206747Y-43291401D01*
X37223223Y-43273223D01*
X37241401Y-43256747D01*
X37261107Y-43242132D01*
X37282150Y-43229520D01*
X37304329Y-43219030D01*
X37327428Y-43210765D01*
X37351227Y-43204804D01*
X37375495Y-43201204D01*
X37399999Y-43200000D01*
X38050001Y-43200000D01*
X38074505Y-43201204D01*
X38074505Y-43201204D01*
G37*
D15*
G04 #@! TD*
G04 #@! TO.P,R5,2*
G04 #@! TO.N,/RED_LED*
X37725000Y-43900000D03*
D14*
G04 #@! TO.N,Net-(D1-Pad1)*
G04 #@! TO.C,R5*
G36*
X36024505Y-43201204D02*
X36048773Y-43204804D01*
X36072572Y-43210765D01*
X36095671Y-43219030D01*
X36117850Y-43229520D01*
X36138893Y-43242132D01*
X36158599Y-43256747D01*
X36176777Y-43273223D01*
X36193253Y-43291401D01*
X36207868Y-43311107D01*
X36220480Y-43332150D01*
X36230970Y-43354329D01*
X36239235Y-43377428D01*
X36245196Y-43401227D01*
X36248796Y-43425495D01*
X36250000Y-43449999D01*
X36250000Y-44350001D01*
X36248796Y-44374505D01*
X36245196Y-44398773D01*
X36239235Y-44422572D01*
X36230970Y-44445671D01*
X36220480Y-44467850D01*
X36207868Y-44488893D01*
X36193253Y-44508599D01*
X36176777Y-44526777D01*
X36158599Y-44543253D01*
X36138893Y-44557868D01*
X36117850Y-44570480D01*
X36095671Y-44580970D01*
X36072572Y-44589235D01*
X36048773Y-44595196D01*
X36024505Y-44598796D01*
X36000001Y-44600000D01*
X35349999Y-44600000D01*
X35325495Y-44598796D01*
X35301227Y-44595196D01*
X35277428Y-44589235D01*
X35254329Y-44580970D01*
X35232150Y-44570480D01*
X35211107Y-44557868D01*
X35191401Y-44543253D01*
X35173223Y-44526777D01*
X35156747Y-44508599D01*
X35142132Y-44488893D01*
X35129520Y-44467850D01*
X35119030Y-44445671D01*
X35110765Y-44422572D01*
X35104804Y-44398773D01*
X35101204Y-44374505D01*
X35100000Y-44350001D01*
X35100000Y-43449999D01*
X35101204Y-43425495D01*
X35104804Y-43401227D01*
X35110765Y-43377428D01*
X35119030Y-43354329D01*
X35129520Y-43332150D01*
X35142132Y-43311107D01*
X35156747Y-43291401D01*
X35173223Y-43273223D01*
X35191401Y-43256747D01*
X35211107Y-43242132D01*
X35232150Y-43229520D01*
X35254329Y-43219030D01*
X35277428Y-43210765D01*
X35301227Y-43204804D01*
X35325495Y-43201204D01*
X35349999Y-43200000D01*
X36000001Y-43200000D01*
X36024505Y-43201204D01*
X36024505Y-43201204D01*
G37*
D15*
G04 #@! TD*
G04 #@! TO.P,R5,1*
G04 #@! TO.N,Net-(D1-Pad1)*
X35675000Y-43900000D03*
D14*
G04 #@! TO.N,/BLUE_LED*
G04 #@! TO.C,R6*
G36*
X38074505Y-41301204D02*
X38098773Y-41304804D01*
X38122572Y-41310765D01*
X38145671Y-41319030D01*
X38167850Y-41329520D01*
X38188893Y-41342132D01*
X38208599Y-41356747D01*
X38226777Y-41373223D01*
X38243253Y-41391401D01*
X38257868Y-41411107D01*
X38270480Y-41432150D01*
X38280970Y-41454329D01*
X38289235Y-41477428D01*
X38295196Y-41501227D01*
X38298796Y-41525495D01*
X38300000Y-41549999D01*
X38300000Y-42450001D01*
X38298796Y-42474505D01*
X38295196Y-42498773D01*
X38289235Y-42522572D01*
X38280970Y-42545671D01*
X38270480Y-42567850D01*
X38257868Y-42588893D01*
X38243253Y-42608599D01*
X38226777Y-42626777D01*
X38208599Y-42643253D01*
X38188893Y-42657868D01*
X38167850Y-42670480D01*
X38145671Y-42680970D01*
X38122572Y-42689235D01*
X38098773Y-42695196D01*
X38074505Y-42698796D01*
X38050001Y-42700000D01*
X37399999Y-42700000D01*
X37375495Y-42698796D01*
X37351227Y-42695196D01*
X37327428Y-42689235D01*
X37304329Y-42680970D01*
X37282150Y-42670480D01*
X37261107Y-42657868D01*
X37241401Y-42643253D01*
X37223223Y-42626777D01*
X37206747Y-42608599D01*
X37192132Y-42588893D01*
X37179520Y-42567850D01*
X37169030Y-42545671D01*
X37160765Y-42522572D01*
X37154804Y-42498773D01*
X37151204Y-42474505D01*
X37150000Y-42450001D01*
X37150000Y-41549999D01*
X37151204Y-41525495D01*
X37154804Y-41501227D01*
X37160765Y-41477428D01*
X37169030Y-41454329D01*
X37179520Y-41432150D01*
X37192132Y-41411107D01*
X37206747Y-41391401D01*
X37223223Y-41373223D01*
X37241401Y-41356747D01*
X37261107Y-41342132D01*
X37282150Y-41329520D01*
X37304329Y-41319030D01*
X37327428Y-41310765D01*
X37351227Y-41304804D01*
X37375495Y-41301204D01*
X37399999Y-41300000D01*
X38050001Y-41300000D01*
X38074505Y-41301204D01*
X38074505Y-41301204D01*
G37*
D15*
G04 #@! TD*
G04 #@! TO.P,R6,1*
G04 #@! TO.N,/BLUE_LED*
X37725000Y-42000000D03*
D14*
G04 #@! TO.N,Net-(D1-Pad4)*
G04 #@! TO.C,R6*
G36*
X36024505Y-41301204D02*
X36048773Y-41304804D01*
X36072572Y-41310765D01*
X36095671Y-41319030D01*
X36117850Y-41329520D01*
X36138893Y-41342132D01*
X36158599Y-41356747D01*
X36176777Y-41373223D01*
X36193253Y-41391401D01*
X36207868Y-41411107D01*
X36220480Y-41432150D01*
X36230970Y-41454329D01*
X36239235Y-41477428D01*
X36245196Y-41501227D01*
X36248796Y-41525495D01*
X36250000Y-41549999D01*
X36250000Y-42450001D01*
X36248796Y-42474505D01*
X36245196Y-42498773D01*
X36239235Y-42522572D01*
X36230970Y-42545671D01*
X36220480Y-42567850D01*
X36207868Y-42588893D01*
X36193253Y-42608599D01*
X36176777Y-42626777D01*
X36158599Y-42643253D01*
X36138893Y-42657868D01*
X36117850Y-42670480D01*
X36095671Y-42680970D01*
X36072572Y-42689235D01*
X36048773Y-42695196D01*
X36024505Y-42698796D01*
X36000001Y-42700000D01*
X35349999Y-42700000D01*
X35325495Y-42698796D01*
X35301227Y-42695196D01*
X35277428Y-42689235D01*
X35254329Y-42680970D01*
X35232150Y-42670480D01*
X35211107Y-42657868D01*
X35191401Y-42643253D01*
X35173223Y-42626777D01*
X35156747Y-42608599D01*
X35142132Y-42588893D01*
X35129520Y-42567850D01*
X35119030Y-42545671D01*
X35110765Y-42522572D01*
X35104804Y-42498773D01*
X35101204Y-42474505D01*
X35100000Y-42450001D01*
X35100000Y-41549999D01*
X35101204Y-41525495D01*
X35104804Y-41501227D01*
X35110765Y-41477428D01*
X35119030Y-41454329D01*
X35129520Y-41432150D01*
X35142132Y-41411107D01*
X35156747Y-41391401D01*
X35173223Y-41373223D01*
X35191401Y-41356747D01*
X35211107Y-41342132D01*
X35232150Y-41329520D01*
X35254329Y-41319030D01*
X35277428Y-41310765D01*
X35301227Y-41304804D01*
X35325495Y-41301204D01*
X35349999Y-41300000D01*
X36000001Y-41300000D01*
X36024505Y-41301204D01*
X36024505Y-41301204D01*
G37*
D15*
G04 #@! TD*
G04 #@! TO.P,R6,2*
G04 #@! TO.N,Net-(D1-Pad4)*
X35675000Y-42000000D03*
D18*
G04 #@! TO.N,/I2C_SCL*
X42986994Y-40877905D03*
X41500000Y-39200000D03*
G04 #@! TO.N,GND*
X51400000Y-29100000D03*
X29200000Y-45200000D03*
X34400000Y-39300000D03*
X42500000Y-30000000D03*
X34400000Y-28600000D03*
X28700000Y-28600000D03*
X28600000Y-33500000D03*
X51700000Y-39500000D03*
X49200000Y-39100000D03*
X42100000Y-44900000D03*
X37950000Y-30100000D03*
X36950000Y-32350000D03*
X41150000Y-32500000D03*
X38800000Y-34500000D03*
G04 #@! TO.N,+3V3*
X42400000Y-41800000D03*
X49400000Y-45900000D03*
G04 #@! TO.N,/I2C_SDA*
X43734307Y-40134307D03*
X44282843Y-37000000D03*
G04 #@! TO.N,+5V*
X44200000Y-32100000D03*
X38850000Y-31700004D03*
X41504087Y-29895913D03*
G04 #@! TO.N,/USB_P*
X47875000Y-34900000D03*
G04 #@! TO.N,/USB_N*
X48925000Y-34900000D03*
G04 #@! TO.N,Net-(J2-PadA5)*
X38850000Y-33050000D03*
G04 #@! TO.N,Net-(D1-Pad1)*
X33300000Y-30000000D03*
G04 #@! TO.N,/BLUE_LED*
X42563083Y-42953048D03*
G04 #@! TO.N,/RED_LED*
X42306336Y-43919539D03*
G04 #@! TO.N,Net-(D1-Pad4)*
X34300000Y-31400000D03*
G04 #@! TD*
D19*
G04 #@! TO.N,/I2C_SCL*
X42819239Y-40710150D02*
X42986994Y-40877905D01*
X42980592Y-40884307D02*
X42986994Y-40877905D01*
X42684307Y-40884307D02*
X42980592Y-40884307D01*
X42986994Y-40877905D02*
X41500000Y-39390911D01*
X41500000Y-39390911D02*
X41500000Y-39200000D01*
G04 #@! TO.N,GND*
X50975000Y-42400000D02*
X50700000Y-42675000D01*
X42925000Y-29200000D02*
X42500000Y-29625000D01*
X42925000Y-28225000D02*
X42925000Y-29200000D01*
X42500000Y-29625000D02*
X42500000Y-30000000D01*
X42400000Y-33400000D02*
X42799999Y-33799999D01*
X46250000Y-34950000D02*
X46250000Y-34300000D01*
X46250000Y-36450000D02*
X46250000Y-34300000D01*
X46800000Y-41225000D02*
X46800000Y-42250000D01*
X45775000Y-40200000D02*
X46800000Y-41225000D01*
X46250000Y-38925000D02*
X46250000Y-36450000D01*
X45775000Y-39400000D02*
X46250000Y-38925000D01*
X45775000Y-40200000D02*
X45775000Y-39400000D01*
X44400000Y-42000000D02*
X44400000Y-42675000D01*
X44400000Y-40900000D02*
X44400000Y-42000000D01*
X45100000Y-40200000D02*
X44400000Y-40900000D01*
X45775000Y-40200000D02*
X45100000Y-40200000D01*
X51300000Y-39900000D02*
X51700000Y-39500000D01*
X51300000Y-42675000D02*
X51300000Y-39900000D01*
X46700000Y-38925000D02*
X46250000Y-38925000D01*
X46875000Y-39100000D02*
X46700000Y-38925000D01*
X49200000Y-39100000D02*
X46875000Y-39100000D01*
X51300000Y-42675000D02*
X49400000Y-42675000D01*
X44400000Y-42675000D02*
X43776628Y-43298372D01*
X43776628Y-43298372D02*
X43776628Y-43789057D01*
X42665685Y-44900000D02*
X42100000Y-44900000D01*
X43776628Y-43789057D02*
X42665685Y-44900000D01*
X37275000Y-28300000D02*
X37275000Y-29425000D01*
X37275000Y-29425000D02*
X37950000Y-30100000D01*
X37950000Y-30100000D02*
X37750000Y-30300000D01*
X37750000Y-30300000D02*
X37750000Y-31800000D01*
X37750000Y-31800000D02*
X37350000Y-32200000D01*
X37350000Y-32200000D02*
X35950000Y-32200000D01*
X37750000Y-31800000D02*
X37200000Y-32350000D01*
X37200000Y-32350000D02*
X36950000Y-32350000D01*
X46250000Y-34300000D02*
X46250000Y-34825000D01*
X41549999Y-32899999D02*
X41899999Y-32899999D01*
X41150000Y-32500000D02*
X41549999Y-32899999D01*
X46149999Y-34925001D02*
X46250000Y-34825000D01*
X43925001Y-34925001D02*
X46149999Y-34925001D01*
X41899999Y-32899999D02*
X43925001Y-34925001D01*
G04 #@! TO.N,+3V3*
X50700000Y-44725000D02*
X48600000Y-44725000D01*
X47975000Y-44725000D02*
X47750000Y-44950000D01*
X49400000Y-44725000D02*
X47975000Y-44725000D01*
X42400000Y-41800000D02*
X42300000Y-41800000D01*
X49400000Y-44725000D02*
X49400000Y-45900000D01*
G04 #@! TO.N,/I2C_SDA*
X44282843Y-39585771D02*
X43734307Y-40134307D01*
X44282843Y-37000000D02*
X44282843Y-39585771D01*
G04 #@! TO.N,Net-(C2-Pad1)*
X44625000Y-44825000D02*
X44750000Y-44950000D01*
X45625000Y-44725000D02*
X45850000Y-44950000D01*
X44400000Y-44725000D02*
X45625000Y-44725000D01*
G04 #@! TO.N,+5V*
X45100000Y-31600000D02*
X45975000Y-31600000D01*
X45975000Y-31600000D02*
X46250000Y-31875000D01*
X46250000Y-31875000D02*
X46250000Y-32400000D01*
X44600000Y-32100000D02*
X45100000Y-31600000D01*
X44200000Y-32100000D02*
X44600000Y-32100000D01*
X47750000Y-43230000D02*
X47480000Y-43500000D01*
X47750000Y-42250000D02*
X47750000Y-43230000D01*
X47480000Y-43500000D02*
X46100000Y-43500000D01*
X45850000Y-43250000D02*
X45850000Y-42700010D01*
X46100000Y-43500000D02*
X45850000Y-43250000D01*
X47825000Y-42175000D02*
X47750000Y-42250000D01*
X47825000Y-40200000D02*
X47825000Y-42175000D01*
X38850000Y-28300000D02*
X38850000Y-31700004D01*
X43538113Y-32100000D02*
X41504087Y-30065974D01*
X44600000Y-32100000D02*
X43538113Y-32100000D01*
X41504087Y-30065974D02*
X41504087Y-29895913D01*
X41350000Y-29741826D02*
X41504087Y-29895913D01*
X41350000Y-28300000D02*
X41350000Y-29741826D01*
X46250000Y-31850000D02*
X46250000Y-31875000D01*
X47825000Y-40200000D02*
X49963996Y-40200000D01*
X49963996Y-40200000D02*
X52050000Y-38113996D01*
X52050000Y-38113996D02*
X52050000Y-35350000D01*
X52050000Y-35350000D02*
X48300000Y-31600000D01*
X48300000Y-31600000D02*
X46500000Y-31600000D01*
X46500000Y-31600000D02*
X46250000Y-31850000D01*
G04 #@! TO.N,/USB_P*
X39850000Y-28870000D02*
X39869999Y-28889999D01*
X48175000Y-34600000D02*
X47875000Y-34900000D01*
X48175000Y-34175000D02*
X48175000Y-34600000D01*
X47600000Y-33600000D02*
X48175000Y-34175000D01*
X45775000Y-33600000D02*
X47600000Y-33600000D01*
X45600000Y-33775000D02*
X45775000Y-33600000D01*
X45600000Y-34300000D02*
X45600000Y-33775000D01*
X44850000Y-34300000D02*
X45600000Y-34300000D01*
X44225000Y-33675000D02*
X44850000Y-34300000D01*
X43656800Y-33675000D02*
X44225000Y-33675000D01*
X39850000Y-29868200D02*
X43656800Y-33675000D01*
X39850000Y-28300000D02*
X39850000Y-29868200D01*
G04 #@! TO.N,/USB_N*
X40350000Y-28870000D02*
X40330001Y-28889999D01*
X48625000Y-34600000D02*
X48925000Y-34900000D01*
X48625000Y-33825000D02*
X48625000Y-34600000D01*
X47900000Y-33100000D02*
X48625000Y-33825000D01*
X45775000Y-33100000D02*
X47900000Y-33100000D01*
X45600000Y-32925000D02*
X45775000Y-33100000D01*
X45600000Y-32400000D02*
X45600000Y-32925000D01*
X45050000Y-32400000D02*
X45600000Y-32400000D01*
X44225000Y-33225000D02*
X45050000Y-32400000D01*
X43843200Y-33225000D02*
X44225000Y-33225000D01*
X40350000Y-29731800D02*
X43843200Y-33225000D01*
X40350000Y-28300000D02*
X40350000Y-29731800D01*
G04 #@! TO.N,Net-(J2-PadA5)*
X39337939Y-28237061D02*
X39350000Y-28225000D01*
X39350000Y-28300000D02*
X39350000Y-31113994D01*
X39350000Y-31113994D02*
X39550002Y-31313996D01*
X39249999Y-32650001D02*
X38850000Y-33050000D01*
X39550002Y-31313996D02*
X39550002Y-32349998D01*
X39550002Y-32349998D02*
X39249999Y-32650001D01*
G04 #@! TO.N,Net-(D1-Pad1)*
X35675000Y-43900000D02*
X32200000Y-40425000D01*
X32200000Y-40425000D02*
X32200000Y-31100000D01*
X32200000Y-31100000D02*
X33300000Y-30000000D01*
G04 #@! TO.N,/BLUE_LED*
X38678048Y-42953048D02*
X37725000Y-42000000D01*
X42563083Y-42953048D02*
X38678048Y-42953048D01*
G04 #@! TO.N,/RED_LED*
X37744539Y-43919539D02*
X37725000Y-43900000D01*
X42306336Y-43919539D02*
X37744539Y-43919539D01*
G04 #@! TO.N,Net-(D1-Pad4)*
X35051628Y-41376628D02*
X34976628Y-41376628D01*
X35675000Y-42000000D02*
X35051628Y-41376628D01*
X34976628Y-41376628D02*
X33200000Y-39600000D01*
X33200000Y-39600000D02*
X33200000Y-32500000D01*
X33200000Y-32500000D02*
X34300000Y-31400000D01*
G04 #@! TD*
D20*
G04 #@! TO.N,GND*
G36*
X34715000Y-30451623D02*
X34505874Y-30365000D01*
X34269088Y-30365000D01*
X34335000Y-30205874D01*
X34335000Y-29794126D01*
X34177431Y-29413720D01*
X33886280Y-29122569D01*
X33505874Y-28965000D01*
X33094126Y-28965000D01*
X32713720Y-29122569D01*
X32422569Y-29413720D01*
X32265000Y-29794126D01*
X32265000Y-29995553D01*
X31731463Y-30529091D01*
X31670096Y-30570095D01*
X31629092Y-30631462D01*
X31629091Y-30631463D01*
X31507646Y-30813218D01*
X31450602Y-31100000D01*
X31465001Y-31172389D01*
X31465000Y-36011339D01*
X30982799Y-35529138D01*
X30345113Y-35265000D01*
X29654887Y-35265000D01*
X29017201Y-35529138D01*
X28529138Y-36017201D01*
X28265000Y-36654887D01*
X28265000Y-37345113D01*
X28529138Y-37982799D01*
X29017201Y-38470862D01*
X29654887Y-38735000D01*
X30345113Y-38735000D01*
X30982799Y-38470862D01*
X31465000Y-37988661D01*
X31465000Y-40352616D01*
X31450602Y-40425000D01*
X31465000Y-40497384D01*
X31465000Y-40497387D01*
X31507646Y-40711782D01*
X31670095Y-40954905D01*
X31731465Y-40995911D01*
X34452560Y-43717007D01*
X34452560Y-44350001D01*
X34520873Y-44693436D01*
X34715414Y-44984586D01*
X35006564Y-45179127D01*
X35349999Y-45247440D01*
X36000001Y-45247440D01*
X36343436Y-45179127D01*
X36634586Y-44984586D01*
X36700000Y-44886687D01*
X36765414Y-44984586D01*
X37056564Y-45179127D01*
X37399999Y-45247440D01*
X38050001Y-45247440D01*
X38393436Y-45179127D01*
X38684586Y-44984586D01*
X38879127Y-44693436D01*
X38886864Y-44654539D01*
X41577625Y-44654539D01*
X41720056Y-44796970D01*
X42100462Y-44954539D01*
X42512210Y-44954539D01*
X42892616Y-44796970D01*
X43052560Y-44637026D01*
X43052560Y-45050001D01*
X43120873Y-45393436D01*
X43315414Y-45684586D01*
X43606564Y-45879127D01*
X43949999Y-45947440D01*
X44850001Y-45947440D01*
X44918116Y-45933891D01*
X44926843Y-45977765D01*
X45067191Y-46187809D01*
X45257544Y-46315000D01*
X27685000Y-46315000D01*
X27685000Y-27685000D01*
X34715001Y-27685000D01*
X34715000Y-30451623D01*
X34715000Y-30451623D01*
G37*
X34715000Y-30451623D02*
X34505874Y-30365000D01*
X34269088Y-30365000D01*
X34335000Y-30205874D01*
X34335000Y-29794126D01*
X34177431Y-29413720D01*
X33886280Y-29122569D01*
X33505874Y-28965000D01*
X33094126Y-28965000D01*
X32713720Y-29122569D01*
X32422569Y-29413720D01*
X32265000Y-29794126D01*
X32265000Y-29995553D01*
X31731463Y-30529091D01*
X31670096Y-30570095D01*
X31629092Y-30631462D01*
X31629091Y-30631463D01*
X31507646Y-30813218D01*
X31450602Y-31100000D01*
X31465001Y-31172389D01*
X31465000Y-36011339D01*
X30982799Y-35529138D01*
X30345113Y-35265000D01*
X29654887Y-35265000D01*
X29017201Y-35529138D01*
X28529138Y-36017201D01*
X28265000Y-36654887D01*
X28265000Y-37345113D01*
X28529138Y-37982799D01*
X29017201Y-38470862D01*
X29654887Y-38735000D01*
X30345113Y-38735000D01*
X30982799Y-38470862D01*
X31465000Y-37988661D01*
X31465000Y-40352616D01*
X31450602Y-40425000D01*
X31465000Y-40497384D01*
X31465000Y-40497387D01*
X31507646Y-40711782D01*
X31670095Y-40954905D01*
X31731465Y-40995911D01*
X34452560Y-43717007D01*
X34452560Y-44350001D01*
X34520873Y-44693436D01*
X34715414Y-44984586D01*
X35006564Y-45179127D01*
X35349999Y-45247440D01*
X36000001Y-45247440D01*
X36343436Y-45179127D01*
X36634586Y-44984586D01*
X36700000Y-44886687D01*
X36765414Y-44984586D01*
X37056564Y-45179127D01*
X37399999Y-45247440D01*
X38050001Y-45247440D01*
X38393436Y-45179127D01*
X38684586Y-44984586D01*
X38879127Y-44693436D01*
X38886864Y-44654539D01*
X41577625Y-44654539D01*
X41720056Y-44796970D01*
X42100462Y-44954539D01*
X42512210Y-44954539D01*
X42892616Y-44796970D01*
X43052560Y-44637026D01*
X43052560Y-45050001D01*
X43120873Y-45393436D01*
X43315414Y-45684586D01*
X43606564Y-45879127D01*
X43949999Y-45947440D01*
X44850001Y-45947440D01*
X44918116Y-45933891D01*
X44926843Y-45977765D01*
X45067191Y-46187809D01*
X45257544Y-46315000D01*
X27685000Y-46315000D01*
X27685000Y-27685000D01*
X34715001Y-27685000D01*
X34715000Y-30451623D01*
G36*
X52315000Y-41543158D02*
X52126310Y-41465000D01*
X51585750Y-41465000D01*
X51427000Y-41623750D01*
X51427000Y-42548000D01*
X51447000Y-42548000D01*
X51447000Y-42802000D01*
X51427000Y-42802000D01*
X51427000Y-42822000D01*
X51173000Y-42822000D01*
X51173000Y-42802000D01*
X49527000Y-42802000D01*
X49527000Y-42822000D01*
X49273000Y-42822000D01*
X49273000Y-42802000D01*
X49253000Y-42802000D01*
X49253000Y-42548000D01*
X49273000Y-42548000D01*
X49273000Y-41623750D01*
X49527000Y-41623750D01*
X49527000Y-42548000D01*
X51173000Y-42548000D01*
X51173000Y-41623750D01*
X51014250Y-41465000D01*
X50473690Y-41465000D01*
X50350000Y-41516234D01*
X50226310Y-41465000D01*
X49685750Y-41465000D01*
X49527000Y-41623750D01*
X49273000Y-41623750D01*
X49114250Y-41465000D01*
X48721445Y-41465000D01*
X48697177Y-41342991D01*
X48784586Y-41284586D01*
X48979127Y-40993436D01*
X48990751Y-40935000D01*
X49891612Y-40935000D01*
X49963996Y-40949398D01*
X50036380Y-40935000D01*
X50036384Y-40935000D01*
X50250779Y-40892354D01*
X50493901Y-40729905D01*
X50534907Y-40668535D01*
X52315000Y-38888442D01*
X52315000Y-41543158D01*
X52315000Y-41543158D01*
G37*
X52315000Y-41543158D02*
X52126310Y-41465000D01*
X51585750Y-41465000D01*
X51427000Y-41623750D01*
X51427000Y-42548000D01*
X51447000Y-42548000D01*
X51447000Y-42802000D01*
X51427000Y-42802000D01*
X51427000Y-42822000D01*
X51173000Y-42822000D01*
X51173000Y-42802000D01*
X49527000Y-42802000D01*
X49527000Y-42822000D01*
X49273000Y-42822000D01*
X49273000Y-42802000D01*
X49253000Y-42802000D01*
X49253000Y-42548000D01*
X49273000Y-42548000D01*
X49273000Y-41623750D01*
X49527000Y-41623750D01*
X49527000Y-42548000D01*
X51173000Y-42548000D01*
X51173000Y-41623750D01*
X51014250Y-41465000D01*
X50473690Y-41465000D01*
X50350000Y-41516234D01*
X50226310Y-41465000D01*
X49685750Y-41465000D01*
X49527000Y-41623750D01*
X49273000Y-41623750D01*
X49114250Y-41465000D01*
X48721445Y-41465000D01*
X48697177Y-41342991D01*
X48784586Y-41284586D01*
X48979127Y-40993436D01*
X48990751Y-40935000D01*
X49891612Y-40935000D01*
X49963996Y-40949398D01*
X50036380Y-40935000D01*
X50036384Y-40935000D01*
X50250779Y-40892354D01*
X50493901Y-40729905D01*
X50534907Y-40668535D01*
X52315000Y-38888442D01*
X52315000Y-41543158D01*
G36*
X44565000Y-41026310D02*
X44661673Y-41259699D01*
X44840302Y-41438327D01*
X44880544Y-41454996D01*
X44878555Y-41465000D01*
X44685750Y-41465000D01*
X44527000Y-41623750D01*
X44527000Y-42548000D01*
X44547000Y-42548000D01*
X44547000Y-42802000D01*
X44527000Y-42802000D01*
X44527000Y-42822000D01*
X44273000Y-42822000D01*
X44273000Y-42802000D01*
X44253000Y-42802000D01*
X44253000Y-42548000D01*
X44273000Y-42548000D01*
X44273000Y-41623750D01*
X44114250Y-41465000D01*
X43863610Y-41465000D01*
X43864425Y-41464185D01*
X43996174Y-41146114D01*
X44320587Y-41011738D01*
X44565000Y-40767325D01*
X44565000Y-41026310D01*
X44565000Y-41026310D01*
G37*
X44565000Y-41026310D02*
X44661673Y-41259699D01*
X44840302Y-41438327D01*
X44880544Y-41454996D01*
X44878555Y-41465000D01*
X44685750Y-41465000D01*
X44527000Y-41623750D01*
X44527000Y-42548000D01*
X44547000Y-42548000D01*
X44547000Y-42802000D01*
X44527000Y-42802000D01*
X44527000Y-42822000D01*
X44273000Y-42822000D01*
X44273000Y-42802000D01*
X44253000Y-42802000D01*
X44253000Y-42548000D01*
X44273000Y-42548000D01*
X44273000Y-41623750D01*
X44114250Y-41465000D01*
X43863610Y-41465000D01*
X43864425Y-41464185D01*
X43996174Y-41146114D01*
X44320587Y-41011738D01*
X44565000Y-40767325D01*
X44565000Y-41026310D01*
G36*
X38115000Y-29701555D02*
X38115001Y-30971292D01*
X37972569Y-31113724D01*
X37815000Y-31494130D01*
X37815000Y-31905878D01*
X37972569Y-32286284D01*
X38061287Y-32375002D01*
X37972569Y-32463720D01*
X37815000Y-32844126D01*
X37815000Y-33255874D01*
X37972569Y-33636280D01*
X38263720Y-33927431D01*
X38644126Y-34085000D01*
X39055874Y-34085000D01*
X39436280Y-33927431D01*
X39727431Y-33636280D01*
X39885000Y-33255874D01*
X39885000Y-33054446D01*
X40018537Y-32920909D01*
X40079907Y-32879903D01*
X40242356Y-32636781D01*
X40285002Y-32422386D01*
X40285002Y-32422383D01*
X40299400Y-32349999D01*
X40285002Y-32277615D01*
X40285002Y-31386384D01*
X40292258Y-31349905D01*
X43085890Y-34143537D01*
X43126895Y-34204905D01*
X43370017Y-34367354D01*
X43584412Y-34410000D01*
X43584415Y-34410000D01*
X43656799Y-34424398D01*
X43729183Y-34410000D01*
X43920554Y-34410000D01*
X44279090Y-34768537D01*
X44320095Y-34829905D01*
X44563217Y-34992354D01*
X44777612Y-35035000D01*
X44777615Y-35035000D01*
X44849999Y-35049398D01*
X44911670Y-35037131D01*
X44942191Y-35082809D01*
X45152235Y-35223157D01*
X45400000Y-35272440D01*
X45800000Y-35272440D01*
X45903852Y-35251783D01*
X45923690Y-35260000D01*
X45991250Y-35260000D01*
X46023208Y-35228042D01*
X46047765Y-35223157D01*
X46250000Y-35088027D01*
X46452235Y-35223157D01*
X46476792Y-35228042D01*
X46508750Y-35260000D01*
X46576310Y-35260000D01*
X46596148Y-35251783D01*
X46700000Y-35272440D01*
X46908994Y-35272440D01*
X46997569Y-35486280D01*
X47288720Y-35777431D01*
X47669126Y-35935000D01*
X48080874Y-35935000D01*
X48400000Y-35802814D01*
X48642909Y-35903430D01*
X48529138Y-36017201D01*
X48265000Y-36654887D01*
X48265000Y-37345113D01*
X48529138Y-37982799D01*
X49017201Y-38470862D01*
X49654887Y-38735000D01*
X50345113Y-38735000D01*
X50420971Y-38703579D01*
X49659550Y-39465000D01*
X48990751Y-39465000D01*
X48979127Y-39406564D01*
X48784586Y-39115414D01*
X48493436Y-38920873D01*
X48150001Y-38852560D01*
X47499999Y-38852560D01*
X47156564Y-38920873D01*
X46865414Y-39115414D01*
X46864623Y-39116597D01*
X46709698Y-38961673D01*
X46476309Y-38865000D01*
X46060750Y-38865000D01*
X45902000Y-39023750D01*
X45902000Y-40073000D01*
X45922000Y-40073000D01*
X45922000Y-40327000D01*
X45902000Y-40327000D01*
X45902000Y-40347000D01*
X45648000Y-40347000D01*
X45648000Y-40327000D01*
X45628000Y-40327000D01*
X45628000Y-40073000D01*
X45648000Y-40073000D01*
X45648000Y-39023750D01*
X45489250Y-38865000D01*
X45073691Y-38865000D01*
X45017843Y-38888133D01*
X45017843Y-37728711D01*
X45160274Y-37586280D01*
X45317843Y-37205874D01*
X45317843Y-36794126D01*
X45160274Y-36413720D01*
X44869123Y-36122569D01*
X44488717Y-35965000D01*
X44076969Y-35965000D01*
X43696563Y-36122569D01*
X43405412Y-36413720D01*
X43247843Y-36794126D01*
X43247843Y-36910516D01*
X43015168Y-36814138D01*
X42623310Y-36814138D01*
X42261281Y-36964096D01*
X41984197Y-37241180D01*
X41834239Y-37603209D01*
X41834239Y-37995067D01*
X41945791Y-38264377D01*
X41705874Y-38165000D01*
X41294126Y-38165000D01*
X40913720Y-38322569D01*
X40622569Y-38613720D01*
X40465000Y-38994126D01*
X40465000Y-39405874D01*
X40622569Y-39786280D01*
X40913720Y-40077431D01*
X41294126Y-40235000D01*
X41304643Y-40235000D01*
X41938067Y-40868425D01*
X41937495Y-40871300D01*
X41813720Y-40922569D01*
X41522569Y-41213720D01*
X41365000Y-41594126D01*
X41365000Y-42005874D01*
X41452885Y-42218048D01*
X38982495Y-42218048D01*
X38947440Y-42182993D01*
X38947440Y-41549999D01*
X38879127Y-41206564D01*
X38684586Y-40915414D01*
X38393436Y-40720873D01*
X38050001Y-40652560D01*
X37399999Y-40652560D01*
X37056564Y-40720873D01*
X36765414Y-40915414D01*
X36700000Y-41013313D01*
X36634586Y-40915414D01*
X36343436Y-40720873D01*
X36000001Y-40652560D01*
X35349999Y-40652560D01*
X35301628Y-40662181D01*
X33935000Y-39295554D01*
X33935000Y-37603209D01*
X36460227Y-37603209D01*
X36460227Y-37995067D01*
X36610185Y-38357096D01*
X36887269Y-38634180D01*
X37249298Y-38784138D01*
X37641156Y-38784138D01*
X38003185Y-38634180D01*
X38280269Y-38357096D01*
X38430227Y-37995067D01*
X38430227Y-37603209D01*
X38280269Y-37241180D01*
X38003185Y-36964096D01*
X37641156Y-36814138D01*
X37249298Y-36814138D01*
X36887269Y-36964096D01*
X36610185Y-37241180D01*
X36460227Y-37603209D01*
X33935000Y-37603209D01*
X33935000Y-35340467D01*
X36460227Y-35340467D01*
X36460227Y-35732325D01*
X36610185Y-36094354D01*
X36887269Y-36371438D01*
X37249298Y-36521396D01*
X37641156Y-36521396D01*
X38003185Y-36371438D01*
X38280269Y-36094354D01*
X38430227Y-35732325D01*
X38430227Y-35340467D01*
X41834239Y-35340467D01*
X41834239Y-35732325D01*
X41984197Y-36094354D01*
X42261281Y-36371438D01*
X42623310Y-36521396D01*
X43015168Y-36521396D01*
X43377197Y-36371438D01*
X43654281Y-36094354D01*
X43804239Y-35732325D01*
X43804239Y-35340467D01*
X43654281Y-34978438D01*
X43377197Y-34701354D01*
X43015168Y-34551396D01*
X42623310Y-34551396D01*
X42261281Y-34701354D01*
X41984197Y-34978438D01*
X41834239Y-35340467D01*
X38430227Y-35340467D01*
X38280269Y-34978438D01*
X38003185Y-34701354D01*
X37641156Y-34551396D01*
X37249298Y-34551396D01*
X36887269Y-34701354D01*
X36610185Y-34978438D01*
X36460227Y-35340467D01*
X33935000Y-35340467D01*
X33935000Y-32804446D01*
X34304447Y-32435000D01*
X34505874Y-32435000D01*
X34886280Y-32277431D01*
X35124172Y-32039539D01*
X35132727Y-32045255D01*
X35400000Y-32098419D01*
X35467461Y-32085000D01*
X36182538Y-32085000D01*
X36250000Y-32098419D01*
X36317461Y-32085000D01*
X36317462Y-32085000D01*
X36352460Y-32078038D01*
X36450000Y-32097440D01*
X37150000Y-32097440D01*
X37397765Y-32048157D01*
X37607809Y-31907809D01*
X37748157Y-31697765D01*
X37797440Y-31450000D01*
X37797440Y-29950000D01*
X37752176Y-29722440D01*
X37980000Y-29722440D01*
X38100000Y-29698571D01*
X38115000Y-29701555D01*
X38115000Y-29701555D01*
G37*
X38115000Y-29701555D02*
X38115001Y-30971292D01*
X37972569Y-31113724D01*
X37815000Y-31494130D01*
X37815000Y-31905878D01*
X37972569Y-32286284D01*
X38061287Y-32375002D01*
X37972569Y-32463720D01*
X37815000Y-32844126D01*
X37815000Y-33255874D01*
X37972569Y-33636280D01*
X38263720Y-33927431D01*
X38644126Y-34085000D01*
X39055874Y-34085000D01*
X39436280Y-33927431D01*
X39727431Y-33636280D01*
X39885000Y-33255874D01*
X39885000Y-33054446D01*
X40018537Y-32920909D01*
X40079907Y-32879903D01*
X40242356Y-32636781D01*
X40285002Y-32422386D01*
X40285002Y-32422383D01*
X40299400Y-32349999D01*
X40285002Y-32277615D01*
X40285002Y-31386384D01*
X40292258Y-31349905D01*
X43085890Y-34143537D01*
X43126895Y-34204905D01*
X43370017Y-34367354D01*
X43584412Y-34410000D01*
X43584415Y-34410000D01*
X43656799Y-34424398D01*
X43729183Y-34410000D01*
X43920554Y-34410000D01*
X44279090Y-34768537D01*
X44320095Y-34829905D01*
X44563217Y-34992354D01*
X44777612Y-35035000D01*
X44777615Y-35035000D01*
X44849999Y-35049398D01*
X44911670Y-35037131D01*
X44942191Y-35082809D01*
X45152235Y-35223157D01*
X45400000Y-35272440D01*
X45800000Y-35272440D01*
X45903852Y-35251783D01*
X45923690Y-35260000D01*
X45991250Y-35260000D01*
X46023208Y-35228042D01*
X46047765Y-35223157D01*
X46250000Y-35088027D01*
X46452235Y-35223157D01*
X46476792Y-35228042D01*
X46508750Y-35260000D01*
X46576310Y-35260000D01*
X46596148Y-35251783D01*
X46700000Y-35272440D01*
X46908994Y-35272440D01*
X46997569Y-35486280D01*
X47288720Y-35777431D01*
X47669126Y-35935000D01*
X48080874Y-35935000D01*
X48400000Y-35802814D01*
X48642909Y-35903430D01*
X48529138Y-36017201D01*
X48265000Y-36654887D01*
X48265000Y-37345113D01*
X48529138Y-37982799D01*
X49017201Y-38470862D01*
X49654887Y-38735000D01*
X50345113Y-38735000D01*
X50420971Y-38703579D01*
X49659550Y-39465000D01*
X48990751Y-39465000D01*
X48979127Y-39406564D01*
X48784586Y-39115414D01*
X48493436Y-38920873D01*
X48150001Y-38852560D01*
X47499999Y-38852560D01*
X47156564Y-38920873D01*
X46865414Y-39115414D01*
X46864623Y-39116597D01*
X46709698Y-38961673D01*
X46476309Y-38865000D01*
X46060750Y-38865000D01*
X45902000Y-39023750D01*
X45902000Y-40073000D01*
X45922000Y-40073000D01*
X45922000Y-40327000D01*
X45902000Y-40327000D01*
X45902000Y-40347000D01*
X45648000Y-40347000D01*
X45648000Y-40327000D01*
X45628000Y-40327000D01*
X45628000Y-40073000D01*
X45648000Y-40073000D01*
X45648000Y-39023750D01*
X45489250Y-38865000D01*
X45073691Y-38865000D01*
X45017843Y-38888133D01*
X45017843Y-37728711D01*
X45160274Y-37586280D01*
X45317843Y-37205874D01*
X45317843Y-36794126D01*
X45160274Y-36413720D01*
X44869123Y-36122569D01*
X44488717Y-35965000D01*
X44076969Y-35965000D01*
X43696563Y-36122569D01*
X43405412Y-36413720D01*
X43247843Y-36794126D01*
X43247843Y-36910516D01*
X43015168Y-36814138D01*
X42623310Y-36814138D01*
X42261281Y-36964096D01*
X41984197Y-37241180D01*
X41834239Y-37603209D01*
X41834239Y-37995067D01*
X41945791Y-38264377D01*
X41705874Y-38165000D01*
X41294126Y-38165000D01*
X40913720Y-38322569D01*
X40622569Y-38613720D01*
X40465000Y-38994126D01*
X40465000Y-39405874D01*
X40622569Y-39786280D01*
X40913720Y-40077431D01*
X41294126Y-40235000D01*
X41304643Y-40235000D01*
X41938067Y-40868425D01*
X41937495Y-40871300D01*
X41813720Y-40922569D01*
X41522569Y-41213720D01*
X41365000Y-41594126D01*
X41365000Y-42005874D01*
X41452885Y-42218048D01*
X38982495Y-42218048D01*
X38947440Y-42182993D01*
X38947440Y-41549999D01*
X38879127Y-41206564D01*
X38684586Y-40915414D01*
X38393436Y-40720873D01*
X38050001Y-40652560D01*
X37399999Y-40652560D01*
X37056564Y-40720873D01*
X36765414Y-40915414D01*
X36700000Y-41013313D01*
X36634586Y-40915414D01*
X36343436Y-40720873D01*
X36000001Y-40652560D01*
X35349999Y-40652560D01*
X35301628Y-40662181D01*
X33935000Y-39295554D01*
X33935000Y-37603209D01*
X36460227Y-37603209D01*
X36460227Y-37995067D01*
X36610185Y-38357096D01*
X36887269Y-38634180D01*
X37249298Y-38784138D01*
X37641156Y-38784138D01*
X38003185Y-38634180D01*
X38280269Y-38357096D01*
X38430227Y-37995067D01*
X38430227Y-37603209D01*
X38280269Y-37241180D01*
X38003185Y-36964096D01*
X37641156Y-36814138D01*
X37249298Y-36814138D01*
X36887269Y-36964096D01*
X36610185Y-37241180D01*
X36460227Y-37603209D01*
X33935000Y-37603209D01*
X33935000Y-35340467D01*
X36460227Y-35340467D01*
X36460227Y-35732325D01*
X36610185Y-36094354D01*
X36887269Y-36371438D01*
X37249298Y-36521396D01*
X37641156Y-36521396D01*
X38003185Y-36371438D01*
X38280269Y-36094354D01*
X38430227Y-35732325D01*
X38430227Y-35340467D01*
X41834239Y-35340467D01*
X41834239Y-35732325D01*
X41984197Y-36094354D01*
X42261281Y-36371438D01*
X42623310Y-36521396D01*
X43015168Y-36521396D01*
X43377197Y-36371438D01*
X43654281Y-36094354D01*
X43804239Y-35732325D01*
X43804239Y-35340467D01*
X43654281Y-34978438D01*
X43377197Y-34701354D01*
X43015168Y-34551396D01*
X42623310Y-34551396D01*
X42261281Y-34701354D01*
X41984197Y-34978438D01*
X41834239Y-35340467D01*
X38430227Y-35340467D01*
X38280269Y-34978438D01*
X38003185Y-34701354D01*
X37641156Y-34551396D01*
X37249298Y-34551396D01*
X36887269Y-34701354D01*
X36610185Y-34978438D01*
X36460227Y-35340467D01*
X33935000Y-35340467D01*
X33935000Y-32804446D01*
X34304447Y-32435000D01*
X34505874Y-32435000D01*
X34886280Y-32277431D01*
X35124172Y-32039539D01*
X35132727Y-32045255D01*
X35400000Y-32098419D01*
X35467461Y-32085000D01*
X36182538Y-32085000D01*
X36250000Y-32098419D01*
X36317461Y-32085000D01*
X36317462Y-32085000D01*
X36352460Y-32078038D01*
X36450000Y-32097440D01*
X37150000Y-32097440D01*
X37397765Y-32048157D01*
X37607809Y-31907809D01*
X37748157Y-31697765D01*
X37797440Y-31450000D01*
X37797440Y-29950000D01*
X37752176Y-29722440D01*
X37980000Y-29722440D01*
X38100000Y-29698571D01*
X38115000Y-29701555D01*
G36*
X52315001Y-34575554D02*
X48870911Y-31131465D01*
X48829905Y-31070095D01*
X48586783Y-30907646D01*
X48372388Y-30865000D01*
X48372384Y-30865000D01*
X48300000Y-30850602D01*
X48227616Y-30865000D01*
X46572383Y-30865000D01*
X46499999Y-30850602D01*
X46427615Y-30865000D01*
X46427612Y-30865000D01*
X46237500Y-30902816D01*
X46047388Y-30865000D01*
X46047384Y-30865000D01*
X45975000Y-30850602D01*
X45902616Y-30865000D01*
X45172384Y-30865000D01*
X45100000Y-30850602D01*
X45027616Y-30865000D01*
X45027612Y-30865000D01*
X44972440Y-30875974D01*
X44972440Y-30364119D01*
X45067273Y-30345255D01*
X45293857Y-30193857D01*
X45445255Y-29967273D01*
X45498419Y-29700000D01*
X45485000Y-29632538D01*
X45485000Y-27685000D01*
X52315001Y-27685000D01*
X52315001Y-34575554D01*
X52315001Y-34575554D01*
G37*
X52315001Y-34575554D02*
X48870911Y-31131465D01*
X48829905Y-31070095D01*
X48586783Y-30907646D01*
X48372388Y-30865000D01*
X48372384Y-30865000D01*
X48300000Y-30850602D01*
X48227616Y-30865000D01*
X46572383Y-30865000D01*
X46499999Y-30850602D01*
X46427615Y-30865000D01*
X46427612Y-30865000D01*
X46237500Y-30902816D01*
X46047388Y-30865000D01*
X46047384Y-30865000D01*
X45975000Y-30850602D01*
X45902616Y-30865000D01*
X45172384Y-30865000D01*
X45100000Y-30850602D01*
X45027616Y-30865000D01*
X45027612Y-30865000D01*
X44972440Y-30875974D01*
X44972440Y-30364119D01*
X45067273Y-30345255D01*
X45293857Y-30193857D01*
X45445255Y-29967273D01*
X45498419Y-29700000D01*
X45485000Y-29632538D01*
X45485000Y-27685000D01*
X52315001Y-27685000D01*
X52315001Y-34575554D01*
G36*
X42726843Y-29702235D02*
X42677560Y-29950000D01*
X42677560Y-30200001D01*
X42539087Y-30061528D01*
X42539087Y-29710687D01*
X42577097Y-29703126D01*
X42593691Y-29710000D01*
X42663750Y-29710000D01*
X42693846Y-29679904D01*
X42727765Y-29673157D01*
X42761200Y-29650816D01*
X42726843Y-29702235D01*
X42726843Y-29702235D01*
G37*
X42726843Y-29702235D02*
X42677560Y-29950000D01*
X42677560Y-30200001D01*
X42539087Y-30061528D01*
X42539087Y-29710687D01*
X42577097Y-29703126D01*
X42593691Y-29710000D01*
X42663750Y-29710000D01*
X42693846Y-29679904D01*
X42727765Y-29673157D01*
X42761200Y-29650816D01*
X42726843Y-29702235D01*
G04 #@! TD*
M02*
