G04 #@! TF.GenerationSoftware,KiCad,Pcbnew,(5.0.0)*
G04 #@! TF.CreationDate,2019-03-02T00:20:12+01:00*
G04 #@! TF.ProjectId,OpenThermalCamera,4F70656E546865726D616C43616D6572,rev?*
G04 #@! TF.SameCoordinates,Original*
G04 #@! TF.FileFunction,Soldermask,Bot*
G04 #@! TF.FilePolarity,Negative*
%FSLAX46Y46*%
G04 Gerber Fmt 4.6, Leading zero omitted, Abs format (unit mm)*
G04 Created by KiCad (PCBNEW (5.0.0)) date 03/02/19 00:20:12*
%MOMM*%
%LPD*%
G01*
G04 APERTURE LIST*
%ADD10R,0.600000X1.700000*%
%ADD11C,1.300000*%
%ADD12C,1.300000*%
%ADD13R,1.550000X0.550000*%
%ADD14C,2.300000*%
%ADD15C,0.100000*%
%ADD16C,1.250000*%
%ADD17R,2.500000X0.840000*%
%ADD18C,0.500000*%
%ADD19R,1.100000X0.900000*%
G04 APERTURE END LIST*
D10*
G04 #@! TO.C,J2*
X40000000Y-26600000D03*
X38500000Y-26600000D03*
X40750000Y-26600000D03*
X39250000Y-26600000D03*
X41500000Y-26600000D03*
G04 #@! TD*
D11*
G04 #@! TO.C,U1*
X42819239Y-37799138D03*
D12*
X42819239Y-37799138D02*
X42819239Y-37799138D01*
D11*
X37445227Y-37799138D03*
D12*
X37445227Y-37799138D02*
X37445227Y-37799138D01*
D11*
X37445227Y-35536396D03*
D12*
X37445227Y-35536396D02*
X37445227Y-35536396D01*
D11*
X42819239Y-35536396D03*
D12*
X42960660Y-35394975D02*
X42677818Y-35677817D01*
G04 #@! TD*
D13*
G04 #@! TO.C,U3*
X45850000Y-40075000D03*
X45850000Y-40725000D03*
X45850000Y-41375000D03*
X45850000Y-42025000D03*
X45850000Y-42675000D03*
X45850000Y-43325000D03*
X45850000Y-43975000D03*
X45850000Y-44625000D03*
X45850000Y-45275000D03*
X45850000Y-45925000D03*
X39950000Y-45925000D03*
X39950000Y-45275000D03*
X39950000Y-44625000D03*
X39950000Y-43975000D03*
X39950000Y-43325000D03*
X39950000Y-42675000D03*
X39950000Y-42025000D03*
X39950000Y-41375000D03*
X39950000Y-40725000D03*
X39950000Y-40075000D03*
G04 #@! TD*
D14*
G04 #@! TO.C,MH1*
X50000000Y-37000000D03*
G04 #@! TD*
G04 #@! TO.C,MH2*
X30000000Y-37000000D03*
G04 #@! TD*
D15*
G04 #@! TO.C,C5*
G36*
X33604897Y-35051308D02*
X33631275Y-35055221D01*
X33657143Y-35061701D01*
X33682252Y-35070685D01*
X33706358Y-35082086D01*
X33729232Y-35095796D01*
X33750651Y-35111682D01*
X33770410Y-35129590D01*
X33788318Y-35149349D01*
X33804204Y-35170768D01*
X33817914Y-35193642D01*
X33829315Y-35217748D01*
X33838299Y-35242857D01*
X33844779Y-35268725D01*
X33848692Y-35295103D01*
X33850000Y-35321738D01*
X33850000Y-36028262D01*
X33848692Y-36054897D01*
X33844779Y-36081275D01*
X33838299Y-36107143D01*
X33829315Y-36132252D01*
X33817914Y-36156358D01*
X33804204Y-36179232D01*
X33788318Y-36200651D01*
X33770410Y-36220410D01*
X33750651Y-36238318D01*
X33729232Y-36254204D01*
X33706358Y-36267914D01*
X33682252Y-36279315D01*
X33657143Y-36288299D01*
X33631275Y-36294779D01*
X33604897Y-36298692D01*
X33578262Y-36300000D01*
X32621738Y-36300000D01*
X32595103Y-36298692D01*
X32568725Y-36294779D01*
X32542857Y-36288299D01*
X32517748Y-36279315D01*
X32493642Y-36267914D01*
X32470768Y-36254204D01*
X32449349Y-36238318D01*
X32429590Y-36220410D01*
X32411682Y-36200651D01*
X32395796Y-36179232D01*
X32382086Y-36156358D01*
X32370685Y-36132252D01*
X32361701Y-36107143D01*
X32355221Y-36081275D01*
X32351308Y-36054897D01*
X32350000Y-36028262D01*
X32350000Y-35321738D01*
X32351308Y-35295103D01*
X32355221Y-35268725D01*
X32361701Y-35242857D01*
X32370685Y-35217748D01*
X32382086Y-35193642D01*
X32395796Y-35170768D01*
X32411682Y-35149349D01*
X32429590Y-35129590D01*
X32449349Y-35111682D01*
X32470768Y-35095796D01*
X32493642Y-35082086D01*
X32517748Y-35070685D01*
X32542857Y-35061701D01*
X32568725Y-35055221D01*
X32595103Y-35051308D01*
X32621738Y-35050000D01*
X33578262Y-35050000D01*
X33604897Y-35051308D01*
X33604897Y-35051308D01*
G37*
D16*
X33100000Y-35675000D03*
D15*
G36*
X33604897Y-37101308D02*
X33631275Y-37105221D01*
X33657143Y-37111701D01*
X33682252Y-37120685D01*
X33706358Y-37132086D01*
X33729232Y-37145796D01*
X33750651Y-37161682D01*
X33770410Y-37179590D01*
X33788318Y-37199349D01*
X33804204Y-37220768D01*
X33817914Y-37243642D01*
X33829315Y-37267748D01*
X33838299Y-37292857D01*
X33844779Y-37318725D01*
X33848692Y-37345103D01*
X33850000Y-37371738D01*
X33850000Y-38078262D01*
X33848692Y-38104897D01*
X33844779Y-38131275D01*
X33838299Y-38157143D01*
X33829315Y-38182252D01*
X33817914Y-38206358D01*
X33804204Y-38229232D01*
X33788318Y-38250651D01*
X33770410Y-38270410D01*
X33750651Y-38288318D01*
X33729232Y-38304204D01*
X33706358Y-38317914D01*
X33682252Y-38329315D01*
X33657143Y-38338299D01*
X33631275Y-38344779D01*
X33604897Y-38348692D01*
X33578262Y-38350000D01*
X32621738Y-38350000D01*
X32595103Y-38348692D01*
X32568725Y-38344779D01*
X32542857Y-38338299D01*
X32517748Y-38329315D01*
X32493642Y-38317914D01*
X32470768Y-38304204D01*
X32449349Y-38288318D01*
X32429590Y-38270410D01*
X32411682Y-38250651D01*
X32395796Y-38229232D01*
X32382086Y-38206358D01*
X32370685Y-38182252D01*
X32361701Y-38157143D01*
X32355221Y-38131275D01*
X32351308Y-38104897D01*
X32350000Y-38078262D01*
X32350000Y-37371738D01*
X32351308Y-37345103D01*
X32355221Y-37318725D01*
X32361701Y-37292857D01*
X32370685Y-37267748D01*
X32382086Y-37243642D01*
X32395796Y-37220768D01*
X32411682Y-37199349D01*
X32429590Y-37179590D01*
X32449349Y-37161682D01*
X32470768Y-37145796D01*
X32493642Y-37132086D01*
X32517748Y-37120685D01*
X32542857Y-37111701D01*
X32568725Y-37105221D01*
X32595103Y-37101308D01*
X32621738Y-37100000D01*
X33578262Y-37100000D01*
X33604897Y-37101308D01*
X33604897Y-37101308D01*
G37*
D16*
X33100000Y-37725000D03*
G04 #@! TD*
D15*
G04 #@! TO.C,C4*
G36*
X36004897Y-37001308D02*
X36031275Y-37005221D01*
X36057143Y-37011701D01*
X36082252Y-37020685D01*
X36106358Y-37032086D01*
X36129232Y-37045796D01*
X36150651Y-37061682D01*
X36170410Y-37079590D01*
X36188318Y-37099349D01*
X36204204Y-37120768D01*
X36217914Y-37143642D01*
X36229315Y-37167748D01*
X36238299Y-37192857D01*
X36244779Y-37218725D01*
X36248692Y-37245103D01*
X36250000Y-37271738D01*
X36250000Y-37978262D01*
X36248692Y-38004897D01*
X36244779Y-38031275D01*
X36238299Y-38057143D01*
X36229315Y-38082252D01*
X36217914Y-38106358D01*
X36204204Y-38129232D01*
X36188318Y-38150651D01*
X36170410Y-38170410D01*
X36150651Y-38188318D01*
X36129232Y-38204204D01*
X36106358Y-38217914D01*
X36082252Y-38229315D01*
X36057143Y-38238299D01*
X36031275Y-38244779D01*
X36004897Y-38248692D01*
X35978262Y-38250000D01*
X35021738Y-38250000D01*
X34995103Y-38248692D01*
X34968725Y-38244779D01*
X34942857Y-38238299D01*
X34917748Y-38229315D01*
X34893642Y-38217914D01*
X34870768Y-38204204D01*
X34849349Y-38188318D01*
X34829590Y-38170410D01*
X34811682Y-38150651D01*
X34795796Y-38129232D01*
X34782086Y-38106358D01*
X34770685Y-38082252D01*
X34761701Y-38057143D01*
X34755221Y-38031275D01*
X34751308Y-38004897D01*
X34750000Y-37978262D01*
X34750000Y-37271738D01*
X34751308Y-37245103D01*
X34755221Y-37218725D01*
X34761701Y-37192857D01*
X34770685Y-37167748D01*
X34782086Y-37143642D01*
X34795796Y-37120768D01*
X34811682Y-37099349D01*
X34829590Y-37079590D01*
X34849349Y-37061682D01*
X34870768Y-37045796D01*
X34893642Y-37032086D01*
X34917748Y-37020685D01*
X34942857Y-37011701D01*
X34968725Y-37005221D01*
X34995103Y-37001308D01*
X35021738Y-37000000D01*
X35978262Y-37000000D01*
X36004897Y-37001308D01*
X36004897Y-37001308D01*
G37*
D16*
X35500000Y-37625000D03*
D15*
G36*
X36004897Y-34951308D02*
X36031275Y-34955221D01*
X36057143Y-34961701D01*
X36082252Y-34970685D01*
X36106358Y-34982086D01*
X36129232Y-34995796D01*
X36150651Y-35011682D01*
X36170410Y-35029590D01*
X36188318Y-35049349D01*
X36204204Y-35070768D01*
X36217914Y-35093642D01*
X36229315Y-35117748D01*
X36238299Y-35142857D01*
X36244779Y-35168725D01*
X36248692Y-35195103D01*
X36250000Y-35221738D01*
X36250000Y-35928262D01*
X36248692Y-35954897D01*
X36244779Y-35981275D01*
X36238299Y-36007143D01*
X36229315Y-36032252D01*
X36217914Y-36056358D01*
X36204204Y-36079232D01*
X36188318Y-36100651D01*
X36170410Y-36120410D01*
X36150651Y-36138318D01*
X36129232Y-36154204D01*
X36106358Y-36167914D01*
X36082252Y-36179315D01*
X36057143Y-36188299D01*
X36031275Y-36194779D01*
X36004897Y-36198692D01*
X35978262Y-36200000D01*
X35021738Y-36200000D01*
X34995103Y-36198692D01*
X34968725Y-36194779D01*
X34942857Y-36188299D01*
X34917748Y-36179315D01*
X34893642Y-36167914D01*
X34870768Y-36154204D01*
X34849349Y-36138318D01*
X34829590Y-36120410D01*
X34811682Y-36100651D01*
X34795796Y-36079232D01*
X34782086Y-36056358D01*
X34770685Y-36032252D01*
X34761701Y-36007143D01*
X34755221Y-35981275D01*
X34751308Y-35954897D01*
X34750000Y-35928262D01*
X34750000Y-35221738D01*
X34751308Y-35195103D01*
X34755221Y-35168725D01*
X34761701Y-35142857D01*
X34770685Y-35117748D01*
X34782086Y-35093642D01*
X34795796Y-35070768D01*
X34811682Y-35049349D01*
X34829590Y-35029590D01*
X34849349Y-35011682D01*
X34870768Y-34995796D01*
X34893642Y-34982086D01*
X34917748Y-34970685D01*
X34942857Y-34961701D01*
X34968725Y-34955221D01*
X34995103Y-34951308D01*
X35021738Y-34950000D01*
X35978262Y-34950000D01*
X36004897Y-34951308D01*
X36004897Y-34951308D01*
G37*
D16*
X35500000Y-35575000D03*
G04 #@! TD*
D17*
G04 #@! TO.C,J1*
X32450000Y-45640000D03*
X36350000Y-45640000D03*
X32450000Y-44370000D03*
X36350000Y-44370000D03*
X32450000Y-43100000D03*
X36350000Y-43100000D03*
X32450000Y-41830000D03*
X36350000Y-41830000D03*
X32450000Y-40560000D03*
X36350000Y-40560000D03*
G04 #@! TD*
D15*
G04 #@! TO.C,R3*
G36*
X40704897Y-34951308D02*
X40731275Y-34955221D01*
X40757143Y-34961701D01*
X40782252Y-34970685D01*
X40806358Y-34982086D01*
X40829232Y-34995796D01*
X40850651Y-35011682D01*
X40870410Y-35029590D01*
X40888318Y-35049349D01*
X40904204Y-35070768D01*
X40917914Y-35093642D01*
X40929315Y-35117748D01*
X40938299Y-35142857D01*
X40944779Y-35168725D01*
X40948692Y-35195103D01*
X40950000Y-35221738D01*
X40950000Y-35928262D01*
X40948692Y-35954897D01*
X40944779Y-35981275D01*
X40938299Y-36007143D01*
X40929315Y-36032252D01*
X40917914Y-36056358D01*
X40904204Y-36079232D01*
X40888318Y-36100651D01*
X40870410Y-36120410D01*
X40850651Y-36138318D01*
X40829232Y-36154204D01*
X40806358Y-36167914D01*
X40782252Y-36179315D01*
X40757143Y-36188299D01*
X40731275Y-36194779D01*
X40704897Y-36198692D01*
X40678262Y-36200000D01*
X39721738Y-36200000D01*
X39695103Y-36198692D01*
X39668725Y-36194779D01*
X39642857Y-36188299D01*
X39617748Y-36179315D01*
X39593642Y-36167914D01*
X39570768Y-36154204D01*
X39549349Y-36138318D01*
X39529590Y-36120410D01*
X39511682Y-36100651D01*
X39495796Y-36079232D01*
X39482086Y-36056358D01*
X39470685Y-36032252D01*
X39461701Y-36007143D01*
X39455221Y-35981275D01*
X39451308Y-35954897D01*
X39450000Y-35928262D01*
X39450000Y-35221738D01*
X39451308Y-35195103D01*
X39455221Y-35168725D01*
X39461701Y-35142857D01*
X39470685Y-35117748D01*
X39482086Y-35093642D01*
X39495796Y-35070768D01*
X39511682Y-35049349D01*
X39529590Y-35029590D01*
X39549349Y-35011682D01*
X39570768Y-34995796D01*
X39593642Y-34982086D01*
X39617748Y-34970685D01*
X39642857Y-34961701D01*
X39668725Y-34955221D01*
X39695103Y-34951308D01*
X39721738Y-34950000D01*
X40678262Y-34950000D01*
X40704897Y-34951308D01*
X40704897Y-34951308D01*
G37*
D16*
X40200000Y-35575000D03*
D15*
G36*
X40704897Y-37001308D02*
X40731275Y-37005221D01*
X40757143Y-37011701D01*
X40782252Y-37020685D01*
X40806358Y-37032086D01*
X40829232Y-37045796D01*
X40850651Y-37061682D01*
X40870410Y-37079590D01*
X40888318Y-37099349D01*
X40904204Y-37120768D01*
X40917914Y-37143642D01*
X40929315Y-37167748D01*
X40938299Y-37192857D01*
X40944779Y-37218725D01*
X40948692Y-37245103D01*
X40950000Y-37271738D01*
X40950000Y-37978262D01*
X40948692Y-38004897D01*
X40944779Y-38031275D01*
X40938299Y-38057143D01*
X40929315Y-38082252D01*
X40917914Y-38106358D01*
X40904204Y-38129232D01*
X40888318Y-38150651D01*
X40870410Y-38170410D01*
X40850651Y-38188318D01*
X40829232Y-38204204D01*
X40806358Y-38217914D01*
X40782252Y-38229315D01*
X40757143Y-38238299D01*
X40731275Y-38244779D01*
X40704897Y-38248692D01*
X40678262Y-38250000D01*
X39721738Y-38250000D01*
X39695103Y-38248692D01*
X39668725Y-38244779D01*
X39642857Y-38238299D01*
X39617748Y-38229315D01*
X39593642Y-38217914D01*
X39570768Y-38204204D01*
X39549349Y-38188318D01*
X39529590Y-38170410D01*
X39511682Y-38150651D01*
X39495796Y-38129232D01*
X39482086Y-38106358D01*
X39470685Y-38082252D01*
X39461701Y-38057143D01*
X39455221Y-38031275D01*
X39451308Y-38004897D01*
X39450000Y-37978262D01*
X39450000Y-37271738D01*
X39451308Y-37245103D01*
X39455221Y-37218725D01*
X39461701Y-37192857D01*
X39470685Y-37167748D01*
X39482086Y-37143642D01*
X39495796Y-37120768D01*
X39511682Y-37099349D01*
X39529590Y-37079590D01*
X39549349Y-37061682D01*
X39570768Y-37045796D01*
X39593642Y-37032086D01*
X39617748Y-37020685D01*
X39642857Y-37011701D01*
X39668725Y-37005221D01*
X39695103Y-37001308D01*
X39721738Y-37000000D01*
X40678262Y-37000000D01*
X40704897Y-37001308D01*
X40704897Y-37001308D01*
G37*
D16*
X40200000Y-37625000D03*
G04 #@! TD*
D15*
G04 #@! TO.C,R2*
G36*
X46604897Y-37201308D02*
X46631275Y-37205221D01*
X46657143Y-37211701D01*
X46682252Y-37220685D01*
X46706358Y-37232086D01*
X46729232Y-37245796D01*
X46750651Y-37261682D01*
X46770410Y-37279590D01*
X46788318Y-37299349D01*
X46804204Y-37320768D01*
X46817914Y-37343642D01*
X46829315Y-37367748D01*
X46838299Y-37392857D01*
X46844779Y-37418725D01*
X46848692Y-37445103D01*
X46850000Y-37471738D01*
X46850000Y-38178262D01*
X46848692Y-38204897D01*
X46844779Y-38231275D01*
X46838299Y-38257143D01*
X46829315Y-38282252D01*
X46817914Y-38306358D01*
X46804204Y-38329232D01*
X46788318Y-38350651D01*
X46770410Y-38370410D01*
X46750651Y-38388318D01*
X46729232Y-38404204D01*
X46706358Y-38417914D01*
X46682252Y-38429315D01*
X46657143Y-38438299D01*
X46631275Y-38444779D01*
X46604897Y-38448692D01*
X46578262Y-38450000D01*
X45621738Y-38450000D01*
X45595103Y-38448692D01*
X45568725Y-38444779D01*
X45542857Y-38438299D01*
X45517748Y-38429315D01*
X45493642Y-38417914D01*
X45470768Y-38404204D01*
X45449349Y-38388318D01*
X45429590Y-38370410D01*
X45411682Y-38350651D01*
X45395796Y-38329232D01*
X45382086Y-38306358D01*
X45370685Y-38282252D01*
X45361701Y-38257143D01*
X45355221Y-38231275D01*
X45351308Y-38204897D01*
X45350000Y-38178262D01*
X45350000Y-37471738D01*
X45351308Y-37445103D01*
X45355221Y-37418725D01*
X45361701Y-37392857D01*
X45370685Y-37367748D01*
X45382086Y-37343642D01*
X45395796Y-37320768D01*
X45411682Y-37299349D01*
X45429590Y-37279590D01*
X45449349Y-37261682D01*
X45470768Y-37245796D01*
X45493642Y-37232086D01*
X45517748Y-37220685D01*
X45542857Y-37211701D01*
X45568725Y-37205221D01*
X45595103Y-37201308D01*
X45621738Y-37200000D01*
X46578262Y-37200000D01*
X46604897Y-37201308D01*
X46604897Y-37201308D01*
G37*
D16*
X46100000Y-37825000D03*
D15*
G36*
X46604897Y-35151308D02*
X46631275Y-35155221D01*
X46657143Y-35161701D01*
X46682252Y-35170685D01*
X46706358Y-35182086D01*
X46729232Y-35195796D01*
X46750651Y-35211682D01*
X46770410Y-35229590D01*
X46788318Y-35249349D01*
X46804204Y-35270768D01*
X46817914Y-35293642D01*
X46829315Y-35317748D01*
X46838299Y-35342857D01*
X46844779Y-35368725D01*
X46848692Y-35395103D01*
X46850000Y-35421738D01*
X46850000Y-36128262D01*
X46848692Y-36154897D01*
X46844779Y-36181275D01*
X46838299Y-36207143D01*
X46829315Y-36232252D01*
X46817914Y-36256358D01*
X46804204Y-36279232D01*
X46788318Y-36300651D01*
X46770410Y-36320410D01*
X46750651Y-36338318D01*
X46729232Y-36354204D01*
X46706358Y-36367914D01*
X46682252Y-36379315D01*
X46657143Y-36388299D01*
X46631275Y-36394779D01*
X46604897Y-36398692D01*
X46578262Y-36400000D01*
X45621738Y-36400000D01*
X45595103Y-36398692D01*
X45568725Y-36394779D01*
X45542857Y-36388299D01*
X45517748Y-36379315D01*
X45493642Y-36367914D01*
X45470768Y-36354204D01*
X45449349Y-36338318D01*
X45429590Y-36320410D01*
X45411682Y-36300651D01*
X45395796Y-36279232D01*
X45382086Y-36256358D01*
X45370685Y-36232252D01*
X45361701Y-36207143D01*
X45355221Y-36181275D01*
X45351308Y-36154897D01*
X45350000Y-36128262D01*
X45350000Y-35421738D01*
X45351308Y-35395103D01*
X45355221Y-35368725D01*
X45361701Y-35342857D01*
X45370685Y-35317748D01*
X45382086Y-35293642D01*
X45395796Y-35270768D01*
X45411682Y-35249349D01*
X45429590Y-35229590D01*
X45449349Y-35211682D01*
X45470768Y-35195796D01*
X45493642Y-35182086D01*
X45517748Y-35170685D01*
X45542857Y-35161701D01*
X45568725Y-35155221D01*
X45595103Y-35151308D01*
X45621738Y-35150000D01*
X46578262Y-35150000D01*
X46604897Y-35151308D01*
X46604897Y-35151308D01*
G37*
D16*
X46100000Y-35775000D03*
G04 #@! TD*
D15*
G04 #@! TO.C,R1*
G36*
X49054897Y-40651308D02*
X49081275Y-40655221D01*
X49107143Y-40661701D01*
X49132252Y-40670685D01*
X49156358Y-40682086D01*
X49179232Y-40695796D01*
X49200651Y-40711682D01*
X49220410Y-40729590D01*
X49238318Y-40749349D01*
X49254204Y-40770768D01*
X49267914Y-40793642D01*
X49279315Y-40817748D01*
X49288299Y-40842857D01*
X49294779Y-40868725D01*
X49298692Y-40895103D01*
X49300000Y-40921738D01*
X49300000Y-41878262D01*
X49298692Y-41904897D01*
X49294779Y-41931275D01*
X49288299Y-41957143D01*
X49279315Y-41982252D01*
X49267914Y-42006358D01*
X49254204Y-42029232D01*
X49238318Y-42050651D01*
X49220410Y-42070410D01*
X49200651Y-42088318D01*
X49179232Y-42104204D01*
X49156358Y-42117914D01*
X49132252Y-42129315D01*
X49107143Y-42138299D01*
X49081275Y-42144779D01*
X49054897Y-42148692D01*
X49028262Y-42150000D01*
X48321738Y-42150000D01*
X48295103Y-42148692D01*
X48268725Y-42144779D01*
X48242857Y-42138299D01*
X48217748Y-42129315D01*
X48193642Y-42117914D01*
X48170768Y-42104204D01*
X48149349Y-42088318D01*
X48129590Y-42070410D01*
X48111682Y-42050651D01*
X48095796Y-42029232D01*
X48082086Y-42006358D01*
X48070685Y-41982252D01*
X48061701Y-41957143D01*
X48055221Y-41931275D01*
X48051308Y-41904897D01*
X48050000Y-41878262D01*
X48050000Y-40921738D01*
X48051308Y-40895103D01*
X48055221Y-40868725D01*
X48061701Y-40842857D01*
X48070685Y-40817748D01*
X48082086Y-40793642D01*
X48095796Y-40770768D01*
X48111682Y-40749349D01*
X48129590Y-40729590D01*
X48149349Y-40711682D01*
X48170768Y-40695796D01*
X48193642Y-40682086D01*
X48217748Y-40670685D01*
X48242857Y-40661701D01*
X48268725Y-40655221D01*
X48295103Y-40651308D01*
X48321738Y-40650000D01*
X49028262Y-40650000D01*
X49054897Y-40651308D01*
X49054897Y-40651308D01*
G37*
D16*
X48675000Y-41400000D03*
D15*
G36*
X51104897Y-40651308D02*
X51131275Y-40655221D01*
X51157143Y-40661701D01*
X51182252Y-40670685D01*
X51206358Y-40682086D01*
X51229232Y-40695796D01*
X51250651Y-40711682D01*
X51270410Y-40729590D01*
X51288318Y-40749349D01*
X51304204Y-40770768D01*
X51317914Y-40793642D01*
X51329315Y-40817748D01*
X51338299Y-40842857D01*
X51344779Y-40868725D01*
X51348692Y-40895103D01*
X51350000Y-40921738D01*
X51350000Y-41878262D01*
X51348692Y-41904897D01*
X51344779Y-41931275D01*
X51338299Y-41957143D01*
X51329315Y-41982252D01*
X51317914Y-42006358D01*
X51304204Y-42029232D01*
X51288318Y-42050651D01*
X51270410Y-42070410D01*
X51250651Y-42088318D01*
X51229232Y-42104204D01*
X51206358Y-42117914D01*
X51182252Y-42129315D01*
X51157143Y-42138299D01*
X51131275Y-42144779D01*
X51104897Y-42148692D01*
X51078262Y-42150000D01*
X50371738Y-42150000D01*
X50345103Y-42148692D01*
X50318725Y-42144779D01*
X50292857Y-42138299D01*
X50267748Y-42129315D01*
X50243642Y-42117914D01*
X50220768Y-42104204D01*
X50199349Y-42088318D01*
X50179590Y-42070410D01*
X50161682Y-42050651D01*
X50145796Y-42029232D01*
X50132086Y-42006358D01*
X50120685Y-41982252D01*
X50111701Y-41957143D01*
X50105221Y-41931275D01*
X50101308Y-41904897D01*
X50100000Y-41878262D01*
X50100000Y-40921738D01*
X50101308Y-40895103D01*
X50105221Y-40868725D01*
X50111701Y-40842857D01*
X50120685Y-40817748D01*
X50132086Y-40793642D01*
X50145796Y-40770768D01*
X50161682Y-40749349D01*
X50179590Y-40729590D01*
X50199349Y-40711682D01*
X50220768Y-40695796D01*
X50243642Y-40682086D01*
X50267748Y-40670685D01*
X50292857Y-40661701D01*
X50318725Y-40655221D01*
X50345103Y-40651308D01*
X50371738Y-40650000D01*
X51078262Y-40650000D01*
X51104897Y-40651308D01*
X51104897Y-40651308D01*
G37*
D16*
X50725000Y-41400000D03*
G04 #@! TD*
D18*
G04 #@! TO.C,SW1*
X49050000Y-44300000D03*
D15*
G36*
X49559755Y-43500961D02*
X49569134Y-43503806D01*
X49577779Y-43508427D01*
X49585355Y-43514645D01*
X49591573Y-43522221D01*
X49596194Y-43530866D01*
X49599039Y-43540245D01*
X49600000Y-43550000D01*
X49600000Y-45050000D01*
X49599039Y-45059755D01*
X49596194Y-45069134D01*
X49591573Y-45077779D01*
X49585355Y-45085355D01*
X49577779Y-45091573D01*
X49569134Y-45096194D01*
X49559755Y-45099039D01*
X49550000Y-45100000D01*
X49050000Y-45100000D01*
X49043889Y-45099398D01*
X49025466Y-45099398D01*
X49020565Y-45099157D01*
X48971734Y-45094347D01*
X48966881Y-45093627D01*
X48918756Y-45084055D01*
X48913995Y-45082863D01*
X48867040Y-45068619D01*
X48862421Y-45066966D01*
X48817088Y-45048189D01*
X48812651Y-45046091D01*
X48769378Y-45022960D01*
X48765171Y-45020438D01*
X48724372Y-44993178D01*
X48720430Y-44990254D01*
X48682501Y-44959126D01*
X48678866Y-44955831D01*
X48644169Y-44921134D01*
X48640874Y-44917499D01*
X48609746Y-44879570D01*
X48606822Y-44875628D01*
X48579562Y-44834829D01*
X48577040Y-44830622D01*
X48553909Y-44787349D01*
X48551811Y-44782912D01*
X48533034Y-44737579D01*
X48531381Y-44732960D01*
X48517137Y-44686005D01*
X48515945Y-44681244D01*
X48506373Y-44633119D01*
X48505653Y-44628266D01*
X48500843Y-44579435D01*
X48500602Y-44574534D01*
X48500602Y-44556111D01*
X48500000Y-44550000D01*
X48500000Y-44050000D01*
X48500602Y-44043889D01*
X48500602Y-44025466D01*
X48500843Y-44020565D01*
X48505653Y-43971734D01*
X48506373Y-43966881D01*
X48515945Y-43918756D01*
X48517137Y-43913995D01*
X48531381Y-43867040D01*
X48533034Y-43862421D01*
X48551811Y-43817088D01*
X48553909Y-43812651D01*
X48577040Y-43769378D01*
X48579562Y-43765171D01*
X48606822Y-43724372D01*
X48609746Y-43720430D01*
X48640874Y-43682501D01*
X48644169Y-43678866D01*
X48678866Y-43644169D01*
X48682501Y-43640874D01*
X48720430Y-43609746D01*
X48724372Y-43606822D01*
X48765171Y-43579562D01*
X48769378Y-43577040D01*
X48812651Y-43553909D01*
X48817088Y-43551811D01*
X48862421Y-43533034D01*
X48867040Y-43531381D01*
X48913995Y-43517137D01*
X48918756Y-43515945D01*
X48966881Y-43506373D01*
X48971734Y-43505653D01*
X49020565Y-43500843D01*
X49025466Y-43500602D01*
X49043889Y-43500602D01*
X49050000Y-43500000D01*
X49550000Y-43500000D01*
X49559755Y-43500961D01*
X49559755Y-43500961D01*
G37*
D18*
X50350000Y-44300000D03*
D15*
G36*
X50356111Y-43500602D02*
X50374534Y-43500602D01*
X50379435Y-43500843D01*
X50428266Y-43505653D01*
X50433119Y-43506373D01*
X50481244Y-43515945D01*
X50486005Y-43517137D01*
X50532960Y-43531381D01*
X50537579Y-43533034D01*
X50582912Y-43551811D01*
X50587349Y-43553909D01*
X50630622Y-43577040D01*
X50634829Y-43579562D01*
X50675628Y-43606822D01*
X50679570Y-43609746D01*
X50717499Y-43640874D01*
X50721134Y-43644169D01*
X50755831Y-43678866D01*
X50759126Y-43682501D01*
X50790254Y-43720430D01*
X50793178Y-43724372D01*
X50820438Y-43765171D01*
X50822960Y-43769378D01*
X50846091Y-43812651D01*
X50848189Y-43817088D01*
X50866966Y-43862421D01*
X50868619Y-43867040D01*
X50882863Y-43913995D01*
X50884055Y-43918756D01*
X50893627Y-43966881D01*
X50894347Y-43971734D01*
X50899157Y-44020565D01*
X50899398Y-44025466D01*
X50899398Y-44043889D01*
X50900000Y-44050000D01*
X50900000Y-44550000D01*
X50899398Y-44556111D01*
X50899398Y-44574534D01*
X50899157Y-44579435D01*
X50894347Y-44628266D01*
X50893627Y-44633119D01*
X50884055Y-44681244D01*
X50882863Y-44686005D01*
X50868619Y-44732960D01*
X50866966Y-44737579D01*
X50848189Y-44782912D01*
X50846091Y-44787349D01*
X50822960Y-44830622D01*
X50820438Y-44834829D01*
X50793178Y-44875628D01*
X50790254Y-44879570D01*
X50759126Y-44917499D01*
X50755831Y-44921134D01*
X50721134Y-44955831D01*
X50717499Y-44959126D01*
X50679570Y-44990254D01*
X50675628Y-44993178D01*
X50634829Y-45020438D01*
X50630622Y-45022960D01*
X50587349Y-45046091D01*
X50582912Y-45048189D01*
X50537579Y-45066966D01*
X50532960Y-45068619D01*
X50486005Y-45082863D01*
X50481244Y-45084055D01*
X50433119Y-45093627D01*
X50428266Y-45094347D01*
X50379435Y-45099157D01*
X50374534Y-45099398D01*
X50356111Y-45099398D01*
X50350000Y-45100000D01*
X49850000Y-45100000D01*
X49840245Y-45099039D01*
X49830866Y-45096194D01*
X49822221Y-45091573D01*
X49814645Y-45085355D01*
X49808427Y-45077779D01*
X49803806Y-45069134D01*
X49800961Y-45059755D01*
X49800000Y-45050000D01*
X49800000Y-43550000D01*
X49800961Y-43540245D01*
X49803806Y-43530866D01*
X49808427Y-43522221D01*
X49814645Y-43514645D01*
X49822221Y-43508427D01*
X49830866Y-43503806D01*
X49840245Y-43500961D01*
X49850000Y-43500000D01*
X50350000Y-43500000D01*
X50356111Y-43500602D01*
X50356111Y-43500602D01*
G37*
G04 #@! TD*
D19*
G04 #@! TO.C,D1*
X31750000Y-30150000D03*
X30250000Y-30150000D03*
X30250000Y-31250000D03*
X31750000Y-31250000D03*
G04 #@! TD*
M02*
