G04 #@! TF.GenerationSoftware,KiCad,Pcbnew,(5.0.0)*
G04 #@! TF.CreationDate,2018-12-03T11:25:22+01:00*
G04 #@! TF.ProjectId,OpenThermalCamera,4F70656E546865726D616C43616D6572,rev?*
G04 #@! TF.SameCoordinates,Original*
G04 #@! TF.FileFunction,Soldermask,Bot*
G04 #@! TF.FilePolarity,Negative*
%FSLAX46Y46*%
G04 Gerber Fmt 4.6, Leading zero omitted, Abs format (unit mm)*
G04 Created by KiCad (PCBNEW (5.0.0)) date 12/03/18 11:25:22*
%MOMM*%
%LPD*%
G01*
G04 APERTURE LIST*
%ADD10R,1.100000X1.900000*%
%ADD11R,1.400000X1.900000*%
%ADD12R,0.660000X1.950000*%
%ADD13R,0.810000X1.950000*%
%ADD14R,0.760000X2.150000*%
%ADD15R,1.850000X0.850000*%
%ADD16C,3.100000*%
%ADD17C,0.100000*%
%ADD18C,1.550000*%
%ADD19R,2.800000X1.140000*%
%ADD20C,1.600000*%
%ADD21C,1.600000*%
%ADD22C,0.500000*%
%ADD23R,1.400000X1.200000*%
G04 APERTURE END LIST*
D10*
G04 #@! TO.C,J2*
X36800000Y-30700000D03*
D11*
X43825000Y-30700000D03*
D12*
X39350000Y-28300000D03*
X41850000Y-28300000D03*
X39850000Y-28300000D03*
X42350000Y-28300000D03*
X38850000Y-28300000D03*
X41350000Y-28300000D03*
X38350000Y-28300000D03*
X37850000Y-28300000D03*
D13*
X37275000Y-28300000D03*
X42925000Y-28300000D03*
D12*
X40350000Y-28300000D03*
X40850000Y-28300000D03*
D14*
X43505000Y-28400000D03*
X36695000Y-28400000D03*
G04 #@! TD*
D15*
G04 #@! TO.C,U3*
X45850000Y-40075000D03*
X45850000Y-40725000D03*
X45850000Y-41375000D03*
X45850000Y-42025000D03*
X45850000Y-42675000D03*
X45850000Y-43325000D03*
X45850000Y-43975000D03*
X45850000Y-44625000D03*
X45850000Y-45275000D03*
X45850000Y-45925000D03*
X39950000Y-45925000D03*
X39950000Y-45275000D03*
X39950000Y-44625000D03*
X39950000Y-43975000D03*
X39950000Y-43325000D03*
X39950000Y-42675000D03*
X39950000Y-42025000D03*
X39950000Y-41375000D03*
X39950000Y-40725000D03*
X39950000Y-40075000D03*
G04 #@! TD*
D16*
G04 #@! TO.C,MH1*
X50000000Y-37000000D03*
G04 #@! TD*
G04 #@! TO.C,MH2*
X30000000Y-37000000D03*
G04 #@! TD*
D17*
G04 #@! TO.C,C5*
G36*
X33696071Y-34901623D02*
X33728781Y-34906475D01*
X33760857Y-34914509D01*
X33791991Y-34925649D01*
X33821884Y-34939787D01*
X33850247Y-34956787D01*
X33876807Y-34976485D01*
X33901308Y-34998692D01*
X33923515Y-35023193D01*
X33943213Y-35049753D01*
X33960213Y-35078116D01*
X33974351Y-35108009D01*
X33985491Y-35139143D01*
X33993525Y-35171219D01*
X33998377Y-35203929D01*
X34000000Y-35236956D01*
X34000000Y-36113044D01*
X33998377Y-36146071D01*
X33993525Y-36178781D01*
X33985491Y-36210857D01*
X33974351Y-36241991D01*
X33960213Y-36271884D01*
X33943213Y-36300247D01*
X33923515Y-36326807D01*
X33901308Y-36351308D01*
X33876807Y-36373515D01*
X33850247Y-36393213D01*
X33821884Y-36410213D01*
X33791991Y-36424351D01*
X33760857Y-36435491D01*
X33728781Y-36443525D01*
X33696071Y-36448377D01*
X33663044Y-36450000D01*
X32536956Y-36450000D01*
X32503929Y-36448377D01*
X32471219Y-36443525D01*
X32439143Y-36435491D01*
X32408009Y-36424351D01*
X32378116Y-36410213D01*
X32349753Y-36393213D01*
X32323193Y-36373515D01*
X32298692Y-36351308D01*
X32276485Y-36326807D01*
X32256787Y-36300247D01*
X32239787Y-36271884D01*
X32225649Y-36241991D01*
X32214509Y-36210857D01*
X32206475Y-36178781D01*
X32201623Y-36146071D01*
X32200000Y-36113044D01*
X32200000Y-35236956D01*
X32201623Y-35203929D01*
X32206475Y-35171219D01*
X32214509Y-35139143D01*
X32225649Y-35108009D01*
X32239787Y-35078116D01*
X32256787Y-35049753D01*
X32276485Y-35023193D01*
X32298692Y-34998692D01*
X32323193Y-34976485D01*
X32349753Y-34956787D01*
X32378116Y-34939787D01*
X32408009Y-34925649D01*
X32439143Y-34914509D01*
X32471219Y-34906475D01*
X32503929Y-34901623D01*
X32536956Y-34900000D01*
X33663044Y-34900000D01*
X33696071Y-34901623D01*
X33696071Y-34901623D01*
G37*
D18*
X33100000Y-35675000D03*
D17*
G36*
X33696071Y-36951623D02*
X33728781Y-36956475D01*
X33760857Y-36964509D01*
X33791991Y-36975649D01*
X33821884Y-36989787D01*
X33850247Y-37006787D01*
X33876807Y-37026485D01*
X33901308Y-37048692D01*
X33923515Y-37073193D01*
X33943213Y-37099753D01*
X33960213Y-37128116D01*
X33974351Y-37158009D01*
X33985491Y-37189143D01*
X33993525Y-37221219D01*
X33998377Y-37253929D01*
X34000000Y-37286956D01*
X34000000Y-38163044D01*
X33998377Y-38196071D01*
X33993525Y-38228781D01*
X33985491Y-38260857D01*
X33974351Y-38291991D01*
X33960213Y-38321884D01*
X33943213Y-38350247D01*
X33923515Y-38376807D01*
X33901308Y-38401308D01*
X33876807Y-38423515D01*
X33850247Y-38443213D01*
X33821884Y-38460213D01*
X33791991Y-38474351D01*
X33760857Y-38485491D01*
X33728781Y-38493525D01*
X33696071Y-38498377D01*
X33663044Y-38500000D01*
X32536956Y-38500000D01*
X32503929Y-38498377D01*
X32471219Y-38493525D01*
X32439143Y-38485491D01*
X32408009Y-38474351D01*
X32378116Y-38460213D01*
X32349753Y-38443213D01*
X32323193Y-38423515D01*
X32298692Y-38401308D01*
X32276485Y-38376807D01*
X32256787Y-38350247D01*
X32239787Y-38321884D01*
X32225649Y-38291991D01*
X32214509Y-38260857D01*
X32206475Y-38228781D01*
X32201623Y-38196071D01*
X32200000Y-38163044D01*
X32200000Y-37286956D01*
X32201623Y-37253929D01*
X32206475Y-37221219D01*
X32214509Y-37189143D01*
X32225649Y-37158009D01*
X32239787Y-37128116D01*
X32256787Y-37099753D01*
X32276485Y-37073193D01*
X32298692Y-37048692D01*
X32323193Y-37026485D01*
X32349753Y-37006787D01*
X32378116Y-36989787D01*
X32408009Y-36975649D01*
X32439143Y-36964509D01*
X32471219Y-36956475D01*
X32503929Y-36951623D01*
X32536956Y-36950000D01*
X33663044Y-36950000D01*
X33696071Y-36951623D01*
X33696071Y-36951623D01*
G37*
D18*
X33100000Y-37725000D03*
G04 #@! TD*
D17*
G04 #@! TO.C,C4*
G36*
X36096071Y-36851623D02*
X36128781Y-36856475D01*
X36160857Y-36864509D01*
X36191991Y-36875649D01*
X36221884Y-36889787D01*
X36250247Y-36906787D01*
X36276807Y-36926485D01*
X36301308Y-36948692D01*
X36323515Y-36973193D01*
X36343213Y-36999753D01*
X36360213Y-37028116D01*
X36374351Y-37058009D01*
X36385491Y-37089143D01*
X36393525Y-37121219D01*
X36398377Y-37153929D01*
X36400000Y-37186956D01*
X36400000Y-38063044D01*
X36398377Y-38096071D01*
X36393525Y-38128781D01*
X36385491Y-38160857D01*
X36374351Y-38191991D01*
X36360213Y-38221884D01*
X36343213Y-38250247D01*
X36323515Y-38276807D01*
X36301308Y-38301308D01*
X36276807Y-38323515D01*
X36250247Y-38343213D01*
X36221884Y-38360213D01*
X36191991Y-38374351D01*
X36160857Y-38385491D01*
X36128781Y-38393525D01*
X36096071Y-38398377D01*
X36063044Y-38400000D01*
X34936956Y-38400000D01*
X34903929Y-38398377D01*
X34871219Y-38393525D01*
X34839143Y-38385491D01*
X34808009Y-38374351D01*
X34778116Y-38360213D01*
X34749753Y-38343213D01*
X34723193Y-38323515D01*
X34698692Y-38301308D01*
X34676485Y-38276807D01*
X34656787Y-38250247D01*
X34639787Y-38221884D01*
X34625649Y-38191991D01*
X34614509Y-38160857D01*
X34606475Y-38128781D01*
X34601623Y-38096071D01*
X34600000Y-38063044D01*
X34600000Y-37186956D01*
X34601623Y-37153929D01*
X34606475Y-37121219D01*
X34614509Y-37089143D01*
X34625649Y-37058009D01*
X34639787Y-37028116D01*
X34656787Y-36999753D01*
X34676485Y-36973193D01*
X34698692Y-36948692D01*
X34723193Y-36926485D01*
X34749753Y-36906787D01*
X34778116Y-36889787D01*
X34808009Y-36875649D01*
X34839143Y-36864509D01*
X34871219Y-36856475D01*
X34903929Y-36851623D01*
X34936956Y-36850000D01*
X36063044Y-36850000D01*
X36096071Y-36851623D01*
X36096071Y-36851623D01*
G37*
D18*
X35500000Y-37625000D03*
D17*
G36*
X36096071Y-34801623D02*
X36128781Y-34806475D01*
X36160857Y-34814509D01*
X36191991Y-34825649D01*
X36221884Y-34839787D01*
X36250247Y-34856787D01*
X36276807Y-34876485D01*
X36301308Y-34898692D01*
X36323515Y-34923193D01*
X36343213Y-34949753D01*
X36360213Y-34978116D01*
X36374351Y-35008009D01*
X36385491Y-35039143D01*
X36393525Y-35071219D01*
X36398377Y-35103929D01*
X36400000Y-35136956D01*
X36400000Y-36013044D01*
X36398377Y-36046071D01*
X36393525Y-36078781D01*
X36385491Y-36110857D01*
X36374351Y-36141991D01*
X36360213Y-36171884D01*
X36343213Y-36200247D01*
X36323515Y-36226807D01*
X36301308Y-36251308D01*
X36276807Y-36273515D01*
X36250247Y-36293213D01*
X36221884Y-36310213D01*
X36191991Y-36324351D01*
X36160857Y-36335491D01*
X36128781Y-36343525D01*
X36096071Y-36348377D01*
X36063044Y-36350000D01*
X34936956Y-36350000D01*
X34903929Y-36348377D01*
X34871219Y-36343525D01*
X34839143Y-36335491D01*
X34808009Y-36324351D01*
X34778116Y-36310213D01*
X34749753Y-36293213D01*
X34723193Y-36273515D01*
X34698692Y-36251308D01*
X34676485Y-36226807D01*
X34656787Y-36200247D01*
X34639787Y-36171884D01*
X34625649Y-36141991D01*
X34614509Y-36110857D01*
X34606475Y-36078781D01*
X34601623Y-36046071D01*
X34600000Y-36013044D01*
X34600000Y-35136956D01*
X34601623Y-35103929D01*
X34606475Y-35071219D01*
X34614509Y-35039143D01*
X34625649Y-35008009D01*
X34639787Y-34978116D01*
X34656787Y-34949753D01*
X34676485Y-34923193D01*
X34698692Y-34898692D01*
X34723193Y-34876485D01*
X34749753Y-34856787D01*
X34778116Y-34839787D01*
X34808009Y-34825649D01*
X34839143Y-34814509D01*
X34871219Y-34806475D01*
X34903929Y-34801623D01*
X34936956Y-34800000D01*
X36063044Y-34800000D01*
X36096071Y-34801623D01*
X36096071Y-34801623D01*
G37*
D18*
X35500000Y-35575000D03*
G04 #@! TD*
D19*
G04 #@! TO.C,J1*
X32450000Y-45640000D03*
X36350000Y-45640000D03*
X32450000Y-44370000D03*
X36350000Y-44370000D03*
X32450000Y-43100000D03*
X36350000Y-43100000D03*
X32450000Y-41830000D03*
X36350000Y-41830000D03*
X32450000Y-40560000D03*
X36350000Y-40560000D03*
G04 #@! TD*
D17*
G04 #@! TO.C,R3*
G36*
X40796071Y-34801623D02*
X40828781Y-34806475D01*
X40860857Y-34814509D01*
X40891991Y-34825649D01*
X40921884Y-34839787D01*
X40950247Y-34856787D01*
X40976807Y-34876485D01*
X41001308Y-34898692D01*
X41023515Y-34923193D01*
X41043213Y-34949753D01*
X41060213Y-34978116D01*
X41074351Y-35008009D01*
X41085491Y-35039143D01*
X41093525Y-35071219D01*
X41098377Y-35103929D01*
X41100000Y-35136956D01*
X41100000Y-36013044D01*
X41098377Y-36046071D01*
X41093525Y-36078781D01*
X41085491Y-36110857D01*
X41074351Y-36141991D01*
X41060213Y-36171884D01*
X41043213Y-36200247D01*
X41023515Y-36226807D01*
X41001308Y-36251308D01*
X40976807Y-36273515D01*
X40950247Y-36293213D01*
X40921884Y-36310213D01*
X40891991Y-36324351D01*
X40860857Y-36335491D01*
X40828781Y-36343525D01*
X40796071Y-36348377D01*
X40763044Y-36350000D01*
X39636956Y-36350000D01*
X39603929Y-36348377D01*
X39571219Y-36343525D01*
X39539143Y-36335491D01*
X39508009Y-36324351D01*
X39478116Y-36310213D01*
X39449753Y-36293213D01*
X39423193Y-36273515D01*
X39398692Y-36251308D01*
X39376485Y-36226807D01*
X39356787Y-36200247D01*
X39339787Y-36171884D01*
X39325649Y-36141991D01*
X39314509Y-36110857D01*
X39306475Y-36078781D01*
X39301623Y-36046071D01*
X39300000Y-36013044D01*
X39300000Y-35136956D01*
X39301623Y-35103929D01*
X39306475Y-35071219D01*
X39314509Y-35039143D01*
X39325649Y-35008009D01*
X39339787Y-34978116D01*
X39356787Y-34949753D01*
X39376485Y-34923193D01*
X39398692Y-34898692D01*
X39423193Y-34876485D01*
X39449753Y-34856787D01*
X39478116Y-34839787D01*
X39508009Y-34825649D01*
X39539143Y-34814509D01*
X39571219Y-34806475D01*
X39603929Y-34801623D01*
X39636956Y-34800000D01*
X40763044Y-34800000D01*
X40796071Y-34801623D01*
X40796071Y-34801623D01*
G37*
D18*
X40200000Y-35575000D03*
D17*
G36*
X40796071Y-36851623D02*
X40828781Y-36856475D01*
X40860857Y-36864509D01*
X40891991Y-36875649D01*
X40921884Y-36889787D01*
X40950247Y-36906787D01*
X40976807Y-36926485D01*
X41001308Y-36948692D01*
X41023515Y-36973193D01*
X41043213Y-36999753D01*
X41060213Y-37028116D01*
X41074351Y-37058009D01*
X41085491Y-37089143D01*
X41093525Y-37121219D01*
X41098377Y-37153929D01*
X41100000Y-37186956D01*
X41100000Y-38063044D01*
X41098377Y-38096071D01*
X41093525Y-38128781D01*
X41085491Y-38160857D01*
X41074351Y-38191991D01*
X41060213Y-38221884D01*
X41043213Y-38250247D01*
X41023515Y-38276807D01*
X41001308Y-38301308D01*
X40976807Y-38323515D01*
X40950247Y-38343213D01*
X40921884Y-38360213D01*
X40891991Y-38374351D01*
X40860857Y-38385491D01*
X40828781Y-38393525D01*
X40796071Y-38398377D01*
X40763044Y-38400000D01*
X39636956Y-38400000D01*
X39603929Y-38398377D01*
X39571219Y-38393525D01*
X39539143Y-38385491D01*
X39508009Y-38374351D01*
X39478116Y-38360213D01*
X39449753Y-38343213D01*
X39423193Y-38323515D01*
X39398692Y-38301308D01*
X39376485Y-38276807D01*
X39356787Y-38250247D01*
X39339787Y-38221884D01*
X39325649Y-38191991D01*
X39314509Y-38160857D01*
X39306475Y-38128781D01*
X39301623Y-38096071D01*
X39300000Y-38063044D01*
X39300000Y-37186956D01*
X39301623Y-37153929D01*
X39306475Y-37121219D01*
X39314509Y-37089143D01*
X39325649Y-37058009D01*
X39339787Y-37028116D01*
X39356787Y-36999753D01*
X39376485Y-36973193D01*
X39398692Y-36948692D01*
X39423193Y-36926485D01*
X39449753Y-36906787D01*
X39478116Y-36889787D01*
X39508009Y-36875649D01*
X39539143Y-36864509D01*
X39571219Y-36856475D01*
X39603929Y-36851623D01*
X39636956Y-36850000D01*
X40763044Y-36850000D01*
X40796071Y-36851623D01*
X40796071Y-36851623D01*
G37*
D18*
X40200000Y-37625000D03*
G04 #@! TD*
D17*
G04 #@! TO.C,R2*
G36*
X46696071Y-37051623D02*
X46728781Y-37056475D01*
X46760857Y-37064509D01*
X46791991Y-37075649D01*
X46821884Y-37089787D01*
X46850247Y-37106787D01*
X46876807Y-37126485D01*
X46901308Y-37148692D01*
X46923515Y-37173193D01*
X46943213Y-37199753D01*
X46960213Y-37228116D01*
X46974351Y-37258009D01*
X46985491Y-37289143D01*
X46993525Y-37321219D01*
X46998377Y-37353929D01*
X47000000Y-37386956D01*
X47000000Y-38263044D01*
X46998377Y-38296071D01*
X46993525Y-38328781D01*
X46985491Y-38360857D01*
X46974351Y-38391991D01*
X46960213Y-38421884D01*
X46943213Y-38450247D01*
X46923515Y-38476807D01*
X46901308Y-38501308D01*
X46876807Y-38523515D01*
X46850247Y-38543213D01*
X46821884Y-38560213D01*
X46791991Y-38574351D01*
X46760857Y-38585491D01*
X46728781Y-38593525D01*
X46696071Y-38598377D01*
X46663044Y-38600000D01*
X45536956Y-38600000D01*
X45503929Y-38598377D01*
X45471219Y-38593525D01*
X45439143Y-38585491D01*
X45408009Y-38574351D01*
X45378116Y-38560213D01*
X45349753Y-38543213D01*
X45323193Y-38523515D01*
X45298692Y-38501308D01*
X45276485Y-38476807D01*
X45256787Y-38450247D01*
X45239787Y-38421884D01*
X45225649Y-38391991D01*
X45214509Y-38360857D01*
X45206475Y-38328781D01*
X45201623Y-38296071D01*
X45200000Y-38263044D01*
X45200000Y-37386956D01*
X45201623Y-37353929D01*
X45206475Y-37321219D01*
X45214509Y-37289143D01*
X45225649Y-37258009D01*
X45239787Y-37228116D01*
X45256787Y-37199753D01*
X45276485Y-37173193D01*
X45298692Y-37148692D01*
X45323193Y-37126485D01*
X45349753Y-37106787D01*
X45378116Y-37089787D01*
X45408009Y-37075649D01*
X45439143Y-37064509D01*
X45471219Y-37056475D01*
X45503929Y-37051623D01*
X45536956Y-37050000D01*
X46663044Y-37050000D01*
X46696071Y-37051623D01*
X46696071Y-37051623D01*
G37*
D18*
X46100000Y-37825000D03*
D17*
G36*
X46696071Y-35001623D02*
X46728781Y-35006475D01*
X46760857Y-35014509D01*
X46791991Y-35025649D01*
X46821884Y-35039787D01*
X46850247Y-35056787D01*
X46876807Y-35076485D01*
X46901308Y-35098692D01*
X46923515Y-35123193D01*
X46943213Y-35149753D01*
X46960213Y-35178116D01*
X46974351Y-35208009D01*
X46985491Y-35239143D01*
X46993525Y-35271219D01*
X46998377Y-35303929D01*
X47000000Y-35336956D01*
X47000000Y-36213044D01*
X46998377Y-36246071D01*
X46993525Y-36278781D01*
X46985491Y-36310857D01*
X46974351Y-36341991D01*
X46960213Y-36371884D01*
X46943213Y-36400247D01*
X46923515Y-36426807D01*
X46901308Y-36451308D01*
X46876807Y-36473515D01*
X46850247Y-36493213D01*
X46821884Y-36510213D01*
X46791991Y-36524351D01*
X46760857Y-36535491D01*
X46728781Y-36543525D01*
X46696071Y-36548377D01*
X46663044Y-36550000D01*
X45536956Y-36550000D01*
X45503929Y-36548377D01*
X45471219Y-36543525D01*
X45439143Y-36535491D01*
X45408009Y-36524351D01*
X45378116Y-36510213D01*
X45349753Y-36493213D01*
X45323193Y-36473515D01*
X45298692Y-36451308D01*
X45276485Y-36426807D01*
X45256787Y-36400247D01*
X45239787Y-36371884D01*
X45225649Y-36341991D01*
X45214509Y-36310857D01*
X45206475Y-36278781D01*
X45201623Y-36246071D01*
X45200000Y-36213044D01*
X45200000Y-35336956D01*
X45201623Y-35303929D01*
X45206475Y-35271219D01*
X45214509Y-35239143D01*
X45225649Y-35208009D01*
X45239787Y-35178116D01*
X45256787Y-35149753D01*
X45276485Y-35123193D01*
X45298692Y-35098692D01*
X45323193Y-35076485D01*
X45349753Y-35056787D01*
X45378116Y-35039787D01*
X45408009Y-35025649D01*
X45439143Y-35014509D01*
X45471219Y-35006475D01*
X45503929Y-35001623D01*
X45536956Y-35000000D01*
X46663044Y-35000000D01*
X46696071Y-35001623D01*
X46696071Y-35001623D01*
G37*
D18*
X46100000Y-35775000D03*
G04 #@! TD*
D17*
G04 #@! TO.C,R1*
G36*
X49146071Y-40501623D02*
X49178781Y-40506475D01*
X49210857Y-40514509D01*
X49241991Y-40525649D01*
X49271884Y-40539787D01*
X49300247Y-40556787D01*
X49326807Y-40576485D01*
X49351308Y-40598692D01*
X49373515Y-40623193D01*
X49393213Y-40649753D01*
X49410213Y-40678116D01*
X49424351Y-40708009D01*
X49435491Y-40739143D01*
X49443525Y-40771219D01*
X49448377Y-40803929D01*
X49450000Y-40836956D01*
X49450000Y-41963044D01*
X49448377Y-41996071D01*
X49443525Y-42028781D01*
X49435491Y-42060857D01*
X49424351Y-42091991D01*
X49410213Y-42121884D01*
X49393213Y-42150247D01*
X49373515Y-42176807D01*
X49351308Y-42201308D01*
X49326807Y-42223515D01*
X49300247Y-42243213D01*
X49271884Y-42260213D01*
X49241991Y-42274351D01*
X49210857Y-42285491D01*
X49178781Y-42293525D01*
X49146071Y-42298377D01*
X49113044Y-42300000D01*
X48236956Y-42300000D01*
X48203929Y-42298377D01*
X48171219Y-42293525D01*
X48139143Y-42285491D01*
X48108009Y-42274351D01*
X48078116Y-42260213D01*
X48049753Y-42243213D01*
X48023193Y-42223515D01*
X47998692Y-42201308D01*
X47976485Y-42176807D01*
X47956787Y-42150247D01*
X47939787Y-42121884D01*
X47925649Y-42091991D01*
X47914509Y-42060857D01*
X47906475Y-42028781D01*
X47901623Y-41996071D01*
X47900000Y-41963044D01*
X47900000Y-40836956D01*
X47901623Y-40803929D01*
X47906475Y-40771219D01*
X47914509Y-40739143D01*
X47925649Y-40708009D01*
X47939787Y-40678116D01*
X47956787Y-40649753D01*
X47976485Y-40623193D01*
X47998692Y-40598692D01*
X48023193Y-40576485D01*
X48049753Y-40556787D01*
X48078116Y-40539787D01*
X48108009Y-40525649D01*
X48139143Y-40514509D01*
X48171219Y-40506475D01*
X48203929Y-40501623D01*
X48236956Y-40500000D01*
X49113044Y-40500000D01*
X49146071Y-40501623D01*
X49146071Y-40501623D01*
G37*
D18*
X48675000Y-41400000D03*
D17*
G36*
X51196071Y-40501623D02*
X51228781Y-40506475D01*
X51260857Y-40514509D01*
X51291991Y-40525649D01*
X51321884Y-40539787D01*
X51350247Y-40556787D01*
X51376807Y-40576485D01*
X51401308Y-40598692D01*
X51423515Y-40623193D01*
X51443213Y-40649753D01*
X51460213Y-40678116D01*
X51474351Y-40708009D01*
X51485491Y-40739143D01*
X51493525Y-40771219D01*
X51498377Y-40803929D01*
X51500000Y-40836956D01*
X51500000Y-41963044D01*
X51498377Y-41996071D01*
X51493525Y-42028781D01*
X51485491Y-42060857D01*
X51474351Y-42091991D01*
X51460213Y-42121884D01*
X51443213Y-42150247D01*
X51423515Y-42176807D01*
X51401308Y-42201308D01*
X51376807Y-42223515D01*
X51350247Y-42243213D01*
X51321884Y-42260213D01*
X51291991Y-42274351D01*
X51260857Y-42285491D01*
X51228781Y-42293525D01*
X51196071Y-42298377D01*
X51163044Y-42300000D01*
X50286956Y-42300000D01*
X50253929Y-42298377D01*
X50221219Y-42293525D01*
X50189143Y-42285491D01*
X50158009Y-42274351D01*
X50128116Y-42260213D01*
X50099753Y-42243213D01*
X50073193Y-42223515D01*
X50048692Y-42201308D01*
X50026485Y-42176807D01*
X50006787Y-42150247D01*
X49989787Y-42121884D01*
X49975649Y-42091991D01*
X49964509Y-42060857D01*
X49956475Y-42028781D01*
X49951623Y-41996071D01*
X49950000Y-41963044D01*
X49950000Y-40836956D01*
X49951623Y-40803929D01*
X49956475Y-40771219D01*
X49964509Y-40739143D01*
X49975649Y-40708009D01*
X49989787Y-40678116D01*
X50006787Y-40649753D01*
X50026485Y-40623193D01*
X50048692Y-40598692D01*
X50073193Y-40576485D01*
X50099753Y-40556787D01*
X50128116Y-40539787D01*
X50158009Y-40525649D01*
X50189143Y-40514509D01*
X50221219Y-40506475D01*
X50253929Y-40501623D01*
X50286956Y-40500000D01*
X51163044Y-40500000D01*
X51196071Y-40501623D01*
X51196071Y-40501623D01*
G37*
D18*
X50725000Y-41400000D03*
G04 #@! TD*
D17*
G04 #@! TO.C,R4*
G36*
X33846071Y-32301623D02*
X33878781Y-32306475D01*
X33910857Y-32314509D01*
X33941991Y-32325649D01*
X33971884Y-32339787D01*
X34000247Y-32356787D01*
X34026807Y-32376485D01*
X34051308Y-32398692D01*
X34073515Y-32423193D01*
X34093213Y-32449753D01*
X34110213Y-32478116D01*
X34124351Y-32508009D01*
X34135491Y-32539143D01*
X34143525Y-32571219D01*
X34148377Y-32603929D01*
X34150000Y-32636956D01*
X34150000Y-33763044D01*
X34148377Y-33796071D01*
X34143525Y-33828781D01*
X34135491Y-33860857D01*
X34124351Y-33891991D01*
X34110213Y-33921884D01*
X34093213Y-33950247D01*
X34073515Y-33976807D01*
X34051308Y-34001308D01*
X34026807Y-34023515D01*
X34000247Y-34043213D01*
X33971884Y-34060213D01*
X33941991Y-34074351D01*
X33910857Y-34085491D01*
X33878781Y-34093525D01*
X33846071Y-34098377D01*
X33813044Y-34100000D01*
X32936956Y-34100000D01*
X32903929Y-34098377D01*
X32871219Y-34093525D01*
X32839143Y-34085491D01*
X32808009Y-34074351D01*
X32778116Y-34060213D01*
X32749753Y-34043213D01*
X32723193Y-34023515D01*
X32698692Y-34001308D01*
X32676485Y-33976807D01*
X32656787Y-33950247D01*
X32639787Y-33921884D01*
X32625649Y-33891991D01*
X32614509Y-33860857D01*
X32606475Y-33828781D01*
X32601623Y-33796071D01*
X32600000Y-33763044D01*
X32600000Y-32636956D01*
X32601623Y-32603929D01*
X32606475Y-32571219D01*
X32614509Y-32539143D01*
X32625649Y-32508009D01*
X32639787Y-32478116D01*
X32656787Y-32449753D01*
X32676485Y-32423193D01*
X32698692Y-32398692D01*
X32723193Y-32376485D01*
X32749753Y-32356787D01*
X32778116Y-32339787D01*
X32808009Y-32325649D01*
X32839143Y-32314509D01*
X32871219Y-32306475D01*
X32903929Y-32301623D01*
X32936956Y-32300000D01*
X33813044Y-32300000D01*
X33846071Y-32301623D01*
X33846071Y-32301623D01*
G37*
D18*
X33375000Y-33200000D03*
D17*
G36*
X35896071Y-32301623D02*
X35928781Y-32306475D01*
X35960857Y-32314509D01*
X35991991Y-32325649D01*
X36021884Y-32339787D01*
X36050247Y-32356787D01*
X36076807Y-32376485D01*
X36101308Y-32398692D01*
X36123515Y-32423193D01*
X36143213Y-32449753D01*
X36160213Y-32478116D01*
X36174351Y-32508009D01*
X36185491Y-32539143D01*
X36193525Y-32571219D01*
X36198377Y-32603929D01*
X36200000Y-32636956D01*
X36200000Y-33763044D01*
X36198377Y-33796071D01*
X36193525Y-33828781D01*
X36185491Y-33860857D01*
X36174351Y-33891991D01*
X36160213Y-33921884D01*
X36143213Y-33950247D01*
X36123515Y-33976807D01*
X36101308Y-34001308D01*
X36076807Y-34023515D01*
X36050247Y-34043213D01*
X36021884Y-34060213D01*
X35991991Y-34074351D01*
X35960857Y-34085491D01*
X35928781Y-34093525D01*
X35896071Y-34098377D01*
X35863044Y-34100000D01*
X34986956Y-34100000D01*
X34953929Y-34098377D01*
X34921219Y-34093525D01*
X34889143Y-34085491D01*
X34858009Y-34074351D01*
X34828116Y-34060213D01*
X34799753Y-34043213D01*
X34773193Y-34023515D01*
X34748692Y-34001308D01*
X34726485Y-33976807D01*
X34706787Y-33950247D01*
X34689787Y-33921884D01*
X34675649Y-33891991D01*
X34664509Y-33860857D01*
X34656475Y-33828781D01*
X34651623Y-33796071D01*
X34650000Y-33763044D01*
X34650000Y-32636956D01*
X34651623Y-32603929D01*
X34656475Y-32571219D01*
X34664509Y-32539143D01*
X34675649Y-32508009D01*
X34689787Y-32478116D01*
X34706787Y-32449753D01*
X34726485Y-32423193D01*
X34748692Y-32398692D01*
X34773193Y-32376485D01*
X34799753Y-32356787D01*
X34828116Y-32339787D01*
X34858009Y-32325649D01*
X34889143Y-32314509D01*
X34921219Y-32306475D01*
X34953929Y-32301623D01*
X34986956Y-32300000D01*
X35863044Y-32300000D01*
X35896071Y-32301623D01*
X35896071Y-32301623D01*
G37*
D18*
X35425000Y-33200000D03*
G04 #@! TD*
D20*
G04 #@! TO.C,U1*
X42819239Y-35536396D03*
D21*
X42960660Y-35394975D02*
X42677818Y-35677817D01*
D20*
X37445227Y-35536396D03*
D21*
X37445227Y-35536396D02*
X37445227Y-35536396D01*
D20*
X37445227Y-37799138D03*
D21*
X37445227Y-37799138D02*
X37445227Y-37799138D01*
D20*
X42819239Y-37799138D03*
D21*
X42819239Y-37799138D02*
X42819239Y-37799138D01*
G04 #@! TD*
D22*
G04 #@! TO.C,SW1*
X49050000Y-44300000D03*
D17*
G36*
X49589018Y-43353843D02*
X49626537Y-43365224D01*
X49661114Y-43383706D01*
X49691421Y-43408579D01*
X49716294Y-43438886D01*
X49734776Y-43473463D01*
X49746157Y-43510982D01*
X49750000Y-43550000D01*
X49750000Y-45050000D01*
X49746157Y-45089018D01*
X49734776Y-45126537D01*
X49716294Y-45161114D01*
X49691421Y-45191421D01*
X49661114Y-45216294D01*
X49626537Y-45234776D01*
X49589018Y-45246157D01*
X49550000Y-45250000D01*
X49050000Y-45250000D01*
X49043888Y-45249398D01*
X49025466Y-45249398D01*
X49005860Y-45248435D01*
X48957029Y-45243625D01*
X48937620Y-45240746D01*
X48889495Y-45231174D01*
X48870452Y-45226404D01*
X48823497Y-45212160D01*
X48805020Y-45205549D01*
X48759687Y-45186772D01*
X48741939Y-45178377D01*
X48698666Y-45155246D01*
X48681838Y-45145160D01*
X48641039Y-45117900D01*
X48625270Y-45106205D01*
X48587341Y-45075077D01*
X48572800Y-45061897D01*
X48538103Y-45027200D01*
X48524923Y-45012659D01*
X48493795Y-44974730D01*
X48482100Y-44958961D01*
X48454840Y-44918162D01*
X48444754Y-44901334D01*
X48421623Y-44858061D01*
X48413228Y-44840313D01*
X48394451Y-44794980D01*
X48387840Y-44776503D01*
X48373596Y-44729548D01*
X48368826Y-44710505D01*
X48359254Y-44662380D01*
X48356375Y-44642971D01*
X48351565Y-44594140D01*
X48350602Y-44574534D01*
X48350602Y-44556112D01*
X48350000Y-44550000D01*
X48350000Y-44050000D01*
X48350602Y-44043888D01*
X48350602Y-44025466D01*
X48351565Y-44005860D01*
X48356375Y-43957029D01*
X48359254Y-43937620D01*
X48368826Y-43889495D01*
X48373596Y-43870452D01*
X48387840Y-43823497D01*
X48394451Y-43805020D01*
X48413228Y-43759687D01*
X48421623Y-43741939D01*
X48444754Y-43698666D01*
X48454840Y-43681838D01*
X48482100Y-43641039D01*
X48493795Y-43625270D01*
X48524923Y-43587341D01*
X48538103Y-43572800D01*
X48572800Y-43538103D01*
X48587341Y-43524923D01*
X48625270Y-43493795D01*
X48641039Y-43482100D01*
X48681838Y-43454840D01*
X48698666Y-43444754D01*
X48741939Y-43421623D01*
X48759687Y-43413228D01*
X48805020Y-43394451D01*
X48823497Y-43387840D01*
X48870452Y-43373596D01*
X48889495Y-43368826D01*
X48937620Y-43359254D01*
X48957029Y-43356375D01*
X49005860Y-43351565D01*
X49025466Y-43350602D01*
X49043888Y-43350602D01*
X49050000Y-43350000D01*
X49550000Y-43350000D01*
X49589018Y-43353843D01*
X49589018Y-43353843D01*
G37*
D22*
X50350000Y-44300000D03*
D17*
G36*
X50356112Y-43350602D02*
X50374534Y-43350602D01*
X50394140Y-43351565D01*
X50442971Y-43356375D01*
X50462380Y-43359254D01*
X50510505Y-43368826D01*
X50529548Y-43373596D01*
X50576503Y-43387840D01*
X50594980Y-43394451D01*
X50640313Y-43413228D01*
X50658061Y-43421623D01*
X50701334Y-43444754D01*
X50718162Y-43454840D01*
X50758961Y-43482100D01*
X50774730Y-43493795D01*
X50812659Y-43524923D01*
X50827200Y-43538103D01*
X50861897Y-43572800D01*
X50875077Y-43587341D01*
X50906205Y-43625270D01*
X50917900Y-43641039D01*
X50945160Y-43681838D01*
X50955246Y-43698666D01*
X50978377Y-43741939D01*
X50986772Y-43759687D01*
X51005549Y-43805020D01*
X51012160Y-43823497D01*
X51026404Y-43870452D01*
X51031174Y-43889495D01*
X51040746Y-43937620D01*
X51043625Y-43957029D01*
X51048435Y-44005860D01*
X51049398Y-44025466D01*
X51049398Y-44043888D01*
X51050000Y-44050000D01*
X51050000Y-44550000D01*
X51049398Y-44556112D01*
X51049398Y-44574534D01*
X51048435Y-44594140D01*
X51043625Y-44642971D01*
X51040746Y-44662380D01*
X51031174Y-44710505D01*
X51026404Y-44729548D01*
X51012160Y-44776503D01*
X51005549Y-44794980D01*
X50986772Y-44840313D01*
X50978377Y-44858061D01*
X50955246Y-44901334D01*
X50945160Y-44918162D01*
X50917900Y-44958961D01*
X50906205Y-44974730D01*
X50875077Y-45012659D01*
X50861897Y-45027200D01*
X50827200Y-45061897D01*
X50812659Y-45075077D01*
X50774730Y-45106205D01*
X50758961Y-45117900D01*
X50718162Y-45145160D01*
X50701334Y-45155246D01*
X50658061Y-45178377D01*
X50640313Y-45186772D01*
X50594980Y-45205549D01*
X50576503Y-45212160D01*
X50529548Y-45226404D01*
X50510505Y-45231174D01*
X50462380Y-45240746D01*
X50442971Y-45243625D01*
X50394140Y-45248435D01*
X50374534Y-45249398D01*
X50356112Y-45249398D01*
X50350000Y-45250000D01*
X49850000Y-45250000D01*
X49810982Y-45246157D01*
X49773463Y-45234776D01*
X49738886Y-45216294D01*
X49708579Y-45191421D01*
X49683706Y-45161114D01*
X49665224Y-45126537D01*
X49653843Y-45089018D01*
X49650000Y-45050000D01*
X49650000Y-43550000D01*
X49653843Y-43510982D01*
X49665224Y-43473463D01*
X49683706Y-43438886D01*
X49708579Y-43408579D01*
X49738886Y-43383706D01*
X49773463Y-43365224D01*
X49810982Y-43353843D01*
X49850000Y-43350000D01*
X50350000Y-43350000D01*
X50356112Y-43350602D01*
X50356112Y-43350602D01*
G37*
G04 #@! TD*
D23*
G04 #@! TO.C,D1*
X31750000Y-30150000D03*
X30250000Y-30150000D03*
X30250000Y-31250000D03*
X31750000Y-31250000D03*
G04 #@! TD*
M02*
