G04 #@! TF.GenerationSoftware,KiCad,Pcbnew,(5.0.0)*
G04 #@! TF.CreationDate,2019-02-26T00:55:46+01:00*
G04 #@! TF.ProjectId,OpenThermalCamera,4F70656E546865726D616C43616D6572,rev?*
G04 #@! TF.SameCoordinates,Original*
G04 #@! TF.FileFunction,Legend,Top*
G04 #@! TF.FilePolarity,Positive*
%FSLAX46Y46*%
G04 Gerber Fmt 4.6, Leading zero omitted, Abs format (unit mm)*
G04 Created by KiCad (PCBNEW (5.0.0)) date 02/26/19 00:55:46*
%MOMM*%
%LPD*%
G01*
G04 APERTURE LIST*
%ADD10C,0.300000*%
%ADD11C,0.120000*%
%ADD12C,0.010000*%
%ADD13C,0.150000*%
G04 APERTURE END LIST*
D10*
X29735714Y-28203571D02*
X30021428Y-28203571D01*
X30164285Y-28275000D01*
X30307142Y-28417857D01*
X30378571Y-28703571D01*
X30378571Y-29203571D01*
X30307142Y-29489285D01*
X30164285Y-29632142D01*
X30021428Y-29703571D01*
X29735714Y-29703571D01*
X29592857Y-29632142D01*
X29450000Y-29489285D01*
X29378571Y-29203571D01*
X29378571Y-28703571D01*
X29450000Y-28417857D01*
X29592857Y-28275000D01*
X29735714Y-28203571D01*
X30807142Y-28203571D02*
X31664285Y-28203571D01*
X31235714Y-29703571D02*
X31235714Y-28203571D01*
X33021428Y-29560714D02*
X32950000Y-29632142D01*
X32735714Y-29703571D01*
X32592857Y-29703571D01*
X32378571Y-29632142D01*
X32235714Y-29489285D01*
X32164285Y-29346428D01*
X32092857Y-29060714D01*
X32092857Y-28846428D01*
X32164285Y-28560714D01*
X32235714Y-28417857D01*
X32378571Y-28275000D01*
X32592857Y-28203571D01*
X32735714Y-28203571D01*
X32950000Y-28275000D01*
X33021428Y-28346428D01*
X29735714Y-32253571D02*
X29235714Y-31539285D01*
X28878571Y-32253571D02*
X28878571Y-30753571D01*
X29450000Y-30753571D01*
X29592857Y-30825000D01*
X29664285Y-30896428D01*
X29735714Y-31039285D01*
X29735714Y-31253571D01*
X29664285Y-31396428D01*
X29592857Y-31467857D01*
X29450000Y-31539285D01*
X28878571Y-31539285D01*
X30950000Y-32182142D02*
X30807142Y-32253571D01*
X30521428Y-32253571D01*
X30378571Y-32182142D01*
X30307142Y-32039285D01*
X30307142Y-31467857D01*
X30378571Y-31325000D01*
X30521428Y-31253571D01*
X30807142Y-31253571D01*
X30950000Y-31325000D01*
X31021428Y-31467857D01*
X31021428Y-31610714D01*
X30307142Y-31753571D01*
X31521428Y-31253571D02*
X31878571Y-32253571D01*
X32235714Y-31253571D01*
X32664285Y-30753571D02*
X33592857Y-30753571D01*
X33092857Y-31325000D01*
X33307142Y-31325000D01*
X33450000Y-31396428D01*
X33521428Y-31467857D01*
X33592857Y-31610714D01*
X33592857Y-31967857D01*
X33521428Y-32110714D01*
X33450000Y-32182142D01*
X33307142Y-32253571D01*
X32878571Y-32253571D01*
X32735714Y-32182142D01*
X32664285Y-32110714D01*
D11*
G04 #@! TO.C,U1*
X44892508Y-36146415D02*
G75*
G03X44892466Y-37246052I-4788559J-549636D01*
G01*
X46152466Y-36146052D02*
X44892466Y-36146051D01*
X46152466Y-37246051D02*
X46152466Y-36146052D01*
X44892466Y-37246052D02*
X46152466Y-37246051D01*
G04 #@! TO.C,C6*
X52010000Y-43961252D02*
X52010000Y-43438748D01*
X50590000Y-43961252D02*
X50590000Y-43438748D01*
G04 #@! TO.C,C3*
X47061252Y-39490000D02*
X46538748Y-39490000D01*
X47061252Y-40910000D02*
X46538748Y-40910000D01*
G04 #@! TO.C,C2*
X45110000Y-43961252D02*
X45110000Y-43438748D01*
X43690000Y-43961252D02*
X43690000Y-43438748D01*
G04 #@! TO.C,C1*
X48690000Y-43961252D02*
X48690000Y-43438748D01*
X50110000Y-43961252D02*
X50110000Y-43438748D01*
G04 #@! TO.C,U2*
X45190000Y-42700000D02*
X45190000Y-44500000D01*
X48410000Y-44500000D02*
X48410000Y-42050000D01*
G04 #@! TO.C,U4*
X45090000Y-32650000D02*
X45090000Y-34550000D01*
X47410000Y-34050000D02*
X47410000Y-32650000D01*
G04 #@! TO.C,R5*
X36438748Y-44610000D02*
X36961252Y-44610000D01*
X36438748Y-43190000D02*
X36961252Y-43190000D01*
G04 #@! TO.C,R6*
X36961252Y-42710000D02*
X36438748Y-42710000D01*
X36961252Y-41290000D02*
X36438748Y-41290000D01*
D12*
G04 #@! TO.C,G1*
G36*
X28799744Y-45319918D02*
X28855201Y-45347568D01*
X28904148Y-45398480D01*
X28917629Y-45417338D01*
X28932314Y-45442015D01*
X28941842Y-45468816D01*
X28947293Y-45504587D01*
X28949747Y-45556169D01*
X28950286Y-45624267D01*
X28947852Y-45717588D01*
X28939394Y-45787657D01*
X28923174Y-45839931D01*
X28897454Y-45879869D01*
X28860497Y-45912929D01*
X28857782Y-45914886D01*
X28821360Y-45934908D01*
X28777502Y-45944815D01*
X28721724Y-45947257D01*
X28631048Y-45947257D01*
X28631010Y-46035283D01*
X28630166Y-46084308D01*
X28625024Y-46113065D01*
X28611587Y-46130311D01*
X28585858Y-46144808D01*
X28579679Y-46147769D01*
X28550764Y-46161648D01*
X28528376Y-46170414D01*
X28511729Y-46171171D01*
X28500036Y-46161023D01*
X28492510Y-46137073D01*
X28488366Y-46096426D01*
X28486815Y-46036186D01*
X28487071Y-45953455D01*
X28488349Y-45845339D01*
X28488748Y-45813000D01*
X28490185Y-45701524D01*
X28491472Y-45628603D01*
X28630971Y-45628603D01*
X28631755Y-45690499D01*
X28635240Y-45730997D01*
X28643124Y-45757708D01*
X28657105Y-45778244D01*
X28666597Y-45788260D01*
X28705404Y-45817567D01*
X28739763Y-45819952D01*
X28775216Y-45795750D01*
X28776114Y-45794857D01*
X28790539Y-45776153D01*
X28799313Y-45750732D01*
X28803739Y-45711584D01*
X28805118Y-45651697D01*
X28805143Y-45638430D01*
X28801812Y-45555901D01*
X28790969Y-45498691D01*
X28771340Y-45463766D01*
X28741650Y-45448094D01*
X28724491Y-45446514D01*
X28683766Y-45453926D01*
X28655832Y-45478330D01*
X28639017Y-45522980D01*
X28631650Y-45591130D01*
X28630971Y-45628603D01*
X28491472Y-45628603D01*
X28491708Y-45615245D01*
X28493677Y-45550333D01*
X28496450Y-45502958D01*
X28500388Y-45469290D01*
X28505849Y-45445498D01*
X28513192Y-45427753D01*
X28522777Y-45412224D01*
X28526887Y-45406381D01*
X28581405Y-45351185D01*
X28650336Y-45319890D01*
X28730072Y-45311165D01*
X28799744Y-45319918D01*
X28799744Y-45319918D01*
G37*
X28799744Y-45319918D02*
X28855201Y-45347568D01*
X28904148Y-45398480D01*
X28917629Y-45417338D01*
X28932314Y-45442015D01*
X28941842Y-45468816D01*
X28947293Y-45504587D01*
X28949747Y-45556169D01*
X28950286Y-45624267D01*
X28947852Y-45717588D01*
X28939394Y-45787657D01*
X28923174Y-45839931D01*
X28897454Y-45879869D01*
X28860497Y-45912929D01*
X28857782Y-45914886D01*
X28821360Y-45934908D01*
X28777502Y-45944815D01*
X28721724Y-45947257D01*
X28631048Y-45947257D01*
X28631010Y-46035283D01*
X28630166Y-46084308D01*
X28625024Y-46113065D01*
X28611587Y-46130311D01*
X28585858Y-46144808D01*
X28579679Y-46147769D01*
X28550764Y-46161648D01*
X28528376Y-46170414D01*
X28511729Y-46171171D01*
X28500036Y-46161023D01*
X28492510Y-46137073D01*
X28488366Y-46096426D01*
X28486815Y-46036186D01*
X28487071Y-45953455D01*
X28488349Y-45845339D01*
X28488748Y-45813000D01*
X28490185Y-45701524D01*
X28491472Y-45628603D01*
X28630971Y-45628603D01*
X28631755Y-45690499D01*
X28635240Y-45730997D01*
X28643124Y-45757708D01*
X28657105Y-45778244D01*
X28666597Y-45788260D01*
X28705404Y-45817567D01*
X28739763Y-45819952D01*
X28775216Y-45795750D01*
X28776114Y-45794857D01*
X28790539Y-45776153D01*
X28799313Y-45750732D01*
X28803739Y-45711584D01*
X28805118Y-45651697D01*
X28805143Y-45638430D01*
X28801812Y-45555901D01*
X28790969Y-45498691D01*
X28771340Y-45463766D01*
X28741650Y-45448094D01*
X28724491Y-45446514D01*
X28683766Y-45453926D01*
X28655832Y-45478330D01*
X28639017Y-45522980D01*
X28631650Y-45591130D01*
X28630971Y-45628603D01*
X28491472Y-45628603D01*
X28491708Y-45615245D01*
X28493677Y-45550333D01*
X28496450Y-45502958D01*
X28500388Y-45469290D01*
X28505849Y-45445498D01*
X28513192Y-45427753D01*
X28522777Y-45412224D01*
X28526887Y-45406381D01*
X28581405Y-45351185D01*
X28650336Y-45319890D01*
X28730072Y-45311165D01*
X28799744Y-45319918D01*
G36*
X29916093Y-45327780D02*
X29962672Y-45354723D01*
X29995057Y-45381466D01*
X30018742Y-45409484D01*
X30035059Y-45443748D01*
X30045339Y-45489227D01*
X30050914Y-45550892D01*
X30053116Y-45633711D01*
X30053371Y-45693246D01*
X30053371Y-45912391D01*
X29991686Y-45940044D01*
X29930000Y-45967697D01*
X29922743Y-45727670D01*
X29919744Y-45638028D01*
X29916598Y-45572962D01*
X29912701Y-45528026D01*
X29907447Y-45498770D01*
X29900231Y-45480748D01*
X29890450Y-45469511D01*
X29887312Y-45467079D01*
X29839761Y-45448083D01*
X29791697Y-45455600D01*
X29763086Y-45475543D01*
X29751447Y-45489675D01*
X29743391Y-45508220D01*
X29738271Y-45536334D01*
X29735441Y-45579173D01*
X29734256Y-45641895D01*
X29734057Y-45707261D01*
X29734018Y-45789268D01*
X29732614Y-45847316D01*
X29727914Y-45886465D01*
X29717987Y-45911780D01*
X29700903Y-45928323D01*
X29674732Y-45941156D01*
X29639775Y-45954491D01*
X29601596Y-45969007D01*
X29606141Y-45711389D01*
X29607971Y-45618519D01*
X29610112Y-45549889D01*
X29613181Y-45500711D01*
X29617794Y-45466198D01*
X29624568Y-45441562D01*
X29634119Y-45422016D01*
X29645634Y-45404770D01*
X29701190Y-45349680D01*
X29768980Y-45317822D01*
X29842713Y-45310191D01*
X29916093Y-45327780D01*
X29916093Y-45327780D01*
G37*
X29916093Y-45327780D02*
X29962672Y-45354723D01*
X29995057Y-45381466D01*
X30018742Y-45409484D01*
X30035059Y-45443748D01*
X30045339Y-45489227D01*
X30050914Y-45550892D01*
X30053116Y-45633711D01*
X30053371Y-45693246D01*
X30053371Y-45912391D01*
X29991686Y-45940044D01*
X29930000Y-45967697D01*
X29922743Y-45727670D01*
X29919744Y-45638028D01*
X29916598Y-45572962D01*
X29912701Y-45528026D01*
X29907447Y-45498770D01*
X29900231Y-45480748D01*
X29890450Y-45469511D01*
X29887312Y-45467079D01*
X29839761Y-45448083D01*
X29791697Y-45455600D01*
X29763086Y-45475543D01*
X29751447Y-45489675D01*
X29743391Y-45508220D01*
X29738271Y-45536334D01*
X29735441Y-45579173D01*
X29734256Y-45641895D01*
X29734057Y-45707261D01*
X29734018Y-45789268D01*
X29732614Y-45847316D01*
X29727914Y-45886465D01*
X29717987Y-45911780D01*
X29700903Y-45928323D01*
X29674732Y-45941156D01*
X29639775Y-45954491D01*
X29601596Y-45969007D01*
X29606141Y-45711389D01*
X29607971Y-45618519D01*
X29610112Y-45549889D01*
X29613181Y-45500711D01*
X29617794Y-45466198D01*
X29624568Y-45441562D01*
X29634119Y-45422016D01*
X29645634Y-45404770D01*
X29701190Y-45349680D01*
X29768980Y-45317822D01*
X29842713Y-45310191D01*
X29916093Y-45327780D01*
G36*
X28241115Y-45321962D02*
X28309145Y-45357733D01*
X28359351Y-45415301D01*
X28377185Y-45452312D01*
X28391063Y-45507882D01*
X28398167Y-45578096D01*
X28398840Y-45654727D01*
X28393427Y-45729552D01*
X28382270Y-45794342D01*
X28365714Y-45840873D01*
X28360626Y-45848887D01*
X28300355Y-45908707D01*
X28228769Y-45944535D01*
X28151092Y-45955020D01*
X28072548Y-45938810D01*
X28050689Y-45929092D01*
X28008122Y-45899143D01*
X27970763Y-45859433D01*
X27967232Y-45854397D01*
X27952881Y-45830124D01*
X27943394Y-45804178D01*
X27937790Y-45770022D01*
X27935086Y-45721119D01*
X27934299Y-45650935D01*
X27934286Y-45635200D01*
X27934322Y-45630192D01*
X28079429Y-45630192D01*
X28080273Y-45696430D01*
X28083596Y-45740386D01*
X28090583Y-45768779D01*
X28102416Y-45788325D01*
X28108457Y-45794857D01*
X28143186Y-45819680D01*
X28176903Y-45818548D01*
X28210995Y-45797016D01*
X28231329Y-45774029D01*
X28243371Y-45740478D01*
X28250134Y-45687569D01*
X28250598Y-45681399D01*
X28251752Y-45585513D01*
X28239688Y-45514299D01*
X28214570Y-45468194D01*
X28176560Y-45447635D01*
X28162992Y-45446514D01*
X28127364Y-45452152D01*
X28102994Y-45471686D01*
X28088093Y-45509042D01*
X28080875Y-45568150D01*
X28079429Y-45630192D01*
X27934322Y-45630192D01*
X27934826Y-45560413D01*
X27937096Y-45508159D01*
X27942068Y-45471949D01*
X27950713Y-45445299D01*
X27964005Y-45421722D01*
X27966943Y-45417338D01*
X28016313Y-45358249D01*
X28070109Y-45323947D01*
X28135602Y-45310331D01*
X28157842Y-45309665D01*
X28241115Y-45321962D01*
X28241115Y-45321962D01*
G37*
X28241115Y-45321962D02*
X28309145Y-45357733D01*
X28359351Y-45415301D01*
X28377185Y-45452312D01*
X28391063Y-45507882D01*
X28398167Y-45578096D01*
X28398840Y-45654727D01*
X28393427Y-45729552D01*
X28382270Y-45794342D01*
X28365714Y-45840873D01*
X28360626Y-45848887D01*
X28300355Y-45908707D01*
X28228769Y-45944535D01*
X28151092Y-45955020D01*
X28072548Y-45938810D01*
X28050689Y-45929092D01*
X28008122Y-45899143D01*
X27970763Y-45859433D01*
X27967232Y-45854397D01*
X27952881Y-45830124D01*
X27943394Y-45804178D01*
X27937790Y-45770022D01*
X27935086Y-45721119D01*
X27934299Y-45650935D01*
X27934286Y-45635200D01*
X27934322Y-45630192D01*
X28079429Y-45630192D01*
X28080273Y-45696430D01*
X28083596Y-45740386D01*
X28090583Y-45768779D01*
X28102416Y-45788325D01*
X28108457Y-45794857D01*
X28143186Y-45819680D01*
X28176903Y-45818548D01*
X28210995Y-45797016D01*
X28231329Y-45774029D01*
X28243371Y-45740478D01*
X28250134Y-45687569D01*
X28250598Y-45681399D01*
X28251752Y-45585513D01*
X28239688Y-45514299D01*
X28214570Y-45468194D01*
X28176560Y-45447635D01*
X28162992Y-45446514D01*
X28127364Y-45452152D01*
X28102994Y-45471686D01*
X28088093Y-45509042D01*
X28080875Y-45568150D01*
X28079429Y-45630192D01*
X27934322Y-45630192D01*
X27934826Y-45560413D01*
X27937096Y-45508159D01*
X27942068Y-45471949D01*
X27950713Y-45445299D01*
X27964005Y-45421722D01*
X27966943Y-45417338D01*
X28016313Y-45358249D01*
X28070109Y-45323947D01*
X28135602Y-45310331D01*
X28157842Y-45309665D01*
X28241115Y-45321962D01*
G36*
X29368303Y-45331239D02*
X29425527Y-45369735D01*
X29469749Y-45425335D01*
X29496167Y-45496086D01*
X29501510Y-45548162D01*
X29500903Y-45569893D01*
X29495822Y-45586531D01*
X29481855Y-45601437D01*
X29454589Y-45617973D01*
X29409612Y-45639498D01*
X29342511Y-45669374D01*
X29342171Y-45669524D01*
X29280407Y-45697813D01*
X29229759Y-45722933D01*
X29195404Y-45742179D01*
X29182518Y-45752848D01*
X29182514Y-45752934D01*
X29193872Y-45776166D01*
X29220431Y-45801774D01*
X29250923Y-45820221D01*
X29266370Y-45823886D01*
X29308515Y-45811212D01*
X29344808Y-45779471D01*
X29362517Y-45744572D01*
X29379552Y-45718845D01*
X29412922Y-45689546D01*
X29452149Y-45664235D01*
X29486756Y-45650471D01*
X29493993Y-45649714D01*
X29502139Y-45662160D01*
X29502630Y-45693972D01*
X29496643Y-45736866D01*
X29485357Y-45782558D01*
X29469950Y-45822761D01*
X29469171Y-45824322D01*
X29422804Y-45889062D01*
X29362711Y-45933097D01*
X29294465Y-45954711D01*
X29223638Y-45952185D01*
X29155804Y-45923804D01*
X29152788Y-45921808D01*
X29099427Y-45873448D01*
X29064340Y-45810352D01*
X29044922Y-45727387D01*
X29042316Y-45704078D01*
X29037701Y-45594055D01*
X29043233Y-45542748D01*
X29182514Y-45542748D01*
X29184324Y-45574753D01*
X29194222Y-45584093D01*
X29218898Y-45577105D01*
X29257795Y-45560587D01*
X29301275Y-45539881D01*
X29302356Y-45539333D01*
X29339209Y-45519949D01*
X29354000Y-45507013D01*
X29350353Y-45493451D01*
X29334995Y-45475632D01*
X29295923Y-45449845D01*
X29253846Y-45447950D01*
X29216103Y-45466717D01*
X29190034Y-45502915D01*
X29182514Y-45542748D01*
X29043233Y-45542748D01*
X29047194Y-45506027D01*
X29071550Y-45436212D01*
X29105456Y-45387302D01*
X29166653Y-45337878D01*
X29234063Y-45313359D01*
X29302880Y-45311797D01*
X29368303Y-45331239D01*
X29368303Y-45331239D01*
G37*
X29368303Y-45331239D02*
X29425527Y-45369735D01*
X29469749Y-45425335D01*
X29496167Y-45496086D01*
X29501510Y-45548162D01*
X29500903Y-45569893D01*
X29495822Y-45586531D01*
X29481855Y-45601437D01*
X29454589Y-45617973D01*
X29409612Y-45639498D01*
X29342511Y-45669374D01*
X29342171Y-45669524D01*
X29280407Y-45697813D01*
X29229759Y-45722933D01*
X29195404Y-45742179D01*
X29182518Y-45752848D01*
X29182514Y-45752934D01*
X29193872Y-45776166D01*
X29220431Y-45801774D01*
X29250923Y-45820221D01*
X29266370Y-45823886D01*
X29308515Y-45811212D01*
X29344808Y-45779471D01*
X29362517Y-45744572D01*
X29379552Y-45718845D01*
X29412922Y-45689546D01*
X29452149Y-45664235D01*
X29486756Y-45650471D01*
X29493993Y-45649714D01*
X29502139Y-45662160D01*
X29502630Y-45693972D01*
X29496643Y-45736866D01*
X29485357Y-45782558D01*
X29469950Y-45822761D01*
X29469171Y-45824322D01*
X29422804Y-45889062D01*
X29362711Y-45933097D01*
X29294465Y-45954711D01*
X29223638Y-45952185D01*
X29155804Y-45923804D01*
X29152788Y-45921808D01*
X29099427Y-45873448D01*
X29064340Y-45810352D01*
X29044922Y-45727387D01*
X29042316Y-45704078D01*
X29037701Y-45594055D01*
X29043233Y-45542748D01*
X29182514Y-45542748D01*
X29184324Y-45574753D01*
X29194222Y-45584093D01*
X29218898Y-45577105D01*
X29257795Y-45560587D01*
X29301275Y-45539881D01*
X29302356Y-45539333D01*
X29339209Y-45519949D01*
X29354000Y-45507013D01*
X29350353Y-45493451D01*
X29334995Y-45475632D01*
X29295923Y-45449845D01*
X29253846Y-45447950D01*
X29216103Y-45466717D01*
X29190034Y-45502915D01*
X29182514Y-45542748D01*
X29043233Y-45542748D01*
X29047194Y-45506027D01*
X29071550Y-45436212D01*
X29105456Y-45387302D01*
X29166653Y-45337878D01*
X29234063Y-45313359D01*
X29302880Y-45311797D01*
X29368303Y-45331239D01*
G36*
X30575886Y-45251289D02*
X30580139Y-45310613D01*
X30585025Y-45345572D01*
X30591795Y-45360820D01*
X30601702Y-45361015D01*
X30604914Y-45359195D01*
X30647644Y-45346015D01*
X30703227Y-45346785D01*
X30759737Y-45360333D01*
X30795082Y-45377861D01*
X30831321Y-45405861D01*
X30857813Y-45437549D01*
X30875999Y-45477813D01*
X30887322Y-45531543D01*
X30893222Y-45603626D01*
X30895143Y-45698951D01*
X30895177Y-45717237D01*
X30895200Y-45922646D01*
X30849491Y-45938580D01*
X30817027Y-45949420D01*
X30799215Y-45954468D01*
X30798691Y-45954514D01*
X30796937Y-45940828D01*
X30795444Y-45903076D01*
X30794326Y-45846224D01*
X30793697Y-45775234D01*
X30793600Y-45732073D01*
X30793398Y-45646973D01*
X30792358Y-45585981D01*
X30789831Y-45544177D01*
X30785164Y-45516642D01*
X30777707Y-45498456D01*
X30766811Y-45484698D01*
X30760007Y-45478073D01*
X30713272Y-45451375D01*
X30662272Y-45449375D01*
X30616001Y-45471955D01*
X30607444Y-45480107D01*
X30594893Y-45495436D01*
X30586188Y-45513618D01*
X30580631Y-45539909D01*
X30577526Y-45579562D01*
X30576176Y-45637832D01*
X30575886Y-45718173D01*
X30575886Y-45922646D01*
X30530177Y-45938580D01*
X30497713Y-45949420D01*
X30479901Y-45954468D01*
X30479377Y-45954514D01*
X30478037Y-45940623D01*
X30476828Y-45901439D01*
X30475801Y-45840700D01*
X30475002Y-45762141D01*
X30474481Y-45669498D01*
X30474286Y-45566509D01*
X30474286Y-45169342D01*
X30521457Y-45149444D01*
X30568629Y-45129547D01*
X30575886Y-45251289D01*
X30575886Y-45251289D01*
G37*
X30575886Y-45251289D02*
X30580139Y-45310613D01*
X30585025Y-45345572D01*
X30591795Y-45360820D01*
X30601702Y-45361015D01*
X30604914Y-45359195D01*
X30647644Y-45346015D01*
X30703227Y-45346785D01*
X30759737Y-45360333D01*
X30795082Y-45377861D01*
X30831321Y-45405861D01*
X30857813Y-45437549D01*
X30875999Y-45477813D01*
X30887322Y-45531543D01*
X30893222Y-45603626D01*
X30895143Y-45698951D01*
X30895177Y-45717237D01*
X30895200Y-45922646D01*
X30849491Y-45938580D01*
X30817027Y-45949420D01*
X30799215Y-45954468D01*
X30798691Y-45954514D01*
X30796937Y-45940828D01*
X30795444Y-45903076D01*
X30794326Y-45846224D01*
X30793697Y-45775234D01*
X30793600Y-45732073D01*
X30793398Y-45646973D01*
X30792358Y-45585981D01*
X30789831Y-45544177D01*
X30785164Y-45516642D01*
X30777707Y-45498456D01*
X30766811Y-45484698D01*
X30760007Y-45478073D01*
X30713272Y-45451375D01*
X30662272Y-45449375D01*
X30616001Y-45471955D01*
X30607444Y-45480107D01*
X30594893Y-45495436D01*
X30586188Y-45513618D01*
X30580631Y-45539909D01*
X30577526Y-45579562D01*
X30576176Y-45637832D01*
X30575886Y-45718173D01*
X30575886Y-45922646D01*
X30530177Y-45938580D01*
X30497713Y-45949420D01*
X30479901Y-45954468D01*
X30479377Y-45954514D01*
X30478037Y-45940623D01*
X30476828Y-45901439D01*
X30475801Y-45840700D01*
X30475002Y-45762141D01*
X30474481Y-45669498D01*
X30474286Y-45566509D01*
X30474286Y-45169342D01*
X30521457Y-45149444D01*
X30568629Y-45129547D01*
X30575886Y-45251289D01*
G36*
X31239744Y-45350968D02*
X31296616Y-45372087D01*
X31297267Y-45372493D01*
X31332440Y-45398380D01*
X31358407Y-45428633D01*
X31376670Y-45468058D01*
X31388732Y-45521462D01*
X31396096Y-45593651D01*
X31400264Y-45689432D01*
X31400629Y-45703078D01*
X31405876Y-45908842D01*
X31361716Y-45931678D01*
X31329763Y-45947110D01*
X31310470Y-45954423D01*
X31309578Y-45954514D01*
X31306239Y-45941022D01*
X31303587Y-45904626D01*
X31301956Y-45851452D01*
X31301600Y-45808393D01*
X31301592Y-45738641D01*
X31298403Y-45694837D01*
X31287288Y-45673944D01*
X31263501Y-45672925D01*
X31222296Y-45688741D01*
X31160086Y-45717815D01*
X31114341Y-45741963D01*
X31090813Y-45762913D01*
X31083896Y-45785747D01*
X31083886Y-45786877D01*
X31095299Y-45826212D01*
X31129092Y-45847462D01*
X31180809Y-45850539D01*
X31218061Y-45850006D01*
X31237703Y-45860735D01*
X31249952Y-45886505D01*
X31257002Y-45919337D01*
X31246842Y-45937966D01*
X31243017Y-45940632D01*
X31207001Y-45951340D01*
X31156566Y-45952856D01*
X31104626Y-45945759D01*
X31067822Y-45932788D01*
X31016938Y-45889585D01*
X30988014Y-45829446D01*
X30982286Y-45782462D01*
X30986657Y-45740082D01*
X31002475Y-45705488D01*
X31033797Y-45674763D01*
X31084678Y-45643990D01*
X31159176Y-45609252D01*
X31163714Y-45607288D01*
X31230821Y-45576287D01*
X31272232Y-45550862D01*
X31289981Y-45528014D01*
X31286107Y-45504745D01*
X31262643Y-45478056D01*
X31255627Y-45471914D01*
X31208630Y-45448100D01*
X31159933Y-45449103D01*
X31117522Y-45472451D01*
X31089384Y-45515675D01*
X31086769Y-45524160D01*
X31061308Y-45565308D01*
X31029001Y-45585128D01*
X30982286Y-45604770D01*
X30982286Y-45553950D01*
X30996496Y-45480082D01*
X31038675Y-45412327D01*
X31060624Y-45389661D01*
X31110517Y-45360569D01*
X31173967Y-45347400D01*
X31239744Y-45350968D01*
X31239744Y-45350968D01*
G37*
X31239744Y-45350968D02*
X31296616Y-45372087D01*
X31297267Y-45372493D01*
X31332440Y-45398380D01*
X31358407Y-45428633D01*
X31376670Y-45468058D01*
X31388732Y-45521462D01*
X31396096Y-45593651D01*
X31400264Y-45689432D01*
X31400629Y-45703078D01*
X31405876Y-45908842D01*
X31361716Y-45931678D01*
X31329763Y-45947110D01*
X31310470Y-45954423D01*
X31309578Y-45954514D01*
X31306239Y-45941022D01*
X31303587Y-45904626D01*
X31301956Y-45851452D01*
X31301600Y-45808393D01*
X31301592Y-45738641D01*
X31298403Y-45694837D01*
X31287288Y-45673944D01*
X31263501Y-45672925D01*
X31222296Y-45688741D01*
X31160086Y-45717815D01*
X31114341Y-45741963D01*
X31090813Y-45762913D01*
X31083896Y-45785747D01*
X31083886Y-45786877D01*
X31095299Y-45826212D01*
X31129092Y-45847462D01*
X31180809Y-45850539D01*
X31218061Y-45850006D01*
X31237703Y-45860735D01*
X31249952Y-45886505D01*
X31257002Y-45919337D01*
X31246842Y-45937966D01*
X31243017Y-45940632D01*
X31207001Y-45951340D01*
X31156566Y-45952856D01*
X31104626Y-45945759D01*
X31067822Y-45932788D01*
X31016938Y-45889585D01*
X30988014Y-45829446D01*
X30982286Y-45782462D01*
X30986657Y-45740082D01*
X31002475Y-45705488D01*
X31033797Y-45674763D01*
X31084678Y-45643990D01*
X31159176Y-45609252D01*
X31163714Y-45607288D01*
X31230821Y-45576287D01*
X31272232Y-45550862D01*
X31289981Y-45528014D01*
X31286107Y-45504745D01*
X31262643Y-45478056D01*
X31255627Y-45471914D01*
X31208630Y-45448100D01*
X31159933Y-45449103D01*
X31117522Y-45472451D01*
X31089384Y-45515675D01*
X31086769Y-45524160D01*
X31061308Y-45565308D01*
X31029001Y-45585128D01*
X30982286Y-45604770D01*
X30982286Y-45553950D01*
X30996496Y-45480082D01*
X31038675Y-45412327D01*
X31060624Y-45389661D01*
X31110517Y-45360569D01*
X31173967Y-45347400D01*
X31239744Y-45350968D01*
G36*
X31729926Y-45349755D02*
X31795858Y-45374084D01*
X31849273Y-45417117D01*
X31870164Y-45447409D01*
X31892939Y-45502994D01*
X31892466Y-45543186D01*
X31868562Y-45570217D01*
X31859717Y-45574813D01*
X31821530Y-45589144D01*
X31802028Y-45585472D01*
X31795422Y-45561407D01*
X31795086Y-45548114D01*
X31782992Y-45499210D01*
X31751471Y-45464999D01*
X31707659Y-45448476D01*
X31658695Y-45452634D01*
X31618894Y-45474227D01*
X31605450Y-45486544D01*
X31595921Y-45501487D01*
X31589485Y-45524075D01*
X31585317Y-45559328D01*
X31582597Y-45612266D01*
X31580502Y-45687907D01*
X31579960Y-45711857D01*
X31577981Y-45793790D01*
X31575731Y-45851455D01*
X31572357Y-45889608D01*
X31567006Y-45913004D01*
X31558824Y-45926398D01*
X31546959Y-45934545D01*
X31539362Y-45938144D01*
X31507102Y-45950452D01*
X31488111Y-45954514D01*
X31481836Y-45940948D01*
X31478006Y-45899934D01*
X31476600Y-45830999D01*
X31477598Y-45733669D01*
X31477908Y-45718657D01*
X31480101Y-45629859D01*
X31482693Y-45565019D01*
X31486382Y-45519067D01*
X31491864Y-45486935D01*
X31499835Y-45463553D01*
X31510993Y-45443852D01*
X31516830Y-45435410D01*
X31550296Y-45398057D01*
X31587727Y-45369003D01*
X31592309Y-45366467D01*
X31659426Y-45346443D01*
X31729926Y-45349755D01*
X31729926Y-45349755D01*
G37*
X31729926Y-45349755D02*
X31795858Y-45374084D01*
X31849273Y-45417117D01*
X31870164Y-45447409D01*
X31892939Y-45502994D01*
X31892466Y-45543186D01*
X31868562Y-45570217D01*
X31859717Y-45574813D01*
X31821530Y-45589144D01*
X31802028Y-45585472D01*
X31795422Y-45561407D01*
X31795086Y-45548114D01*
X31782992Y-45499210D01*
X31751471Y-45464999D01*
X31707659Y-45448476D01*
X31658695Y-45452634D01*
X31618894Y-45474227D01*
X31605450Y-45486544D01*
X31595921Y-45501487D01*
X31589485Y-45524075D01*
X31585317Y-45559328D01*
X31582597Y-45612266D01*
X31580502Y-45687907D01*
X31579960Y-45711857D01*
X31577981Y-45793790D01*
X31575731Y-45851455D01*
X31572357Y-45889608D01*
X31567006Y-45913004D01*
X31558824Y-45926398D01*
X31546959Y-45934545D01*
X31539362Y-45938144D01*
X31507102Y-45950452D01*
X31488111Y-45954514D01*
X31481836Y-45940948D01*
X31478006Y-45899934D01*
X31476600Y-45830999D01*
X31477598Y-45733669D01*
X31477908Y-45718657D01*
X31480101Y-45629859D01*
X31482693Y-45565019D01*
X31486382Y-45519067D01*
X31491864Y-45486935D01*
X31499835Y-45463553D01*
X31510993Y-45443852D01*
X31516830Y-45435410D01*
X31550296Y-45398057D01*
X31587727Y-45369003D01*
X31592309Y-45366467D01*
X31659426Y-45346443D01*
X31729926Y-45349755D01*
G36*
X32390117Y-45465358D02*
X32389933Y-45573837D01*
X32389219Y-45657287D01*
X32387675Y-45719704D01*
X32385001Y-45765085D01*
X32380894Y-45797429D01*
X32375055Y-45820733D01*
X32367182Y-45838995D01*
X32361221Y-45849418D01*
X32311855Y-45905945D01*
X32249264Y-45941377D01*
X32180013Y-45954090D01*
X32110668Y-45942463D01*
X32069375Y-45921568D01*
X32026025Y-45885422D01*
X31996481Y-45841276D01*
X31978655Y-45783462D01*
X31970463Y-45706313D01*
X31969302Y-45649714D01*
X31969458Y-45645647D01*
X32070857Y-45645647D01*
X32071476Y-45710550D01*
X32074314Y-45753514D01*
X32080840Y-45781622D01*
X32092523Y-45801953D01*
X32106483Y-45817288D01*
X32153365Y-45846890D01*
X32203701Y-45849419D01*
X32251276Y-45824705D01*
X32254979Y-45821356D01*
X32270783Y-45803935D01*
X32280693Y-45783209D01*
X32286058Y-45752362D01*
X32288228Y-45704577D01*
X32288571Y-45651748D01*
X32287827Y-45585381D01*
X32284748Y-45541106D01*
X32278061Y-45512009D01*
X32266496Y-45491173D01*
X32257013Y-45480107D01*
X32212960Y-45452198D01*
X32162224Y-45448843D01*
X32113796Y-45470159D01*
X32104450Y-45478073D01*
X32088540Y-45495647D01*
X32078610Y-45516587D01*
X32073278Y-45547782D01*
X32071163Y-45596122D01*
X32070857Y-45645647D01*
X31969458Y-45645647D01*
X31972810Y-45558568D01*
X31984726Y-45490086D01*
X32007135Y-45438600D01*
X32042124Y-45398443D01*
X32069375Y-45377861D01*
X32118907Y-45355625D01*
X32176316Y-45345304D01*
X32229682Y-45348067D01*
X32259543Y-45359212D01*
X32271261Y-45362383D01*
X32279037Y-45350557D01*
X32284465Y-45318866D01*
X32288571Y-45270593D01*
X32293067Y-45216829D01*
X32299313Y-45184482D01*
X32310676Y-45165985D01*
X32330528Y-45153770D01*
X32343000Y-45148362D01*
X32390171Y-45128601D01*
X32390117Y-45465358D01*
X32390117Y-45465358D01*
G37*
X32390117Y-45465358D02*
X32389933Y-45573837D01*
X32389219Y-45657287D01*
X32387675Y-45719704D01*
X32385001Y-45765085D01*
X32380894Y-45797429D01*
X32375055Y-45820733D01*
X32367182Y-45838995D01*
X32361221Y-45849418D01*
X32311855Y-45905945D01*
X32249264Y-45941377D01*
X32180013Y-45954090D01*
X32110668Y-45942463D01*
X32069375Y-45921568D01*
X32026025Y-45885422D01*
X31996481Y-45841276D01*
X31978655Y-45783462D01*
X31970463Y-45706313D01*
X31969302Y-45649714D01*
X31969458Y-45645647D01*
X32070857Y-45645647D01*
X32071476Y-45710550D01*
X32074314Y-45753514D01*
X32080840Y-45781622D01*
X32092523Y-45801953D01*
X32106483Y-45817288D01*
X32153365Y-45846890D01*
X32203701Y-45849419D01*
X32251276Y-45824705D01*
X32254979Y-45821356D01*
X32270783Y-45803935D01*
X32280693Y-45783209D01*
X32286058Y-45752362D01*
X32288228Y-45704577D01*
X32288571Y-45651748D01*
X32287827Y-45585381D01*
X32284748Y-45541106D01*
X32278061Y-45512009D01*
X32266496Y-45491173D01*
X32257013Y-45480107D01*
X32212960Y-45452198D01*
X32162224Y-45448843D01*
X32113796Y-45470159D01*
X32104450Y-45478073D01*
X32088540Y-45495647D01*
X32078610Y-45516587D01*
X32073278Y-45547782D01*
X32071163Y-45596122D01*
X32070857Y-45645647D01*
X31969458Y-45645647D01*
X31972810Y-45558568D01*
X31984726Y-45490086D01*
X32007135Y-45438600D01*
X32042124Y-45398443D01*
X32069375Y-45377861D01*
X32118907Y-45355625D01*
X32176316Y-45345304D01*
X32229682Y-45348067D01*
X32259543Y-45359212D01*
X32271261Y-45362383D01*
X32279037Y-45350557D01*
X32284465Y-45318866D01*
X32288571Y-45270593D01*
X32293067Y-45216829D01*
X32299313Y-45184482D01*
X32310676Y-45165985D01*
X32330528Y-45153770D01*
X32343000Y-45148362D01*
X32390171Y-45128601D01*
X32390117Y-45465358D01*
G36*
X32979833Y-45358663D02*
X32982048Y-45396850D01*
X32983784Y-45454886D01*
X32984899Y-45528180D01*
X32985257Y-45605055D01*
X32985257Y-45865196D01*
X32939326Y-45911127D01*
X32907675Y-45939429D01*
X32879890Y-45950893D01*
X32841915Y-45950168D01*
X32826840Y-45948321D01*
X32779726Y-45942948D01*
X32740756Y-45939869D01*
X32731257Y-45939585D01*
X32699233Y-45941445D01*
X32653432Y-45946114D01*
X32635674Y-45948321D01*
X32592057Y-45951735D01*
X32562745Y-45944320D01*
X32533680Y-45921427D01*
X32523188Y-45911127D01*
X32477257Y-45865196D01*
X32477257Y-45378602D01*
X32514226Y-45361758D01*
X32546059Y-45349282D01*
X32564683Y-45344914D01*
X32569458Y-45358718D01*
X32573921Y-45397286D01*
X32577775Y-45456356D01*
X32580722Y-45531663D01*
X32582143Y-45595286D01*
X32586114Y-45845657D01*
X32620759Y-45850556D01*
X32652268Y-45847131D01*
X32667708Y-45836041D01*
X32672023Y-45815308D01*
X32675708Y-45771145D01*
X32678469Y-45709146D01*
X32680012Y-45634909D01*
X32680235Y-45596706D01*
X32680457Y-45376783D01*
X32726166Y-45360849D01*
X32758518Y-45350015D01*
X32776115Y-45344962D01*
X32776623Y-45344914D01*
X32778388Y-45358648D01*
X32780329Y-45396730D01*
X32782282Y-45454482D01*
X32784084Y-45527227D01*
X32785343Y-45595286D01*
X32789314Y-45845657D01*
X32876400Y-45845657D01*
X32880396Y-45617240D01*
X32884392Y-45388822D01*
X32926847Y-45366868D01*
X32958192Y-45351793D01*
X32976744Y-45344951D01*
X32977279Y-45344914D01*
X32979833Y-45358663D01*
X32979833Y-45358663D01*
G37*
X32979833Y-45358663D02*
X32982048Y-45396850D01*
X32983784Y-45454886D01*
X32984899Y-45528180D01*
X32985257Y-45605055D01*
X32985257Y-45865196D01*
X32939326Y-45911127D01*
X32907675Y-45939429D01*
X32879890Y-45950893D01*
X32841915Y-45950168D01*
X32826840Y-45948321D01*
X32779726Y-45942948D01*
X32740756Y-45939869D01*
X32731257Y-45939585D01*
X32699233Y-45941445D01*
X32653432Y-45946114D01*
X32635674Y-45948321D01*
X32592057Y-45951735D01*
X32562745Y-45944320D01*
X32533680Y-45921427D01*
X32523188Y-45911127D01*
X32477257Y-45865196D01*
X32477257Y-45378602D01*
X32514226Y-45361758D01*
X32546059Y-45349282D01*
X32564683Y-45344914D01*
X32569458Y-45358718D01*
X32573921Y-45397286D01*
X32577775Y-45456356D01*
X32580722Y-45531663D01*
X32582143Y-45595286D01*
X32586114Y-45845657D01*
X32620759Y-45850556D01*
X32652268Y-45847131D01*
X32667708Y-45836041D01*
X32672023Y-45815308D01*
X32675708Y-45771145D01*
X32678469Y-45709146D01*
X32680012Y-45634909D01*
X32680235Y-45596706D01*
X32680457Y-45376783D01*
X32726166Y-45360849D01*
X32758518Y-45350015D01*
X32776115Y-45344962D01*
X32776623Y-45344914D01*
X32778388Y-45358648D01*
X32780329Y-45396730D01*
X32782282Y-45454482D01*
X32784084Y-45527227D01*
X32785343Y-45595286D01*
X32789314Y-45845657D01*
X32876400Y-45845657D01*
X32880396Y-45617240D01*
X32884392Y-45388822D01*
X32926847Y-45366868D01*
X32958192Y-45351793D01*
X32976744Y-45344951D01*
X32977279Y-45344914D01*
X32979833Y-45358663D01*
G36*
X33344876Y-45356335D02*
X33386667Y-45375344D01*
X33419469Y-45398378D01*
X33443503Y-45424133D01*
X33460097Y-45457358D01*
X33470577Y-45502800D01*
X33476271Y-45565207D01*
X33478507Y-45649327D01*
X33478743Y-45704721D01*
X33478743Y-45920826D01*
X33441774Y-45937670D01*
X33412656Y-45949981D01*
X33398231Y-45954514D01*
X33395472Y-45941025D01*
X33393282Y-45904653D01*
X33391942Y-45851542D01*
X33391657Y-45809372D01*
X33390434Y-45748447D01*
X33387136Y-45700115D01*
X33382321Y-45670518D01*
X33378496Y-45664229D01*
X33352783Y-45670652D01*
X33312418Y-45687125D01*
X33265679Y-45709458D01*
X33220845Y-45733457D01*
X33186193Y-45754930D01*
X33170002Y-45769685D01*
X33169938Y-45769845D01*
X33171330Y-45797152D01*
X33183818Y-45823219D01*
X33205743Y-45844392D01*
X33237743Y-45851474D01*
X33265092Y-45850649D01*
X33303826Y-45850042D01*
X33324158Y-45859116D01*
X33336369Y-45883092D01*
X33337909Y-45887613D01*
X33343203Y-45921806D01*
X33329047Y-45942568D01*
X33292148Y-45952462D01*
X33252289Y-45954292D01*
X33180562Y-45940727D01*
X33143432Y-45921355D01*
X33097576Y-45875845D01*
X33073256Y-45819983D01*
X33071073Y-45760957D01*
X33091629Y-45705953D01*
X33122549Y-45671486D01*
X33153420Y-45652189D01*
X33201942Y-45627759D01*
X33258485Y-45602985D01*
X33267910Y-45599199D01*
X33330019Y-45571791D01*
X33365822Y-45547634D01*
X33377337Y-45523619D01*
X33366580Y-45496635D01*
X33348114Y-45475543D01*
X33304469Y-45449572D01*
X33256446Y-45447624D01*
X33212406Y-45467637D01*
X33180709Y-45507551D01*
X33176549Y-45517848D01*
X33152327Y-45555724D01*
X33116965Y-45583842D01*
X33072343Y-45606917D01*
X33072343Y-45541485D01*
X33074969Y-45501506D01*
X33086230Y-45469997D01*
X33111199Y-45436378D01*
X33135169Y-45410484D01*
X33172441Y-45373817D01*
X33201401Y-45354121D01*
X33232505Y-45346220D01*
X33267713Y-45344914D01*
X33344876Y-45356335D01*
X33344876Y-45356335D01*
G37*
X33344876Y-45356335D02*
X33386667Y-45375344D01*
X33419469Y-45398378D01*
X33443503Y-45424133D01*
X33460097Y-45457358D01*
X33470577Y-45502800D01*
X33476271Y-45565207D01*
X33478507Y-45649327D01*
X33478743Y-45704721D01*
X33478743Y-45920826D01*
X33441774Y-45937670D01*
X33412656Y-45949981D01*
X33398231Y-45954514D01*
X33395472Y-45941025D01*
X33393282Y-45904653D01*
X33391942Y-45851542D01*
X33391657Y-45809372D01*
X33390434Y-45748447D01*
X33387136Y-45700115D01*
X33382321Y-45670518D01*
X33378496Y-45664229D01*
X33352783Y-45670652D01*
X33312418Y-45687125D01*
X33265679Y-45709458D01*
X33220845Y-45733457D01*
X33186193Y-45754930D01*
X33170002Y-45769685D01*
X33169938Y-45769845D01*
X33171330Y-45797152D01*
X33183818Y-45823219D01*
X33205743Y-45844392D01*
X33237743Y-45851474D01*
X33265092Y-45850649D01*
X33303826Y-45850042D01*
X33324158Y-45859116D01*
X33336369Y-45883092D01*
X33337909Y-45887613D01*
X33343203Y-45921806D01*
X33329047Y-45942568D01*
X33292148Y-45952462D01*
X33252289Y-45954292D01*
X33180562Y-45940727D01*
X33143432Y-45921355D01*
X33097576Y-45875845D01*
X33073256Y-45819983D01*
X33071073Y-45760957D01*
X33091629Y-45705953D01*
X33122549Y-45671486D01*
X33153420Y-45652189D01*
X33201942Y-45627759D01*
X33258485Y-45602985D01*
X33267910Y-45599199D01*
X33330019Y-45571791D01*
X33365822Y-45547634D01*
X33377337Y-45523619D01*
X33366580Y-45496635D01*
X33348114Y-45475543D01*
X33304469Y-45449572D01*
X33256446Y-45447624D01*
X33212406Y-45467637D01*
X33180709Y-45507551D01*
X33176549Y-45517848D01*
X33152327Y-45555724D01*
X33116965Y-45583842D01*
X33072343Y-45606917D01*
X33072343Y-45541485D01*
X33074969Y-45501506D01*
X33086230Y-45469997D01*
X33111199Y-45436378D01*
X33135169Y-45410484D01*
X33172441Y-45373817D01*
X33201401Y-45354121D01*
X33232505Y-45346220D01*
X33267713Y-45344914D01*
X33344876Y-45356335D01*
G36*
X33852600Y-45358752D02*
X33869948Y-45366334D01*
X33911356Y-45399128D01*
X33946765Y-45446547D01*
X33968664Y-45497151D01*
X33972229Y-45522098D01*
X33960279Y-45556927D01*
X33934067Y-45575357D01*
X33905964Y-45586516D01*
X33893095Y-45588572D01*
X33886829Y-45573649D01*
X33874456Y-45541175D01*
X33869028Y-45526502D01*
X33838590Y-45475744D01*
X33794520Y-45450427D01*
X33738010Y-45451206D01*
X33733825Y-45452203D01*
X33703655Y-45466507D01*
X33681476Y-45494393D01*
X33666327Y-45539287D01*
X33657250Y-45604615D01*
X33653286Y-45693804D01*
X33652914Y-45741261D01*
X33652730Y-45816071D01*
X33651522Y-45867069D01*
X33648309Y-45899471D01*
X33642109Y-45918495D01*
X33631940Y-45929356D01*
X33616819Y-45937272D01*
X33615946Y-45937670D01*
X33586828Y-45949981D01*
X33572403Y-45954514D01*
X33570186Y-45940809D01*
X33568289Y-45902925D01*
X33566847Y-45845715D01*
X33565998Y-45774027D01*
X33565829Y-45721565D01*
X33566692Y-45620047D01*
X33570070Y-45543032D01*
X33577142Y-45486023D01*
X33589088Y-45444526D01*
X33607090Y-45414043D01*
X33632327Y-45390080D01*
X33657247Y-45373355D01*
X33717171Y-45351097D01*
X33786911Y-45346076D01*
X33852600Y-45358752D01*
X33852600Y-45358752D01*
G37*
X33852600Y-45358752D02*
X33869948Y-45366334D01*
X33911356Y-45399128D01*
X33946765Y-45446547D01*
X33968664Y-45497151D01*
X33972229Y-45522098D01*
X33960279Y-45556927D01*
X33934067Y-45575357D01*
X33905964Y-45586516D01*
X33893095Y-45588572D01*
X33886829Y-45573649D01*
X33874456Y-45541175D01*
X33869028Y-45526502D01*
X33838590Y-45475744D01*
X33794520Y-45450427D01*
X33738010Y-45451206D01*
X33733825Y-45452203D01*
X33703655Y-45466507D01*
X33681476Y-45494393D01*
X33666327Y-45539287D01*
X33657250Y-45604615D01*
X33653286Y-45693804D01*
X33652914Y-45741261D01*
X33652730Y-45816071D01*
X33651522Y-45867069D01*
X33648309Y-45899471D01*
X33642109Y-45918495D01*
X33631940Y-45929356D01*
X33616819Y-45937272D01*
X33615946Y-45937670D01*
X33586828Y-45949981D01*
X33572403Y-45954514D01*
X33570186Y-45940809D01*
X33568289Y-45902925D01*
X33566847Y-45845715D01*
X33565998Y-45774027D01*
X33565829Y-45721565D01*
X33566692Y-45620047D01*
X33570070Y-45543032D01*
X33577142Y-45486023D01*
X33589088Y-45444526D01*
X33607090Y-45414043D01*
X33632327Y-45390080D01*
X33657247Y-45373355D01*
X33717171Y-45351097D01*
X33786911Y-45346076D01*
X33852600Y-45358752D01*
G36*
X34353595Y-45366966D02*
X34411021Y-45404497D01*
X34438719Y-45438096D01*
X34460662Y-45499064D01*
X34462405Y-45547308D01*
X34458457Y-45611816D01*
X34309686Y-45676934D01*
X34237349Y-45710202D01*
X34190084Y-45736964D01*
X34165507Y-45760144D01*
X34161237Y-45782667D01*
X34174889Y-45807455D01*
X34189943Y-45823886D01*
X34233746Y-45850235D01*
X34281389Y-45852081D01*
X34325145Y-45831546D01*
X34357289Y-45790752D01*
X34363038Y-45776347D01*
X34390576Y-45731356D01*
X34422258Y-45712182D01*
X34465714Y-45695779D01*
X34465714Y-45757966D01*
X34461872Y-45800283D01*
X34446823Y-45835969D01*
X34415280Y-45876943D01*
X34410592Y-45882267D01*
X34375506Y-45918720D01*
X34345347Y-45938283D01*
X34307615Y-45947283D01*
X34276335Y-45950230D01*
X34220385Y-45950965D01*
X34180555Y-45941660D01*
X34155708Y-45927846D01*
X34116656Y-45897467D01*
X34089625Y-45864613D01*
X34072517Y-45823294D01*
X34063238Y-45767521D01*
X34059693Y-45691305D01*
X34059410Y-45652622D01*
X34060372Y-45606247D01*
X34148007Y-45606247D01*
X34149023Y-45631126D01*
X34151556Y-45635200D01*
X34168274Y-45629665D01*
X34204249Y-45615017D01*
X34252331Y-45594190D01*
X34262386Y-45589714D01*
X34323152Y-45558814D01*
X34356632Y-45531657D01*
X34363990Y-45506220D01*
X34346391Y-45480481D01*
X34331856Y-45469109D01*
X34279410Y-45446364D01*
X34230322Y-45450122D01*
X34189227Y-45477884D01*
X34160758Y-45527152D01*
X34151631Y-45566257D01*
X34148007Y-45606247D01*
X34060372Y-45606247D01*
X34061285Y-45562249D01*
X34068196Y-45495384D01*
X34081884Y-45446695D01*
X34104096Y-45410849D01*
X34136574Y-45382513D01*
X34150733Y-45373355D01*
X34215053Y-45349507D01*
X34285473Y-45348006D01*
X34353595Y-45366966D01*
X34353595Y-45366966D01*
G37*
X34353595Y-45366966D02*
X34411021Y-45404497D01*
X34438719Y-45438096D01*
X34460662Y-45499064D01*
X34462405Y-45547308D01*
X34458457Y-45611816D01*
X34309686Y-45676934D01*
X34237349Y-45710202D01*
X34190084Y-45736964D01*
X34165507Y-45760144D01*
X34161237Y-45782667D01*
X34174889Y-45807455D01*
X34189943Y-45823886D01*
X34233746Y-45850235D01*
X34281389Y-45852081D01*
X34325145Y-45831546D01*
X34357289Y-45790752D01*
X34363038Y-45776347D01*
X34390576Y-45731356D01*
X34422258Y-45712182D01*
X34465714Y-45695779D01*
X34465714Y-45757966D01*
X34461872Y-45800283D01*
X34446823Y-45835969D01*
X34415280Y-45876943D01*
X34410592Y-45882267D01*
X34375506Y-45918720D01*
X34345347Y-45938283D01*
X34307615Y-45947283D01*
X34276335Y-45950230D01*
X34220385Y-45950965D01*
X34180555Y-45941660D01*
X34155708Y-45927846D01*
X34116656Y-45897467D01*
X34089625Y-45864613D01*
X34072517Y-45823294D01*
X34063238Y-45767521D01*
X34059693Y-45691305D01*
X34059410Y-45652622D01*
X34060372Y-45606247D01*
X34148007Y-45606247D01*
X34149023Y-45631126D01*
X34151556Y-45635200D01*
X34168274Y-45629665D01*
X34204249Y-45615017D01*
X34252331Y-45594190D01*
X34262386Y-45589714D01*
X34323152Y-45558814D01*
X34356632Y-45531657D01*
X34363990Y-45506220D01*
X34346391Y-45480481D01*
X34331856Y-45469109D01*
X34279410Y-45446364D01*
X34230322Y-45450122D01*
X34189227Y-45477884D01*
X34160758Y-45527152D01*
X34151631Y-45566257D01*
X34148007Y-45606247D01*
X34060372Y-45606247D01*
X34061285Y-45562249D01*
X34068196Y-45495384D01*
X34081884Y-45446695D01*
X34104096Y-45410849D01*
X34136574Y-45382513D01*
X34150733Y-45373355D01*
X34215053Y-45349507D01*
X34285473Y-45348006D01*
X34353595Y-45366966D01*
G36*
X31303910Y-40642348D02*
X31382454Y-40642778D01*
X31439298Y-40643942D01*
X31478105Y-40646207D01*
X31502538Y-40649940D01*
X31516262Y-40655506D01*
X31522940Y-40663273D01*
X31526236Y-40673605D01*
X31526556Y-40674943D01*
X31531562Y-40699079D01*
X31540829Y-40746701D01*
X31553392Y-40812741D01*
X31568287Y-40892128D01*
X31584551Y-40979796D01*
X31585119Y-40982875D01*
X31601410Y-41068789D01*
X31616652Y-41144696D01*
X31629861Y-41206045D01*
X31640054Y-41248282D01*
X31646248Y-41266855D01*
X31646543Y-41267184D01*
X31664788Y-41276253D01*
X31702405Y-41291367D01*
X31751271Y-41309262D01*
X31751543Y-41309358D01*
X31813093Y-41332493D01*
X31885657Y-41361965D01*
X31954057Y-41391597D01*
X31957294Y-41393062D01*
X32068702Y-41443626D01*
X32315399Y-41275160D01*
X32391077Y-41223803D01*
X32459631Y-41177889D01*
X32517088Y-41140030D01*
X32559476Y-41112837D01*
X32582825Y-41098921D01*
X32585042Y-41097889D01*
X32602010Y-41102484D01*
X32633701Y-41124655D01*
X32681352Y-41165447D01*
X32746198Y-41225905D01*
X32812397Y-41290227D01*
X32876214Y-41353612D01*
X32933329Y-41411451D01*
X32980305Y-41460175D01*
X33013703Y-41496210D01*
X33030085Y-41515984D01*
X33030694Y-41517002D01*
X33032505Y-41530572D01*
X33025683Y-41552733D01*
X33008540Y-41586478D01*
X32979393Y-41634800D01*
X32936555Y-41700692D01*
X32879448Y-41785517D01*
X32828766Y-41860177D01*
X32783461Y-41927140D01*
X32746150Y-41982516D01*
X32719452Y-42022420D01*
X32705985Y-42042962D01*
X32705137Y-42044356D01*
X32706781Y-42064038D01*
X32719245Y-42102293D01*
X32740048Y-42151889D01*
X32747462Y-42167728D01*
X32779814Y-42238290D01*
X32814328Y-42318353D01*
X32842365Y-42387629D01*
X32862568Y-42439045D01*
X32878615Y-42478119D01*
X32887888Y-42498541D01*
X32889041Y-42500114D01*
X32906096Y-42502721D01*
X32946298Y-42509863D01*
X33004302Y-42520523D01*
X33074763Y-42533685D01*
X33152335Y-42548333D01*
X33231672Y-42563449D01*
X33307431Y-42578018D01*
X33374264Y-42591022D01*
X33426828Y-42601445D01*
X33459776Y-42608270D01*
X33467857Y-42610199D01*
X33476205Y-42614962D01*
X33482506Y-42625718D01*
X33487045Y-42646098D01*
X33490104Y-42679734D01*
X33491967Y-42730255D01*
X33492918Y-42801292D01*
X33493240Y-42896476D01*
X33493257Y-42935492D01*
X33493257Y-43252799D01*
X33417057Y-43267839D01*
X33374663Y-43275995D01*
X33311400Y-43287899D01*
X33234962Y-43302116D01*
X33153043Y-43317210D01*
X33130400Y-43321355D01*
X33054806Y-43336053D01*
X32988953Y-43350505D01*
X32938366Y-43363375D01*
X32908574Y-43373322D01*
X32903612Y-43376287D01*
X32891426Y-43397283D01*
X32873953Y-43437967D01*
X32854577Y-43490322D01*
X32850734Y-43501600D01*
X32825339Y-43571523D01*
X32793817Y-43650418D01*
X32762969Y-43721266D01*
X32762817Y-43721595D01*
X32711447Y-43832733D01*
X32880399Y-44081253D01*
X33049352Y-44329772D01*
X32832429Y-44547058D01*
X32766819Y-44611726D01*
X32706979Y-44668733D01*
X32656267Y-44715033D01*
X32618046Y-44747584D01*
X32595675Y-44763343D01*
X32592466Y-44764343D01*
X32573626Y-44756469D01*
X32535180Y-44734578D01*
X32481330Y-44701267D01*
X32416276Y-44659131D01*
X32345940Y-44611943D01*
X32274555Y-44563810D01*
X32210908Y-44521928D01*
X32159041Y-44488871D01*
X32122995Y-44467218D01*
X32106867Y-44459543D01*
X32087189Y-44466037D01*
X32049875Y-44483150D01*
X32002621Y-44507326D01*
X31997612Y-44510013D01*
X31933977Y-44541927D01*
X31890341Y-44557579D01*
X31863202Y-44557745D01*
X31849057Y-44543204D01*
X31848975Y-44543000D01*
X31841905Y-44525779D01*
X31825042Y-44484899D01*
X31799695Y-44423525D01*
X31767171Y-44344819D01*
X31728778Y-44251947D01*
X31685822Y-44148072D01*
X31644222Y-44047502D01*
X31598504Y-43936516D01*
X31556526Y-43833703D01*
X31519548Y-43742215D01*
X31488827Y-43665201D01*
X31465622Y-43605815D01*
X31451190Y-43567209D01*
X31446743Y-43552800D01*
X31457896Y-43536272D01*
X31487069Y-43509930D01*
X31525971Y-43480887D01*
X31636757Y-43389039D01*
X31723351Y-43283759D01*
X31784716Y-43167266D01*
X31819815Y-43041776D01*
X31827608Y-42909507D01*
X31821943Y-42848457D01*
X31791078Y-42721795D01*
X31737920Y-42609941D01*
X31665767Y-42514001D01*
X31577917Y-42435076D01*
X31477665Y-42374270D01*
X31368310Y-42332687D01*
X31253147Y-42311428D01*
X31135475Y-42311599D01*
X31018590Y-42334301D01*
X30905789Y-42380638D01*
X30800369Y-42451713D01*
X30756368Y-42491911D01*
X30671979Y-42595129D01*
X30613222Y-42707925D01*
X30579704Y-42827010D01*
X30571035Y-42949095D01*
X30586823Y-43070893D01*
X30626678Y-43189116D01*
X30690207Y-43300475D01*
X30777021Y-43401684D01*
X30874029Y-43480887D01*
X30914437Y-43511162D01*
X30942982Y-43537219D01*
X30953257Y-43552825D01*
X30947877Y-43569843D01*
X30932575Y-43610500D01*
X30908612Y-43671642D01*
X30877244Y-43750119D01*
X30839732Y-43842780D01*
X30797333Y-43946472D01*
X30755663Y-44047526D01*
X30709690Y-44158607D01*
X30667107Y-44261541D01*
X30629221Y-44353165D01*
X30597340Y-44430316D01*
X30572771Y-44489831D01*
X30556820Y-44528544D01*
X30550910Y-44543000D01*
X30536948Y-44557685D01*
X30509940Y-44557642D01*
X30466413Y-44542099D01*
X30402890Y-44510284D01*
X30402388Y-44510013D01*
X30354560Y-44485323D01*
X30315897Y-44467338D01*
X30294095Y-44459614D01*
X30293133Y-44459543D01*
X30276721Y-44467378D01*
X30240487Y-44489165D01*
X30188474Y-44522328D01*
X30124725Y-44564291D01*
X30054060Y-44611943D01*
X29982116Y-44660191D01*
X29917274Y-44702151D01*
X29863735Y-44735227D01*
X29825697Y-44756821D01*
X29807533Y-44764343D01*
X29790808Y-44754457D01*
X29757180Y-44726826D01*
X29710010Y-44684495D01*
X29652658Y-44630505D01*
X29588484Y-44567899D01*
X29567497Y-44546983D01*
X29350499Y-44329623D01*
X29515668Y-44087220D01*
X29565864Y-44012781D01*
X29609919Y-43945972D01*
X29645362Y-43890665D01*
X29669719Y-43850729D01*
X29680522Y-43830036D01*
X29680838Y-43828563D01*
X29675143Y-43809058D01*
X29659826Y-43769822D01*
X29637537Y-43717430D01*
X29621893Y-43682355D01*
X29592641Y-43615201D01*
X29565094Y-43547358D01*
X29543737Y-43490034D01*
X29537935Y-43472572D01*
X29521452Y-43425938D01*
X29505340Y-43389905D01*
X29496490Y-43376287D01*
X29476960Y-43367952D01*
X29434334Y-43356137D01*
X29374145Y-43342181D01*
X29301922Y-43327422D01*
X29269600Y-43321355D01*
X29187522Y-43306273D01*
X29108795Y-43291669D01*
X29041109Y-43278980D01*
X28992160Y-43269642D01*
X28982943Y-43267839D01*
X28906743Y-43252799D01*
X28906743Y-42935492D01*
X28906914Y-42831154D01*
X28907616Y-42752213D01*
X28909134Y-42695038D01*
X28911749Y-42655999D01*
X28915746Y-42631465D01*
X28921409Y-42617805D01*
X28929020Y-42611389D01*
X28932143Y-42610199D01*
X28950978Y-42605980D01*
X28992588Y-42597562D01*
X29051630Y-42585961D01*
X29122757Y-42572195D01*
X29200625Y-42557280D01*
X29279887Y-42542232D01*
X29355198Y-42528069D01*
X29421213Y-42515806D01*
X29472587Y-42506461D01*
X29503975Y-42501050D01*
X29510959Y-42500114D01*
X29517285Y-42487596D01*
X29531290Y-42454246D01*
X29550355Y-42406377D01*
X29557634Y-42387629D01*
X29586996Y-42315195D01*
X29621571Y-42235170D01*
X29652537Y-42167728D01*
X29675323Y-42116159D01*
X29690482Y-42073785D01*
X29695542Y-42047834D01*
X29694736Y-42044356D01*
X29684041Y-42027936D01*
X29659620Y-41991417D01*
X29624095Y-41938687D01*
X29580087Y-41873635D01*
X29530217Y-41800151D01*
X29520356Y-41785645D01*
X29462492Y-41699704D01*
X29419956Y-41634261D01*
X29391054Y-41586304D01*
X29374090Y-41552820D01*
X29367367Y-41530795D01*
X29369190Y-41517217D01*
X29369236Y-41517131D01*
X29383586Y-41499297D01*
X29415323Y-41464817D01*
X29461010Y-41417268D01*
X29517204Y-41360222D01*
X29580468Y-41297255D01*
X29587602Y-41290227D01*
X29667330Y-41213020D01*
X29728857Y-41156330D01*
X29773421Y-41119110D01*
X29802257Y-41100315D01*
X29814958Y-41097889D01*
X29833494Y-41108471D01*
X29871961Y-41132916D01*
X29926386Y-41168612D01*
X29992798Y-41212947D01*
X30067225Y-41263311D01*
X30084601Y-41275160D01*
X30331297Y-41443626D01*
X30442706Y-41393062D01*
X30510457Y-41363595D01*
X30583183Y-41333959D01*
X30645703Y-41310330D01*
X30648457Y-41309358D01*
X30697360Y-41291457D01*
X30735057Y-41276320D01*
X30753425Y-41267210D01*
X30753456Y-41267184D01*
X30759285Y-41250717D01*
X30769192Y-41210219D01*
X30782195Y-41150242D01*
X30797309Y-41075340D01*
X30813552Y-40990064D01*
X30814881Y-40982875D01*
X30831175Y-40895014D01*
X30846133Y-40815260D01*
X30858791Y-40748681D01*
X30868186Y-40700347D01*
X30873354Y-40675325D01*
X30873444Y-40674943D01*
X30876589Y-40664299D01*
X30882704Y-40656262D01*
X30895453Y-40650467D01*
X30918500Y-40646547D01*
X30955509Y-40644135D01*
X31010144Y-40642865D01*
X31086067Y-40642371D01*
X31186944Y-40642286D01*
X31200000Y-40642286D01*
X31303910Y-40642348D01*
X31303910Y-40642348D01*
G37*
X31303910Y-40642348D02*
X31382454Y-40642778D01*
X31439298Y-40643942D01*
X31478105Y-40646207D01*
X31502538Y-40649940D01*
X31516262Y-40655506D01*
X31522940Y-40663273D01*
X31526236Y-40673605D01*
X31526556Y-40674943D01*
X31531562Y-40699079D01*
X31540829Y-40746701D01*
X31553392Y-40812741D01*
X31568287Y-40892128D01*
X31584551Y-40979796D01*
X31585119Y-40982875D01*
X31601410Y-41068789D01*
X31616652Y-41144696D01*
X31629861Y-41206045D01*
X31640054Y-41248282D01*
X31646248Y-41266855D01*
X31646543Y-41267184D01*
X31664788Y-41276253D01*
X31702405Y-41291367D01*
X31751271Y-41309262D01*
X31751543Y-41309358D01*
X31813093Y-41332493D01*
X31885657Y-41361965D01*
X31954057Y-41391597D01*
X31957294Y-41393062D01*
X32068702Y-41443626D01*
X32315399Y-41275160D01*
X32391077Y-41223803D01*
X32459631Y-41177889D01*
X32517088Y-41140030D01*
X32559476Y-41112837D01*
X32582825Y-41098921D01*
X32585042Y-41097889D01*
X32602010Y-41102484D01*
X32633701Y-41124655D01*
X32681352Y-41165447D01*
X32746198Y-41225905D01*
X32812397Y-41290227D01*
X32876214Y-41353612D01*
X32933329Y-41411451D01*
X32980305Y-41460175D01*
X33013703Y-41496210D01*
X33030085Y-41515984D01*
X33030694Y-41517002D01*
X33032505Y-41530572D01*
X33025683Y-41552733D01*
X33008540Y-41586478D01*
X32979393Y-41634800D01*
X32936555Y-41700692D01*
X32879448Y-41785517D01*
X32828766Y-41860177D01*
X32783461Y-41927140D01*
X32746150Y-41982516D01*
X32719452Y-42022420D01*
X32705985Y-42042962D01*
X32705137Y-42044356D01*
X32706781Y-42064038D01*
X32719245Y-42102293D01*
X32740048Y-42151889D01*
X32747462Y-42167728D01*
X32779814Y-42238290D01*
X32814328Y-42318353D01*
X32842365Y-42387629D01*
X32862568Y-42439045D01*
X32878615Y-42478119D01*
X32887888Y-42498541D01*
X32889041Y-42500114D01*
X32906096Y-42502721D01*
X32946298Y-42509863D01*
X33004302Y-42520523D01*
X33074763Y-42533685D01*
X33152335Y-42548333D01*
X33231672Y-42563449D01*
X33307431Y-42578018D01*
X33374264Y-42591022D01*
X33426828Y-42601445D01*
X33459776Y-42608270D01*
X33467857Y-42610199D01*
X33476205Y-42614962D01*
X33482506Y-42625718D01*
X33487045Y-42646098D01*
X33490104Y-42679734D01*
X33491967Y-42730255D01*
X33492918Y-42801292D01*
X33493240Y-42896476D01*
X33493257Y-42935492D01*
X33493257Y-43252799D01*
X33417057Y-43267839D01*
X33374663Y-43275995D01*
X33311400Y-43287899D01*
X33234962Y-43302116D01*
X33153043Y-43317210D01*
X33130400Y-43321355D01*
X33054806Y-43336053D01*
X32988953Y-43350505D01*
X32938366Y-43363375D01*
X32908574Y-43373322D01*
X32903612Y-43376287D01*
X32891426Y-43397283D01*
X32873953Y-43437967D01*
X32854577Y-43490322D01*
X32850734Y-43501600D01*
X32825339Y-43571523D01*
X32793817Y-43650418D01*
X32762969Y-43721266D01*
X32762817Y-43721595D01*
X32711447Y-43832733D01*
X32880399Y-44081253D01*
X33049352Y-44329772D01*
X32832429Y-44547058D01*
X32766819Y-44611726D01*
X32706979Y-44668733D01*
X32656267Y-44715033D01*
X32618046Y-44747584D01*
X32595675Y-44763343D01*
X32592466Y-44764343D01*
X32573626Y-44756469D01*
X32535180Y-44734578D01*
X32481330Y-44701267D01*
X32416276Y-44659131D01*
X32345940Y-44611943D01*
X32274555Y-44563810D01*
X32210908Y-44521928D01*
X32159041Y-44488871D01*
X32122995Y-44467218D01*
X32106867Y-44459543D01*
X32087189Y-44466037D01*
X32049875Y-44483150D01*
X32002621Y-44507326D01*
X31997612Y-44510013D01*
X31933977Y-44541927D01*
X31890341Y-44557579D01*
X31863202Y-44557745D01*
X31849057Y-44543204D01*
X31848975Y-44543000D01*
X31841905Y-44525779D01*
X31825042Y-44484899D01*
X31799695Y-44423525D01*
X31767171Y-44344819D01*
X31728778Y-44251947D01*
X31685822Y-44148072D01*
X31644222Y-44047502D01*
X31598504Y-43936516D01*
X31556526Y-43833703D01*
X31519548Y-43742215D01*
X31488827Y-43665201D01*
X31465622Y-43605815D01*
X31451190Y-43567209D01*
X31446743Y-43552800D01*
X31457896Y-43536272D01*
X31487069Y-43509930D01*
X31525971Y-43480887D01*
X31636757Y-43389039D01*
X31723351Y-43283759D01*
X31784716Y-43167266D01*
X31819815Y-43041776D01*
X31827608Y-42909507D01*
X31821943Y-42848457D01*
X31791078Y-42721795D01*
X31737920Y-42609941D01*
X31665767Y-42514001D01*
X31577917Y-42435076D01*
X31477665Y-42374270D01*
X31368310Y-42332687D01*
X31253147Y-42311428D01*
X31135475Y-42311599D01*
X31018590Y-42334301D01*
X30905789Y-42380638D01*
X30800369Y-42451713D01*
X30756368Y-42491911D01*
X30671979Y-42595129D01*
X30613222Y-42707925D01*
X30579704Y-42827010D01*
X30571035Y-42949095D01*
X30586823Y-43070893D01*
X30626678Y-43189116D01*
X30690207Y-43300475D01*
X30777021Y-43401684D01*
X30874029Y-43480887D01*
X30914437Y-43511162D01*
X30942982Y-43537219D01*
X30953257Y-43552825D01*
X30947877Y-43569843D01*
X30932575Y-43610500D01*
X30908612Y-43671642D01*
X30877244Y-43750119D01*
X30839732Y-43842780D01*
X30797333Y-43946472D01*
X30755663Y-44047526D01*
X30709690Y-44158607D01*
X30667107Y-44261541D01*
X30629221Y-44353165D01*
X30597340Y-44430316D01*
X30572771Y-44489831D01*
X30556820Y-44528544D01*
X30550910Y-44543000D01*
X30536948Y-44557685D01*
X30509940Y-44557642D01*
X30466413Y-44542099D01*
X30402890Y-44510284D01*
X30402388Y-44510013D01*
X30354560Y-44485323D01*
X30315897Y-44467338D01*
X30294095Y-44459614D01*
X30293133Y-44459543D01*
X30276721Y-44467378D01*
X30240487Y-44489165D01*
X30188474Y-44522328D01*
X30124725Y-44564291D01*
X30054060Y-44611943D01*
X29982116Y-44660191D01*
X29917274Y-44702151D01*
X29863735Y-44735227D01*
X29825697Y-44756821D01*
X29807533Y-44764343D01*
X29790808Y-44754457D01*
X29757180Y-44726826D01*
X29710010Y-44684495D01*
X29652658Y-44630505D01*
X29588484Y-44567899D01*
X29567497Y-44546983D01*
X29350499Y-44329623D01*
X29515668Y-44087220D01*
X29565864Y-44012781D01*
X29609919Y-43945972D01*
X29645362Y-43890665D01*
X29669719Y-43850729D01*
X29680522Y-43830036D01*
X29680838Y-43828563D01*
X29675143Y-43809058D01*
X29659826Y-43769822D01*
X29637537Y-43717430D01*
X29621893Y-43682355D01*
X29592641Y-43615201D01*
X29565094Y-43547358D01*
X29543737Y-43490034D01*
X29537935Y-43472572D01*
X29521452Y-43425938D01*
X29505340Y-43389905D01*
X29496490Y-43376287D01*
X29476960Y-43367952D01*
X29434334Y-43356137D01*
X29374145Y-43342181D01*
X29301922Y-43327422D01*
X29269600Y-43321355D01*
X29187522Y-43306273D01*
X29108795Y-43291669D01*
X29041109Y-43278980D01*
X28992160Y-43269642D01*
X28982943Y-43267839D01*
X28906743Y-43252799D01*
X28906743Y-42935492D01*
X28906914Y-42831154D01*
X28907616Y-42752213D01*
X28909134Y-42695038D01*
X28911749Y-42655999D01*
X28915746Y-42631465D01*
X28921409Y-42617805D01*
X28929020Y-42611389D01*
X28932143Y-42610199D01*
X28950978Y-42605980D01*
X28992588Y-42597562D01*
X29051630Y-42585961D01*
X29122757Y-42572195D01*
X29200625Y-42557280D01*
X29279887Y-42542232D01*
X29355198Y-42528069D01*
X29421213Y-42515806D01*
X29472587Y-42506461D01*
X29503975Y-42501050D01*
X29510959Y-42500114D01*
X29517285Y-42487596D01*
X29531290Y-42454246D01*
X29550355Y-42406377D01*
X29557634Y-42387629D01*
X29586996Y-42315195D01*
X29621571Y-42235170D01*
X29652537Y-42167728D01*
X29675323Y-42116159D01*
X29690482Y-42073785D01*
X29695542Y-42047834D01*
X29694736Y-42044356D01*
X29684041Y-42027936D01*
X29659620Y-41991417D01*
X29624095Y-41938687D01*
X29580087Y-41873635D01*
X29530217Y-41800151D01*
X29520356Y-41785645D01*
X29462492Y-41699704D01*
X29419956Y-41634261D01*
X29391054Y-41586304D01*
X29374090Y-41552820D01*
X29367367Y-41530795D01*
X29369190Y-41517217D01*
X29369236Y-41517131D01*
X29383586Y-41499297D01*
X29415323Y-41464817D01*
X29461010Y-41417268D01*
X29517204Y-41360222D01*
X29580468Y-41297255D01*
X29587602Y-41290227D01*
X29667330Y-41213020D01*
X29728857Y-41156330D01*
X29773421Y-41119110D01*
X29802257Y-41100315D01*
X29814958Y-41097889D01*
X29833494Y-41108471D01*
X29871961Y-41132916D01*
X29926386Y-41168612D01*
X29992798Y-41212947D01*
X30067225Y-41263311D01*
X30084601Y-41275160D01*
X30331297Y-41443626D01*
X30442706Y-41393062D01*
X30510457Y-41363595D01*
X30583183Y-41333959D01*
X30645703Y-41310330D01*
X30648457Y-41309358D01*
X30697360Y-41291457D01*
X30735057Y-41276320D01*
X30753425Y-41267210D01*
X30753456Y-41267184D01*
X30759285Y-41250717D01*
X30769192Y-41210219D01*
X30782195Y-41150242D01*
X30797309Y-41075340D01*
X30813552Y-40990064D01*
X30814881Y-40982875D01*
X30831175Y-40895014D01*
X30846133Y-40815260D01*
X30858791Y-40748681D01*
X30868186Y-40700347D01*
X30873354Y-40675325D01*
X30873444Y-40674943D01*
X30876589Y-40664299D01*
X30882704Y-40656262D01*
X30895453Y-40650467D01*
X30918500Y-40646547D01*
X30955509Y-40644135D01*
X31010144Y-40642865D01*
X31086067Y-40642371D01*
X31186944Y-40642286D01*
X31200000Y-40642286D01*
X31303910Y-40642348D01*
G04 #@! TO.C,U1*
D13*
X34574026Y-33351522D02*
X35146446Y-33923942D01*
X35247461Y-33957614D01*
X35314805Y-33957614D01*
X35415820Y-33923942D01*
X35550507Y-33789255D01*
X35584179Y-33688240D01*
X35584179Y-33620896D01*
X35550507Y-33519881D01*
X34978087Y-32947461D01*
X36392301Y-32947461D02*
X35988240Y-33351522D01*
X36190270Y-33149492D02*
X35483164Y-32442385D01*
X35516835Y-32610744D01*
X35516835Y-32745431D01*
X35483164Y-32846446D01*
G04 #@! TO.C,J2*
X46454166Y-31089880D02*
X46454166Y-31804166D01*
X46406547Y-31947023D01*
X46311309Y-32042261D01*
X46168452Y-32089880D01*
X46073214Y-32089880D01*
X46882738Y-31185119D02*
X46930357Y-31137500D01*
X47025595Y-31089880D01*
X47263690Y-31089880D01*
X47358928Y-31137500D01*
X47406547Y-31185119D01*
X47454166Y-31280357D01*
X47454166Y-31375595D01*
X47406547Y-31518452D01*
X46835119Y-32089880D01*
X47454166Y-32089880D01*
G04 #@! TO.C,MH1*
X48666666Y-35152380D02*
X48666666Y-34152380D01*
X49000000Y-34866666D01*
X49333333Y-34152380D01*
X49333333Y-35152380D01*
X49809523Y-35152380D02*
X49809523Y-34152380D01*
X49809523Y-34628571D02*
X50380952Y-34628571D01*
X50380952Y-35152380D02*
X50380952Y-34152380D01*
X51380952Y-35152380D02*
X50809523Y-35152380D01*
X51095238Y-35152380D02*
X51095238Y-34152380D01*
X51000000Y-34295238D01*
X50904761Y-34390476D01*
X50809523Y-34438095D01*
G04 #@! TO.C,MH2*
X28666666Y-35152380D02*
X28666666Y-34152380D01*
X29000000Y-34866666D01*
X29333333Y-34152380D01*
X29333333Y-35152380D01*
X29809523Y-35152380D02*
X29809523Y-34152380D01*
X29809523Y-34628571D02*
X30380952Y-34628571D01*
X30380952Y-35152380D02*
X30380952Y-34152380D01*
X30809523Y-34247619D02*
X30857142Y-34200000D01*
X30952380Y-34152380D01*
X31190476Y-34152380D01*
X31285714Y-34200000D01*
X31333333Y-34247619D01*
X31380952Y-34342857D01*
X31380952Y-34438095D01*
X31333333Y-34580952D01*
X30761904Y-35152380D01*
X31380952Y-35152380D01*
G04 #@! TO.C,C6*
X51133333Y-41557142D02*
X51085714Y-41604761D01*
X50942857Y-41652380D01*
X50847619Y-41652380D01*
X50704761Y-41604761D01*
X50609523Y-41509523D01*
X50561904Y-41414285D01*
X50514285Y-41223809D01*
X50514285Y-41080952D01*
X50561904Y-40890476D01*
X50609523Y-40795238D01*
X50704761Y-40700000D01*
X50847619Y-40652380D01*
X50942857Y-40652380D01*
X51085714Y-40700000D01*
X51133333Y-40747619D01*
X51990476Y-40652380D02*
X51800000Y-40652380D01*
X51704761Y-40700000D01*
X51657142Y-40747619D01*
X51561904Y-40890476D01*
X51514285Y-41080952D01*
X51514285Y-41461904D01*
X51561904Y-41557142D01*
X51609523Y-41604761D01*
X51704761Y-41652380D01*
X51895238Y-41652380D01*
X51990476Y-41604761D01*
X52038095Y-41557142D01*
X52085714Y-41461904D01*
X52085714Y-41223809D01*
X52038095Y-41128571D01*
X51990476Y-41080952D01*
X51895238Y-41033333D01*
X51704761Y-41033333D01*
X51609523Y-41080952D01*
X51561904Y-41128571D01*
X51514285Y-41223809D01*
G04 #@! TO.C,C3*
X46533333Y-38957142D02*
X46485714Y-39004761D01*
X46342857Y-39052380D01*
X46247619Y-39052380D01*
X46104761Y-39004761D01*
X46009523Y-38909523D01*
X45961904Y-38814285D01*
X45914285Y-38623809D01*
X45914285Y-38480952D01*
X45961904Y-38290476D01*
X46009523Y-38195238D01*
X46104761Y-38100000D01*
X46247619Y-38052380D01*
X46342857Y-38052380D01*
X46485714Y-38100000D01*
X46533333Y-38147619D01*
X46866666Y-38052380D02*
X47485714Y-38052380D01*
X47152380Y-38433333D01*
X47295238Y-38433333D01*
X47390476Y-38480952D01*
X47438095Y-38528571D01*
X47485714Y-38623809D01*
X47485714Y-38861904D01*
X47438095Y-38957142D01*
X47390476Y-39004761D01*
X47295238Y-39052380D01*
X47009523Y-39052380D01*
X46914285Y-39004761D01*
X46866666Y-38957142D01*
G04 #@! TO.C,C2*
X43107142Y-43866666D02*
X43154761Y-43914285D01*
X43202380Y-44057142D01*
X43202380Y-44152380D01*
X43154761Y-44295238D01*
X43059523Y-44390476D01*
X42964285Y-44438095D01*
X42773809Y-44485714D01*
X42630952Y-44485714D01*
X42440476Y-44438095D01*
X42345238Y-44390476D01*
X42250000Y-44295238D01*
X42202380Y-44152380D01*
X42202380Y-44057142D01*
X42250000Y-43914285D01*
X42297619Y-43866666D01*
X42297619Y-43485714D02*
X42250000Y-43438095D01*
X42202380Y-43342857D01*
X42202380Y-43104761D01*
X42250000Y-43009523D01*
X42297619Y-42961904D01*
X42392857Y-42914285D01*
X42488095Y-42914285D01*
X42630952Y-42961904D01*
X43202380Y-43533333D01*
X43202380Y-42914285D01*
G04 #@! TO.C,C1*
X49233333Y-41557142D02*
X49185714Y-41604761D01*
X49042857Y-41652380D01*
X48947619Y-41652380D01*
X48804761Y-41604761D01*
X48709523Y-41509523D01*
X48661904Y-41414285D01*
X48614285Y-41223809D01*
X48614285Y-41080952D01*
X48661904Y-40890476D01*
X48709523Y-40795238D01*
X48804761Y-40700000D01*
X48947619Y-40652380D01*
X49042857Y-40652380D01*
X49185714Y-40700000D01*
X49233333Y-40747619D01*
X50185714Y-41652380D02*
X49614285Y-41652380D01*
X49900000Y-41652380D02*
X49900000Y-40652380D01*
X49804761Y-40795238D01*
X49709523Y-40890476D01*
X49614285Y-40938095D01*
G04 #@! TO.C,U2*
X46038095Y-45752380D02*
X46038095Y-46561904D01*
X46085714Y-46657142D01*
X46133333Y-46704761D01*
X46228571Y-46752380D01*
X46419047Y-46752380D01*
X46514285Y-46704761D01*
X46561904Y-46657142D01*
X46609523Y-46561904D01*
X46609523Y-45752380D01*
X47038095Y-45847619D02*
X47085714Y-45800000D01*
X47180952Y-45752380D01*
X47419047Y-45752380D01*
X47514285Y-45800000D01*
X47561904Y-45847619D01*
X47609523Y-45942857D01*
X47609523Y-46038095D01*
X47561904Y-46180952D01*
X46990476Y-46752380D01*
X47609523Y-46752380D01*
G04 #@! TO.C,U4*
X45438095Y-34952380D02*
X45438095Y-35761904D01*
X45485714Y-35857142D01*
X45533333Y-35904761D01*
X45628571Y-35952380D01*
X45819047Y-35952380D01*
X45914285Y-35904761D01*
X45961904Y-35857142D01*
X46009523Y-35761904D01*
X46009523Y-34952380D01*
X46914285Y-35285714D02*
X46914285Y-35952380D01*
X46676190Y-34904761D02*
X46438095Y-35619047D01*
X47057142Y-35619047D01*
G04 #@! TO.C,R5*
X36533333Y-45952380D02*
X36200000Y-45476190D01*
X35961904Y-45952380D02*
X35961904Y-44952380D01*
X36342857Y-44952380D01*
X36438095Y-45000000D01*
X36485714Y-45047619D01*
X36533333Y-45142857D01*
X36533333Y-45285714D01*
X36485714Y-45380952D01*
X36438095Y-45428571D01*
X36342857Y-45476190D01*
X35961904Y-45476190D01*
X37438095Y-44952380D02*
X36961904Y-44952380D01*
X36914285Y-45428571D01*
X36961904Y-45380952D01*
X37057142Y-45333333D01*
X37295238Y-45333333D01*
X37390476Y-45380952D01*
X37438095Y-45428571D01*
X37485714Y-45523809D01*
X37485714Y-45761904D01*
X37438095Y-45857142D01*
X37390476Y-45904761D01*
X37295238Y-45952380D01*
X37057142Y-45952380D01*
X36961904Y-45904761D01*
X36914285Y-45857142D01*
G04 #@! TO.C,R6*
X35233333Y-41052380D02*
X34900000Y-40576190D01*
X34661904Y-41052380D02*
X34661904Y-40052380D01*
X35042857Y-40052380D01*
X35138095Y-40100000D01*
X35185714Y-40147619D01*
X35233333Y-40242857D01*
X35233333Y-40385714D01*
X35185714Y-40480952D01*
X35138095Y-40528571D01*
X35042857Y-40576190D01*
X34661904Y-40576190D01*
X36090476Y-40052380D02*
X35900000Y-40052380D01*
X35804761Y-40100000D01*
X35757142Y-40147619D01*
X35661904Y-40290476D01*
X35614285Y-40480952D01*
X35614285Y-40861904D01*
X35661904Y-40957142D01*
X35709523Y-41004761D01*
X35804761Y-41052380D01*
X35995238Y-41052380D01*
X36090476Y-41004761D01*
X36138095Y-40957142D01*
X36185714Y-40861904D01*
X36185714Y-40623809D01*
X36138095Y-40528571D01*
X36090476Y-40480952D01*
X35995238Y-40433333D01*
X35804761Y-40433333D01*
X35709523Y-40480952D01*
X35661904Y-40528571D01*
X35614285Y-40623809D01*
G04 #@! TD*
M02*
