M48
;DRILL file {KiCad (5.0.0)} date 03/02/19 00:20:16
;FORMAT={-:-/ absolute / metric / decimal}
FMAT,2
METRIC,TZ
T1C0.400
T2C0.700
%
G90
G05
M71
T1
X28.6Y-33.5
X28.7Y-28.6
X29.2Y-45.2
X33.3Y-30.
X34.3Y-31.4
X34.4Y-28.6
X34.4Y-39.3
X36.85Y-33.15
X37.8Y-29.843
X39.Y-31.2
X39.9Y-30.35
X40.Y-28.95
X41.476Y-32.563
X41.5Y-39.2
X41.52Y-29.88
X42.1Y-44.9
X42.306Y-43.92
X42.4Y-41.8
X42.513Y-29.996
X42.563Y-42.953
X42.987Y-40.878
X43.734Y-40.134
X44.2Y-32.1
X44.283Y-37.
X46.25Y-29.15
X48.1Y-33.45
X48.25Y-34.6
X49.2Y-39.1
X49.4Y-45.9
X51.4Y-29.1
X51.7Y-39.5
T2
X37.445Y-35.536
X37.445Y-37.799
X42.819Y-35.536
X42.819Y-37.799
T0
M30
